<svg id="Capa_1" xmlns="http://www.w3.org/2000/svg" xmlns:xlink="http://www.w3.org/1999/xlink" viewBox="0 0 135.83 135.57" style="enable-background:new 0 0 135.83 135.57"><style>.st0{clip-path:url(#SVGID_00000103229559426912818410000014998659073949623459_)}.st1{fill-rule:evenodd;clip-rule:evenodd;fill:#add9d4;stroke:#fff;stroke-width:5;stroke-miterlimit:10}.st2{clip-path:url(#SVGID_00000052782600225874109170000009036351906935976864_)}.st3{fill-rule:evenodd;clip-rule:evenodd;fill:#bf0a30;stroke:#000;stroke-width:.5;stroke-miterlimit:10}.st4{fill-rule:evenodd;clip-rule:evenodd;fill:#fff;stroke:#000;stroke-width:.5;stroke-miterlimit:10}.st5{fill-rule:evenodd;clip-rule:evenodd;fill:#002868;stroke:#000;stroke-width:.5;stroke-miterlimit:10}</style><g><defs><circle id="SVGID_1_" cx="67.82" cy="68.02" r="65"/></defs><use xlink:href="#SVGID_1_" style="overflow:visible;fill-rule:evenodd;clip-rule:evenodd;fill:#add9d4"/><clipPath id="SVGID_00000117671643840572479580000010043796515895165106_"><use xlink:href="#SVGID_1_" style="overflow:visible"/></clipPath><g style="clip-path:url(#SVGID_00000117671643840572479580000010043796515895165106_)"><g><g><path class="st1" d="M-30.98 3.02h247v10h-247v-10z"/><path class="st1" d="M-30.98 23.02h247v10h-247v-10z"/><path class="st1" d="M-30.98 43.02h247v10h-247v-10z"/><path class="st1" d="M-30.98 63.02h247v10h-247v-10z"/><path class="st1" d="M-30.98 83.02h247v10h-247v-10z"/><path class="st1" d="M-30.98 103.02h247v10h-247v-10z"/><path class="st1" d="M-30.98 123.02h247v10h-247V123.02z"/></g><g><path class="st1" d="M-30.98 13.02h247v10h-247v-10z"/><path class="st1" d="M-30.98 33.02h247v10h-247v-10z"/><path class="st1" d="M-30.98 53.02h247v10h-247v-10z"/><path class="st1" d="M-30.98 73.02h247v10h-247v-10z"/><path class="st1" d="M-30.98 93.02h247v10h-247v-10z"/><path class="st1" d="M-30.98 113.02h247v10h-247v-10z"/></g></g><path class="st1" d="M-30.98 3.02h98.8v70h-98.8v-70z"/><path class="st1" d="M-22.75 6.02l.9 2.77h2.91l-2.35 1.71.9 2.77-2.35-1.71-2.35 1.71.9-2.77-2.35-1.71h2.91C-23.64 8.78-22.75 6.02-22.75 6.02z"/><path class="st1" d="M-6.28 6.02l.9 2.77h2.91l-2.35 1.71.9 2.77-2.35-1.71-2.35 1.71.9-2.77-2.35-1.71h2.91C-7.18 8.78-6.28 6.02-6.28 6.02z"/><path class="st1" d="M10.19 6.02l.9 2.77H14l-2.35 1.71.9 2.77-2.35-1.71-2.35 1.71.9-2.77L6.38 8.78h2.91l.9-2.76z"/><path class="st1" d="M26.65 6.02l.9 2.77h2.91l-2.35 1.71.9 2.77-2.35-1.71-2.35 1.71.9-2.77-2.35-1.71h2.91C25.76 8.78 26.65 6.02 26.65 6.02z"/><path class="st1" d="M43.12 6.02l.9 2.77h2.91l-2.35 1.71.9 2.77-2.35-1.71-2.35 1.71.9-2.77-2.35-1.71h2.91C42.22 8.78 43.12 6.02 43.12 6.02z"/><path class="st1" d="M59.59 6.02l.9 2.77h2.91l-2.35 1.71.9 2.77-2.35-1.71-2.35 1.71.9-2.77-2.35-1.71h2.91C58.69 8.78 59.59 6.02 59.59 6.02z"/><path class="st1" d="M-14.51 13.02l.9 2.77h2.91l-2.35 1.71.9 2.77-2.35-1.71-2.35 1.71.9-2.77-2.35-1.71h2.91C-15.41 15.78-14.51 13.02-14.51 13.02z"/><path class="st1" d="M1.95 13.02l.9 2.77h2.91L3.41 17.5l.9 2.77-2.35-1.71-2.35 1.71.9-2.77-2.35-1.71h2.91C1.06 15.78 1.95 13.02 1.95 13.02z"/><path class="st1" d="M18.42 13.02l.9 2.77h2.91l-2.35 1.71.9 2.77-2.35-1.71-2.35 1.71.9-2.77-2.35-1.71h2.91C17.52 15.78 18.42 13.02 18.42 13.02z"/><path class="st1" d="M34.89 13.02l.9 2.77h2.91l-2.35 1.71.9 2.77-2.35-1.71-2.35 1.71.9-2.77-2.35-1.71h2.91C33.99 15.78 34.89 13.02 34.89 13.02z"/><path class="st1" d="M51.35 13.02l.9 2.77h2.91l-2.35 1.71.9 2.77-2.35-1.71L49 20.26l.9-2.77-2.35-1.71h2.91C50.46 15.78 51.35 13.02 51.35 13.02z"/><g transform="translate(0,14)"><path class="st1" d="M-22.75 6.02l.9 2.77h2.91l-2.35 1.71.9 2.77-2.35-1.71-2.35 1.71.9-2.77-2.35-1.71h2.91C-23.64 8.78-22.75 6.02-22.75 6.02z"/><path class="st1" d="M-6.28 6.02l.9 2.77h2.91l-2.35 1.71.9 2.77-2.35-1.71-2.35 1.71.9-2.77-2.35-1.71h2.91C-7.18 8.78-6.28 6.02-6.28 6.02z"/><path class="st1" d="M10.19 6.02l.9 2.77H14l-2.35 1.71.9 2.77-2.35-1.71-2.35 1.71.9-2.77L6.38 8.78h2.91l.9-2.76z"/><path class="st1" d="M26.65 6.02l.9 2.77h2.91l-2.35 1.71.9 2.77-2.35-1.71-2.35 1.71.9-2.77-2.35-1.71h2.91C25.76 8.78 26.65 6.02 26.65 6.02z"/><path class="st1" d="M43.12 6.02l.9 2.77h2.91l-2.35 1.71.9 2.77-2.35-1.71-2.35 1.71.9-2.77-2.35-1.71h2.91C42.22 8.78 43.12 6.02 43.12 6.02z"/><path class="st1" d="M59.59 6.02l.9 2.77h2.91l-2.35 1.71.9 2.77-2.35-1.71-2.35 1.71.9-2.77-2.35-1.71h2.91C58.69 8.78 59.59 6.02 59.59 6.02z"/><path class="st1" d="M-14.51 13.02l.9 2.77h2.91l-2.35 1.71.9 2.77-2.35-1.71-2.35 1.71.9-2.77-2.35-1.71h2.91C-15.41 15.78-14.51 13.02-14.51 13.02z"/><path class="st1" d="M1.95 13.02l.9 2.77h2.91L3.41 17.5l.9 2.77-2.35-1.71-2.35 1.71.9-2.77-2.35-1.71h2.91C1.06 15.78 1.95 13.02 1.95 13.02z"/><path class="st1" d="M18.42 13.02l.9 2.77h2.91l-2.35 1.71.9 2.77-2.35-1.71-2.35 1.71.9-2.77-2.35-1.71h2.91C17.52 15.78 18.42 13.02 18.42 13.02z"/><path class="st1" d="M34.89 13.02l.9 2.77h2.91l-2.35 1.71.9 2.77-2.35-1.71-2.35 1.71.9-2.77-2.35-1.71h2.91C33.99 15.78 34.89 13.02 34.89 13.02z"/><path class="st1" d="M51.35 13.02l.9 2.77h2.91l-2.35 1.71.9 2.77-2.35-1.71L49 20.26l.9-2.77-2.35-1.71h2.91C50.46 15.78 51.35 13.02 51.35 13.02z"/></g><g transform="translate(0,28)"><path class="st1" d="M-22.75 6.02l.9 2.77h2.91l-2.35 1.71.9 2.77-2.35-1.71-2.35 1.71.9-2.77-2.35-1.71h2.91C-23.64 8.78-22.75 6.02-22.75 6.02z"/><path class="st1" d="M-6.28 6.02l.9 2.77h2.91l-2.35 1.71.9 2.77-2.35-1.71-2.35 1.71.9-2.77-2.35-1.71h2.91C-7.18 8.78-6.28 6.02-6.28 6.02z"/><path class="st1" d="M10.19 6.02l.9 2.77H14l-2.35 1.71.9 2.77-2.35-1.71-2.35 1.71.9-2.77L6.38 8.78h2.91l.9-2.76z"/><path class="st1" d="M26.65 6.02l.9 2.77h2.91l-2.35 1.71.9 2.77-2.35-1.71-2.35 1.71.9-2.77-2.35-1.71h2.91C25.76 8.78 26.65 6.02 26.65 6.02z"/><path class="st1" d="M43.12 6.02l.9 2.77h2.91l-2.35 1.71.9 2.77-2.35-1.71-2.35 1.71.9-2.77-2.35-1.71h2.91C42.22 8.78 43.12 6.02 43.12 6.02z"/><path class="st1" d="M59.59 6.02l.9 2.77h2.91l-2.35 1.71.9 2.77-2.35-1.71-2.35 1.71.9-2.77-2.35-1.71h2.91C58.69 8.78 59.59 6.02 59.59 6.02z"/><path class="st1" d="M-14.51 13.02l.9 2.77h2.91l-2.35 1.71.9 2.77-2.35-1.71-2.35 1.71.9-2.77-2.35-1.71h2.91C-15.41 15.78-14.51 13.02-14.51 13.02z"/><path class="st1" d="M1.95 13.02l.9 2.77h2.91L3.41 17.5l.9 2.77-2.35-1.71-2.35 1.71.9-2.77-2.35-1.71h2.91C1.06 15.78 1.95 13.02 1.95 13.02z"/><path class="st1" d="M18.42 13.02l.9 2.77h2.91l-2.35 1.71.9 2.77-2.35-1.71-2.35 1.71.9-2.77-2.35-1.71h2.91C17.52 15.78 18.42 13.02 18.42 13.02z"/><path class="st1" d="M34.89 13.02l.9 2.77h2.91l-2.35 1.71.9 2.77-2.35-1.71-2.35 1.71.9-2.77-2.35-1.71h2.91C33.99 15.78 34.89 13.02 34.89 13.02z"/><path class="st1" d="M51.35 13.02l.9 2.77h2.91l-2.35 1.71.9 2.77-2.35-1.71L49 20.26l.9-2.77-2.35-1.71h2.91C50.46 15.78 51.35 13.02 51.35 13.02z"/></g><g transform="translate(0,42)"><path class="st1" d="M-22.75 6.02l.9 2.77h2.91l-2.35 1.71.9 2.77-2.35-1.71-2.35 1.71.9-2.77-2.35-1.71h2.91C-23.64 8.78-22.75 6.02-22.75 6.02z"/><path class="st1" d="M-6.28 6.02l.9 2.77h2.91l-2.35 1.71.9 2.77-2.35-1.71-2.35 1.71.9-2.77-2.35-1.71h2.91C-7.18 8.78-6.28 6.02-6.28 6.02z"/><path class="st1" d="M10.19 6.02l.9 2.77H14l-2.35 1.71.9 2.77-2.35-1.71-2.35 1.71.9-2.77L6.38 8.78h2.91l.9-2.76z"/><path class="st1" d="M26.65 6.02l.9 2.77h2.91l-2.35 1.71.9 2.77-2.35-1.71-2.35 1.71.9-2.77-2.35-1.71h2.91C25.76 8.78 26.65 6.02 26.65 6.02z"/><path class="st1" d="M43.12 6.02l.9 2.77h2.91l-2.35 1.71.9 2.77-2.35-1.71-2.35 1.71.9-2.77-2.35-1.71h2.91C42.22 8.78 43.12 6.02 43.12 6.02z"/><path class="st1" d="M59.59 6.02l.9 2.77h2.91l-2.35 1.71.9 2.77-2.35-1.71-2.35 1.71.9-2.77-2.35-1.71h2.91C58.69 8.78 59.59 6.02 59.59 6.02z"/><path class="st1" d="M-14.51 13.02l.9 2.77h2.91l-2.35 1.71.9 2.77-2.35-1.71-2.35 1.71.9-2.77-2.35-1.71h2.91C-15.41 15.78-14.51 13.02-14.51 13.02z"/><path class="st1" d="M1.95 13.02l.9 2.77h2.91L3.41 17.5l.9 2.77-2.35-1.71-2.35 1.71.9-2.77-2.35-1.71h2.91C1.06 15.78 1.95 13.02 1.95 13.02z"/><path class="st1" d="M18.42 13.02l.9 2.77h2.91l-2.35 1.71.9 2.77-2.35-1.71-2.35 1.71.9-2.77-2.35-1.71h2.91C17.52 15.78 18.42 13.02 18.42 13.02z"/><path class="st1" d="M34.89 13.02l.9 2.77h2.91l-2.35 1.71.9 2.77-2.35-1.71-2.35 1.71.9-2.77-2.35-1.71h2.91C33.99 15.78 34.89 13.02 34.89 13.02z"/><path class="st1" d="M51.35 13.02l.9 2.77h2.91l-2.35 1.71.9 2.77-2.35-1.71L49 20.26l.9-2.77-2.35-1.71h2.91C50.46 15.78 51.35 13.02 51.35 13.02z"/></g><path class="st1" d="M-22.75 62.02l.9 2.77h2.91l-2.35 1.71.9 2.77-2.35-1.71-2.35 1.71.9-2.77-2.35-1.71h2.91C-23.64 64.78-22.75 62.02-22.75 62.02z"/><path class="st1" d="M-6.28 62.02l.9 2.77h2.91l-2.35 1.71.9 2.77-2.35-1.71-2.35 1.71.9-2.77-2.35-1.71h2.91C-7.18 64.78-6.28 62.02-6.28 62.02z"/><path class="st1" d="M10.19 62.02l.9 2.77H14l-2.35 1.71.9 2.77-2.35-1.71-2.35 1.71.9-2.77-2.35-1.71h2.91C9.29 64.78 10.19 62.02 10.19 62.02z"/><path class="st1" d="M26.65 62.02l.9 2.77h2.91l-2.35 1.71.9 2.77-2.35-1.71-2.35 1.71.9-2.77-2.35-1.71h2.91C25.76 64.78 26.65 62.02 26.65 62.02z"/><path class="st1" d="M43.12 62.02l.9 2.77h2.91l-2.35 1.71.9 2.77-2.35-1.71-2.35 1.71.9-2.77-2.35-1.71h2.91C42.22 64.78 43.12 62.02 43.12 62.02z"/><path class="st1" d="M59.59 62.02l.9 2.77h2.91l-2.35 1.71.9 2.77-2.35-1.71-2.35 1.71.9-2.77-2.35-1.71h2.91C58.69 64.78 59.59 62.02 59.59 62.02z"/></g><use xlink:href="#SVGID_1_" style="overflow:visible;fill-rule:evenodd;clip-rule:evenodd;fill:none;stroke:#fff;stroke-width:5;stroke-miterlimit:10"/></g><g><defs><circle id="SVGID_00000129903465239962452690000016067341201718269581_" cx="67.82" cy="68.02" r="65"/></defs><clipPath id="SVGID_00000119103305566333793860000000721794934632585383_"><use xlink:href="#SVGID_00000129903465239962452690000016067341201718269581_" style="overflow:visible"/></clipPath><g style="clip-path:url(#SVGID_00000119103305566333793860000000721794934632585383_)"><g><g><path class="st3" d="M-30.98 3.02h247v10h-247v-10z"/><path class="st3" d="M-30.98 23.02h247v10h-247v-10z"/><path class="st3" d="M-30.98 43.02h247v10h-247v-10z"/><path class="st3" d="M-30.98 63.02h247v10h-247v-10z"/><path class="st3" d="M-30.98 83.02h247v10h-247v-10z"/><path class="st3" d="M-30.98 103.02h247v10h-247v-10z"/><path class="st3" d="M-30.98 123.02h247v10h-247V123.02z"/></g><g><path class="st4" d="M-30.98 13.02h247v10h-247v-10z"/><path class="st4" d="M-30.98 33.02h247v10h-247v-10z"/><path class="st4" d="M-30.98 53.02h247v10h-247v-10z"/><path class="st4" d="M-30.98 73.02h247v10h-247v-10z"/><path class="st4" d="M-30.98 93.02h247v10h-247v-10z"/><path class="st4" d="M-30.98 113.02h247v10h-247v-10z"/></g></g><path class="st5" d="M-30.98 3.02h98.8v70h-98.8v-70z"/><path class="st4" d="M-22.75 6.02l.9 2.77h2.91l-2.35 1.71.9 2.77-2.35-1.71-2.35 1.71.9-2.77-2.35-1.71h2.91C-23.64 8.78-22.75 6.02-22.75 6.02z"/><path class="st4" d="M-6.28 6.02l.9 2.77h2.91l-2.35 1.71.9 2.77-2.35-1.71-2.35 1.71.9-2.77-2.35-1.71h2.91C-7.18 8.78-6.28 6.02-6.28 6.02z"/><path class="st4" d="M10.19 6.02l.9 2.77H14l-2.35 1.71.9 2.77-2.35-1.71-2.35 1.71.9-2.77L6.38 8.78h2.91l.9-2.76z"/><path class="st4" d="M26.65 6.02l.9 2.77h2.91l-2.35 1.71.9 2.77-2.35-1.71-2.35 1.71.9-2.77-2.35-1.71h2.91C25.76 8.78 26.65 6.02 26.65 6.02z"/><path class="st4" d="M43.12 6.02l.9 2.77h2.91l-2.35 1.71.9 2.77-2.35-1.71-2.35 1.71.9-2.77-2.35-1.71h2.91C42.22 8.78 43.12 6.02 43.12 6.02z"/><path class="st4" d="M59.59 6.02l.9 2.77h2.91l-2.35 1.71.9 2.77-2.35-1.71-2.35 1.71.9-2.77-2.35-1.71h2.91C58.69 8.78 59.59 6.02 59.59 6.02z"/><path class="st4" d="M-14.51 13.02l.9 2.77h2.91l-2.35 1.71.9 2.77-2.35-1.71-2.35 1.71.9-2.77-2.35-1.71h2.91C-15.41 15.78-14.51 13.02-14.51 13.02z"/><path class="st4" d="M1.95 13.02l.9 2.77h2.91L3.41 17.5l.9 2.77-2.35-1.71-2.35 1.71.9-2.77-2.35-1.71h2.91C1.06 15.78 1.95 13.02 1.95 13.02z"/><path class="st4" d="M18.42 13.02l.9 2.77h2.91l-2.35 1.71.9 2.77-2.35-1.71-2.35 1.71.9-2.77-2.35-1.71h2.91C17.52 15.78 18.42 13.02 18.42 13.02z"/><path class="st4" d="M34.89 13.02l.9 2.77h2.91l-2.35 1.71.9 2.77-2.35-1.71-2.35 1.71.9-2.77-2.35-1.71h2.91C33.99 15.78 34.89 13.02 34.89 13.02z"/><path class="st4" d="M51.35 13.02l.9 2.77h2.91l-2.35 1.71.9 2.77-2.35-1.71L49 20.26l.9-2.77-2.35-1.71h2.91C50.46 15.78 51.35 13.02 51.35 13.02z"/><g transform="translate(0,14)"><path class="st4" d="M-22.75 6.02l.9 2.77h2.91l-2.35 1.71.9 2.77-2.35-1.71-2.35 1.71.9-2.77-2.35-1.71h2.91C-23.64 8.78-22.75 6.02-22.75 6.02z"/><path class="st4" d="M-6.28 6.02l.9 2.77h2.91l-2.35 1.71.9 2.77-2.35-1.71-2.35 1.71.9-2.77-2.35-1.71h2.91C-7.18 8.78-6.28 6.02-6.28 6.02z"/><path class="st4" d="M10.19 6.02l.9 2.77H14l-2.35 1.71.9 2.77-2.35-1.71-2.35 1.71.9-2.77L6.38 8.78h2.91l.9-2.76z"/><path class="st4" d="M26.65 6.02l.9 2.77h2.91l-2.35 1.71.9 2.77-2.35-1.71-2.35 1.71.9-2.77-2.35-1.71h2.91C25.76 8.78 26.65 6.02 26.65 6.02z"/><path class="st4" d="M43.12 6.02l.9 2.77h2.91l-2.35 1.71.9 2.77-2.35-1.71-2.35 1.71.9-2.77-2.35-1.71h2.91C42.22 8.78 43.12 6.02 43.12 6.02z"/><path class="st4" d="M59.59 6.02l.9 2.77h2.91l-2.35 1.71.9 2.77-2.35-1.71-2.35 1.71.9-2.77-2.35-1.71h2.91C58.69 8.78 59.59 6.02 59.59 6.02z"/><path class="st4" d="M-14.51 13.02l.9 2.77h2.91l-2.35 1.71.9 2.77-2.35-1.71-2.35 1.71.9-2.77-2.35-1.71h2.91C-15.41 15.78-14.51 13.02-14.51 13.02z"/><path class="st4" d="M1.95 13.02l.9 2.77h2.91L3.41 17.5l.9 2.77-2.35-1.71-2.35 1.71.9-2.77-2.35-1.71h2.91C1.06 15.78 1.95 13.02 1.95 13.02z"/><path class="st4" d="M18.42 13.02l.9 2.77h2.91l-2.35 1.71.9 2.77-2.35-1.71-2.35 1.71.9-2.77-2.35-1.71h2.91C17.52 15.78 18.42 13.02 18.42 13.02z"/><path class="st4" d="M34.89 13.02l.9 2.77h2.91l-2.35 1.71.9 2.77-2.35-1.71-2.35 1.71.9-2.77-2.35-1.71h2.91C33.99 15.78 34.89 13.02 34.89 13.02z"/><path class="st4" d="M51.35 13.02l.9 2.77h2.91l-2.35 1.71.9 2.77-2.35-1.71L49 20.26l.9-2.77-2.35-1.71h2.91C50.46 15.78 51.35 13.02 51.35 13.02z"/></g><g transform="translate(0,28)"><path class="st4" d="M-22.75 6.02l.9 2.77h2.91l-2.35 1.71.9 2.77-2.35-1.71-2.35 1.71.9-2.77-2.35-1.71h2.91C-23.64 8.78-22.75 6.02-22.75 6.02z"/><path class="st4" d="M-6.28 6.02l.9 2.77h2.91l-2.35 1.71.9 2.77-2.35-1.71-2.35 1.71.9-2.77-2.35-1.71h2.91C-7.18 8.78-6.28 6.02-6.28 6.02z"/><path class="st4" d="M10.19 6.02l.9 2.77H14l-2.35 1.71.9 2.77-2.35-1.71-2.35 1.71.9-2.77L6.38 8.78h2.91l.9-2.76z"/><path class="st4" d="M26.65 6.02l.9 2.77h2.91l-2.35 1.71.9 2.77-2.35-1.71-2.35 1.71.9-2.77-2.35-1.71h2.91C25.76 8.78 26.65 6.02 26.65 6.02z"/><path class="st4" d="M43.12 6.02l.9 2.77h2.91l-2.35 1.71.9 2.77-2.35-1.71-2.35 1.71.9-2.77-2.35-1.71h2.91C42.22 8.78 43.12 6.02 43.12 6.02z"/><path class="st4" d="M59.59 6.02l.9 2.77h2.91l-2.35 1.71.9 2.77-2.35-1.71-2.35 1.71.9-2.77-2.35-1.71h2.91C58.69 8.78 59.59 6.02 59.59 6.02z"/><path class="st4" d="M-14.51 13.02l.9 2.77h2.91l-2.35 1.71.9 2.77-2.35-1.71-2.35 1.71.9-2.77-2.35-1.71h2.91C-15.41 15.78-14.51 13.02-14.51 13.02z"/><path class="st4" d="M1.95 13.02l.9 2.77h2.91L3.41 17.5l.9 2.77-2.35-1.71-2.35 1.71.9-2.77-2.35-1.71h2.91C1.06 15.78 1.95 13.02 1.95 13.02z"/><path class="st4" d="M18.42 13.02l.9 2.77h2.91l-2.35 1.71.9 2.77-2.35-1.71-2.35 1.71.9-2.77-2.35-1.71h2.91C17.52 15.78 18.42 13.02 18.42 13.02z"/><path class="st4" d="M34.89 13.02l.9 2.77h2.91l-2.35 1.71.9 2.77-2.35-1.71-2.35 1.71.9-2.77-2.35-1.71h2.91C33.99 15.78 34.89 13.02 34.89 13.02z"/><path class="st4" d="M51.35 13.02l.9 2.77h2.91l-2.35 1.71.9 2.77-2.35-1.71L49 20.26l.9-2.77-2.35-1.71h2.91C50.46 15.78 51.35 13.02 51.35 13.02z"/></g><g transform="translate(0,42)"><path class="st4" d="M-22.75 6.02l.9 2.77h2.91l-2.35 1.71.9 2.77-2.35-1.71-2.35 1.71.9-2.77-2.35-1.71h2.91C-23.64 8.78-22.75 6.02-22.75 6.02z"/><path class="st4" d="M-6.28 6.02l.9 2.77h2.91l-2.35 1.71.9 2.77-2.35-1.71-2.35 1.71.9-2.77-2.35-1.71h2.91C-7.18 8.78-6.28 6.02-6.28 6.02z"/><path class="st4" d="M10.19 6.02l.9 2.77H14l-2.35 1.71.9 2.77-2.35-1.71-2.35 1.71.9-2.77L6.38 8.78h2.91l.9-2.76z"/><path class="st4" d="M26.65 6.02l.9 2.77h2.91l-2.35 1.71.9 2.77-2.35-1.71-2.35 1.71.9-2.77-2.35-1.71h2.91C25.76 8.78 26.65 6.02 26.65 6.02z"/><path class="st4" d="M43.12 6.02l.9 2.77h2.91l-2.35 1.71.9 2.77-2.35-1.71-2.35 1.71.9-2.77-2.35-1.71h2.91C42.22 8.78 43.12 6.02 43.12 6.02z"/><path class="st4" d="M59.59 6.02l.9 2.77h2.91l-2.35 1.71.9 2.77-2.35-1.71-2.35 1.71.9-2.77-2.35-1.71h2.91C58.69 8.78 59.59 6.02 59.59 6.02z"/><path class="st4" d="M-14.51 13.02l.9 2.77h2.91l-2.35 1.71.9 2.77-2.35-1.71-2.35 1.71.9-2.77-2.35-1.71h2.91C-15.41 15.78-14.51 13.02-14.51 13.02z"/><path class="st4" d="M1.95 13.02l.9 2.77h2.91L3.41 17.5l.9 2.77-2.35-1.71-2.35 1.71.9-2.77-2.35-1.71h2.91C1.06 15.78 1.95 13.02 1.95 13.02z"/><path class="st4" d="M18.42 13.02l.9 2.77h2.91l-2.35 1.71.9 2.77-2.35-1.71-2.35 1.71.9-2.77-2.35-1.71h2.91C17.52 15.78 18.42 13.02 18.42 13.02z"/><path class="st4" d="M34.89 13.02l.9 2.77h2.91l-2.35 1.71.9 2.77-2.35-1.71-2.35 1.71.9-2.77-2.35-1.71h2.91C33.99 15.78 34.89 13.02 34.89 13.02z"/><path class="st4" d="M51.35 13.02l.9 2.77h2.91l-2.35 1.71.9 2.77-2.35-1.71L49 20.26l.9-2.77-2.35-1.71h2.91C50.46 15.78 51.35 13.02 51.35 13.02z"/></g><path class="st4" d="M-22.75 62.02l.9 2.77h2.91l-2.35 1.71.9 2.77-2.35-1.71-2.35 1.71.9-2.77-2.35-1.71h2.91C-23.64 64.78-22.75 62.02-22.75 62.02z"/><path class="st4" d="M-6.28 62.02l.9 2.77h2.91l-2.35 1.71.9 2.77-2.35-1.71-2.35 1.71.9-2.77-2.35-1.71h2.91C-7.18 64.78-6.28 62.02-6.28 62.02z"/><path class="st4" d="M10.19 62.02l.9 2.77H14l-2.35 1.71.9 2.77-2.35-1.71-2.35 1.71.9-2.77-2.35-1.71h2.91C9.29 64.78 10.19 62.02 10.19 62.02z"/><path class="st4" d="M26.65 62.02l.9 2.77h2.91l-2.35 1.71.9 2.77-2.35-1.71-2.35 1.71.9-2.77-2.35-1.71h2.91C25.76 64.78 26.65 62.02 26.65 62.02z"/><path class="st4" d="M43.12 62.02l.9 2.77h2.91l-2.35 1.71.9 2.77-2.35-1.71-2.35 1.71.9-2.77-2.35-1.71h2.91C42.22 64.78 43.12 62.02 43.12 62.02z"/><path class="st4" d="M59.59 62.02l.9 2.77h2.91l-2.35 1.71.9 2.77-2.35-1.71-2.35 1.71.9-2.77-2.35-1.71h2.91C58.69 64.78 59.59 62.02 59.59 62.02z"/></g><use xlink:href="#SVGID_00000129903465239962452690000016067341201718269581_" style="overflow:visible;fill-rule:evenodd;clip-rule:evenodd;fill:none;stroke:#000;stroke-width:.5;stroke-miterlimit:10"/></g></svg>