<?xml version="1.0" encoding="utf-8"?>
<!-- Generator: Adobe Illustrator 27.3.1, SVG Export Plug-In . SVG Version: 6.00 Build 0)  -->
<svg version="1.1" id="Capa_1" xmlns="http://www.w3.org/2000/svg" xmlns:xlink="http://www.w3.org/1999/xlink" x="0px" y="0px"
	 viewBox="0 0 1500 500" style="enable-background:new 0 0 1500 500;" xml:space="preserve">
<style type="text/css">
	.st0{clip-path:url(#SVGID_00000049926318725598020520000001867204008906816659_);}
	.st1{fill:url(#SVGID_00000008113678437588472310000002811672412321115814_);}
	
		.st2{clip-path:url(#SVGID_00000167389919213058330390000011023772211174880187_);fill:url(#SVGID_00000047048429135412332950000003584657148320425881_);}
	.st3{fill:#4CB16B;}
	.st4{fill:#6FBB74;}
	.st5{fill:#2E8652;}
	.st6{fill:#242933;}
</style>
<g>
	<defs>
		<rect id="SVGID_1_" x="0.25" y="0.87" width="1500" height="500"/>
	</defs>
	<clipPath id="SVGID_00000178182051353416191840000003402282464053241013_">
		<use xlink:href="#SVGID_1_"  style="overflow:visible;"/>
	</clipPath>
	<g style="clip-path:url(#SVGID_00000178182051353416191840000003402282464053241013_);">
		<g id="Capa_2_00000111175066754578635200000009921497898773821589_">
			<g>
				
					<linearGradient id="SVGID_00000094595429103716201360000007202374421245119157_" gradientUnits="userSpaceOnUse" x1="748.7875" y1="493.3388" x2="748.7875" y2="11.5224" gradientTransform="matrix(1 0 0 -1 0 502)">
					<stop  offset="0" style="stop-color:#585857"/>
					<stop  offset="0.1714" style="stop-color:#51635D;stop-opacity:0.9486"/>
					<stop  offset="0.4738" style="stop-color:#3A816D;stop-opacity:0.8579"/>
					<stop  offset="0.8691" style="stop-color:#22AE85;stop-opacity:0.7393"/>
					<stop  offset="1" style="stop-color:#3AB28A;stop-opacity:0.7"/>
				</linearGradient>
				
					<rect x="-11.68" y="-3.67" style="fill:url(#SVGID_00000094595429103716201360000007202374421245119157_);" width="1520.93" height="506.98"/>
				<g>
					<g>
						<defs>
							
								<rect id="SVGID_00000121247881026423933400000003146466127645283749_" x="-11.68" y="-3.67" width="1520.93" height="506.98"/>
						</defs>
						<clipPath id="SVGID_00000032618695955887892680000011489290769122636688_">
							<use xlink:href="#SVGID_00000121247881026423933400000003146466127645283749_"  style="overflow:visible;"/>
						</clipPath>
						
							<linearGradient id="SVGID_00000002385675964708134230000001484461911600842399_" gradientUnits="userSpaceOnUse" x1="-12.5709" y1="276.6786" x2="1513.6423" y2="276.6786" gradientTransform="matrix(1 0 0 -1 0 502)">
							<stop  offset="0" style="stop-color:#FFFFFF"/>
							<stop  offset="5.028069e-03" style="stop-color:#1E1E1C;stop-opacity:0.3"/>
							<stop  offset="1" style="stop-color:#F6F6F6;stop-opacity:0.3"/>
						</linearGradient>
						
							<path style="clip-path:url(#SVGID_00000032618695955887892680000011489290769122636688_);fill:url(#SVGID_00000002385675964708134230000001484461911600842399_);" d="
							M532.85,438.37v-41.39l-40.19-22.54v44.3l-37.43,20.99V396.2l-39.5,22.15l-38.12-21.38v-40.61c1.16-0.3,2.02-1.31,2.02-2.53
							c0-0.24-0.04-0.47-0.11-0.69l36.56-20.5l0.35-0.2v-45.08l-39.5,22.15l-38.81-21.77l-38.81,21.77l-38.12-21.38v-42.75
							l39.5-22.15l-39.5-22.15v-44.31l-39.85,22.35l-0.35,0.2v42.76l-35.52-19.91c0.06-0.22,0.11-0.45,0.11-0.69
							c0-1.22-0.86-2.24-2.02-2.53v-84.14l38.46-21.57l0.35-0.2V47.97l-39.85,22.35l-0.35,0.2v43.53l-38.12,21.38l-37.43-21
							l37.78-21.18l0.35-0.2V47.97L104.9,70.31l-0.35,0.2v86.29l-35.52-19.91c0.06-0.22,0.11-0.45,0.11-0.69
							c0-1.22-0.86-2.24-2.02-2.53V92.28L28.99,70.9l37.43-20.99l0.69,0.38v-0.78l0.69-0.38l-0.69-0.38V5.22l-36.9-20.69
							c0.06-0.22,0.11-0.45,0.11-0.69c0-1.45-1.22-2.63-2.71-2.63s-2.71,1.18-2.71,2.63c0,1.22,0.86,2.24,2.02,2.53v40.61
							l-39.5,22.15l38.81,21.77l-37.77,21.18l-0.35,0.2v43.53l-0.69,0.38l0.69,0.38v43.53l38.1,21.37l-37.79,21.19l-0.35,0.19v45.08
							l39.85-22.35l0.35-0.2v-42.77l0.03,0.02v-44.3l36.2-20.3c0.33,0.33,0.76,0.56,1.23,0.68v41.39l38.12,21.37l-37.77,21.18
							l-0.35,0.2v43.55l-36.16,20.28c-0.49-0.48-1.17-0.78-1.92-0.78c-1.49,0-2.71,1.18-2.71,2.63c0,1.22,0.86,2.24,2.02,2.53v84.1
							l-38.52,21.61l-0.35,0.2v45.08l0.06-0.04v42.79l38.81,21.77v0.78l0.69-0.38l0.69,0.38v-0.77l38.46-21.57l0.35-0.2v-45.08
							l-37.58,21.08c-0.49-0.48-1.17-0.78-1.92-0.78s-1.43,0.3-1.92,0.78l-35.54-19.93l36.77-20.62v0.04l39.5-22.15l39.5,22.15
							v-44.32l38.43-21.55l0.35-0.2v-41.39c1.16-0.3,2.02-1.31,2.02-2.53c0-1.45-1.22-2.63-2.71-2.63c-1.49,0-2.71,1.18-2.71,2.63
							c0,0.24,0.04,0.47,0.11,0.69l-36.56,20.5l-0.35,0.2v42.74l-37.4-20.97v-86.3l38.09-21.36l39.5,22.15v-44.3l36.2-20.3
							c0.33,0.33,0.76,0.56,1.23,0.68v41.39l36.9,20.69c-0.06,0.22-0.11,0.45-0.11,0.69s0.04,0.47,0.11,0.69l-36.56,20.5l-0.35,0.2
							v87.01l-35.97,20.17c-0.49-0.67-1.29-1.11-2.2-1.11c-1.49,0-2.71,1.18-2.71,2.63c0,1.22,0.86,2.24,2.02,2.53v42.65
							l38.81-21.77v42.75l40.19,22.54V440.5l-38.09-21.35l37.45-21.01l36.21,20.31c-0.06,0.22-0.11,0.45-0.11,0.69
							c0,1.45,1.22,2.63,2.71,2.63c1.49,0,2.71-1.18,2.71-2.63c0-1.22-0.86-2.24-2.02-2.53v-84.14l38.12-21.38l37.43,21
							l-37.77,21.18l-0.35,0.2v43.53l-0.69,0.38l0.69,0.38v42.76l-38.46,21.57l-0.35,0.2v45.08l39.85-22.35l0.35-0.2v-42.75
							l37.43,20.99v0.78l0.69-0.38l39.5,22.15v-42.15c0.47-0.13,0.9-0.36,1.23-0.68l36.2,20.3v44.29l38.81-21.77v0.01l39.85-22.35
							l0.35-0.2V420.3l35.52,19.91c-0.06,0.22-0.11,0.45-0.11,0.69c0,1.45,1.22,2.63,2.71,2.63c1.49,0,2.71-1.18,2.71-2.63
							C534.86,439.68,534,438.67,532.85,438.37z M105.93,71.28l37.43-20.99v41.98l-37.43,20.99V71.28z M26.9,244.63l-37.43,20.99
							v-41.98l37.43-20.99V244.63z M65.77,442.05v41.98l-37.43,20.99v-39.84c1.16-0.3,2.02-1.31,2.02-2.53
							c0-0.24-0.04-0.47-0.11-0.69L65.77,442.05z M26.95,465.19v39.84l-37.43-20.99v-41.98l35.52,19.91
							c-0.06,0.22-0.11,0.45-0.11,0.69C24.94,463.88,25.8,464.89,26.95,465.19z M453.84,440.5l-37.43,20.99v-41.98l37.43-20.99
							V440.5z M376.22,438.37c-0.47,0.13-0.89,0.36-1.23,0.68l-35.51-19.91l36.74-20.6V438.37z M338.8,375.22v-41.98l35.52,19.91
							c-0.06,0.22-0.11,0.45-0.11,0.69c0,1.22,0.86,2.24,2.02,2.53v39.84L338.8,375.22z M376.22,351.3
							c-0.47,0.13-0.89,0.36-1.23,0.68l-35.51-19.91l36.74-20.6V351.3z M338.1,376.38l37.43,20.99l-17,9.53l-20.42,11.46
							l-37.43-20.99l17-9.53L338.1,376.38z M338.8,420.29l35.52,19.92c-0.06,0.22-0.11,0.45-0.11,0.69s0.04,0.47,0.11,0.69
							l-35.52,19.92V420.29z M415.03,331.69l-36.2,20.3c-0.33-0.33-0.76-0.56-1.23-0.68V310.7l37.43-20.99V331.69z M222.36,264.25
							v-39.84l37.43,20.99v41.98l-35.52-19.91c0.06-0.22,0.11-0.45,0.11-0.69C224.38,265.56,223.52,264.54,222.36,264.25z
							 M222.36,269.32c0.47-0.13,0.9-0.36,1.23-0.68l35.51,19.91l-36.74,20.6L222.36,269.32L222.36,269.32z M260.48,244.24
							l-37.43-20.99l18.36-10.29l19.07-10.7l37.43,20.99L260.48,244.24z M222.36,180.11l37.43-21v41.98l-37.43,20.99V180.11z
							 M183.55,71.28l37.43-20.99v41.98l-37.43,20.99V71.28z M182.17,157.57l-12.24,6.87l-25.18,14.12v-41.98l37.43-20.99
							L182.17,157.57L182.17,157.57z M143.36,222.09l-18.72-10.5l-18.72-10.5v-41.98l18.72,10.5l18.72,10.5V222.09z M105.93,115.59
							l37.43,20.99v41.98l-18.72-10.5l-18.72-10.5V115.59z M65.74,133.66c-0.47,0.13-0.89,0.36-1.23,0.68l-36.2-20.3V72.06
							l37.43,20.99L65.74,133.66L65.74,133.66z M65.74,5.99v41.98l-37.43-21v-40.61c0.47-0.13,0.89-0.36,1.23-0.68L65.74,5.99z
							 M27.62,28.14l37.43,21l-36.74,20.6l0,0l-0.69,0.38l-0.69-0.38l0,0l-36.74-20.6L27.62,28.14z M-10.51,93.05l37.43-20.99v41.98
							l-37.43,20.99L-10.51,93.05L-10.51,93.05z M-10.51,137.35l37.43,21v41.98l-37.43-20.99L-10.51,137.35L-10.51,137.35z
							 M27.62,157.19l-37.43-21l17-9.53l20.42-11.46l36.21,20.31c-0.06,0.22-0.11,0.45-0.11,0.69s0.04,0.46,0.11,0.69L27.62,157.19z
							 M67.12,138.72c0.47-0.13,0.89-0.36,1.23-0.68l36.2,20.3v41.98l-37.43-20.99L67.12,138.72L67.12,138.72z M67.12,223.64
							l37.43-20.99v41.98l-37.43,20.99L67.12,223.64L67.12,223.64z M28.34,291.08c1.16-0.3,2.02-1.31,2.02-2.53
							c0-0.24-0.04-0.47-0.11-0.69l35.52-19.91v41.98l-37.43,20.99L28.34,291.08L28.34,291.08z M65.77,353.45l-37.43,20.99v-41.98
							l37.43-20.99V353.45z M26.9,418.74l-37.43,20.99v-41.98l37.43-21V418.74z M28.34,375.99l37.43-20.99v41.98l-37.43,20.99
							L28.34,375.99L28.34,375.99z M105.93,332.46l36.2-20.3c0.33,0.33,0.76,0.56,1.23,0.68v40.61l-37.43,20.99V332.46z
							 M104.58,376.74v41.22l-37.43-20.99v-41.98l37.4,20.97v0.79L104.58,376.74z M143.36,265.62l-37.43-20.99v-41.98l18.72,10.5
							l18.72,10.5V265.62z M144.74,222.09v-41.98l21.39-11.99l16.04-9v39.83c-1.16,0.3-2.02,1.31-2.02,2.53
							c0,0.24,0.04,0.47,0.11,0.69L144.74,222.09z M183.55,244.63v-40.61c0.47-0.13,0.89-0.36,1.23-0.68l36.2,20.3v40.61
							c-0.47,0.13-0.89,0.36-1.23,0.68L183.55,244.63z M183.55,288.94l36.2-20.3c0.33,0.33,0.76,0.56,1.23,0.68v40.61l-0.69,0.38
							l0,0l-36.74,20.6L183.55,288.94L183.55,288.94z M183.55,375.99l37.43-20.99v41.98l-37.43,20.99V375.99z M220.98,353.45
							l-37.43,20.99v-41.98l37.43-20.99V353.45z M144.68,439.73V399.4c1.16-0.3,2.02-1.31,2.02-2.53c0-0.08-0.02-0.16-0.03-0.24
							l35.44-19.88v41.98L144.68,439.73z M220.92,483.26l-37.43-20.99v-41.98l37.43,20.99V483.26z M259.79,416.6
							c-0.47,0.13-0.89,0.36-1.23,0.68l-36.2-20.3v-41.98l37.43,20.99V416.6z M222.36,353.45v-41.98l37.43,21v41.98L222.36,353.45z
							 M260.48,331.3l-37.43-21l37.43-20.99l0.69,0.38l0,0l36.74,20.6L260.48,331.3z M338.1,289.31l37.43,20.99l-36.74,20.6l0,0
							l-0.69,0.38l-0.69-0.38l0,0l-36.74-20.6L338.1,289.31z M299.99,354.23l37.43-20.99v41.98l-37.43,20.99V354.23z M298.6,484.05
							l-37.43,20.99v-41.98l37.43-20.99V484.05z M299.99,440.51v-41.98l37.43,20.99v41.98L299.99,440.51z M339.49,462.67L375,442.76
							c0.33,0.33,0.76,0.56,1.23,0.68v39.84L339.49,462.67z M377.61,438.37v-39.84l37.43,20.99v41.98l-35.52-19.91
							c0.06-0.22,0.11-0.45,0.11-0.68C379.62,439.68,378.76,438.67,377.61,438.37z M416.42,505.02v-41.97l37.43-21v41.98
							L416.42,505.02z M492.65,462.28l-37.43,20.99v-41.98l37.43-20.99V462.28z M494.04,418.75v-41.98l37.43,20.99v40.61
							c-0.47,0.13-0.89,0.36-1.23,0.68L494.04,418.75z M1513.64,398.7l-38.81-21.77l37.77-21.18l0.35-0.2v-43.53l0.69-0.38
							l-0.69-0.38v-43.53l-38.1-21.37l37.79-21.19l0.35-0.2v-45.08l-39.85,22.35l-0.35,0.2v42.77l-0.03-0.02v44.31l-36.2,20.3
							c-0.33-0.33-0.76-0.56-1.23-0.68v-84.91l-38.81-21.77V158.9l-36.9-20.69c0.06-0.22,0.11-0.45,0.11-0.69s-0.04-0.46-0.11-0.69
							l36.55-20.5l0.35-0.2V73.4l37.4,20.97v87.83l37.58-21.08c0.49,0.48,1.17,0.78,1.92,0.78c1.49,0,2.71-1.18,2.71-2.63
							c0-1.22-0.86-2.24-2.02-2.53V72.66l38.52-21.61l0.35-0.2V5.77l-38.87,21.8v-0.04l-39.5,22.15l-39.5-22.15v44.32l-38.43,21.55
							l-0.35,0.2v41.39c-1.16,0.3-2.02,1.31-2.02,2.53s0.86,2.24,2.02,2.53v41.39l38.81,21.77v42.75l-37.43,20.99v-42.76
							l-38.81-21.77v-0.78l-0.69,0.38l-0.69-0.38v0.77l-38.46,21.57l-0.35,0.2v45.1l37.58-21.08c0.49,0.48,1.17,0.78,1.92,0.78
							c0.75,0,1.43-0.3,1.92-0.78l36.2,20.3v87.84l39.5-22.15l38.12,21.38l0,0l38.12,21.38l-37.43,21l-0.69-0.38v0.78l-0.69,0.38
							l0.69,0.38v43.53l38.81,21.77v40.61c-1.16,0.3-2.02,1.31-2.02,2.53c0,1.45,1.22,2.63,2.71,2.63c1.49,0,2.71-1.18,2.71-2.63
							c0-0.24-0.04-0.47-0.11-0.69l36.56-20.5l0.35-0.2v-45.08l-38.81,21.77v-41.98L1513.64,398.7z M1474.17,203.2l37.43-20.99
							v41.98l-37.43,20.99V203.2z M1511.57,354.77l-37.42,21v-41.98l37.43-20.99L1511.57,354.77L1511.57,354.77z M1511.57,310.47
							l-37.42-20.99V247.5l37.43,21L1511.57,310.47L1511.57,310.47z M1473.45,290.64l37.43,20.99l-17,9.53l-20.42,11.46
							l-36.21-20.31c0.06-0.22,0.11-0.45,0.11-0.69s-0.04-0.47-0.11-0.69L1473.45,290.64z M1433.95,268.5v40.61
							c-0.47,0.13-0.9,0.36-1.23,0.68l-17.48-9.8l-18.72-10.5v-41.98l18.72,10.5L1433.95,268.5z M1435.3,94.38l37.43-20.99v41.98
							l-37.43,20.99L1435.3,94.38L1435.3,94.38z M1435.3,179.88V137.9l37.43-20.99v39.83c-1.16,0.3-2.02,1.31-2.02,2.53
							c0,0.24,0.04,0.47,0.11,0.69L1435.3,179.88z M1474.17,29.09L1511.6,8.1v41.98l-37.43,20.99V29.09z M1472.73,71.83
							l-37.43,20.99V50.84l37.43-20.99V71.83z M1396.49,29.86l37.43,20.99v41.98l-37.4-20.97v-0.79l-0.03,0.02L1396.49,29.86
							L1396.49,29.86z M1395.14,73.38v41.98l-36.2,20.3c-0.33-0.33-0.76-0.56-1.23-0.68V94.38L1395.14,73.38z M1357.7,180.66v-40.62
							c0.47-0.13,0.89-0.35,1.23-0.68l36.2,20.3v41.98L1357.7,180.66z M1433.95,224.96v41.98l-18.72-10.5l-18.72-10.5v-41.98
							L1433.95,224.96z M1280.08,266.94v-41.98l37.43-20.99v39.84c-1.16,0.3-2.02,1.31-2.02,2.53c0,0.24,0.04,0.47,0.11,0.68
							L1280.08,266.94z M1318.89,243.81v-39.84l37.43,20.99v41.98l-35.52-19.91c0.06-0.21,0.11-0.45,0.11-0.68
							C1320.91,245.12,1320.06,244.1,1318.89,243.81z M1357.7,268.5l37.43-20.99v41.98l-37.43,20.99V268.5z M1357.7,312.02
							l37.43-20.99v41.98L1357.7,354V312.02z M1396.51,333.02v-41.98l18.72,10.5l16.8,9.43c-0.06,0.22-0.11,0.45-0.11,0.68
							c0,1.22,0.86,2.24,2.02,2.53v39.84L1396.51,333.02z M1435.33,314.17c0.47-0.13,0.89-0.36,1.23-0.68l36.2,20.3v41.98
							l-37.43-20.99V314.17z M1472.76,378.09L1472.76,378.09l0.69-0.38l0.69,0.38l0,0l36.74,20.6l-37.43,20.99l-37.43-20.99
							L1472.76,378.09z M1435.33,399.86l37.43,20.99v41.98l-37.43-20.99V399.86z M1511.57,443.38v41.98l-36.2,20.3
							c-0.33-0.33-0.76-0.56-1.23-0.68v-40.61L1511.57,443.38z M1282.1,181.05c0-0.24-0.04-0.46-0.11-0.69l36.56-20.5l0.35-0.19
							V72.66l35.98-20.18c0.49,0.67,1.29,1.11,2.2,1.11c1.49,0,2.71-1.18,2.71-2.63c0-1.22-0.86-2.24-2.02-2.53V5.78l-38.81,21.77
							V-15.2l-40.19-22.54V7.34l38.09,21.35l-37.45,21.01l-36.21-20.31c0.06-0.22,0.11-0.45,0.11-0.69c0-1.45-1.22-2.63-2.71-2.63
							c-1.49,0-2.71,1.18-2.71,2.63c0,1.22,0.86,2.24,2.02,2.53v39.83l0,0v44.31l-38.12,21.38l-37.43-20.99l37.77-21.18l0.35-0.2
							V50.85l0.69-0.38l-0.69-0.38V7.33l38.46-21.57l0.35-0.2v-45.08l-39.85,22.35l-0.35,0.2V5.78l-37.43-20.99V-16l-0.69,0.38
							l-39.5-22.15V4.39c-0.47,0.13-0.9,0.36-1.23,0.68l-36.2-20.3v-44.29l-38.81,21.77v-0.01l-39.85,22.35l-0.35,0.2v42.75
							L969.6,6.54V5.77l-0.69,0.38l-0.69-0.38v0.78L930.1,27.93L890.6,5.77v44.3l-37.43,20.99V28.31L812.98,5.77l0,0l-38.81-21.77
							v44.31l-36.2,20.3c-0.49-0.48-1.17-0.78-1.92-0.78c-1.49,0-2.71,1.18-2.71,2.63s1.22,2.63,2.71,2.63
							c0.75,0,1.43-0.3,1.92-0.78l36.2,20.3v44.31l39.85-22.35l0.35-0.2V51.63l37.43,20.99v44.3l37.58-21.08
							c0.33,0.33,0.76,0.56,1.23,0.68v41.39l40.19,22.54v-43.53l38.81,21.77V93.6l-38.12-21.37l37.42-20.99l39.51,22.15v-44.3
							l37.43-20.99v85.52l-38.46,21.57l-0.35,0.19v45.08l37.58-21.08c0.49,0.48,1.17,0.78,1.92,0.78c1.49,0,2.71-1.18,2.71-2.63
							c0-1.22-0.86-2.24-2.02-2.53V94.38l38.46-21.58l0.35-0.2V29.85l37.43,20.99v40.61c-1.16,0.3-2.02,1.31-2.02,2.53
							c0,0.24,0.04,0.46,0.11,0.69l-36.56,20.5l-0.35,0.2v45.08l39.5-22.15l38.81,21.77l38.81-21.77l38.81,21.77l38.12-21.38v39.83
							c-1.16,0.3-2.02,1.31-2.02,2.53c0,1.45,1.22,2.63,2.71,2.63C1280.89,183.68,1282.1,182.5,1282.1,181.05z M1317.52,158.89
							l-36.2,20.3c-0.33-0.33-0.76-0.56-1.23-0.68V137.9l0.69-0.38l0,0l36.74-20.6V158.89z M1241.27,73.38l37.43,20.99v41.98
							l-37.43-20.99V73.38z M1280.08,94.38l37.43-20.99v41.98l-37.43,20.99V94.38z M1317.52,71.83l-37.43,20.99V50.84l37.43-20.99
							V71.83z M1356.39,8.1v40.32c-1.16,0.3-2.02,1.31-2.02,2.53c0,0.08,0.02,0.16,0.03,0.25l-35.44,19.88V29.1L1356.39,8.1z
							 M1280.15-35.43l37.43,20.99v41.98l-37.43-20.99V-35.43z M1241.27,31.22c0.47-0.13,0.89-0.36,1.23-0.68l36.2,20.3v41.98
							l-37.43-20.99V31.22z M1162.96,71.45l-37.43-20.99l17-9.53l20.42-11.46l37.43,20.99l-17,9.53L1162.96,71.45z M1124.84,9.46
							c0.47-0.13,0.89-0.36,1.23-0.68l35.51,19.91l-36.74,20.6V9.46z M1162.27,27.53l-35.52-19.91c0.06-0.22,0.11-0.45,0.11-0.69
							c0-0.24-0.04-0.46-0.11-0.69l35.52-19.91V27.53z M1162.27,72.61v41.98l-35.52-19.92c0.06-0.22,0.11-0.45,0.11-0.68
							c0-1.22-0.86-2.24-2.02-2.53V51.62L1162.27,72.61z M1124.84,96.52c0.47-0.13,0.89-0.36,1.23-0.68l35.51,19.91l-36.74,20.6
							V96.52z M1201.08,93.6l-37.43,21V72.61l37.43-20.99V93.6z M1202.46-36.22l37.43-20.99v41.98l-37.43,20.99V-36.22z
							 M1201.08,7.31V49.3l-37.43-20.99v-41.98L1201.08,7.31z M1161.59-14.85l-35.51,19.91c-0.33-0.33-0.76-0.56-1.23-0.68v-39.84
							L1161.59-14.85z M1084.65-57.2v41.98l-37.43,20.99v-41.98L1084.65-57.2z M968.22,8.08v41.98l-37.43,20.99V29.07L968.22,8.08z
							 M891.98,8.08l37.43,20.99v41.98l-18.72-10.5l-18.72-10.5L891.98,8.08L891.98,8.08z M929.41,114.59l-18.72-10.5l-16.8-9.43
							c0.06-0.22,0.11-0.45,0.11-0.69c0-1.22-0.86-2.24-2.02-2.53V51.6l18.72,10.5l18.72,10.5V114.59z M851.79,71.05l-37.43-20.99
							V8.08l37.43,20.99V71.05z M775.55-13.68l37.43,21V49.3l-37.43-20.99V-13.68z M738.65,49.76l36.21-20.31l37.43,20.99l-17,9.53
							l-20.42,11.46l-36.21-20.31c0.06-0.22,0.11-0.45,0.11-0.69C738.77,50.19,738.71,49.99,738.65,49.76z M812.98,93.6l-37.43,21
							V72.61l37.43-20.99V93.6z M853.17,114.59V72.61l37.43-20.99v39.84c-1.16,0.3-2.02,1.31-2.02,2.53c0,0.24,0.04,0.46,0.11,0.69
							L853.17,114.59z M929.41,158.11l-37.43-20.99V96.51c0.47-0.13,0.89-0.36,1.23-0.68l17.48,9.8l18.72,10.5L929.41,158.11
							L929.41,158.11z M968.22,136.35l-37.43-20.99V73.39l37.43,20.99V136.35z M1007.03,71.06L969.6,50.08V8.09l37.43,20.99V71.06z
							 M1008.41,27.53v-41.98l37.43-20.99V6.54L1008.41,27.53z M1084.65-13.67v41.98l-37.43,20.99V7.33L1084.65-13.67z
							 M1008.41,158.13v-41.98l37.43-20.99v39.84c-1.16,0.3-2.02,1.31-2.02,2.53c0,0.24,0.04,0.46,0.11,0.69L1008.41,158.13z
							 M1084.65,71.83l-37.43,21V50.84l37.43-20.99V71.83z M1086.03-13.68l35.52,19.91c-0.06,0.22-0.11,0.45-0.11,0.68
							c0,1.22,0.86,2.24,2.02,2.53v39.84l-37.43-20.99V-13.68z M1086.03,116.14l36.2-20.3c0.33,0.33,0.76,0.56,1.23,0.68v40.61
							l-37.43,20.99V116.14z M1162.96,158.51l-37.43-20.99l36.74-20.6l0,0l0.69-0.38l0.69,0.38l0,0l36.74,20.6L1162.96,158.51z
							 M1203.15,137.52l37.43-20.99l37.43,20.99l-37.43,20.99L1203.15,137.52z"/>
					</g>
				</g>
			</g>
		</g>
		<g id="Capa_1_00000039113655880378788240000018037856557778213041_">
			<g>
				<path class="st3" d="M290.59,272.07l55.43-65.36l111.82,65.36H290.59z"/>
				<path class="st4" d="M290.59,272.07h167.24l-134.41,40.89L290.59,272.07z"/>
				<path class="st5" d="M290.59,139.9l55.43,66.8l-32.06,37.8l-23.37-28.88V139.9z"/>
				<path class="st4" d="M254.77,222.25H87.53l134.41-40.89L254.77,222.25z"/>
				<path class="st3" d="M254.77,222.26l-55.43,65.36L87.53,222.26L254.77,222.26L254.77,222.26z"/>
				<path class="st5" d="M254.77,354.42l-55.43-66.8l32.06-37.8l23.37,28.88V354.42z"/>
				<path class="st6" d="M589.01,301.49h20.16l-51.84-97.37l-51.86,97.37h20.17l11.14-20.92h41.08L589.01,301.49z M546.27,262.75
					l11.05-20.77l11.06,20.77H546.27z"/>
				<path class="st6" d="M650.65,301.49h-18.86v-88.41l59.27,48.35V212.7h18.86v88.42l-59.27-48.36V301.49z"/>
				<path class="st6" d="M828.84,212.67l-34.92,46.99l0.02,41.42h-18.86v-41.42l-34.54-46.98h18.86l25.11,31.45l25.49-31.45
					L828.84,212.67z"/>
				<path class="st6" d="M1281.27,212.72h-42.77c-24.51-0.02-44.4,19.83-44.43,44.35c-0.02,24.51,19.83,44.4,44.35,44.43l0,0h44.52
					v-53.7h-46.13v18.6h27.51v16.49h-25.82c-14.24,0.12-25.87-11.34-25.99-25.58c-0.12-14.24,11.34-25.87,25.58-25.99
					c0.13,0,0.28,0,0.41,0h44.44v-18.6L1281.27,212.72L1281.27,212.72z"/>
				<path class="st6" d="M999.68,230.31h49.19V212.5h-49.19c-14.15,0.03-25.61,11.49-25.64,25.64v37.68
					c0.02,14.15,11.48,25.62,25.64,25.64h49.19v-17.8h-49.19c-4.34-0.01-7.84-3.51-7.85-7.85v-9.94h48.08v-17.8h-48.07v-9.94
					c0-4.34,3.51-7.85,7.85-7.85"/>
				<path class="st6" d="M1340.26,230.31h49.19V212.5h-49.19c-14.15,0.02-25.61,11.48-25.64,25.64v37.68
					c0.02,14.15,11.48,25.62,25.64,25.64h49.19v-17.8h-49.19c-4.34,0-7.84-3.51-7.85-7.85v-9.94h48.08v-17.8h-48.07v-9.94
					c0-4.34,3.51-7.85,7.85-7.85"/>
				<path class="st6" d="M942.32,212.71v88.78h-18.87v-35.01h-51.09v35.01h-18.85v-88.78h18.85v34.97h51.11v-34.97H942.32z"/>
				<path class="st6" d="M1084.52,214.43h39.55c8.67-0.18,17.24,1.67,25.06,5.41c6.98,3.36,12.84,8.65,16.91,15.24
					c8.04,14.2,8.04,31.58,0,45.77c-4.06,6.59-9.94,11.88-16.91,15.24c-7.82,3.73-16.4,5.59-25.06,5.41h-39.55V214.43z
					 M1123.07,284.95c7.63,0.38,15.1-2.22,20.84-7.27c10.36-11.1,10.36-28.33,0-39.43c-5.73-5.05-13.21-7.66-20.84-7.28h-18.4v53.98
					L1123.07,284.95z"/>
			</g>
		</g>
	</g>
</g>
</svg>
