<svg id="Capa_1" xmlns="http://www.w3.org/2000/svg" xmlns:xlink="http://www.w3.org/1999/xlink" viewBox="0 0 1500 500" style="enable-background:new 0 0 1500 500"><style>.st0{clip-path:url(#SVGID_00000049926318725598020520000001867204008906816659_)}.st1{fill:url(#SVGID_00000008113678437588472310000002811672412321115814_)}.st2{clip-path:url(#SVGID_00000167389919213058330390000011023772211174880187_);fill:url(#SVGID_00000047048429135412332950000003584657148320425881_)}.st3{fill:#4cb16b}.st4{fill:#6fbb74}.st5{fill:#2e8652}.st6{fill:#242933}</style><g><defs><rect id="SVGID_1_" x=".25" y=".87" width="1500" height="500"/></defs><clipPath id="SVGID_00000178182051353416191840000003402282464053241013_"><use xlink:href="#SVGID_1_" style="overflow:visible"/></clipPath><g style="clip-path:url(#SVGID_00000178182051353416191840000003402282464053241013_)"><g id="Capa_2_00000111175066754578635200000009921497898773821589_"><g><linearGradient id="SVGID_00000094595429103716201360000007202374421245119157_" gradientUnits="userSpaceOnUse" x1="748.7875" y1="493.3388" x2="748.7875" y2="11.5224" gradientTransform="matrix(1 0 0 -1 0 502)"><stop offset="0" style="stop-color:#585857"/><stop offset=".1714" style="stop-color:#51635D;stop-opacity:.9486"/><stop offset=".4738" style="stop-color:#3A816D;stop-opacity:.8579"/><stop offset=".8691" style="stop-color:#22AE85;stop-opacity:.7393"/><stop offset="1" style="stop-color:#3AB28A;stop-opacity:.7"/></linearGradient><rect x="-11.68" y="-3.67" style="fill:url(#SVGID_00000094595429103716201360000007202374421245119157_)" width="1520.93" height="506.98"/><g><g><defs><rect id="SVGID_00000121247881026423933400000003146466127645283749_" x="-11.68" y="-3.67" width="1520.93" height="506.98"/></defs><clipPath id="SVGID_00000032618695955887892680000011489290769122636688_"><use xlink:href="#SVGID_00000121247881026423933400000003146466127645283749_" style="overflow:visible"/></clipPath><linearGradient id="SVGID_00000002385675964708134230000001484461911600842399_" gradientUnits="userSpaceOnUse" x1="-12.5709" y1="276.6786" x2="1513.6423" y2="276.6786" gradientTransform="matrix(1 0 0 -1 0 502)"><stop offset="0" style="stop-color:#FFFFFF"/><stop offset=".005028069" style="stop-color:#1E1E1C;stop-opacity:.3"/><stop offset="1" style="stop-color:#F6F6F6;stop-opacity:.3"/></linearGradient><path style="clip-path:url(#SVGID_00000032618695955887892680000011489290769122636688_);fill:url(#SVGID_00000002385675964708134230000001484461911600842399_)" d="M532.85 438.37v-41.39l-40.19-22.54v44.3l-37.43 20.99V396.2l-39.5 22.15-38.12-21.38v-40.61c1.16-.3 2.02-1.31 2.02-2.53.0-.24-.04-.47-.11-.69l36.56-20.5.35-.2v-45.08l-39.5 22.15-38.81-21.77-38.81 21.77-38.12-21.38v-42.75l39.5-22.15-39.5-22.15v-44.31l-39.85 22.35-.35.2v42.76l-35.52-19.91c.06-.22.11-.45.11-.69.0-1.22-.86-2.24-2.02-2.53v-84.14l38.46-21.57.35-.2V47.97l-39.85 22.35-.35.2v43.53l-38.12 21.38-37.43-21 37.78-21.18.35-.2V47.97L104.9 70.31l-.35.2v86.29l-35.52-19.91c.06-.22.11-.45.11-.69.0-1.22-.86-2.24-2.02-2.53V92.28L28.99 70.9l37.43-20.99.69.38v-.78l.69-.38-.69-.38V5.22l-36.9-20.69c.06-.22.11-.45.11-.69.0-1.45-1.22-2.63-2.71-2.63s-2.71 1.18-2.71 2.63c0 1.22.86 2.24 2.02 2.53v40.61l-39.5 22.15L26.23 70.9-11.54 92.08l-.35.2v43.53l-.69.38.69.38v43.53l38.1 21.37-37.79 21.19-.35.19v45.08l39.85-22.35.35-.2v-42.77l.03.02v-44.3l36.2-20.3c.33.33.76.56 1.23.68v41.39l38.12 21.37-37.77 21.18-.35.2v43.55l-36.16 20.28c-.49-.48-1.17-.78-1.92-.78-1.49.0-2.71 1.18-2.71 2.63.0 1.22.86 2.24 2.02 2.53v84.1l-38.52 21.61-.35.2v45.08l.06-.04v42.79l38.81 21.77v.78l.69-.38.69.38v-.77l38.46-21.57.35-.2v-45.08l-37.58 21.08c-.49-.48-1.17-.78-1.92-.78s-1.43.3-1.92.78l-35.54-19.93 36.77-20.62v.04l39.5-22.15 39.5 22.15v-44.32l38.43-21.55.35-.2v-41.39c1.16-.3 2.02-1.31 2.02-2.53.0-1.45-1.22-2.63-2.71-2.63s-2.71 1.18-2.71 2.63c0 .24.04.47.11.69l-36.56 20.5-.35.2v42.74l-37.4-20.97v-86.3l38.09-21.36 39.5 22.15v-44.3l36.2-20.3c.33.33.76.56 1.23.68v41.39l36.9 20.69c-.06.22-.11.45-.11.69s.04.47.11.69L182.5 288l-.35.2v87.01l-35.97 20.17c-.49-.67-1.29-1.11-2.2-1.11-1.49.0-2.71 1.18-2.71 2.63.0 1.22.86 2.24 2.02 2.53v42.65l38.81-21.77v42.75l40.19 22.54V440.5l-38.09-21.35 37.45-21.01 36.21 20.31c-.06.22-.11.45-.11.69.0 1.45 1.22 2.63 2.71 2.63 1.49.0 2.71-1.18 2.71-2.63.0-1.22-.86-2.24-2.02-2.53v-84.14l38.12-21.38 37.43 21-37.77 21.18-.35.2V397l-.69.38.69.38v42.76l-38.46 21.57-.35.2v45.08l39.85-22.35.35-.2v-42.75l37.43 20.99v.78l.69-.38 39.5 22.15v-42.15c.47-.13.9-.36 1.23-.68l36.2 20.3v44.29l38.81-21.77v.01l39.85-22.35.35-.2V420.3l35.52 19.91c-.06.22-.11.45-.11.69.0 1.45 1.22 2.63 2.71 2.63s2.71-1.18 2.71-2.63C534.86 439.68 534 438.67 532.85 438.37zM105.93 71.28l37.43-20.99v41.98l-37.43 20.99V71.28zM26.9 244.63l-37.43 20.99v-41.98l37.43-20.99v41.98zM65.77 442.05v41.98l-37.43 20.99v-39.84c1.16-.3 2.02-1.31 2.02-2.53.0-.24-.04-.47-.11-.69L65.77 442.05zM26.95 465.19v39.84l-37.43-20.99v-41.98l35.52 19.91c-.06.22-.11.45-.11.69C24.94 463.88 25.8 464.89 26.95 465.19zM453.84 440.5l-37.43 20.99v-41.98l37.43-20.99V440.5zm-77.62-2.13c-.47.13-.89.36-1.23.68l-35.51-19.91 36.74-20.6v39.83zM338.8 375.22v-41.98l35.52 19.91c-.06.22-.11.45-.11.69.0 1.22.86 2.24 2.02 2.53v39.84L338.8 375.22zm37.42-23.92c-.47.13-.89.36-1.23.68l-35.51-19.91 36.74-20.6V351.3zM338.1 376.38l37.43 20.99-17 9.53-20.42 11.46-37.43-20.99 17-9.53 20.42-11.46zM338.8 420.29l35.52 19.92c-.06.22-.11.45-.11.69s.04.47.11.69l-35.52 19.92V420.29zm76.23-88.6-36.2 20.3c-.33-.33-.76-.56-1.23-.68V310.7l37.43-20.99v41.98zM222.36 264.25v-39.84l37.43 20.99v41.98l-35.52-19.91c.06-.22.11-.45.11-.69C224.38 265.56 223.52 264.54 222.36 264.25zM222.36 269.32c.47-.13.9-.36 1.23-.68l35.51 19.91-36.74 20.6V269.32zm38.12-25.08-37.43-20.99 18.36-10.29 19.07-10.7 37.43 20.99-37.43 20.99zm-38.12-64.13 37.43-21v41.98l-37.43 20.99V180.11zM183.55 71.28l37.43-20.99v41.98l-37.43 20.99V71.28zM182.17 157.57l-12.24 6.87-25.18 14.12v-41.98l37.43-20.99L182.17 157.57zm-38.81 64.52-18.72-10.5-18.72-10.5v-41.98l18.72 10.5 18.72 10.5v41.98zm-37.43-106.5 37.43 20.99v41.98l-18.72-10.5-18.72-10.5V115.59zM65.74 133.66c-.47.13-.89.36-1.23.68l-36.2-20.3V72.06l37.43 20.99L65.74 133.66zm0-127.67v41.98l-37.43-21v-40.61c.47-.13.89-.36 1.23-.68L65.74 5.99zM27.62 28.14l37.43 21-36.74 20.6-.69.38-.69-.38-36.74-20.6 37.43-21zM-10.51 93.05l37.43-20.99v41.98l-37.43 20.99L-10.51 93.05zm0 44.3 37.43 21v41.98l-37.43-20.99L-10.51 137.35zm38.13 19.84-37.43-21 17-9.53 20.42-11.46 36.21 20.31c-.06.22-.11.45-.11.69s.04.46.11.69l-36.2 20.3zm39.5-18.47c.47-.13.89-.36 1.23-.68l36.2 20.3v41.98l-37.43-20.99V138.72zm0 84.92 37.43-20.99v41.98l-37.43 20.99V223.64zM28.34 291.08c1.16-.3 2.02-1.31 2.02-2.53.0-.24-.04-.47-.11-.69l35.52-19.91v41.98l-37.43 20.99L28.34 291.08zm37.43 62.37-37.43 20.99v-41.98l37.43-20.99v41.98zM26.9 418.74l-37.43 20.99v-41.98l37.43-21v41.99zm1.44-42.75L65.77 355v41.98l-37.43 20.99L28.34 375.99zm77.59-43.53 36.2-20.3c.33.33.76.56 1.23.68v40.61l-37.43 20.99V332.46zM104.58 376.74v41.22l-37.43-20.99v-41.98l37.4 20.97v.79L104.58 376.74zm38.78-111.12-37.43-20.99v-41.98l18.72 10.5 18.72 10.5v41.97zm1.38-43.53v-41.98l21.39-11.99 16.04-9v39.83c-1.16.3-2.02 1.31-2.02 2.53.0.24.04.47.11.69l-35.52 19.92zm38.81 22.54v-40.61c.47-.13.89-.36 1.23-.68l36.2 20.3v40.61c-.47.13-.89.36-1.23.68l-36.2-20.3zm0 44.31 36.2-20.3c.33.33.76.56 1.23.68v40.61l-.69.38-36.74 20.6L183.55 288.94zm0 87.05L220.98 355v41.98l-37.43 20.99V375.99zm37.43-22.54-37.43 20.99v-41.98l37.43-20.99v41.98zm-76.3 86.28V399.4c1.16-.3 2.02-1.31 2.02-2.53.0-.08-.02-.16-.03-.24l35.44-19.88v41.98l-37.43 21zm76.24 43.53-37.43-20.99v-41.98l37.43 20.99v41.98zm38.87-66.66c-.47.13-.89.36-1.23.68l-36.2-20.3V355l37.43 20.99V416.6zm-37.43-63.15v-41.98l37.43 21v41.98l-37.43-21zm38.12-22.15-37.43-21 37.43-20.99.69.38 36.74 20.6-37.43 21.01zm77.62-41.99 37.43 20.99-36.74 20.6-.69.38-.69-.38-36.74-20.6 37.43-20.99zm-38.11 64.92 37.43-20.99v41.98l-37.43 20.99V354.23zM298.6 484.05l-37.43 20.99v-41.98l37.43-20.99v41.98zM299.99 440.51v-41.98l37.43 20.99v41.98l-37.43-20.99zm39.5 22.16L375 442.76c.33.33.76.56 1.23.68v39.84l-36.74-20.61zm38.12-24.3v-39.84l37.43 20.99v41.98l-35.52-19.91c.06-.22.11-.45.11-.68C379.62 439.68 378.76 438.67 377.61 438.37zm38.81 66.65v-41.97l37.43-21v41.98l-37.43 20.99zm76.23-42.74-37.43 20.99v-41.98l37.43-20.99v41.98zM494.04 418.75v-41.98l37.43 20.99v40.61c-.47.13-.89.36-1.23.68l-36.2-20.3zm1019.6-20.05-38.81-21.77 37.77-21.18.35-.2v-43.53l.69-.38-.69-.38v-43.53l-38.1-21.37 37.79-21.19.35-.2v-45.08l-39.85 22.35-.35.2v42.77l-.03-.02v44.31l-36.2 20.3c-.33-.33-.76-.56-1.23-.68v-84.91l-38.81-21.77V158.9l-36.9-20.69c.06-.22.11-.45.11-.69s-.04-.46-.11-.69l36.55-20.5.35-.2V73.4l37.4 20.97v87.83l37.58-21.08c.49.48 1.17.78 1.92.78 1.49.0 2.71-1.18 2.71-2.63.0-1.22-.86-2.24-2.02-2.53V72.66l38.52-21.61.35-.2V5.77l-38.87 21.8v-.04l-39.5 22.15-39.5-22.15v44.32l-38.43 21.55-.35.2v41.39c-1.16.3-2.02 1.31-2.02 2.53s.86 2.24 2.02 2.53v41.39l38.81 21.77v42.75l-37.43 20.99v-42.76l-38.81-21.77v-.78l-.69.38-.69-.38v.77l-38.46 21.57-.35.2v45.1l37.58-21.08c.49.48 1.17.78 1.92.78s1.43-.3 1.92-.78l36.2 20.3v87.84l39.5-22.15 38.12 21.38 38.12 21.38-37.43 21-.69-.38v.78l-.69.38.69.38v43.53l38.81 21.77v40.61c-1.16.3-2.02 1.31-2.02 2.53.0 1.45 1.22 2.63 2.71 2.63s2.71-1.18 2.71-2.63c0-.24-.04-.47-.11-.69l36.56-20.5.35-.2v-45.08l-38.81 21.77v-41.98L1513.64 398.7zm-39.47-195.5 37.43-20.99v41.98l-37.43 20.99V203.2zM1511.57 354.77l-37.42 21v-41.98l37.43-20.99L1511.57 354.77zm0-44.3-37.42-20.99V247.5l37.43 21L1511.57 310.47zM1473.45 290.64l37.43 20.99-17 9.53-20.42 11.46-36.21-20.31c.06-.22.11-.45.11-.69s-.04-.47-.11-.69l36.2-20.29zm-39.5-22.14v40.61c-.47.13-.9.36-1.23.68l-17.48-9.8-18.72-10.5v-41.98l18.72 10.5 18.71 10.49zM1435.3 94.38l37.43-20.99v41.98l-37.43 20.99V94.38zm0 85.5V137.9l37.43-20.99v39.83c-1.16.3-2.02 1.31-2.02 2.53.0.24.04.47.11.69l-35.52 19.92zM1474.17 29.09 1511.6 8.1v41.98l-37.43 20.99V29.09zM1472.73 71.83l-37.43 20.99V50.84l37.43-20.99V71.83zm-76.24-41.97 37.43 20.99v41.98l-37.4-20.97v-.79l-.03.02V29.86zM1395.14 73.38v41.98l-36.2 20.3c-.33-.33-.76-.56-1.23-.68V94.38L1395.14 73.38zM1357.7 180.66v-40.62c.47-.13.89-.35 1.23-.68l36.2 20.3v41.98L1357.7 180.66zm76.25 44.3v41.98l-18.72-10.5-18.72-10.5v-41.98L1433.95 224.96zm-153.87 41.98v-41.98l37.43-20.99v39.84c-1.16.3-2.02 1.31-2.02 2.53.0.24.04.47.11.68l-35.52 19.92zM1318.89 243.81v-39.84l37.43 20.99v41.98l-35.52-19.91c.06-.21.11-.45.11-.68C1320.91 245.12 1320.06 244.1 1318.89 243.81zM1357.7 268.5l37.43-20.99v41.98l-37.43 20.99V268.5zm0 43.52 37.43-20.99v41.98L1357.7 354V312.02zM1396.51 333.02v-41.98l18.72 10.5 16.8 9.43c-.06.22-.11.45-.11.68.0 1.22.86 2.24 2.02 2.53v39.84L1396.51 333.02zM1435.33 314.17c.47-.13.89-.36 1.23-.68l36.2 20.3v41.98l-37.43-20.99V314.17zM1472.76 378.09l.69-.38.69.38 36.74 20.6-37.43 20.99-37.43-20.99 36.74-20.6zM1435.33 399.86l37.43 20.99v41.98l-37.43-20.99V399.86zm76.24 43.52v41.98l-36.2 20.3c-.33-.33-.76-.56-1.23-.68v-40.61L1511.57 443.38zM1282.1 181.05c0-.24-.04-.46-.11-.69l36.56-20.5.35-.19V72.66l35.98-20.18c.49.67 1.29 1.11 2.2 1.11 1.49.0 2.71-1.18 2.71-2.63.0-1.22-.86-2.24-2.02-2.53V5.78l-38.81 21.77V-15.2l-40.19-22.54V7.34l38.09 21.35-37.45 21.01-36.21-20.31c.06-.22.11-.45.11-.69.0-1.45-1.22-2.63-2.71-2.63s-2.71 1.18-2.71 2.63c0 1.22.86 2.24 2.02 2.53v39.83 44.31l-38.12 21.38-37.43-20.99 37.77-21.18.35-.2V50.85l.69-.38-.69-.38V7.33l38.46-21.57.35-.2v-45.08l-39.85 22.35-.35.2V5.78l-37.43-20.99V-16l-.69.38-39.5-22.15V4.39c-.47.13-.9.36-1.23.68l-36.2-20.3v-44.29l-38.81 21.77v-.01l-39.85 22.35-.35.2v42.75L969.6 6.54V5.77l-.69.38-.69-.38v.78L930.1 27.93 890.6 5.77v44.3l-37.43 20.99V28.31L812.98 5.77 774.17-16v44.31l-36.2 20.3c-.49-.48-1.17-.78-1.92-.78-1.49.0-2.71 1.18-2.71 2.63s1.22 2.63 2.71 2.63c.75.0 1.43-.3 1.92-.78l36.2 20.3v44.31l39.85-22.35.35-.2V51.63l37.43 20.99v44.3l37.58-21.08c.33.33.76.56 1.23.68v41.39l40.19 22.54v-43.53l38.81 21.77V93.6l-38.12-21.37 37.42-20.99 39.51 22.15v-44.3l37.43-20.99v85.52l-38.46 21.57-.35.19v45.08l37.58-21.08c.49.48 1.17.78 1.92.78 1.49.0 2.71-1.18 2.71-2.63.0-1.22-.86-2.24-2.02-2.53V94.38l38.46-21.58.35-.2V29.85l37.43 20.99v40.61c-1.16.3-2.02 1.31-2.02 2.53.0.24.04.46.11.69l-36.56 20.5-.35.2v45.08l39.5-22.15 38.81 21.77 38.81-21.77 38.81 21.77 38.12-21.38v39.83c-1.16.3-2.02 1.31-2.02 2.53.0 1.45 1.22 2.63 2.71 2.63C1280.89 183.68 1282.1 182.5 1282.1 181.05zM1317.52 158.89l-36.2 20.3c-.33-.33-.76-.56-1.23-.68V137.9l.69-.38 36.74-20.6v41.97zm-76.25-85.51 37.43 20.99v41.98l-37.43-20.99V73.38zM1280.08 94.38l37.43-20.99v41.98l-37.43 20.99V94.38zM1317.52 71.83l-37.43 20.99V50.84l37.43-20.99V71.83zM1356.39 8.1v40.32c-1.16.3-2.02 1.31-2.02 2.53.0.08.02.16.03.25l-35.44 19.88V29.1L1356.39 8.1zm-76.24-43.53 37.43 20.99v41.98l-37.43-20.99V-35.43zM1241.27 31.22c.47-.13.89-.36 1.23-.68l36.2 20.3v41.98l-37.43-20.99V31.22zm-78.31 40.23-37.43-20.99 17-9.53 20.42-11.46 37.43 20.99-17 9.53L1162.96 71.45zM1124.84 9.46c.47-.13.89-.36 1.23-.68l35.51 19.91-36.74 20.6V9.46zM1162.27 27.53l-35.52-19.91c.06-.22.11-.45.11-.69.0-.24-.04-.46-.11-.69l35.52-19.91v41.2zm0 45.08v41.98l-35.52-19.92c.06-.22.11-.45.11-.68.0-1.22-.86-2.24-2.02-2.53V51.62L1162.27 72.61zM1124.84 96.52c.47-.13.89-.36 1.23-.68l35.51 19.91-36.74 20.6V96.52zm76.24-2.92-37.43 21V72.61l37.43-20.99V93.6zM1202.46-36.22l37.43-20.99v41.98l-37.43 20.99V-36.22zM1201.08 7.31V49.3l-37.43-20.99v-41.98L1201.08 7.31zm-39.49-22.16-35.51 19.91c-.33-.33-.76-.56-1.23-.68v-39.84l36.74 20.61zM1084.65-57.2v41.98l-37.43 20.99v-41.98L1084.65-57.2zM968.22 8.08v41.98l-37.43 20.99V29.07L968.22 8.08zm-76.24.0 37.43 20.99v41.98l-18.72-10.5-18.72-10.5L891.98 8.08zm37.43 106.51-18.72-10.5-16.8-9.43c.06-.22.11-.45.11-.69.0-1.22-.86-2.24-2.02-2.53V51.6l18.72 10.5 18.72 10.5v41.99zM851.79 71.05l-37.43-20.99V8.08l37.43 20.99V71.05zM775.55-13.68l37.43 21V49.3l-37.43-20.99V-13.68zm-36.9 63.44 36.21-20.31 37.43 20.99-17 9.53-20.42 11.46-36.21-20.31c.06-.22.11-.45.11-.69C738.77 50.19 738.71 49.99 738.65 49.76zM812.98 93.6l-37.43 21V72.61l37.43-20.99V93.6zM853.17 114.59V72.61l37.43-20.99v39.84c-1.16.3-2.02 1.31-2.02 2.53.0.24.04.46.11.69l-35.52 19.91zm76.24 43.52-37.43-20.99V96.51c.47-.13.89-.36 1.23-.68l17.48 9.8 18.72 10.5L929.41 158.11zM968.22 136.35l-37.43-20.99V73.39l37.43 20.99v41.97zM1007.03 71.06 969.6 50.08V8.09l37.43 20.99V71.06zm1.38-43.53v-41.98l37.43-20.99V6.54l-37.43 20.99zM1084.65-13.67v41.98l-37.43 20.99V7.33L1084.65-13.67zM1008.41 158.13v-41.98l37.43-20.99V135c-1.16.3-2.02 1.31-2.02 2.53.0.24.04.46.11.69L1008.41 158.13zM1084.65 71.83l-37.43 21V50.84l37.43-20.99V71.83zM1086.03-13.68l35.52 19.91c-.06.22-.11.45-.11.68.0 1.22.86 2.24 2.02 2.53v39.84l-37.43-20.99V-13.68zm0 129.82 36.2-20.3c.33.33.76.56 1.23.68v40.61l-37.43 20.99V116.14zM1162.96 158.51l-37.43-20.99 36.74-20.6.69-.38.69.38 36.74 20.6L1162.96 158.51zM1203.15 137.52l37.43-20.99 37.43 20.99-37.43 20.99L1203.15 137.52z"/></g></g></g></g><g id="Capa_1_00000039113655880378788240000018037856557778213041_"><g><path class="st3" d="M290.59 272.07l55.43-65.36 111.82 65.36H290.59z"/><path class="st4" d="M290.59 272.07h167.24l-134.41 40.89-32.83-40.89z"/><path class="st5" d="M290.59 139.9l55.43 66.8-32.06 37.8-23.37-28.88V139.9z"/><path class="st4" d="M254.77 222.25H87.53l134.41-40.89 32.83 40.89z"/><path class="st3" d="M254.77 222.26l-55.43 65.36L87.53 222.26H254.77z"/><path class="st5" d="M254.77 354.42l-55.43-66.8 32.06-37.8 23.37 28.88v75.72z"/><path class="st6" d="M589.01 301.49h20.16l-51.84-97.37-51.86 97.37h20.17l11.14-20.92h41.08L589.01 301.49zm-42.74-38.74 11.05-20.77 11.06 20.77H546.27z"/><path class="st6" d="M650.65 301.49h-18.86v-88.41l59.27 48.35V212.7h18.86v88.42l-59.27-48.36v48.73z"/><path class="st6" d="M828.84 212.67l-34.92 46.99.02 41.42h-18.86v-41.42l-34.54-46.98h18.86l25.11 31.45L810 212.68 828.84 212.67z"/><path class="st6" d="M1281.27 212.72h-42.77c-24.51-.02-44.4 19.83-44.43 44.35-.02 24.51 19.83 44.4 44.35 44.43h44.52v-53.7h-46.13v18.6h27.51v16.49h-25.82c-14.24.12-25.87-11.34-25.99-25.58-.12-14.24 11.34-25.87 25.58-25.99.13.0.28.0.41.0h44.44v-18.6L1281.27 212.72z"/><path class="st6" d="M999.68 230.31h49.19V212.5h-49.19c-14.15.03-25.61 11.49-25.64 25.64v37.68c.02 14.15 11.48 25.62 25.64 25.64h49.19v-17.8h-49.19c-4.34-.01-7.84-3.51-7.85-7.85v-9.94h48.08v-17.8h-48.07v-9.94c0-4.34 3.51-7.85 7.85-7.85"/><path class="st6" d="M1340.26 230.31h49.19V212.5h-49.19c-14.15.02-25.61 11.48-25.64 25.64v37.68c.02 14.15 11.48 25.62 25.64 25.64h49.19v-17.8h-49.19c-4.34.0-7.84-3.51-7.85-7.85v-9.94h48.08v-17.8h-48.07v-9.94c0-4.34 3.51-7.85 7.85-7.85"/><path class="st6" d="M942.32 212.71v88.78h-18.87v-35.01h-51.09v35.01h-18.85v-88.78h18.85v34.97h51.11v-34.97h18.85z"/><path class="st6" d="M1084.52 214.43h39.55c8.67-.18 17.24 1.67 25.06 5.41 6.98 3.36 12.84 8.65 16.91 15.24 8.04 14.2 8.04 31.58.0 45.77-4.06 6.59-9.94 11.88-16.91 15.24-7.82 3.73-16.4 5.59-25.06 5.41h-39.55V214.43zm38.55 70.52c7.63.38 15.1-2.22 20.84-7.27 10.36-11.1 10.36-28.33.0-39.43-5.73-5.05-13.21-7.66-20.84-7.28h-18.4v53.98H1123.07z"/></g></g></g></g></svg>