<svg id="Capa_3" xmlns="http://www.w3.org/2000/svg" xmlns:xlink="http://www.w3.org/1999/xlink" viewBox="0 0 1500 500" style="enable-background:new 0 0 1500 500"><style>.st0{clip-path:url(#SVGID_00000121266346026729019600000006088990588048384656_)}.st1{fill:#ea8900}.st2{clip-path:url(#SVGID_00000030469284605002769760000014934478448151682959_);fill:url(#SVGID_00000116933790925308029050000016247416347119992706_)}.st3{clip-path:url(#SVGID_00000030469284605002769760000014934478448151682959_);fill:url(#SVGID_00000098189401349534290380000014825216231533657788_)}.st4{opacity:.61;clip-path:url(#SVGID_00000030469284605002769760000014934478448151682959_);fill:url(#SVGID_00000065058509884301252890000010177691977065302942_)}.st5{clip-path:url(#SVGID_00000030469284605002769760000014934478448151682959_)}.st6{fill:url(#SVGID_00000000208677962749810920000016983006897314576561_)}.st7{fill:url(#SVGID_00000037692362392156816630000014974849618594975140_)}.st8{opacity:.83}.st9{fill:url(#SVGID_00000052804701764414450030000005615901237087267765_)}.st10{fill:url(#SVGID_00000173132660333529046160000010482967078052936594_)}.st11{fill:url(#SVGID_00000012433579482340810920000002239480612126095788_)}.st12{opacity:.44}.st13{fill:url(#SVGID_00000124155773365699666290000000104000419405878458_)}.st14{fill:url(#SVGID_00000104687970095002333270000012335793446253955204_)}.st15{opacity:.36}.st16{fill:url(#SVGID_00000053503494985552682240000016028103517234889866_)}.st17{fill:#c4581c;stroke:#1d1d1b;stroke-width:2;stroke-miterlimit:10}.st18{fill:#ff945f;stroke:#1d1d1b;stroke-miterlimit:10}.st19{fill:#c4581c}.st20{fill:#ff945f}.st21{fill:url(#SVGID_00000005225919504394190250000004079159202162471851_);stroke:#1d1d1b;stroke-miterlimit:10}.st22{fill:none;stroke:#f0a933;stroke-miterlimit:10;stroke-dasharray:6.0101,3.005}.st23{fill:none;stroke:#f0a933;stroke-miterlimit:10;stroke-dasharray:6,3}.st24{fill:url(#SVGID_00000000181882038514026950000018052199147896298927_);stroke:#1d1d1b;stroke-miterlimit:10}.st25{fill:url(#SVGID_00000036962516267028142840000015718224167347541409_);stroke:#1d1d1b;stroke-miterlimit:10}.st26{fill:#ededed;stroke:#1d1d1b;stroke-miterlimit:10}.st27{fill:#1d1d1b}</style><g><defs><rect id="SVGID_1_" width="1500" height="500"/></defs><clipPath id="SVGID_00000024689105768487111360000013241160178857988526_"><use xlink:href="#SVGID_1_" style="overflow:visible"/></clipPath><g style="clip-path:url(#SVGID_00000024689105768487111360000013241160178857988526_)"><rect y="-250" class="st1" width="1500" height="1e30"/></g><g style="clip-path:url(#SVGID_00000024689105768487111360000013241160178857988526_)"><defs><rect id="SVGID_00000055674994888372817420000006431725946925855925_" y="-250" transform="matrix(-1 -1.224647e-16 1.224647e-16 -1 1500 500)" width="1500" height="1e30"/></defs><clipPath id="SVGID_00000110441860525232013390000013297651401480355977_"><use xlink:href="#SVGID_00000055674994888372817420000006431725946925855925_" style="overflow:visible"/></clipPath><linearGradient id="SVGID_00000092440063620781530310000011196923035152770227_" gradientUnits="userSpaceOnUse" x1="135.2183" y1="-245.3579" x2="972.2186" y2="637.9276" gradientTransform="matrix(-1 0 0 1 1893.3728 0)"><stop offset="0" style="stop-color:#FFFFFF"/><stop offset=".0976" style="stop-color:#FFFFFF;stop-opacity:.9024"/><stop offset="1" style="stop-color:#FFFFFF;stop-opacity:0"/></linearGradient><polygon style="clip-path:url(#SVGID_00000110441860525232013390000013297651401480355977_);fill:url(#SVGID_00000092440063620781530310000011196923035152770227_)" points="1500,-250 494.21,755.79 1097.86,755.79 1500,359.76"/><linearGradient id="SVGID_00000073716309284872394050000012070518341605822910_" gradientUnits="userSpaceOnUse" x1="1365.6469" y1="-898.9293" x2="2202.6472" y2="-15.6438" gradientTransform="matrix(-1 0 0 1 1893.3728 0)"><stop offset="0" style="stop-color:#FFFFFF"/><stop offset="1" style="stop-color:#FFFFFF;stop-opacity:0"/></linearGradient><polygon style="clip-path:url(#SVGID_00000110441860525232013390000013297651401480355977_);fill:url(#SVGID_00000073716309284872394050000012070518341605822910_)" points="269.57,-903.57 -736.21,102.21 -132.57,102.21 269.57,-293.81"/><linearGradient id="SVGID_00000065039627836588490620000016094868693842743956_" gradientUnits="userSpaceOnUse" x1="667.1171" y1="419.5956" x2="520.2467" y2="620.3229" gradientTransform="matrix(1 0 0 -1 -46.6037 750.0185)"><stop offset=".1905" style="stop-color:#000000;stop-opacity:0"/><stop offset=".669" style="stop-color:#010101;stop-opacity:.4824"/><stop offset=".6977" style="stop-color:#090808;stop-opacity:.5272"/><stop offset=".7726" style="stop-color:#181516;stop-opacity:.6444"/><stop offset=".8617" style="stop-color:#201D1E;stop-opacity:.7837"/><stop offset="1" style="stop-color:#231F20"/></linearGradient><polygon style="opacity:.61;clip-path:url(#SVGID_00000110441860525232013390000013297651401480355977_);fill:url(#SVGID_00000065039627836588490620000016094868693842743956_)" points="24.99,771.73 1069.57,-249.51 1281.95,-250 24.99,1000.94"/><g style="clip-path:url(#SVGID_00000110441860525232013390000013297651401480355977_)"><linearGradient id="SVGID_00000154427014182816301280000010753269602362483643_" gradientUnits="userSpaceOnUse" x1="429.323" y1="-62.3567" x2="-162.7486" y2="726.4293"><stop offset=".1905" style="stop-color:#000000;stop-opacity:0"/><stop offset=".669" style="stop-color:#010101;stop-opacity:.57"/><stop offset=".6977" style="stop-color:#090808;stop-opacity:.6072"/><stop offset=".7726" style="stop-color:#181516;stop-opacity:.7046"/><stop offset=".8617" style="stop-color:#201D1E;stop-opacity:.8203"/><stop offset="1" style="stop-color:#231F20"/></linearGradient><polygon style="fill:url(#SVGID_00000154427014182816301280000010753269602362483643_)" points="-135.46,421.36 602.89,-322.65 826.4,-322.65 -135.46,669.76"/></g><g style="clip-path:url(#SVGID_00000110441860525232013390000013297651401480355977_)"><linearGradient id="SVGID_00000092422173831055243050000000429631154459562641_" gradientUnits="userSpaceOnUse" x1="881.1569" y1="574.2006" x2="48.0136" y2="718.2007"><stop offset=".1905" style="stop-color:#000000;stop-opacity:0"/><stop offset=".669" style="stop-color:#010101;stop-opacity:.57"/><stop offset=".6977" style="stop-color:#090808;stop-opacity:.6072"/><stop offset=".7726" style="stop-color:#181516;stop-opacity:.7046"/><stop offset=".8617" style="stop-color:#201D1E;stop-opacity:.8203"/><stop offset="1" style="stop-color:#231F20"/></linearGradient><polygon style="fill:url(#SVGID_00000092422173831055243050000000429631154459562641_)" points="287.13,860.87 1025.49,116.86 1248.99,116.86 287.13,1109.26"/></g><g style="clip-path:url(#SVGID_00000110441860525232013390000013297651401480355977_)"><g class="st8"><linearGradient id="SVGID_00000040566156194355979880000008624586846377420220_" gradientUnits="userSpaceOnUse" x1="673.5298" y1="1741.8153" x2="1383.2452" y2="985.8151" gradientTransform="matrix(-1 0 0 -1 1535.873 1027.9449)"><stop offset="0" style="stop-color:#FFFFFF"/><stop offset="1" style="stop-color:#FFFFFF;stop-opacity:0"/></linearGradient><path style="fill:url(#SVGID_00000040566156194355979880000008624586846377420220_)" d="M710.43-608.36c18.68.0 37.36 7.13 51.62 21.38 28.51 28.51 28.51 74.73.0 103.24L250.19 28.12c-28.51 28.51-74.73 28.51-103.24.0-28.51-28.51-28.51-74.73.0-103.24l511.86-511.86C673.07-601.23 691.75-608.36 710.43-608.36z"/></g><g><linearGradient id="SVGID_00000172422473312770974750000005126116706969874356_" gradientUnits="userSpaceOnUse" x1="-251.542" y1="1616.2434" x2="458.1734" y2="860.2433" gradientTransform="matrix(-1 0 0 -1 1535.873 1027.9449)"><stop offset="0" style="stop-color:#FFFFFF"/><stop offset="1" style="stop-color:#FFFFFF;stop-opacity:0"/></linearGradient><path style="fill:url(#SVGID_00000172422473312770974750000005126116706969874356_)" d="M1635.5-482.79c18.68.0 37.36 7.13 51.62 21.38 28.51 28.51 28.51 74.73.0 103.24l-511.86 511.86c-28.51 28.51-74.73 28.51-103.24.0-28.51-28.51-28.51-74.73.0-103.24l511.86-511.86C1598.14-475.66 1616.82-482.79 1635.5-482.79z"/></g><g><linearGradient id="SVGID_00000134212780441958937140000010805854686209078420_" gradientUnits="userSpaceOnUse" x1="-64.3791" y1="1833.7103" x2="645.3364" y2="1077.7101" gradientTransform="matrix(-1 0 0 -1 1535.873 1027.9449)"><stop offset="0" style="stop-color:#FFFFFF"/><stop offset="1" style="stop-color:#FFFFFF;stop-opacity:0"/></linearGradient><path style="fill:url(#SVGID_00000134212780441958937140000010805854686209078420_)" d="M1448.34-700.25c18.68.0 37.36 7.13 51.62 21.38 28.51 28.51 28.51 74.73.0 103.24L988.1-63.78c-28.51 28.51-74.73 28.51-103.24.0s-28.51-74.73.0-103.24l511.86-511.86C1410.97-693.13 1429.66-700.25 1448.34-700.25z"/></g><g class="st12"><linearGradient id="SVGID_00000101081437943434090900000005555278651849707937_" gradientUnits="userSpaceOnUse" x1="1027.172" y1="776.2428" x2="1736.8875" y2="20.2426" gradientTransform="matrix(-1 0 0 -1 1535.873 1027.9449)"><stop offset="0" style="stop-color:#FFFFFF"/><stop offset="1" style="stop-color:#FFFFFF;stop-opacity:0"/></linearGradient><path style="fill:url(#SVGID_00000101081437943434090900000005555278651849707937_)" d="M356.79 357.21c18.68.0 37.36 7.13 51.62 21.38 28.51 28.51 28.51 74.73.0 103.24l-511.86 511.86c-28.51 28.51-74.73 28.51-103.24.0s-28.51-74.73.0-103.24l511.86-511.86C319.42 364.34 338.1 357.21 356.79 357.21z"/></g><g><linearGradient id="SVGID_00000180326252804222466100000008309631973855283092_" gradientUnits="userSpaceOnUse" x1="-264.4698" y1="689.0999" x2="445.2458" y2="-66.9005" gradientTransform="matrix(-1 0 0 -1 1535.873 1027.9449)"><stop offset="0" style="stop-color:#FFFFFF"/><stop offset="1" style="stop-color:#FFFFFF;stop-opacity:0"/></linearGradient><path style="fill:url(#SVGID_00000180326252804222466100000008309631973855283092_)" d="M1648.43 444.36c18.68.0 37.36 7.13 51.62 21.38 28.51 28.51 28.51 74.73.0 103.24l-511.86 511.86c-28.51 28.51-74.73 28.51-103.24.0s-28.51-74.73.0-103.24l511.86-511.86C1611.06 451.48 1629.75 444.36 1648.43 444.36z"/></g><g class="st15"><linearGradient id="SVGID_00000075872111474878430290000017936225028074191527_" gradientUnits="userSpaceOnUse" x1="-218.065" y1="1220.4331" x2="491.6504" y2="464.4329" gradientTransform="matrix(-1 0 0 -1 1535.873 1027.9449)"><stop offset="0" style="stop-color:#FFFFFF;stop-opacity:0"/><stop offset="1" style="stop-color:#FFFFFF"/></linearGradient><path style="fill:url(#SVGID_00000075872111474878430290000017936225028074191527_)" d="M1602.02-86.98c18.68.0 37.36 7.13 51.62 21.38 28.51 28.51 28.51 74.73.0 103.24L1141.79 549.5c-28.51 28.51-74.73 28.51-103.24.0s-28.51-74.73.0-103.24L1550.4-65.6C1564.66-79.85 1583.34-86.98 1602.02-86.98z"/></g></g></g><g style="clip-path:url(#SVGID_00000024689105768487111360000013241160178857988526_)"><g><path class="st17" d="M1149.39 199.57l.98-5.73.97-5.66c.98-5.75-2.87-11.2-8.61-12.18l-350.59-59.83c-9.45-1.61-18.39 4.63-19.98 13.95.0.01.0.02.0.03.0-.01.0-.02.0-.03l-44.38 260.04c-1.52 8.89 4.46 17.33 13.35 18.85l340.63 58.13c1.18.2 2.53.48 3.91.57l6.12 1c0 .01.01.03.02.03l.97.16-.01.09c0 .01.01.03.02.03l4.54.77c3.21.55 6.26-1.61 6.81-4.82l.02-.11 43.37-254.11 1.8-10.52C1149.35 2e2 1149.36 199.78 1149.39 199.57zM772.05 131.01"/><path class="st18" d="M1151.33 188.17c.98-5.75-2.87-11.2-8.61-12.18l-350.59-59.83c-9.45-1.61-18.39 4.63-19.98 13.95v0c-1.59 9.32 4.78 18.17 14.23 19.79l350.59 59.83c5.74.98 11.18-2.89 12.16-8.63L1151.33 188.17z"/><path class="st19" d="M1139.35 186.81l.03.01-341.2-58.23c-3.13-.53-6.28 1.41-6.89 4.52-.63 3.2 1.5 6.26 4.69 6.81l323.55 55.22c.01.0.02.02.02.03l-1.9 11.12c0 .01.01.03.02.03l17.83 3.04c.01.0.02.02.02.03l-44.27 259.21c0 .01.01.03.02.03l5.66.97c.02.0.04.01.06.01 3.14.52 6.09-1.71 6.62-4.85l45.16-264.63C1149.85 193.84 1145.63 187.88 1139.35 186.81z"/><path class="st20" d="M1138.35 198.46l-344.61-58.81c-3.13-.53-5.24-3.5-4.72-6.63.0-.01-.01-.03-.02-.03l-16.81-2.87c-.02.0-.03.01-.03.02-1.57 9.3 4.69 18.12 13.99 19.71l350.3 59.78c.01.0.02.02.02.03l-61.62 256.05c0 .01 17.41 3.09 17.42 3.09l4.54.77c3.21.55 6.26-1.61 6.81-4.82l43.37-254.12C1147.96 204.89 1144.1 199.44 1138.35 198.46z"/><g><g><linearGradient id="SVGID_00000101102694827223907960000000336088582441102761_" gradientUnits="userSpaceOnUse" x1="731.715" y1="270.2341" x2="1136.9028" y2="329.2034"><stop offset="0" style="stop-color:#8A6037"/><stop offset=".047" style="stop-color:#986437"/><stop offset=".1488" style="stop-color:#AF6B37"/><stop offset=".2659" style="stop-color:#C17037"/><stop offset=".4056" style="stop-color:#CE7337"/><stop offset=".5905" style="stop-color:#D57537"/><stop offset="1" style="stop-color:#D77637"/></linearGradient><path style="fill:url(#SVGID_00000101102694827223907960000000336088582441102761_);stroke:#1d1d1b;stroke-miterlimit:10" d="M1137 209.76c0-.01-.01-.03-.02-.03l-350.83-59.87c-9.32-1.59-15.58-10.43-13.99-19.74l-44.38 260.04c-1.52 8.89 4.46 17.33 13.35 18.85l340.63 58.13c4.26.73 10.9 2.46 12.58-7.36L1137 209.76z"/><g><path class="st22" d="M1065.14 453.33l-308.85-52.71c-8.89-1.52-14.87-9.96-13.35-18.85l34.96-204.88c1.52-8.89 9.96-14.87 18.85-13.35l308.85 52.71c8.89 1.52 14.87 9.96 13.35 18.85l-34.96 204.88C1082.47 448.86 1074.03 454.84 1065.14 453.33z"/></g></g><g><circle class="st23" cx="932.54" cy="309.77" r="95.5"/><path id="symbol_00000177474586602087816660000002140420613430294956_" class="st19" d="M970.34 283.07c-3.01-11.98-13.89-16.29-28.09-16.34-.01.0-.03-.01-.03-.02l-1.5-17.93c0-.02-.01-.03-.03-.03l-10.88.91c-.02.0-.03.01-.03.03l1.43 17.87c0 .02-.01.03-.03.03-2.86.22-5.77.34-8.69.65-.02.0-.03-.01-.03-.02l-1.45-17.77c0-.02-.01-.03-.03-.03l-10.88.91c-.02.0-.03.01-.02.03l1.5 17.93c0 .01-.01.03-.02.03-2.42.26-21.33 1.81-22.04 1.87-.02.0-.02.01-.02.03l.96 11.65c0 .02.01.03.03.03.5-.05 8.03-.84 7.93-.68 4.46-.39 6.1 2.09 6.71 4.26v.01l4.15 49.29c-.08 1.39-.73 3.68-3.79 3.98.15.13-7.51.63-7.94.66-.01.0-.02.01-.02.02l-1.09 13.22c0 .02.01.03.03.03.83-.07 19.45-1.59 22.04-1.79.02.0.02.01.03.03l1.51 18.14c0 .02.01.03.03.02l10.88-.91c.02.0.03-.01.03-.03l-1.49-18.26c0-.02.01-.03.03-.03 2.97-.18 5.88-.39 8.71-.64.02.0.03.01.03.02l1.49 18.16c0 .02.01.03.03.03l10.88-.91c.02.0.03-.01.03-.03l-1.52-18.11c0-.02.01-.03.03-.03 16.79-1.18 29.9-9.41 30.23-25.36.11-9.61-8.79-19.04-17.14-21.39-.02-.01-.03-.03-.01-.05C968.29 298.77 972.08 292.46 970.34 283.07zM958.29 323.29c-.55 15.75-22.24 14-29.65 14.65-.01.0-.03-.01-.03-.02l-2.22-24.05c0-.02.01-.03.02-.03C933.86 313.17 957.08 309.12 958.29 323.29c0-.0100000000000477.0.0.0.0zM950.75 289.69c-.13 14.06-18.67 12.54-24.86 13.04-.01.0-.03-.01-.03-.02l-2.03-21.83c0-.02.01-.03.02-.03C930.06 280.39 948.42 276.25 950.75 289.69c0-.00999999999999091.0.0.0.0z"/></g></g></g><linearGradient id="SVGID_00000070839402692684737800000014496425525933428647_" gradientUnits="userSpaceOnUse" x1="748.6887" y1="107.1277" x2="789.064" y2="84.5983"><stop offset=".1969" style="stop-color:#8A6037"/><stop offset=".2386" style="stop-color:#9C6537"/><stop offset=".3054" style="stop-color:#B26B37"/><stop offset=".3844" style="stop-color:#C37037"/><stop offset=".4822" style="stop-color:#CE7437"/><stop offset=".6193" style="stop-color:#D57537"/><stop offset="1" style="stop-color:#D77637"/></linearGradient><path style="fill:url(#SVGID_00000070839402692684737800000014496425525933428647_);stroke:#1d1d1b;stroke-miterlimit:10" d="M762.64 59.76 741.71 76.1c17.79 11.87 29.02 31.4 30.21 57.64-.02-15.9 14-17.83 14-17.83C784.42 90.19 780.51 74.95 762.64 59.76zm-2.63 19.8c-3.54-.17-5.11-.64-5.62-2.69-.77-3.08 3.17-6.77 6.77-6.77.0.0 3.32-.57 4.6 4.07C766.39 76.46 763.57 79.73 760.01 79.56z"/><linearGradient id="SVGID_00000134238283634871347650000017038973396883467710_" gradientUnits="userSpaceOnUse" x1="434.7232" y1="355.8041" x2="603.4735" y2="170.1424"><stop offset="0" style="stop-color:#339977"/><stop offset=".0102" style="stop-color:#319B78"/><stop offset=".1399" style="stop-color:#20AC82"/><stop offset=".2964" style="stop-color:#13B889"/><stop offset=".5073" style="stop-color:#0CBF8D"/><stop offset="1" style="stop-color:#0AC18E"/></linearGradient><path style="fill:url(#SVGID_00000134238283634871347650000017038973396883467710_);stroke:#1d1d1b;stroke-miterlimit:10" d="M593.12 164.52l-70.83.56-146.05 128.1 99.29 112.11 146.05-128.1 5.55-74.26L593.12 164.52zM583.84 220.09c-6.89-.69-11.92-6.83-11.23-13.72.69-6.89 6.83-11.92 13.72-11.23s11.92 6.83 11.23 13.72C596.87 215.74 590.73 220.77 583.84 220.09z"/><g><path class="st26" d="M463.29 331.07c-2.6 2.34-5.23 3.39-7.89 3.17-2.66-.22-5.19-1.67-7.58-4.33-1.19-1.32-2.04-2.69-2.56-4.1s-.74-2.8-.65-4.17c.08-1.37.46-2.68 1.12-3.95.67-1.27 1.59-2.43 2.76-3.48.68-.61 1.34-1.11 1.98-1.51.64-.4 1.23-.72 1.77-.96.53-.24 1-.42 1.4-.53.4-.11.7-.18.89-.22l1.57 3.84c-.73.18-1.5.47-2.32.87s-1.65.98-2.48 1.72c-.55.5-1.01 1.08-1.38 1.74-.36.66-.57 1.38-.61 2.15s.1 1.6.44 2.46c.33.87.92 1.76 1.74 2.69.66.74 1.36 1.36 2.1 1.85s1.49.81 2.27.95 1.58.08 2.4-.18c.83-.26 1.66-.76 2.49-1.5.52-.47.97-.92 1.32-1.36.36-.43.66-.84.91-1.21s.45-.73.59-1.06c.15-.33.28-.63.4-.9l3.58 1.99c-.23.76-.7 1.68-1.4 2.76C465.47 328.89 464.51 329.98 463.29 331.07z"/><path class="st26" d="M463.84 307.48c1.02-.91 1.97-1.56 2.85-1.93.88-.38 1.72-.53 2.52-.47.79.07 1.55.33 2.28.79.72.46 1.42 1.07 2.1 1.83l6.43 7.16c-.4.55-.97 1.29-1.71 2.23-.75.93-1.74 1.96-2.99 3.08-.78.7-1.56 1.28-2.32 1.71-.76.44-1.52.7-2.26.8s-1.47.01-2.17-.28c-.7-.29-1.38-.8-2.05-1.54-.64-.71-1.03-1.44-1.19-2.18-.16-.75-.13-1.48.08-2.2.21-.72.57-1.42 1.07-2.11.5-.68 1.08-1.32 1.74-1.92.45-.4.86-.74 1.24-1.01s.71-.47.98-.61l-.29-.32c-.53-.59-1.12-.89-1.8-.93s-1.45.34-2.32 1.13c-.58.52-1.12 1.09-1.62 1.68-.49.6-.88 1.16-1.16 1.68l-2.93-2.38c.15-.24.34-.53.57-.87.24-.34.51-.69.82-1.07.31-.37.64-.75.99-1.14C463.06 308.21 463.44 307.84 463.84 307.48zm9.31 9.81c.34-.3.65-.6.95-.89.29-.29.52-.54.68-.73l-2.34-2.61c-.17.09-.4.25-.71.47-.3.22-.57.43-.8.64-.32.29-.61.58-.86.88-.25.29-.43.59-.55.89s-.16.6-.11.9c.04.3.19.58.44.86.48.54 1 .75 1.55.63C471.93 318.2 472.52 317.86 473.15 317.29z"/><path class="st26" d="M484.7 306.8c.63-.57 1.02-1.03 1.17-1.39.15-.36.07-.71-.25-1.07-.25-.28-.64-.37-1.16-.27-.53.1-1.25.32-2.18.68-.72.28-1.39.51-2.02.69s-1.24.26-1.81.23c-.58-.02-1.14-.17-1.68-.43s-1.08-.69-1.6-1.27c-1.02-1.14-1.41-2.42-1.16-3.84.25-1.42 1.12-2.8 2.59-4.12.74-.66 1.51-1.23 2.3-1.71.79-.48 1.46-.82 2-1.02l1.8 3.22c-.53.22-1.07.49-1.64.8s-1.14.73-1.73 1.26c-1.08.97-1.35 1.75-.81 2.35.12.14.26.24.4.31s.33.09.56.06c.23-.02.51-.09.86-.18.34-.1.76-.24 1.26-.43 1-.4 1.88-.68 2.61-.85.74-.17 1.39-.23 1.96-.17s1.08.23 1.54.51c.46.28.92.67 1.37 1.18 1.08 1.2 1.44 2.51 1.09 3.93s-1.35 2.87-2.99 4.35c-1.08.97-2.06 1.68-2.94 2.14s-1.52.75-1.9.88l-1.93-3.31c.79-.29 1.55-.65 2.29-1.07C483.44 307.82 484.1 307.34 484.7 306.8z"/><path class="st26" d="M494.63 302.35l-15.59-17.36 2.94-3.64 5.22 5.82c.16-.28.39-.62.69-1.02.3-.39.62-.74.96-1.05.98-.88 1.93-1.48 2.82-1.8.9-.32 1.76-.41 2.6-.27s1.64.48 2.41 1.01c.77.53 1.53 1.21 2.27 2.05l6.16 6.86-3.44 3.09-5.78-6.44c-.99-1.11-1.84-1.76-2.54-1.97-.7-.21-1.43.04-2.2.73-.31.28-.57.56-.79.86s-.41.57-.57.83l8.29 9.23L494.63 302.35z"/><path class="st26" d="M503.29 272.77l2.68-2.4-2.77-4.6 3-2.69 2.77 4.6 1.68-1.51 2.38 2.65-2.19 1.96 2.01 3.33 2.73-2.45 2.38 2.65-3.24 2.91 2.77 4.6-3 2.69-2.77-4.6-2.68 2.4 2.77 4.6-3 2.69-2.77-4.6-1.68 1.51-2.38-2.65 2.19-1.96-2.01-3.33-2.73 2.45-2.38-2.65 3.24-2.91-2.77-4.6 3-2.69L503.29 272.77zm3.87 6.44 2.68-2.4-2.01-3.33-2.68 2.4L507.16 279.21z"/><path class="st26" d="M512.99 262.97c.28-.59.56-1.22.83-1.89s.51-1.36.72-2.06.38-1.4.52-2.09c.14-.7.22-1.37.24-2.03l2.4-2.16 14.37 16-3.44 3.09-10.34-11.52c-.18.72-.45 1.47-.79 2.23-.34.77-.7 1.48-1.07 2.15L512.99 262.97z"/><path class="st26" d="M536.72 243.24c.53.59.91 1.25 1.17 2 .25.75.42 1.53.5 2.37.08.83.1 1.69.05 2.56-.05.88-.11 1.72-.18 2.54-.04.42-.07.89-.1 1.4-.03.51-.04 1.02-.04 1.51.0.5.01.95.04 1.36.02.41.08.71.17.91l6.88-6.18 2.59 2.89-10.67 9.58c-.18-.14-.39-.34-.63-.6s-.4-.45-.5-.55c-.66-.74-1.15-1.52-1.47-2.35-.31-.83-.52-1.68-.61-2.56s-.1-1.76-.03-2.66.14-1.79.2-2.68c.05-.69.1-1.33.14-1.94.04-.61.05-1.17.03-1.69s-.1-.99-.23-1.42c-.13-.42-.33-.79-.61-1.1-.61-.68-1.23-.98-1.86-.91s-1.24.36-1.81.87c-.42.37-.75.79-.99 1.24-.24.46-.44.91-.58 1.35-.14.45-.24.86-.3 1.22-.06.37-.09.66-.1.86l-3.86-.87c.11-1.24.43-2.47.97-3.68.53-1.22 1.32-2.29 2.35-3.21.94-.84 1.84-1.46 2.71-1.85s1.7-.59 2.49-.59 1.54.19 2.25.56C535.41 241.99 536.09 242.54 536.72 243.24z"/><path class="st26" d="M554.55 249.17c-.42.37-.88.74-1.39 1.1-.51.36-1.02.69-1.54.98-.51.3-1 .55-1.45.76-.45.21-.82.36-1.1.45l-1.9-3.46c.55-.19 1.23-.47 2.02-.84.8-.37 1.66-.97 2.58-1.8 1.06-.95 1.66-1.85 1.79-2.69s-.11-1.6-.71-2.28c-.37-.42-.78-.69-1.21-.81-.43-.13-.88-.14-1.35-.04s-.94.3-1.43.62c-.48.31-.97.68-1.44 1.11l-1.34 1.2-2.49-2.77 1.52-1.37c.34-.3.64-.63.9-.97s.45-.7.56-1.07c.11-.37.13-.74.05-1.13s-.29-.77-.64-1.16c-.26-.29-.55-.49-.87-.6s-.63-.14-.95-.11c-.32.03-.63.13-.95.29s-.61.36-.87.59c-.66.59-1.18 1.24-1.57 1.95-.38.71-.67 1.41-.87 2.12l-3.48-1.42c.11-.37.25-.79.43-1.26s.41-.95.68-1.45c.28-.5.6-1 .97-1.5s.81-.98 1.32-1.43c.94-.84 1.85-1.46 2.74-1.85.88-.39 1.73-.59 2.55-.58.81.01 1.57.19 2.28.54.71.35 1.35.85 1.93 1.5.57.63.94 1.4 1.11 2.31.18.91.1 1.79-.22 2.63 1.14-.41 2.23-.48 3.29-.22s2.01.86 2.85 1.8c.66.74 1.15 1.53 1.47 2.38.31.85.41 1.73.3 2.66-.12.92-.46 1.88-1.04 2.86C556.51 247.19 555.66 248.17 554.55 249.17z"/><path class="st26" d="M563.81 233.89c.36.34.62.59.76.73.15.15.27.27.36.38.41.46.81.99 1.19 1.58.38.59.73 1.22 1.04 1.88s.59 1.36.83 2.09.43 1.47.56 2.21l-3.3 1.76c-.56-1.33-1.17-2.51-1.83-3.53-.66-1.02-1.26-1.82-1.78-2.4-.08-.09-.19-.21-.33-.35s-.28-.28-.43-.43-.29-.29-.42-.42-.22-.22-.26-.27L563.81 233.89zM558.08 227.28c.62.69.88 1.42.76 2.17-.11.76-.45 1.38-1 1.88s-1.21.76-1.98.79c-.76.03-1.46-.3-2.08-.99s-.88-1.42-.76-2.17.45-1.38 1-1.88 1.21-.76 1.98-.79C556.77 226.25 557.46 226.58 558.08 227.28z"/></g><g><g><path class="st27" d="M761.42 79.03c.59-8.68-1.18-19.08-8.77-24.39-3.59-2.52-7.92-3.86-12.17-4.76-5.5-1.17-11.13-1.8-16.74-2.16-5.87-.38-11.76-.43-17.64-.29-5.33.13-10.7.56-15.64 2.73-4.69 2.06-8.73 5.34-12.59 8.65-3.9 3.34-7.65 6.85-11.28 10.48-14.49 14.46-27.02 30.71-39.94 46.54-6.51 7.98-13.14 15.88-20.17 23.4-3.46 3.7-7.02 7.32-10.71 10.8-3.56 3.36-7.3 6.54-10.76 10.01-6.36 6.38-11.97 14.32-11.25 23.77.72 9.46 7.17 17.41 16.24 20.14 2.17.65 4.42.98 6.68.99.8.0.81-1.25.0-1.25-9.78-.05-18.56-6.56-21.03-16.09-2.47-9.49 2.15-18.08 8.48-24.86 3.07-3.28 6.44-6.25 9.76-9.27 3.63-3.31 7.15-6.75 10.56-10.29 6.75-7.01 13.11-14.38 19.32-21.88 12.42-15 24.24-30.53 37.55-44.76 6.69-7.15 13.75-14.18 21.5-20.19 4.1-3.18 8.56-5.75 13.69-6.79 5.4-1.1 11.08-.97 16.58-.94 5.57.03 11.14.27 16.67.87 5.07.55 10.23 1.27 15.09 2.83 4.1 1.31 8.18 3.39 10.82 6.9 2.8 3.74 3.98 8.66 4.41 13.24.21 2.19.23 4.39.08 6.58C760.12 79.83 761.37 79.83 761.42 79.03z"/></g></g><g><g><path class="st27" d="M623.05 204.48c2.4-1.23 4.96-1.9 7.56-2.59 3.33-.88 6.69-1.63 10.07-2.33 6.61-1.37 13.26-2.52 19.84-4.01 6.43-1.45 12.8-3.24 18.87-5.82 6.19-2.63 11.9-6.17 17.21-10.28 9.27-7.17 17.69-15.52 24.33-25.19 6.62-9.64 12.13-20 17.65-30.29 3.01-5.59 5.99-11.2 9.16-16.7 3.2-5.54 7.24-10.74 9.72-16.65.31-.74-.9-1.06-1.21-.33-2.26 5.4-5.97 10.14-8.92 15.19-2.79 4.77-5.41 9.64-8.03 14.5-5.51 10.25-10.92 20.59-17.26 30.35-2.85 4.38-5.88 8.68-9.37 12.58-4.1 4.59-8.73 8.84-13.44 12.8-5.2 4.37-10.81 8.31-16.92 11.31-5.96 2.92-12.31 4.93-18.74 6.52-7.26 1.8-14.63 3.06-21.96 4.55-3.74.76-7.46 1.57-11.15 2.54-2.77.73-5.51 1.46-8.07 2.77C621.7 203.77 622.33 204.85 623.05 204.48z"/></g></g></g></g></svg>