<?xml version="1.0" encoding="utf-8"?>
<!-- Generator: Adobe Illustrator 27.7.0, SVG Export Plug-In . SVG Version: 6.00 Build 0)  -->
<svg version="1.1" id="Capa_3" xmlns="http://www.w3.org/2000/svg" xmlns:xlink="http://www.w3.org/1999/xlink" x="0px" y="0px"
	 viewBox="0 0 1500 500" style="enable-background:new 0 0 1500 500;" xml:space="preserve">
<style type="text/css">
	.st0{clip-path:url(#SVGID_00000121266346026729019600000006088990588048384656_);}
	.st1{fill:#EA8900;}
	
		.st2{clip-path:url(#SVGID_00000030469284605002769760000014934478448151682959_);fill:url(#SVGID_00000116933790925308029050000016247416347119992706_);}
	
		.st3{clip-path:url(#SVGID_00000030469284605002769760000014934478448151682959_);fill:url(#SVGID_00000098189401349534290380000014825216231533657788_);}
	
		.st4{opacity:0.61;clip-path:url(#SVGID_00000030469284605002769760000014934478448151682959_);fill:url(#SVGID_00000065058509884301252890000010177691977065302942_);}
	.st5{clip-path:url(#SVGID_00000030469284605002769760000014934478448151682959_);}
	.st6{fill:url(#SVGID_00000000208677962749810920000016983006897314576561_);}
	.st7{fill:url(#SVGID_00000037692362392156816630000014974849618594975140_);}
	.st8{opacity:0.83;}
	.st9{fill:url(#SVGID_00000052804701764414450030000005615901237087267765_);}
	.st10{fill:url(#SVGID_00000173132660333529046160000010482967078052936594_);}
	.st11{fill:url(#SVGID_00000012433579482340810920000002239480612126095788_);}
	.st12{opacity:0.44;}
	.st13{fill:url(#SVGID_00000124155773365699666290000000104000419405878458_);}
	.st14{fill:url(#SVGID_00000104687970095002333270000012335793446253955204_);}
	.st15{opacity:0.36;}
	.st16{fill:url(#SVGID_00000053503494985552682240000016028103517234889866_);}
	.st17{fill:#C4581C;stroke:#1D1D1B;stroke-width:2;stroke-miterlimit:10;}
	.st18{fill:#FF945F;stroke:#1D1D1B;stroke-miterlimit:10;}
	.st19{fill:#C4581C;}
	.st20{fill:#FF945F;}
	.st21{fill:url(#SVGID_00000005225919504394190250000004079159202162471851_);stroke:#1D1D1B;stroke-miterlimit:10;}
	.st22{fill:none;stroke:#F0A933;stroke-miterlimit:10;stroke-dasharray:6.0101,3.005;}
	.st23{fill:none;stroke:#F0A933;stroke-miterlimit:10;stroke-dasharray:6,3;}
	.st24{fill:url(#SVGID_00000000181882038514026950000018052199147896298927_);stroke:#1D1D1B;stroke-miterlimit:10;}
	.st25{fill:url(#SVGID_00000036962516267028142840000015718224167347541409_);stroke:#1D1D1B;stroke-miterlimit:10;}
	.st26{fill:#EDEDED;stroke:#1D1D1B;stroke-miterlimit:10;}
	.st27{fill:#1D1D1B;}
</style>
<g>
	<defs>
		<rect id="SVGID_1_" width="1500" height="500"/>
	</defs>
	<clipPath id="SVGID_00000024689105768487111360000013241160178857988526_">
		<use xlink:href="#SVGID_1_"  style="overflow:visible;"/>
	</clipPath>
	<g style="clip-path:url(#SVGID_00000024689105768487111360000013241160178857988526_);">
		<rect y="-250" class="st1" width="1500" height="1000"/>
	</g>
	<g style="clip-path:url(#SVGID_00000024689105768487111360000013241160178857988526_);">
		<defs>
			
				<rect id="SVGID_00000055674994888372817420000006431725946925855925_" y="-250" transform="matrix(-1 -1.224647e-16 1.224647e-16 -1 1500 500)" width="1500" height="1000"/>
		</defs>
		<clipPath id="SVGID_00000110441860525232013390000013297651401480355977_">
			<use xlink:href="#SVGID_00000055674994888372817420000006431725946925855925_"  style="overflow:visible;"/>
		</clipPath>
		
			<linearGradient id="SVGID_00000092440063620781530310000011196923035152770227_" gradientUnits="userSpaceOnUse" x1="135.2183" y1="-245.3579" x2="972.2186" y2="637.9276" gradientTransform="matrix(-1 0 0 1 1893.3728 0)">
			<stop  offset="0" style="stop-color:#FFFFFF"/>
			<stop  offset="0.0976" style="stop-color:#FFFFFF;stop-opacity:0.9024"/>
			<stop  offset="1" style="stop-color:#FFFFFF;stop-opacity:0"/>
		</linearGradient>
		
			<polygon style="clip-path:url(#SVGID_00000110441860525232013390000013297651401480355977_);fill:url(#SVGID_00000092440063620781530310000011196923035152770227_);" points="
			1500,-250 494.21,755.79 1097.86,755.79 1500,359.76 		"/>
		
			<linearGradient id="SVGID_00000073716309284872394050000012070518341605822910_" gradientUnits="userSpaceOnUse" x1="1365.6469" y1="-898.9293" x2="2202.6472" y2="-15.6438" gradientTransform="matrix(-1 0 0 1 1893.3728 0)">
			<stop  offset="0" style="stop-color:#FFFFFF"/>
			<stop  offset="1" style="stop-color:#FFFFFF;stop-opacity:0"/>
		</linearGradient>
		
			<polygon style="clip-path:url(#SVGID_00000110441860525232013390000013297651401480355977_);fill:url(#SVGID_00000073716309284872394050000012070518341605822910_);" points="
			269.57,-903.57 -736.21,102.21 -132.57,102.21 269.57,-293.81 		"/>
		
			<linearGradient id="SVGID_00000065039627836588490620000016094868693842743956_" gradientUnits="userSpaceOnUse" x1="667.1171" y1="419.5956" x2="520.2467" y2="620.3229" gradientTransform="matrix(1 0 0 -1 -46.6037 750.0185)">
			<stop  offset="0.1905" style="stop-color:#000000;stop-opacity:0"/>
			<stop  offset="0.669" style="stop-color:#010101;stop-opacity:0.4824"/>
			<stop  offset="0.6977" style="stop-color:#090808;stop-opacity:0.5272"/>
			<stop  offset="0.7726" style="stop-color:#181516;stop-opacity:0.6444"/>
			<stop  offset="0.8617" style="stop-color:#201D1E;stop-opacity:0.7837"/>
			<stop  offset="1" style="stop-color:#231F20"/>
		</linearGradient>
		
			<polygon style="opacity:0.61;clip-path:url(#SVGID_00000110441860525232013390000013297651401480355977_);fill:url(#SVGID_00000065039627836588490620000016094868693842743956_);" points="
			24.99,771.73 1069.57,-249.51 1281.95,-250 24.99,1000.94 		"/>
		<g style="clip-path:url(#SVGID_00000110441860525232013390000013297651401480355977_);">
			
				<linearGradient id="SVGID_00000154427014182816301280000010753269602362483643_" gradientUnits="userSpaceOnUse" x1="429.323" y1="-62.3567" x2="-162.7486" y2="726.4293">
				<stop  offset="0.1905" style="stop-color:#000000;stop-opacity:0"/>
				<stop  offset="0.669" style="stop-color:#010101;stop-opacity:0.57"/>
				<stop  offset="0.6977" style="stop-color:#090808;stop-opacity:0.6072"/>
				<stop  offset="0.7726" style="stop-color:#181516;stop-opacity:0.7046"/>
				<stop  offset="0.8617" style="stop-color:#201D1E;stop-opacity:0.8203"/>
				<stop  offset="1" style="stop-color:#231F20"/>
			</linearGradient>
			<polygon style="fill:url(#SVGID_00000154427014182816301280000010753269602362483643_);" points="-135.46,421.36 602.89,-322.65 
				826.4,-322.65 -135.46,669.76 			"/>
		</g>
		<g style="clip-path:url(#SVGID_00000110441860525232013390000013297651401480355977_);">
			
				<linearGradient id="SVGID_00000092422173831055243050000000429631154459562641_" gradientUnits="userSpaceOnUse" x1="881.1569" y1="574.2006" x2="48.0136" y2="718.2007">
				<stop  offset="0.1905" style="stop-color:#000000;stop-opacity:0"/>
				<stop  offset="0.669" style="stop-color:#010101;stop-opacity:0.57"/>
				<stop  offset="0.6977" style="stop-color:#090808;stop-opacity:0.6072"/>
				<stop  offset="0.7726" style="stop-color:#181516;stop-opacity:0.7046"/>
				<stop  offset="0.8617" style="stop-color:#201D1E;stop-opacity:0.8203"/>
				<stop  offset="1" style="stop-color:#231F20"/>
			</linearGradient>
			<polygon style="fill:url(#SVGID_00000092422173831055243050000000429631154459562641_);" points="287.13,860.87 1025.49,116.86 
				1248.99,116.86 287.13,1109.26 			"/>
		</g>
		<g style="clip-path:url(#SVGID_00000110441860525232013390000013297651401480355977_);">
			<g class="st8">
				
					<linearGradient id="SVGID_00000040566156194355979880000008624586846377420220_" gradientUnits="userSpaceOnUse" x1="673.5298" y1="1741.8153" x2="1383.2452" y2="985.8151" gradientTransform="matrix(-1 0 0 -1 1535.873 1027.9449)">
					<stop  offset="0" style="stop-color:#FFFFFF"/>
					<stop  offset="1" style="stop-color:#FFFFFF;stop-opacity:0"/>
				</linearGradient>
				<path style="fill:url(#SVGID_00000040566156194355979880000008624586846377420220_);" d="M710.43-608.36
					c18.68,0,37.36,7.13,51.62,21.38c28.51,28.51,28.51,74.73,0,103.24L250.19,28.12c-28.51,28.51-74.73,28.51-103.24,0
					c-28.51-28.51-28.51-74.73,0-103.24l511.86-511.86C673.07-601.23,691.75-608.36,710.43-608.36z"/>
			</g>
			<g>
				
					<linearGradient id="SVGID_00000172422473312770974750000005126116706969874356_" gradientUnits="userSpaceOnUse" x1="-251.542" y1="1616.2434" x2="458.1734" y2="860.2433" gradientTransform="matrix(-1 0 0 -1 1535.873 1027.9449)">
					<stop  offset="0" style="stop-color:#FFFFFF"/>
					<stop  offset="1" style="stop-color:#FFFFFF;stop-opacity:0"/>
				</linearGradient>
				<path style="fill:url(#SVGID_00000172422473312770974750000005126116706969874356_);" d="M1635.5-482.79
					c18.68,0,37.36,7.13,51.62,21.38c28.51,28.51,28.51,74.73,0,103.24l-511.86,511.86c-28.51,28.51-74.73,28.51-103.24,0
					c-28.51-28.51-28.51-74.73,0-103.24l511.86-511.86C1598.14-475.66,1616.82-482.79,1635.5-482.79z"/>
			</g>
			<g>
				
					<linearGradient id="SVGID_00000134212780441958937140000010805854686209078420_" gradientUnits="userSpaceOnUse" x1="-64.3791" y1="1833.7103" x2="645.3364" y2="1077.7101" gradientTransform="matrix(-1 0 0 -1 1535.873 1027.9449)">
					<stop  offset="0" style="stop-color:#FFFFFF"/>
					<stop  offset="1" style="stop-color:#FFFFFF;stop-opacity:0"/>
				</linearGradient>
				<path style="fill:url(#SVGID_00000134212780441958937140000010805854686209078420_);" d="M1448.34-700.25
					c18.68,0,37.36,7.13,51.62,21.38c28.51,28.51,28.51,74.73,0,103.24L988.1-63.78c-28.51,28.51-74.73,28.51-103.24,0
					c-28.51-28.51-28.51-74.73,0-103.24l511.86-511.86C1410.97-693.13,1429.66-700.25,1448.34-700.25z"/>
			</g>
			<g class="st12">
				
					<linearGradient id="SVGID_00000101081437943434090900000005555278651849707937_" gradientUnits="userSpaceOnUse" x1="1027.172" y1="776.2428" x2="1736.8875" y2="20.2426" gradientTransform="matrix(-1 0 0 -1 1535.873 1027.9449)">
					<stop  offset="0" style="stop-color:#FFFFFF"/>
					<stop  offset="1" style="stop-color:#FFFFFF;stop-opacity:0"/>
				</linearGradient>
				<path style="fill:url(#SVGID_00000101081437943434090900000005555278651849707937_);" d="M356.79,357.21
					c18.68,0,37.36,7.13,51.62,21.38c28.51,28.51,28.51,74.73,0,103.24l-511.86,511.86c-28.51,28.51-74.73,28.51-103.24,0
					c-28.51-28.51-28.51-74.73,0-103.24l511.86-511.86C319.42,364.34,338.1,357.21,356.79,357.21z"/>
			</g>
			<g>
				
					<linearGradient id="SVGID_00000180326252804222466100000008309631973855283092_" gradientUnits="userSpaceOnUse" x1="-264.4698" y1="689.0999" x2="445.2458" y2="-66.9005" gradientTransform="matrix(-1 0 0 -1 1535.873 1027.9449)">
					<stop  offset="0" style="stop-color:#FFFFFF"/>
					<stop  offset="1" style="stop-color:#FFFFFF;stop-opacity:0"/>
				</linearGradient>
				<path style="fill:url(#SVGID_00000180326252804222466100000008309631973855283092_);" d="M1648.43,444.36
					c18.68,0,37.36,7.13,51.62,21.38c28.51,28.51,28.51,74.73,0,103.24l-511.86,511.86c-28.51,28.51-74.73,28.51-103.24,0
					c-28.51-28.51-28.51-74.73,0-103.24l511.86-511.86C1611.06,451.48,1629.75,444.36,1648.43,444.36z"/>
			</g>
			<g class="st15">
				
					<linearGradient id="SVGID_00000075872111474878430290000017936225028074191527_" gradientUnits="userSpaceOnUse" x1="-218.065" y1="1220.4331" x2="491.6504" y2="464.4329" gradientTransform="matrix(-1 0 0 -1 1535.873 1027.9449)">
					<stop  offset="0" style="stop-color:#FFFFFF;stop-opacity:0"/>
					<stop  offset="1" style="stop-color:#FFFFFF"/>
				</linearGradient>
				<path style="fill:url(#SVGID_00000075872111474878430290000017936225028074191527_);" d="M1602.02-86.98
					c18.68,0,37.36,7.13,51.62,21.38c28.51,28.51,28.51,74.73,0,103.24L1141.79,549.5c-28.51,28.51-74.73,28.51-103.24,0
					c-28.51-28.51-28.51-74.73,0-103.24L1550.4-65.6C1564.66-79.85,1583.34-86.98,1602.02-86.98z"/>
			</g>
		</g>
	</g>
	<g style="clip-path:url(#SVGID_00000024689105768487111360000013241160178857988526_);">
		<g>
			<path class="st17" d="M1149.39,199.57l0.98-5.73l0.97-5.66c0.98-5.75-2.87-11.2-8.61-12.18l-350.59-59.83
				c-9.45-1.61-18.39,4.63-19.98,13.95c0,0.01,0,0.02,0,0.03c0,0,0,0,0,0c0-0.01,0-0.02,0-0.03l-44.38,260.04
				c-1.52,8.89,4.46,17.33,13.35,18.85l340.63,58.13c1.18,0.2,2.53,0.48,3.91,0.57l6.12,1c0,0.01,0.01,0.03,0.02,0.03l0.97,0.16
				l-0.01,0.09c0,0.01,0.01,0.03,0.02,0.03l4.54,0.77c3.21,0.55,6.26-1.61,6.81-4.82l0.02-0.11l43.37-254.11l1.8-10.52
				C1149.35,200,1149.36,199.78,1149.39,199.57z M772.05,131.01"/>
			<path class="st18" d="M1151.33,188.17c0.98-5.75-2.87-11.2-8.61-12.18l-350.59-59.83c-9.45-1.61-18.39,4.63-19.98,13.95v0
				c-1.59,9.32,4.78,18.17,14.23,19.79l350.59,59.83c5.74,0.98,11.18-2.89,12.16-8.63L1151.33,188.17z"/>
			<path class="st19" d="M1139.35,186.81l0.03,0.01l-341.2-58.23c-3.13-0.53-6.28,1.41-6.89,4.52c-0.63,3.2,1.5,6.26,4.69,6.81
				l323.55,55.22c0.01,0,0.02,0.02,0.02,0.03l-1.9,11.12c0,0.01,0.01,0.03,0.02,0.03l17.83,3.04c0.01,0,0.02,0.02,0.02,0.03
				l-44.27,259.21c0,0.01,0.01,0.03,0.02,0.03l5.66,0.97c0.02,0,0.04,0.01,0.06,0.01c3.14,0.52,6.09-1.71,6.62-4.85l45.16-264.63
				C1149.85,193.84,1145.63,187.88,1139.35,186.81z"/>
			<path class="st20" d="M1138.35,198.46l-344.61-58.81c-3.13-0.53-5.24-3.5-4.72-6.63c0-0.01-0.01-0.03-0.02-0.03l-16.81-2.87
				c-0.02,0-0.03,0.01-0.03,0.02c-1.57,9.3,4.69,18.12,13.99,19.71l350.3,59.78c0.01,0,0.02,0.02,0.02,0.03l-61.62,256.05
				c0,0.01,17.41,3.09,17.42,3.09l4.54,0.77c3.21,0.55,6.26-1.61,6.81-4.82l43.37-254.12
				C1147.96,204.89,1144.1,199.44,1138.35,198.46z"/>
			<g>
				<g>
					
						<linearGradient id="SVGID_00000101102694827223907960000000336088582441102761_" gradientUnits="userSpaceOnUse" x1="731.715" y1="270.2341" x2="1136.9028" y2="329.2034">
						<stop  offset="0" style="stop-color:#8A6037"/>
						<stop  offset="0.047" style="stop-color:#986437"/>
						<stop  offset="0.1488" style="stop-color:#AF6B37"/>
						<stop  offset="0.2659" style="stop-color:#C17037"/>
						<stop  offset="0.4056" style="stop-color:#CE7337"/>
						<stop  offset="0.5905" style="stop-color:#D57537"/>
						<stop  offset="1" style="stop-color:#D77637"/>
					</linearGradient>
					<path style="fill:url(#SVGID_00000101102694827223907960000000336088582441102761_);stroke:#1D1D1B;stroke-miterlimit:10;" d="
						M1137,209.76c0-0.01-0.01-0.03-0.02-0.03l-350.83-59.87c-9.32-1.59-15.58-10.43-13.99-19.74l-44.38,260.04
						c-1.52,8.89,4.46,17.33,13.35,18.85l340.63,58.13c4.26,0.73,10.9,2.46,12.58-7.36L1137,209.76z"/>
					<g>
						<path class="st22" d="M1065.14,453.33l-308.85-52.71c-8.89-1.52-14.87-9.96-13.35-18.85l34.96-204.88
							c1.52-8.89,9.96-14.87,18.85-13.35l308.85,52.71c8.89,1.52,14.87,9.96,13.35,18.85l-34.96,204.88
							C1082.47,448.86,1074.03,454.84,1065.14,453.33z"/>
					</g>
				</g>
				<g>
					<circle class="st23" cx="932.54" cy="309.77" r="95.5"/>
					<path id="symbol_00000177474586602087816660000002140420613430294956_" class="st19" d="M970.34,283.07
						c-3.01-11.98-13.89-16.29-28.09-16.34c-0.01,0-0.03-0.01-0.03-0.02l-1.5-17.93c0-0.02-0.01-0.03-0.03-0.03l-10.88,0.91
						c-0.02,0-0.03,0.01-0.03,0.03l1.43,17.87c0,0.02-0.01,0.03-0.03,0.03c-2.86,0.22-5.77,0.34-8.69,0.65
						c-0.02,0-0.03-0.01-0.03-0.02l-1.45-17.77c0-0.02-0.01-0.03-0.03-0.03l-10.88,0.91c-0.02,0-0.03,0.01-0.02,0.03l1.5,17.93
						c0,0.01-0.01,0.03-0.02,0.03c-2.42,0.26-21.33,1.81-22.04,1.87c-0.02,0-0.02,0.01-0.02,0.03l0.96,11.65
						c0,0.02,0.01,0.03,0.03,0.03c0.5-0.05,8.03-0.84,7.93-0.68c4.46-0.39,6.1,2.09,6.71,4.26c0,0,0,0,0,0.01l4.15,49.29
						c-0.08,1.39-0.73,3.68-3.79,3.98c0.15,0.13-7.51,0.63-7.94,0.66c-0.01,0-0.02,0.01-0.02,0.02l-1.09,13.22
						c0,0.02,0.01,0.03,0.03,0.03c0.83-0.07,19.45-1.59,22.04-1.79c0.02,0,0.02,0.01,0.03,0.03l1.51,18.14
						c0,0.02,0.01,0.03,0.03,0.02l10.88-0.91c0.02,0,0.03-0.01,0.03-0.03l-1.49-18.26c0-0.02,0.01-0.03,0.03-0.03
						c2.97-0.18,5.88-0.39,8.71-0.64c0.02,0,0.03,0.01,0.03,0.02l1.49,18.16c0,0.02,0.01,0.03,0.03,0.03l10.88-0.91
						c0.02,0,0.03-0.01,0.03-0.03l-1.52-18.11c0-0.02,0.01-0.03,0.03-0.03c16.79-1.18,29.9-9.41,30.23-25.36
						c0.11-9.61-8.79-19.04-17.14-21.39c-0.02-0.01-0.03-0.03-0.01-0.05C968.29,298.77,972.08,292.46,970.34,283.07L970.34,283.07z
						 M958.29,323.29c-0.55,15.75-22.24,14-29.65,14.65c-0.01,0-0.03-0.01-0.03-0.02l-2.22-24.05c0-0.02,0.01-0.03,0.02-0.03
						C933.86,313.17,957.08,309.12,958.29,323.29C958.29,323.28,958.29,323.29,958.29,323.29z M950.75,289.69
						c-0.13,14.06-18.67,12.54-24.86,13.04c-0.01,0-0.03-0.01-0.03-0.02l-2.03-21.83c0-0.02,0.01-0.03,0.02-0.03
						C930.06,280.39,948.42,276.25,950.75,289.69C950.75,289.68,950.75,289.69,950.75,289.69z"/>
				</g>
			</g>
		</g>
		
			<linearGradient id="SVGID_00000070839402692684737800000014496425525933428647_" gradientUnits="userSpaceOnUse" x1="748.6887" y1="107.1277" x2="789.064" y2="84.5983">
			<stop  offset="0.1969" style="stop-color:#8A6037"/>
			<stop  offset="0.2386" style="stop-color:#9C6537"/>
			<stop  offset="0.3054" style="stop-color:#B26B37"/>
			<stop  offset="0.3844" style="stop-color:#C37037"/>
			<stop  offset="0.4822" style="stop-color:#CE7437"/>
			<stop  offset="0.6193" style="stop-color:#D57537"/>
			<stop  offset="1" style="stop-color:#D77637"/>
		</linearGradient>
		<path style="fill:url(#SVGID_00000070839402692684737800000014496425525933428647_);stroke:#1D1D1B;stroke-miterlimit:10;" d="
			M762.64,59.76L741.71,76.1c17.79,11.87,29.02,31.4,30.21,57.64c-0.02-15.9,14-17.83,14-17.83
			C784.42,90.19,780.51,74.95,762.64,59.76z M760.01,79.56c-3.54-0.17-5.11-0.64-5.62-2.69c-0.77-3.08,3.17-6.77,6.77-6.77
			c0,0,3.32-0.57,4.6,4.07C766.39,76.46,763.57,79.73,760.01,79.56z"/>
		
			<linearGradient id="SVGID_00000134238283634871347650000017038973396883467710_" gradientUnits="userSpaceOnUse" x1="434.7232" y1="355.8041" x2="603.4735" y2="170.1424">
			<stop  offset="0" style="stop-color:#339977"/>
			<stop  offset="0.0102" style="stop-color:#319B78"/>
			<stop  offset="0.1399" style="stop-color:#20AC82"/>
			<stop  offset="0.2964" style="stop-color:#13B889"/>
			<stop  offset="0.5073" style="stop-color:#0CBF8D"/>
			<stop  offset="1" style="stop-color:#0AC18E"/>
		</linearGradient>
		<path style="fill:url(#SVGID_00000134238283634871347650000017038973396883467710_);stroke:#1D1D1B;stroke-miterlimit:10;" d="
			M593.12,164.52l-70.83,0.56l-146.05,128.1l99.29,112.11l146.05-128.1l5.55-74.26L593.12,164.52z M583.84,220.09
			c-6.89-0.69-11.92-6.83-11.23-13.72c0.69-6.89,6.83-11.92,13.72-11.23s11.92,6.83,11.23,13.72
			C596.87,215.74,590.73,220.77,583.84,220.09z"/>
		<g>
			<path class="st26" d="M463.29,331.07c-2.6,2.34-5.23,3.39-7.89,3.17c-2.66-0.22-5.19-1.67-7.58-4.33
				c-1.19-1.32-2.04-2.69-2.56-4.1c-0.52-1.41-0.74-2.8-0.65-4.17c0.08-1.37,0.46-2.68,1.12-3.95c0.67-1.27,1.59-2.43,2.76-3.48
				c0.68-0.61,1.34-1.11,1.98-1.51c0.64-0.4,1.23-0.72,1.77-0.96c0.53-0.24,1-0.42,1.4-0.53c0.4-0.11,0.7-0.18,0.89-0.22l1.57,3.84
				c-0.73,0.18-1.5,0.47-2.32,0.87c-0.82,0.4-1.65,0.98-2.48,1.72c-0.55,0.5-1.01,1.08-1.38,1.74c-0.36,0.66-0.57,1.38-0.61,2.15
				c-0.04,0.77,0.1,1.6,0.44,2.46c0.33,0.87,0.92,1.76,1.74,2.69c0.66,0.74,1.36,1.36,2.1,1.85c0.74,0.49,1.49,0.81,2.27,0.95
				c0.78,0.14,1.58,0.08,2.4-0.18c0.83-0.26,1.66-0.76,2.49-1.5c0.52-0.47,0.97-0.92,1.32-1.36c0.36-0.43,0.66-0.84,0.91-1.21
				c0.25-0.37,0.45-0.73,0.59-1.06c0.15-0.33,0.28-0.63,0.4-0.9l3.58,1.99c-0.23,0.76-0.7,1.68-1.4,2.76
				C465.47,328.89,464.51,329.98,463.29,331.07z"/>
			<path class="st26" d="M463.84,307.48c1.02-0.91,1.97-1.56,2.85-1.93c0.88-0.38,1.72-0.53,2.52-0.47
				c0.79,0.07,1.55,0.33,2.28,0.79c0.72,0.46,1.42,1.07,2.1,1.83l6.43,7.16c-0.4,0.55-0.97,1.29-1.71,2.23
				c-0.75,0.93-1.74,1.96-2.99,3.08c-0.78,0.7-1.56,1.28-2.32,1.71c-0.76,0.44-1.52,0.7-2.26,0.8c-0.74,0.1-1.47,0.01-2.17-0.28
				c-0.7-0.29-1.38-0.8-2.05-1.54c-0.64-0.71-1.03-1.44-1.19-2.18c-0.16-0.75-0.13-1.48,0.08-2.2c0.21-0.72,0.57-1.42,1.07-2.11
				c0.5-0.68,1.08-1.32,1.74-1.92c0.45-0.4,0.86-0.74,1.24-1.01c0.38-0.27,0.71-0.47,0.98-0.61l-0.29-0.32
				c-0.53-0.59-1.12-0.89-1.8-0.93s-1.45,0.34-2.32,1.13c-0.58,0.52-1.12,1.09-1.62,1.68c-0.49,0.6-0.88,1.16-1.16,1.68l-2.93-2.38
				c0.15-0.24,0.34-0.53,0.57-0.87c0.24-0.34,0.51-0.69,0.82-1.07c0.31-0.37,0.64-0.75,0.99-1.14
				C463.06,308.21,463.44,307.84,463.84,307.48z M473.15,317.29c0.34-0.3,0.65-0.6,0.95-0.89c0.29-0.29,0.52-0.54,0.68-0.73
				l-2.34-2.61c-0.17,0.09-0.4,0.25-0.71,0.47c-0.3,0.22-0.57,0.43-0.8,0.64c-0.32,0.29-0.61,0.58-0.86,0.88
				c-0.25,0.29-0.43,0.59-0.55,0.89c-0.12,0.3-0.16,0.6-0.11,0.9c0.04,0.3,0.19,0.58,0.44,0.86c0.48,0.54,1,0.75,1.55,0.63
				C471.93,318.2,472.52,317.86,473.15,317.29z"/>
			<path class="st26" d="M484.7,306.8c0.63-0.57,1.02-1.03,1.17-1.39c0.15-0.36,0.07-0.71-0.25-1.07c-0.25-0.28-0.64-0.37-1.16-0.27
				c-0.53,0.1-1.25,0.32-2.18,0.68c-0.72,0.28-1.39,0.51-2.02,0.69c-0.63,0.18-1.24,0.26-1.81,0.23c-0.58-0.02-1.14-0.17-1.68-0.43
				c-0.54-0.26-1.08-0.69-1.6-1.27c-1.02-1.14-1.41-2.42-1.16-3.84c0.25-1.42,1.12-2.8,2.59-4.12c0.74-0.66,1.51-1.23,2.3-1.71
				c0.79-0.48,1.46-0.82,2-1.02l1.8,3.22c-0.53,0.22-1.07,0.49-1.64,0.8c-0.57,0.31-1.14,0.73-1.73,1.26
				c-1.08,0.97-1.35,1.75-0.81,2.35c0.12,0.14,0.26,0.24,0.4,0.31s0.33,0.09,0.56,0.06c0.23-0.02,0.51-0.09,0.86-0.18
				c0.34-0.1,0.76-0.24,1.26-0.43c1-0.4,1.88-0.68,2.61-0.85c0.74-0.17,1.39-0.23,1.96-0.17c0.57,0.06,1.08,0.23,1.54,0.51
				c0.46,0.28,0.92,0.67,1.37,1.18c1.08,1.2,1.44,2.51,1.09,3.93c-0.35,1.42-1.35,2.87-2.99,4.35c-1.08,0.97-2.06,1.68-2.94,2.14
				c-0.88,0.46-1.52,0.75-1.9,0.88l-1.93-3.31c0.79-0.29,1.55-0.65,2.29-1.07C483.44,307.82,484.1,307.34,484.7,306.8z"/>
			<path class="st26" d="M494.63,302.35l-15.59-17.36l2.94-3.64l5.22,5.82c0.16-0.28,0.39-0.62,0.69-1.02
				c0.3-0.39,0.62-0.74,0.96-1.05c0.98-0.88,1.93-1.48,2.82-1.8c0.9-0.32,1.76-0.41,2.6-0.27s1.64,0.48,2.41,1.01
				c0.77,0.53,1.53,1.21,2.27,2.05l6.16,6.86l-3.44,3.09l-5.78-6.44c-0.99-1.11-1.84-1.76-2.54-1.97c-0.7-0.21-1.43,0.04-2.2,0.73
				c-0.31,0.28-0.57,0.56-0.79,0.86c-0.22,0.3-0.41,0.57-0.57,0.83l8.29,9.23L494.63,302.35z"/>
			<path class="st26" d="M503.29,272.77l2.68-2.4l-2.77-4.6l3-2.69l2.77,4.6l1.68-1.51l2.38,2.65l-2.19,1.96l2.01,3.33l2.73-2.45
				l2.38,2.65l-3.24,2.91l2.77,4.6l-3,2.69l-2.77-4.6l-2.68,2.4l2.77,4.6l-3,2.69l-2.77-4.6l-1.68,1.51l-2.38-2.65l2.19-1.96
				l-2.01-3.33l-2.73,2.45l-2.38-2.65l3.24-2.91l-2.77-4.6l3-2.69L503.29,272.77z M507.16,279.21l2.68-2.4l-2.01-3.33l-2.68,2.4
				L507.16,279.21z"/>
			<path class="st26" d="M512.99,262.97c0.28-0.59,0.56-1.22,0.83-1.89s0.51-1.36,0.72-2.06c0.21-0.7,0.38-1.4,0.52-2.09
				c0.14-0.7,0.22-1.37,0.24-2.03l2.4-2.16l14.37,16l-3.44,3.09l-10.34-11.52c-0.18,0.72-0.45,1.47-0.79,2.23
				c-0.34,0.77-0.7,1.48-1.07,2.15L512.99,262.97z"/>
			<path class="st26" d="M536.72,243.24c0.53,0.59,0.91,1.25,1.17,2c0.25,0.75,0.42,1.53,0.5,2.37c0.08,0.83,0.1,1.69,0.05,2.56
				c-0.05,0.88-0.11,1.72-0.18,2.54c-0.04,0.42-0.07,0.89-0.1,1.4c-0.03,0.51-0.04,1.02-0.04,1.51c0,0.5,0.01,0.95,0.04,1.36
				c0.02,0.41,0.08,0.71,0.17,0.91l6.88-6.18l2.59,2.89l-10.67,9.58c-0.18-0.14-0.39-0.34-0.63-0.6s-0.4-0.45-0.5-0.55
				c-0.66-0.74-1.15-1.52-1.47-2.35c-0.31-0.83-0.52-1.68-0.61-2.56c-0.09-0.88-0.1-1.76-0.03-2.66c0.07-0.9,0.14-1.79,0.2-2.68
				c0.05-0.69,0.1-1.33,0.14-1.94c0.04-0.61,0.05-1.17,0.03-1.69c-0.02-0.52-0.1-0.99-0.23-1.42c-0.13-0.42-0.33-0.79-0.61-1.1
				c-0.61-0.68-1.23-0.98-1.86-0.91c-0.63,0.07-1.24,0.36-1.81,0.87c-0.42,0.37-0.75,0.79-0.99,1.24c-0.24,0.46-0.44,0.91-0.58,1.35
				c-0.14,0.45-0.24,0.86-0.3,1.22c-0.06,0.37-0.09,0.66-0.1,0.86l-3.86-0.87c0.11-1.24,0.43-2.47,0.97-3.68
				c0.53-1.22,1.32-2.29,2.35-3.21c0.94-0.84,1.84-1.46,2.71-1.85c0.87-0.39,1.7-0.59,2.49-0.59c0.79,0,1.54,0.19,2.25,0.56
				C535.41,241.99,536.09,242.54,536.72,243.24z"/>
			<path class="st26" d="M554.55,249.17c-0.42,0.37-0.88,0.74-1.39,1.1c-0.51,0.36-1.02,0.69-1.54,0.98c-0.51,0.3-1,0.55-1.45,0.76
				c-0.45,0.21-0.82,0.36-1.1,0.45l-1.9-3.46c0.55-0.19,1.23-0.47,2.02-0.84c0.8-0.37,1.66-0.97,2.58-1.8
				c1.06-0.95,1.66-1.85,1.79-2.69c0.13-0.84-0.11-1.6-0.71-2.28c-0.37-0.42-0.78-0.69-1.21-0.81c-0.43-0.13-0.88-0.14-1.35-0.04
				c-0.47,0.1-0.94,0.3-1.43,0.62c-0.48,0.31-0.97,0.68-1.44,1.11l-1.34,1.2l-2.49-2.77l1.52-1.37c0.34-0.3,0.64-0.63,0.9-0.97
				c0.26-0.34,0.45-0.7,0.56-1.07c0.11-0.37,0.13-0.74,0.05-1.13c-0.08-0.39-0.29-0.77-0.64-1.16c-0.26-0.29-0.55-0.49-0.87-0.6
				s-0.63-0.14-0.95-0.11c-0.32,0.03-0.63,0.13-0.95,0.29c-0.32,0.16-0.61,0.36-0.87,0.59c-0.66,0.59-1.18,1.24-1.57,1.95
				c-0.38,0.71-0.67,1.41-0.87,2.12l-3.48-1.42c0.11-0.37,0.25-0.79,0.43-1.26c0.18-0.47,0.41-0.95,0.68-1.45
				c0.28-0.5,0.6-1,0.97-1.5c0.37-0.5,0.81-0.98,1.32-1.43c0.94-0.84,1.85-1.46,2.74-1.85c0.88-0.39,1.73-0.59,2.55-0.58
				c0.81,0.01,1.57,0.19,2.28,0.54c0.71,0.35,1.35,0.85,1.93,1.5c0.57,0.63,0.94,1.4,1.11,2.31c0.18,0.91,0.1,1.79-0.22,2.63
				c1.14-0.41,2.23-0.48,3.29-0.22c1.06,0.26,2.01,0.86,2.85,1.8c0.66,0.74,1.15,1.53,1.47,2.38c0.31,0.85,0.41,1.73,0.3,2.66
				c-0.12,0.92-0.46,1.88-1.04,2.86C556.51,247.19,555.66,248.17,554.55,249.17z"/>
			<path class="st26" d="M563.81,233.89c0.36,0.34,0.62,0.59,0.76,0.73c0.15,0.15,0.27,0.27,0.36,0.38
				c0.41,0.46,0.81,0.99,1.19,1.58c0.38,0.59,0.73,1.22,1.04,1.88s0.59,1.36,0.83,2.09c0.24,0.73,0.43,1.47,0.56,2.21l-3.3,1.76
				c-0.56-1.33-1.17-2.51-1.83-3.53c-0.66-1.02-1.26-1.82-1.78-2.4c-0.08-0.09-0.19-0.21-0.33-0.35c-0.14-0.14-0.28-0.28-0.43-0.43
				c-0.15-0.15-0.29-0.29-0.42-0.42c-0.13-0.13-0.22-0.22-0.26-0.27L563.81,233.89z M558.08,227.28c0.62,0.69,0.88,1.42,0.76,2.17
				c-0.11,0.76-0.45,1.38-1,1.88c-0.55,0.5-1.21,0.76-1.98,0.79c-0.76,0.03-1.46-0.3-2.08-0.99s-0.88-1.42-0.76-2.17
				s0.45-1.38,1-1.88c0.55-0.5,1.21-0.76,1.98-0.79C556.77,226.25,557.46,226.58,558.08,227.28z"/>
		</g>
		<g>
			<g>
				<path class="st27" d="M761.42,79.03c0.59-8.68-1.18-19.08-8.77-24.39c-3.59-2.52-7.92-3.86-12.17-4.76
					c-5.5-1.17-11.13-1.8-16.74-2.16c-5.87-0.38-11.76-0.43-17.64-0.29c-5.33,0.13-10.7,0.56-15.64,2.73
					c-4.69,2.06-8.73,5.34-12.59,8.65c-3.9,3.34-7.65,6.85-11.28,10.48c-14.49,14.46-27.02,30.71-39.94,46.54
					c-6.51,7.98-13.14,15.88-20.17,23.4c-3.46,3.7-7.02,7.32-10.71,10.8c-3.56,3.36-7.3,6.54-10.76,10.01
					c-6.36,6.38-11.97,14.32-11.25,23.77c0.72,9.46,7.17,17.41,16.24,20.14c2.17,0.65,4.42,0.98,6.68,0.99c0.8,0,0.81-1.25,0-1.25
					c-9.78-0.05-18.56-6.56-21.03-16.09c-2.47-9.49,2.15-18.08,8.48-24.86c3.07-3.28,6.44-6.25,9.76-9.27
					c3.63-3.31,7.15-6.75,10.56-10.29c6.75-7.01,13.11-14.38,19.32-21.88c12.42-15,24.24-30.53,37.55-44.76
					c6.69-7.15,13.75-14.18,21.5-20.19c4.1-3.18,8.56-5.75,13.69-6.79c5.4-1.1,11.08-0.97,16.58-0.94
					c5.57,0.03,11.14,0.27,16.67,0.87c5.07,0.55,10.23,1.27,15.09,2.83c4.1,1.31,8.18,3.39,10.82,6.9c2.8,3.74,3.98,8.66,4.41,13.24
					c0.21,2.19,0.23,4.39,0.08,6.58C760.12,79.83,761.37,79.83,761.42,79.03L761.42,79.03z"/>
			</g>
		</g>
		<g>
			<g>
				<path class="st27" d="M623.05,204.48c2.4-1.23,4.96-1.9,7.56-2.59c3.33-0.88,6.69-1.63,10.07-2.33
					c6.61-1.37,13.26-2.52,19.84-4.01c6.43-1.45,12.8-3.24,18.87-5.82c6.19-2.63,11.9-6.17,17.21-10.28
					c9.27-7.17,17.69-15.52,24.33-25.19c6.62-9.64,12.13-20,17.65-30.29c3.01-5.59,5.99-11.2,9.16-16.7
					c3.2-5.54,7.24-10.74,9.72-16.65c0.31-0.74-0.9-1.06-1.21-0.33c-2.26,5.4-5.97,10.14-8.92,15.19c-2.79,4.77-5.41,9.64-8.03,14.5
					c-5.51,10.25-10.92,20.59-17.26,30.35c-2.85,4.38-5.88,8.68-9.37,12.58c-4.1,4.59-8.73,8.84-13.44,12.8
					c-5.2,4.37-10.81,8.31-16.92,11.31c-5.96,2.92-12.31,4.93-18.74,6.52c-7.26,1.8-14.63,3.06-21.96,4.55
					c-3.74,0.76-7.46,1.57-11.15,2.54c-2.77,0.73-5.51,1.46-8.07,2.77C621.7,203.77,622.33,204.85,623.05,204.48L623.05,204.48z"/>
			</g>
		</g>
	</g>
</g>
</svg>
