<svg id="Capa_1" xmlns="http://www.w3.org/2000/svg" xmlns:xlink="http://www.w3.org/1999/xlink" viewBox="0 0 1500 500" style="enable-background:new 0 0 1500 500"><style>.st0{fill:url(#SVGID_1_)}.st1{fill:url(#SVGID_00000120516819799284088730000003974840407752806836_);stroke:#1d1d1b;stroke-width:2;stroke-miterlimit:10}.st2{fill:#3aa135;stroke:#1d1d1b;stroke-miterlimit:10}.st3{fill:url(#SVGID_00000057122412236805336840000003263050441409842072_);stroke:#1d1d1b;stroke-miterlimit:10}.st4{fill:#008436;stroke:#1d1d1b;stroke-miterlimit:10}.st5{fill:#c4581c;stroke:#1d1d1b;stroke-width:2;stroke-miterlimit:10}.st6{fill:#ff945f}.st7{fill:url(#SVGID_00000052816284135166965400000006120111606385924784_);stroke:#1d1d1b;stroke-miterlimit:10}.st8{fill:none;stroke:#f0a933;stroke-miterlimit:10;stroke-dasharray:5.9976,2.9988}.st9{fill:none;stroke:#f0a933;stroke-miterlimit:10;stroke-dasharray:6,3}.st10{fill:#c4581c}.st11{fill:#b51622;stroke:#1d1d1b;stroke-linecap:round;stroke-linejoin:round;stroke-miterlimit:10}.st12{fill:#b51622;stroke:#1d1d1b;stroke-miterlimit:10}.st13{fill:#3c3c3b}.st14{fill:#1d1d1b;stroke:#1d1d1b;stroke-miterlimit:10}.st15{fill:#fff}.st16{fill:#3c3c3b;stroke:#1d1d1b;stroke-miterlimit:10}.st17{fill:#dd332a}.st18{fill:#94161b;stroke:#1d1d1b;stroke-linecap:round;stroke-linejoin:round;stroke-miterlimit:10}.st19{fill:#94161b;stroke:#1d1d1b;stroke-miterlimit:10}.st20{opacity:.1;fill:#ededed;enable-background:new}.st21{fill:#1d1d1b;stroke:#1d1d1b;stroke-linecap:round;stroke-linejoin:round;stroke-miterlimit:10}.st22{fill:#063}</style><g id="Capa_4"><radialGradient id="SVGID_1_" cx="750" cy="251.41" r="795.9713" gradientTransform="matrix(1 0 0 -1 0 502)" gradientUnits="userSpaceOnUse"><stop offset=".1065558e-6" style="stop-color:#FDC417"/><stop offset=".0735" style="stop-color:#FDC627"/><stop offset=".2668" style="stop-color:#FDCA4C"/><stop offset=".4232" style="stop-color:#FDCC63"/><stop offset=".5221" style="stop-color:#FDCD6B"/><stop offset=".6958" style="stop-color:#FBCC6A;stop-opacity:.9818"/><stop offset=".7648" style="stop-color:#F4C669;stop-opacity:.9746"/><stop offset=".8152" style="stop-color:#E8BD65;stop-opacity:.9693"/><stop offset=".8565" style="stop-color:#D6B061;stop-opacity:.965"/><stop offset=".8923" style="stop-color:#C09F5B;stop-opacity:.9613"/><stop offset=".9242" style="stop-color:#A48954;stop-opacity:.9579"/><stop offset=".9533" style="stop-color:#83704B;stop-opacity:.9549"/><stop offset=".9793" style="stop-color:#5D5441;stop-opacity:.9522"/><stop offset="1" style="stop-color:#3A3938;stop-opacity:.95"/></radialGradient><rect y=".59" class="st0" width="1500" height="500"/></g><g id="fondo"/><g id="cashAccount"/><g id="Capa_3"><g><linearGradient id="SVGID_00000050654467188420030340000013489149604248449704_" gradientUnits="userSpaceOnUse" x1="596.6191" y1="34.83" x2="901.8777" y2="470.7843" gradientTransform="matrix(1 0 0 -1 0 502)"><stop offset="0" style="stop-color:#2D2770"/><stop offset=".1256" style="stop-color:#2F478D"/><stop offset=".2766" style="stop-color:#3166AA"/><stop offset=".4349" style="stop-color:#327EC0"/><stop offset=".6014" style="stop-color:#3390D0"/><stop offset=".7815" style="stop-color:#349AD9"/><stop offset="1" style="stop-color:#349DDC"/></linearGradient><circle style="fill:url(#SVGID_00000050654467188420030340000013489149604248449704_);stroke:#1d1d1b;stroke-width:2;stroke-miterlimit:10" cx="747.85" cy="251.19" r="246.27"/><rect x="522.11" y="317.1" class="st2" width="467.06" height="27.28"/><linearGradient id="SVGID_00000146462365170894334250000005509461700560345267_" gradientUnits="userSpaceOnUse" x1="466.25" y1="261.05" x2="696.52" y2="261.05" gradientTransform="matrix(1 0 0 -1 0 502)"><stop offset="0" style="stop-color:#006633"/><stop offset=".1314" style="stop-color:#007739"/><stop offset=".2963" style="stop-color:#00843D"/><stop offset=".5153" style="stop-color:#008B3F"/><stop offset="1" style="stop-color:#008D40"/></linearGradient><path style="fill:url(#SVGID_00000146462365170894334250000005509461700560345267_);stroke:#1d1d1b;stroke-miterlimit:10" d="M607.43 165.79c-49.2.0-89.09 33.65-89.09 75.16.0 3.89.35 7.72 1.03 11.45-30.12 2.48-53.12 15.7-53.12 31.64.0 16.35 24.19 29.83 55.44 31.81v.26h85.74c49.2.0 89.09-33.65 89.09-75.16S656.63 165.79 607.43 165.79z"/><path class="st4" d="M988.33 252.73c-6.71.0-12.93 2.09-18.05 5.65 3.98-10.24 6.17-21.37 6.17-33.01.0-50.32-40.79-91.11-91.11-91.11s-91.11 40.79-91.11 91.11 40.79 91.11 91.11 91.11c6.86.0 13.54-.76 19.97-2.2v2.2h83.03v-.37c17.5.0 31.69-14.19 31.69-31.69C1020.02 266.92 1005.84 252.73 988.33 252.73z"/><g><path class="st5" d="M907.57 115.8v-4.84-4.79c0-4.86-3.93-8.79-8.77-8.79H588.12s0 6.38.0 14.25c0 .01.0.01.0.02.0-.01.0-.01.0-.02v191.22c0 7.51 6.09 13.6 13.6 13.6h287.81c.99.0 2.15.04 3.29-.08l5.16-.03c0 .01.01.02.02.02h.82v.07c0 .01.01.02.02.02h3.83c2.71.0 4.91-2.2 4.91-4.91v-.09V125.23v-8.89C907.6 116.16 907.58 115.98 907.57 115.8z"/><path class="st6" d="M898.35 97.69H607.17c-2.65.0-4.79 12.11-4.81 9.47.0-.01-.01-9.77-.02-9.77h-14.21c-.01.0-.02 9.76-.02 9.77.01 7.86 6.39-.03 14.25-.03l295.99-9.75c.01.0.02.01.02.02l-14.71 218.86c0 .01 14.72.1 14.74.1h3.83c2.71.0 4.91-2.2 4.91-4.91V106.48C907.15 101.63 903.21 97.69 898.35 97.69z"/><g><g><linearGradient id="SVGID_00000057116226204839716750000017703323358910788736_" gradientUnits="userSpaceOnUse" x1="541.6215" y1="320.1291" x2="879.4583" y2="270.9618" gradientTransform="matrix(0.9857 -0.1682 -0.1682 -0.9857 94.3164 617.6741)"><stop offset="0" style="stop-color:#8A6037"/><stop offset=".047" style="stop-color:#986437"/><stop offset=".1488" style="stop-color:#AF6B37"/><stop offset=".2659" style="stop-color:#C17037"/><stop offset=".4056" style="stop-color:#CE7337"/><stop offset=".5905" style="stop-color:#D57537"/><stop offset="1" style="stop-color:#D77637"/></linearGradient><path style="fill:url(#SVGID_00000057116226204839716750000017703323358910788736_);stroke:#1d1d1b;stroke-miterlimit:10" d="M898.82 97.41c0-.01-.01-.02-.02-.02H602.36c-7.87.0-14.25.0-14.25.0v219.07l310.71-.1s0 .58.0-7.71L898.82 97.41z"/><g><path class="st8" d="M873.95 307.46H612.99c-7.51.0-13.6-6.09-13.6-13.6V120.75c0-7.51 6.09-13.6 13.6-13.6h260.96c7.51.0 13.6 6.09 13.6 13.6v173.11C887.56 301.37 881.46 307.46 873.95 307.46z"/></g></g><g><circle class="st9" cx="744.97" cy="208.17" r="79.54"/><path id="symbol_00000109030502420464395350000006830884039102975657_" class="st10" d="M772.27 180.95c-4.15-9.41-13.68-11.43-25.36-9.48-.01.0-.02-.01-.03-.02l-3.74-14.51c0-.01-.02-.02-.03-.02l-8.81 2.27c-.01.0-.02.02-.02.03l3.68 14.47c0 .01.0.02-.02.03-2.31.58-4.69 1.08-7.04 1.75-.01.0-.02.0-.03-.02l-3.68-14.38c0-.01-.02-.02-.03-.02l-8.81 2.27c-.01.0-.02.02-.02.03l3.74 14.51c0 .01.0.02-.01.03-1.95.56-17.26 4.48-17.83 4.63-.01.0-.01.01-.01.03l2.42 9.43c0 .01.01.02.03.02.4-.11 6.48-1.81 6.42-1.67 3.61-.94 5.3.86 6.1 2.56l10.32 39.89c.13 1.15-.08 3.12-2.56 3.8.14.08-6.08 1.57-6.42 1.65-.01.0-.01.01-.01.02l.96 11.01c0 .01.01.02.03.02.67-.17 15.74-4.03 17.85-4.56.01.0.02.01.02.02l3.78 14.68c0 .01.02.02.03.02l8.81-2.27c.01.0.02-.02.02-.03l-3.78-14.78c0-.01.0-.02.02-.03 2.42-.56 4.77-1.15 7.06-1.75.01.0.02.0.03.02l3.76 14.7c0 .01.02.02.03.02l8.81-2.27c.01.0.02-.02.02-.03l-3.78-14.66c0-.01.0-.02.02-.03 13.62-3.32 23.23-11.91 21.26-25.06-1.26-7.91-9.88-14.4-17.07-15.16-.02.0-.03-.02-.01-.04C772.78 194.13 775.01 188.42 772.27 180.95zM768.01 215.66c1.76 13.01-16.3 14.61-22.29 16.18-.01.0-.02.0-.03-.02l-5.19-19.44c0-.01.0-.02.01-.03C746.53 210.78 765.03 204.2 768.01 215.66zM757.1 189.13c1.86 11.56-13.57 12.91-18.58 14.19-.01.0-.02.0-.03-.02l-4.73-17.64c0-.01.0-.02.02-.03C738.81 184.39 753.31 178.43 757.1 189.13z"/></g></g></g><rect x="521.69" y="316.11" class="st2" width="467.48" height="28.27"/><g><polygon class="st11" points="546.56,466.74 613.88,377.09 613.88,350.25 546.56,423.15"/><path class="st11" d="M613.88 350.25l-83.83 89.78h-41.13c-10.16.0-11.85-5.57-4.17-12.03l86.53-72.77c3.3-2.78 11.03-4.97 17.28-4.97h25.32V350.25z"/><path class="st12" d="M476.61 443.36v3.77c0 10.95 8.96 19.91 19.91 19.91h49.96v-43.6h-49.96C485.58 423.45 476.61 432.41 476.61 443.36z"/><path class="st13" d="M479.22 443.55v3.39c0 9.86 8.07 17.92 17.92 17.92h46.73v-39.24h-46.73C487.29 425.63 479.22 433.69 479.22 443.55z"/><g><g><path class="st14" d="M544.51 406.62h-16.29c.04.27.01.45-.1.54l-.08.04c-.05.01-.11.02-.17.02-.04.0-.05-.04-.03-.11.12-.51-.16-.83-.85-.96-.1-.02-.16-.04-.18-.07-.02-.02-.01-.05.03-.08l.49-.44c.03-.03.09-.06.17-.08.15-.04.28-.06.41-.06h17.8l.4-.39c.03-.03.07-.05.12-.07s.1-.03.15-.03.08.01.09.02c.02.02.02.05-.01.07l-2.15 2.13-.08.04c-.05.02-.1.03-.16.03-.05.0-.08-.02-.1-.07L544.51 406.62z"/><path class="st14" d="M528.88 404.16l2.64-2.39h-.47c-.05-.03-.05-.06-.02-.09.03-.02.1-.05.21-.08l2.36.07c.05.0.08.01.08.02.01.02-.01.04-.04.07l-2.44 2.23 5.35.07c-.62-.21-.98-.4-1.08-.57s-.02-.37.23-.61c.48-.45 1.36-.8 2.64-1.05s3.14-.38 5.61-.38c2.16.0 3.56.11 4.2.34.84.3.98.73.42 1.29-.36.36-.99.67-1.88.93s-1.95.39-3.16.39c-.84.0-1.37-.07-1.59-.2s-.23-.29-.05-.47c.17-.17.49-.31.94-.44s.98-.19 1.57-.19c.64.0 1.06.07 1.26.2s.21.29.03.46c-.08.08-.19.16-.32.24l-.07.05v.02c.02.01.06.02.12.02.45.0.95-.09 1.5-.28.55-.18.95-.4 1.2-.64.17-.17.2-.3.08-.39-.17-.12-.51-.18-1.01-.18h-9.35c-.57.0-1.02.04-1.36.13-.25.06-.43.15-.55.26-.24.22-.19.44.15.64.51.29 1.55.46 3.1.49.07.0.11.02.13.07-.02.02-.05.04-.1.05-.06.02-.12.02-.17.02L528.88 404.16z"/><path class="st14" d="M534.41 399.41l-.42.38c-.02.02-.05.04-.09.05-.04.01-.08.02-.12.02-.05.0-.08-.02-.09-.06l2.08-1.89c.02-.02.05-.04.1-.05.04-.01.08-.02.12-.02.05.0.08.01.09.02s.01.03-.01.05l-.34.31h14.62c.94.0 1.56.14 1.86.42s.23.65-.22 1.1c-.4.4-1 .73-1.8.98s-1.67.38-2.61.38c-.8.0-1.3-.07-1.52-.2-.21-.14-.23-.29-.05-.47.15-.14.42-.27.8-.38s.83-.16 1.35-.16c.49.0.81.05.95.15.15.1.15.22.01.37-.06.05-.15.12-.27.2-.13.08-.21.13-.25.17-.03.03-.03.05-.01.06.03.02.1.04.19.04.39.0.87-.09 1.44-.28.56-.19.95-.38 1.15-.58.17-.17.18-.3.03-.4-.21-.13-.62-.2-1.23-.2h-15.76V399.41z"/><path class="st14" d="M536.93 397.13l-.37.33c-.02.02-.05.04-.09.05-.04.01-.08.02-.12.02-.05.0-.08-.01-.09-.02s-.01-.03.01-.05l1.69-1.53 11.35-.53-10.01-.68 1.64-1.49c.02-.02.06-.04.1-.05.04-.01.08-.02.12-.02.05.0.08.01.09.02s0 .03-.02.05l-.39.35h16.89l.36-.35c.01-.01.03-.02.04-.02.05-.01.1-.02.15-.02.04.0.07.0.09.01.01.01.02.02.01.03l-1.82 1.8c-.01.01-.04.03-.08.04-.04.01-.08.02-.13.02s-.07-.01-.09-.02c-.01-.01-.01-.03.0-.04l.39-.38h-16.23l15.13.98c.2.01.3.03.32.04s.02.03.0.05l-.37.36c-.02.02-.06.04-.1.05-.04.01-.18.02-.4.03l-16.97.81h15c.41.0.72-.02.92-.06.21-.04.39-.11.56-.21l.3-.25c.04-.02.1-.03.17-.03.06.0.1.0.11.01s0 .03-.04.07l-1.01 1c-.02.02-.04.03-.07.04s-.07.01-.11.01-.06.0-.07-.01-.01-.04.0-.1c.02-.12-.02-.2-.13-.24-.15-.06-.41-.09-.79-.09h-15.94V397.13z"/><path class="st14" d="M560.56 390.75h-15c.06.23.04.38-.05.46l-.07.03c-.05.01-.1.02-.15.02-.04.0-.05-.03-.04-.09.07-.43-.22-.7-.86-.81-.1-.02-.15-.04-.17-.06s-.01-.04.02-.07l.42-.38c.03-.02.08-.05.15-.07.13-.03.26-.05.37-.05h16.4l.34-.33c.02-.02.06-.04.11-.06s.09-.02.14-.02.07.01.08.02c.02.02.02.04-.01.06l-1.82 1.8-.07.04c-.05.01-.09.02-.15.02-.05.0-.08-.02-.1-.06L560.56 390.75z"/><path class="st14" d="M557.53 388.87h-2.22c-1.77.0-2.93-.14-3.47-.41-.4-.2-.43-.45-.1-.76.41-.38 1.18-.68 2.28-.88 1.11-.2 2.39-.31 3.85-.31h2.43c1.9.0 3.13.13 3.69.39.41.19.45.44.13.76-.19.18-.46.35-.83.5-.36.15-.89.29-1.56.41-.68.12-1.49.2-2.44.24C558.36 388.85 557.77 388.87 557.53 388.87zM553.5 387.42c-.42.0-.74.03-.97.08-.23.06-.38.12-.46.19-.07.06-.06.12.02.17.08.05.27.08.55.08h9.47c.59.0 1.03-.03 1.3-.09.2-.05.34-.11.42-.19.08-.08.07-.14-.02-.18s-.35-.06-.78-.06H553.5z"/><path class="st14" d="M550.59 384.72l-.36.33c-.02.02-.05.03-.08.04-.04.01-.07.01-.11.01s-.07-.02-.08-.05l1.78-1.61c.02-.02.05-.03.08-.04.04-.01.08-.02.11-.02.04.0.07.01.09.02.01.01.01.03-.01.04l-.29.26h13.52c.87.0 1.45.12 1.75.36s.26.55-.13.94c-.34.34-.88.62-1.6.84s-1.51.33-2.38.33c-.74.0-1.21-.06-1.42-.17-.21-.12-.23-.25-.08-.4.13-.12.37-.23.71-.32.35-.09.76-.14 1.23-.14.45.0.75.04.89.13s.15.19.03.31c-.05.05-.13.1-.24.17-.11.06-.18.11-.22.15-.02.02-.02.04.0.06.03.02.09.03.18.03.36.0.8-.08 1.31-.24s.85-.33 1.02-.5c.14-.14.14-.26.0-.34-.2-.11-.59-.17-1.15-.17h-14.55V384.72z"/><path class="st14" d="M557.33 382.89l-.2.18c-.07.03-.13.04-.17.04-.05.0-.08-.01-.1-.04l1.13-1.05h10.95c.09.0.16-.01.23-.03.06-.02.11-.05.15-.08.07-.07.03-.14-.13-.21-.25-.11-.64-.17-1.16-.17h-9.23l-.2.19c-.02.02-.04.03-.07.04s-.07.01-.12.01c-.04.0-.07.0-.09-.01s-.02-.02.0-.04l1.12-1.04h11.34l.16-.16c.02-.02.04-.03.08-.04.04-.01.07-.02.12-.02s.07.01.08.02.01.02.0.04l-1.02 1.01h-.87c.27.1.42.21.46.31.04.11-.01.24-.16.38-.22.22-.51.38-.88.49s-.78.17-1.22.17L557.33 382.89z"/><path class="st14" d="M570.64 378.76c.12-.12.32-.22.6-.29.28-.08.63-.12 1.03-.12s.67.04.81.12c.13.08.14.18.03.29-.12.12-.32.22-.61.3-.28.08-.62.12-1.01.12-.42.0-.7-.04-.83-.12C570.52 378.98 570.52 378.88 570.64 378.76zM573.25 377.41c-.41.0-.68-.04-.8-.12-.13-.08-.13-.17-.02-.28.12-.12.33-.22.62-.3s.63-.12 1.03-.12c.39.0.66.04.79.11.13.08.14.17.02.29s-.32.22-.6.29C574 377.38 573.66 377.41 573.25 377.41zM574.19 375.28c.12-.11.31-.21.6-.28.28-.07.62-.11 1.02-.11s.66.04.79.11c.13.08.13.17.01.29s-.31.21-.58.28-.6.11-.99.11c-.4.0-.67-.04-.8-.12C574.09 375.49 574.08 375.39 574.19 375.28z"/><path class="st14" d="M562.96 373.49l-.31.28c-.08.03-.14.04-.17.04-.05.0-.08-.01-.09-.04l2.69-2.44h5.7c.05.02.07.03.05.05s-.04.03-.07.03c-.03.01-.13.01-.31.01-1.15.02-2.29.09-3.4.22-1.12.13-1.87.25-2.26.37-.21.06-.39.17-.55.32l-.29.27h7.25c.13-.16.07-.3-.2-.4-.36-.14-1.05-.2-2.09-.2h-.8c-.03.0-.06-.01-.07-.02-.01-.01-.01-.02.0-.04.02-.01.04-.03.07-.03.03-.01.07-.01.1-.01h7.63c.03.0.06.0.07.01.02.01.02.02.0.03-.01.01-.04.03-.07.04s-.07.02-.1.02H575c-1.01.0-1.9.08-2.66.23-.44.09-.71.19-.82.29-.03.03-.03.05.0.06.03.02.1.03.2.03h7.19l.14-.14c.12-.12.13-.23.04-.35-.09-.11-.35-.22-.76-.32-.42-.1-.9-.18-1.45-.23-.89-.09-1.62-.13-2.17-.13h-.68c-.05-.02-.07-.04-.05-.06s.04-.03.07-.04.06-.01.1-.01h6.33l-2.46 2.44c-.02.02-.05.04-.09.05s-.07.02-.11.02-.07-.01-.08-.02-.01-.03.01-.05l.28-.28H562.96z"/><path class="st14" d="M582.18 369.72c-.03.05-.07.1-.12.15-.17.17-.43.32-.77.45s-.79.25-1.34.35c-.41.08-1.02.16-1.84.24s-1.78.12-2.89.12h-4.42c-2.03.0-3.38-.14-4.06-.42-.47-.2-.54-.45-.21-.74.34-.31.95-.55 1.84-.74 1.27-.27 3.07-.4 5.4-.4h3.73c.99.0 1.81.03 2.47.09s1.18.14 1.56.24c.18.05.37.13.56.24.52-.12 1.17-.23 1.94-.33.27-.04.47-.07.59-.1.12-.03.23-.07.32-.12l.1-.05.06-.01c.04.0.06.02.07.05.03.08-.02.19-.15.32-.18.18-.46.32-.87.43C583.73 369.6 583.08 369.68 582.18 369.72zM581.03 369.6h-12.99c-.34.0-.62.03-.85.08-.17.04-.3.1-.38.17s-.07.13.03.18c.14.06.41.09.81.09h13c-.08-.11-.07-.2.02-.29.06-.06.16-.12.29-.2L581.03 369.6zM580.85 370.12c.25.0.47-.03.64-.08s.29-.11.37-.18c.04-.04.06-.09.05-.14-.3.03-.52.07-.66.11s-.24.1-.31.16C580.9 370.03 580.87 370.07 580.85 370.12z"/><path class="st14" d="M583.56 368h-13.15c.08.17.08.29.01.35l-.06.02c-.04.01-.09.01-.13.01-.03.0-.05-.02-.05-.07.01-.33-.27-.54-.85-.62-.09-.01-.14-.03-.15-.04-.02-.01-.01-.03.01-.05l.32-.29c.02-.02.06-.04.13-.05.11-.02.22-.04.32-.04h14.39l.26-.26c.02-.02.05-.03.09-.05.04-.01.08-.02.12-.02s.06.01.07.02c.02.01.02.03.0.05l-1.4 1.39-.06.03c-.04.01-.08.02-.13.02-.04.0-.07-.02-.1-.04L583.56 368z"/><path class="st14" d="M578.6 365.88l-7.98.65-.18.16c-.01.01-.04.02-.07.03s-.07.01-.1.01c-.04.0-.07.0-.08-.01s-.01-.02.01-.03l1.42-1.29c.08-.03.13-.04.16-.04.04.0.07.01.09.04l-.35.32 7.4-.61-4.74-.46c-.17-.02-.35-.03-.51-.03-.25.0-.46.02-.65.05s-.34.07-.45.13l-.18.13c-.04.02-.08.02-.14.02-.05.0-.08-.01-.09-.04l.7-.64c.03-.03.06-.05.08-.06l.06-.01c.05.0.08.02.1.05.05.13.32.22.83.27l5.53.55h7.1l.31-.31c.01-.01.04-.02.07-.03s.07-.01.1-.01c.04.0.06.0.08.01.01.01.01.02.0.03l-1.47 1.45c-.01.01-.03.02-.07.03-.03.01-.06.01-.1.01s-.06.0-.08-.01c-.01-.01-.01-.02.0-.03l.33-.33H578.6z"/><path class="st14" d="M578.95 362.77l-.2.19c-.06.03-.11.04-.14.04-.04.0-.08-.01-.1-.04l.2-.19h-1.55c-.94.0-1.55-.07-1.85-.21-.29-.14-.35-.29-.16-.46.14-.12.39-.23.75-.33.37-.1.74-.14 1.12-.14.31.0.52.03.64.09s.14.13.06.2-.22.13-.42.19c-.2.05-.42.08-.67.08-.29.0-.48-.03-.57-.08-.09-.06-.08-.14.04-.25-.16.03-.29.06-.4.1s-.19.09-.25.14c-.09.08-.07.15.05.22s.35.1.68.1c.39.0.96-.05 1.7-.15s1.25-.15 1.55-.16l.47-.44c.07-.03.12-.04.15-.04.04.0.07.01.09.04l-.47.44h9.89l.47-.45.11-.01c.04.0.08.01.1.02l-1.31 1.3-.05.02-.1.01c-.04.0-.07-.01-.09-.03l.19-.19h-9.93V362.77z"/><path class="st14" d="M580.39 361.43l-.09.09-.05.02c-.03.01-.07.01-.1.01s-.06-.01-.08-.03l1-.93c.07-.02.12-.03.16-.03s.06.01.08.03l-.2.19 7.49-.35-4.67-.32-2.22.11-.1.09c-.01.01-.03.02-.06.03s-.06.01-.1.01-.06.0-.08-.01-.02-.02.0-.03l1-.93c.01-.01.03-.02.06-.03s.06-.01.1-.01.06.0.07.01.01.02.0.03l-.21.2 7.34-.36-5.51-.37c-.16-.01-.3-.02-.43-.02-.16.0-.3.01-.41.04s-.25.08-.4.16c-.03.02-.06.03-.08.03-.02.01-.05.01-.08.01s-.06-.01-.08-.04l.55-.51.05-.02.11-.01c.03.0.05.0.06.0s.02.01.01.02c-.02.13.4.23 1.26.28l7.31.46c.27.02.43.03.47.05.03.01.02.03-.01.06l-.27.27c-.02.02-.06.03-.12.05-.06.01-.24.03-.52.04l-7 .34 5.67.36c.58.04.91.07.99.1.05.01.05.03.02.06l-.28.27c-.02.02-.07.04-.14.06-.05.01-.43.03-1.15.06L580.39 361.43z"/><path class="st14" d="M580.32 357.52h9.26l-3.06-.7c-.19-.04-.36-.06-.54-.06-.14.0-.28.01-.4.04s-.22.07-.3.12l-.17.13c-.03.01-.08.02-.13.02-.04.0-.06.0-.08-.01s-.02-.02.0-.03l.84-.78c.02-.01.04-.03.07-.03.03-.01.07-.01.11-.01.05.0.08.0.09.01l-.09.1c-.04.04-.06.08-.06.11.0.06.06.11.17.15.07.03.3.08.69.17l1.52.35 7.18-.76.12-.12c.01-.01.04-.03.07-.03.03-.01.06-.01.1-.01l.07.01c.01.01.01.02.0.04l-.93.92c-.01.01-.04.03-.07.03-.03.01-.06.01-.1.01s-.06.0-.07-.01-.01-.02.0-.03l.18-.17-5.18.56h4.62l.14-.14c.07-.03.12-.04.16-.04s.06.01.08.04l-.93.92c-.01.01-.04.03-.07.03-.03.01-.06.01-.1.01s-.06.0-.07-.01-.01-.02.0-.03l.13-.13h-13.7l-.15.13c-.01.01-.04.02-.07.03s-.06.01-.09.01c-.04.0-.06.0-.08-.01-.01-.01-.01-.02.0-.03L580.32 357.52z"/><path class="st14" d="M595.88 355.85h-13.49l-.25.23c-.07.03-.13.04-.16.04s-.05-.01-.07-.04l1.13-1.02c.34-.31.91-.56 1.7-.76.79-.2 1.7-.29 2.74-.29.64.0 1.15.03 1.54.1.39.07.67.17.83.31.1.09.15.22.13.4.38-.19.71-.32 1-.41.46-.14.95-.25 1.47-.32s1.1-.11 1.75-.11c.84.0 1.52.05 2.06.16.38.07.64.19.77.36.14.17.09.37-.15.6l-1 .99c-.07.03-.12.04-.15.04s-.06-.01-.08-.04L595.88 355.85zM583.18 355.14h6.34l.19-.18c.09-.08.1-.14.03-.18s-.23-.06-.49-.06h-4.8c-.31.0-.55.02-.71.06-.16.04-.3.12-.44.24L583.18 355.14zM589.76 355.14h6.82l.11-.11c.1-.1.1-.17.01-.23s-.26-.09-.51-.09h-5.35c-.23.0-.41.02-.54.05s-.24.09-.31.16L589.76 355.14z"/></g><g><path class="st15" d="M544.51 406.62h-16.29c.04.27.01.45-.1.54l-.08.04c-.05.01-.11.02-.17.02-.04.0-.05-.04-.03-.11.12-.51-.16-.83-.85-.96-.1-.02-.16-.04-.18-.07-.02-.02-.01-.05.03-.08l.49-.44c.03-.03.09-.06.17-.08.15-.04.28-.06.41-.06h17.8l.4-.39c.03-.03.07-.05.12-.07s.1-.03.15-.03.08.01.09.02c.02.02.02.05-.01.07l-2.15 2.13-.08.04c-.05.02-.1.03-.16.03-.05.0-.08-.02-.1-.07L544.51 406.62z"/><path class="st15" d="M528.88 404.16l2.64-2.39h-.47c-.05-.03-.05-.06-.02-.09.03-.02.1-.05.21-.08l2.36.07c.05.0.08.01.08.02.01.02-.01.04-.04.07l-2.44 2.23 5.35.07c-.62-.21-.98-.4-1.08-.57s-.02-.37.23-.61c.48-.45 1.36-.8 2.64-1.05s3.14-.38 5.61-.38c2.16.0 3.56.11 4.2.34.84.3.98.73.42 1.29-.36.36-.99.67-1.88.93s-1.95.39-3.16.39c-.84.0-1.37-.07-1.59-.2s-.23-.29-.05-.47c.17-.17.49-.31.94-.44s.98-.19 1.57-.19c.64.0 1.06.07 1.26.2s.21.29.03.46c-.08.08-.19.16-.32.24l-.07.05v.02c.02.01.06.02.12.02.45.0.95-.09 1.5-.28.55-.18.95-.4 1.2-.64.17-.17.2-.3.08-.39-.17-.12-.51-.18-1.01-.18h-9.35c-.57.0-1.02.04-1.36.13-.25.06-.43.15-.55.26-.24.22-.19.44.15.64.51.29 1.55.46 3.1.49.07.0.11.02.13.07-.02.02-.05.04-.1.05-.06.02-.12.02-.17.02L528.88 404.16z"/><path class="st15" d="M534.41 399.41l-.42.38c-.02.02-.05.04-.09.05-.04.01-.08.02-.12.02-.05.0-.08-.02-.09-.06l2.08-1.89c.02-.02.05-.04.1-.05.04-.01.08-.02.12-.02.05.0.08.01.09.02s.01.03-.01.05l-.34.31h14.62c.94.0 1.56.14 1.86.42s.23.65-.22 1.1c-.4.4-1 .73-1.8.98s-1.67.38-2.61.38c-.8.0-1.3-.07-1.52-.2-.21-.14-.23-.29-.05-.47.15-.14.42-.27.8-.38s.83-.16 1.35-.16c.49.0.81.05.95.15.15.1.15.22.01.37-.06.05-.15.12-.27.2-.13.08-.21.13-.25.17-.03.03-.03.05-.01.06.03.02.1.04.19.04.39.0.87-.09 1.44-.28.56-.19.95-.38 1.15-.58.17-.17.18-.3.03-.4-.21-.13-.62-.2-1.23-.2h-15.76V399.41z"/><path class="st15" d="M536.93 397.13l-.37.33c-.02.02-.05.04-.09.05-.04.01-.08.02-.12.02-.05.0-.08-.01-.09-.02s-.01-.03.01-.05l1.69-1.53 11.35-.53-10.01-.68 1.64-1.49c.02-.02.06-.04.1-.05.04-.01.08-.02.12-.02.05.0.08.01.09.02s0 .03-.02.05l-.39.35h16.89l.36-.35c.01-.01.03-.02.04-.02.05-.01.1-.02.15-.02.04.0.07.0.09.01.01.01.02.02.01.03l-1.82 1.8c-.01.01-.04.03-.08.04-.04.01-.08.02-.13.02s-.07-.01-.09-.02c-.01-.01-.01-.03.0-.04l.39-.38h-16.23l15.13.98c.2.01.3.03.32.04s.02.03.0.05l-.37.36c-.02.02-.06.04-.1.05-.04.01-.18.02-.4.03l-16.97.81h15c.41.0.72-.02.92-.06.21-.04.39-.11.56-.21l.3-.25c.04-.02.1-.03.17-.03.06.0.1.0.11.01s0 .03-.04.07l-1.01 1c-.02.02-.04.03-.07.04s-.07.01-.11.01-.06.0-.07-.01-.01-.04.0-.1c.02-.12-.02-.2-.13-.24-.15-.06-.41-.09-.79-.09h-15.94V397.13z"/><path class="st15" d="M560.56 390.75h-15c.06.23.04.38-.05.46l-.07.03c-.05.01-.1.02-.15.02-.04.0-.05-.03-.04-.09.07-.43-.22-.7-.86-.81-.1-.02-.15-.04-.17-.06s-.01-.04.02-.07l.42-.38c.03-.02.08-.05.15-.07.13-.03.26-.05.37-.05h16.4l.34-.33c.02-.02.06-.04.11-.06s.09-.02.14-.02.07.01.08.02c.02.02.02.04-.01.06l-1.82 1.8-.07.04c-.05.01-.09.02-.15.02-.05.0-.08-.02-.1-.06L560.56 390.75z"/><path class="st15" d="M557.53 388.87h-2.22c-1.77.0-2.93-.14-3.47-.41-.4-.2-.43-.45-.1-.76.41-.38 1.18-.68 2.28-.88 1.11-.2 2.39-.31 3.85-.31h2.43c1.9.0 3.13.13 3.69.39.41.19.45.44.13.76-.19.18-.46.35-.83.5-.36.15-.89.29-1.56.41-.68.12-1.49.2-2.44.24C558.36 388.85 557.77 388.87 557.53 388.87zM553.5 387.42c-.42.0-.74.03-.97.08-.23.06-.38.12-.46.19-.07.06-.06.12.02.17.08.05.27.08.55.08h9.47c.59.0 1.03-.03 1.3-.09.2-.05.34-.11.42-.19.08-.08.07-.14-.02-.18s-.35-.06-.78-.06H553.5z"/><path class="st15" d="M550.59 384.72l-.36.33c-.02.02-.05.03-.08.04-.04.01-.07.01-.11.01s-.07-.02-.08-.05l1.78-1.61c.02-.02.05-.03.08-.04.04-.01.08-.02.11-.02.04.0.07.01.09.02.01.01.01.03-.01.04l-.29.26h13.52c.87.0 1.45.12 1.75.36s.26.55-.13.94c-.34.34-.88.62-1.6.84s-1.51.33-2.38.33c-.74.0-1.21-.06-1.42-.17-.21-.12-.23-.25-.08-.4.13-.12.37-.23.71-.32.35-.09.76-.14 1.23-.14.45.0.75.04.89.13s.15.19.03.31c-.05.05-.13.1-.24.17-.11.06-.18.11-.22.15-.02.02-.02.04.0.06.03.02.09.03.18.03.36.0.8-.08 1.31-.24s.85-.33 1.02-.5c.14-.14.14-.26.0-.34-.2-.11-.59-.17-1.15-.17h-14.55V384.72z"/><path class="st15" d="M557.33 382.89l-.2.18c-.07.03-.13.04-.17.04-.05.0-.08-.01-.1-.04l1.13-1.05h10.95c.09.0.16-.01.23-.03.06-.02.11-.05.15-.08.07-.07.03-.14-.13-.21-.25-.11-.64-.17-1.16-.17h-9.23l-.2.19c-.02.02-.04.03-.07.04s-.07.01-.12.01c-.04.0-.07.0-.09-.01s-.02-.02.0-.04l1.12-1.04h11.34l.16-.16c.02-.02.04-.03.08-.04.04-.01.07-.02.12-.02s.07.01.08.02.01.02.0.04l-1.02 1.01h-.87c.27.1.42.21.46.31.04.11-.01.24-.16.38-.22.22-.51.38-.88.49s-.78.17-1.22.17L557.33 382.89z"/><path class="st15" d="M570.64 378.76c.12-.12.32-.22.6-.29.28-.08.63-.12 1.03-.12s.67.04.81.12c.13.08.14.18.03.29-.12.12-.32.22-.61.3-.28.08-.62.12-1.01.12-.42.0-.7-.04-.83-.12C570.52 378.98 570.52 378.88 570.64 378.76zM573.25 377.41c-.41.0-.68-.04-.8-.12-.13-.08-.13-.17-.02-.28.12-.12.33-.22.62-.3s.63-.12 1.03-.12c.39.0.66.04.79.11.13.08.14.17.02.29s-.32.22-.6.29C574 377.38 573.66 377.41 573.25 377.41zM574.19 375.28c.12-.11.31-.21.6-.28.28-.07.62-.11 1.02-.11s.66.04.79.11c.13.08.13.17.01.29s-.31.21-.58.28-.6.11-.99.11c-.4.0-.67-.04-.8-.12C574.09 375.49 574.08 375.39 574.19 375.28z"/><path class="st15" d="M562.96 373.49l-.31.28c-.08.03-.14.04-.17.04-.05.0-.08-.01-.09-.04l2.69-2.44h5.7c.05.02.07.03.05.05s-.04.03-.07.03c-.03.01-.13.01-.31.01-1.15.02-2.29.09-3.4.22-1.12.13-1.87.25-2.26.37-.21.06-.39.17-.55.32l-.29.27h7.25c.13-.16.07-.3-.2-.4-.36-.14-1.05-.2-2.09-.2h-.8c-.03.0-.06-.01-.07-.02-.01-.01-.01-.02.0-.04.02-.01.04-.03.07-.03.03-.01.07-.01.1-.01h7.63c.03.0.06.0.07.01.02.01.02.02.0.03-.01.01-.04.03-.07.04s-.07.02-.1.02H575c-1.01.0-1.9.08-2.66.23-.44.09-.71.19-.82.29-.03.03-.03.05.0.06.03.02.1.03.2.03h7.19l.14-.14c.12-.12.13-.23.04-.35-.09-.11-.35-.22-.76-.32-.42-.1-.9-.18-1.45-.23-.89-.09-1.62-.13-2.17-.13h-.68c-.05-.02-.07-.04-.05-.06s.04-.03.07-.04.06-.01.1-.01h6.33l-2.46 2.44c-.02.02-.05.04-.09.05s-.07.02-.11.02-.07-.01-.08-.02-.01-.03.01-.05l.28-.28H562.96z"/><path class="st15" d="M582.18 369.72c-.03.05-.07.1-.12.15-.17.17-.43.32-.77.45s-.79.25-1.34.35c-.41.08-1.02.16-1.84.24s-1.78.12-2.89.12h-4.42c-2.03.0-3.38-.14-4.06-.42-.47-.2-.54-.45-.21-.74.34-.31.95-.55 1.84-.74 1.27-.27 3.07-.4 5.4-.4h3.73c.99.0 1.81.03 2.47.09s1.18.14 1.56.24c.18.05.37.13.56.24.52-.12 1.17-.23 1.94-.33.27-.04.47-.07.59-.1.12-.03.23-.07.32-.12l.1-.05.06-.01c.04.0.06.02.07.05.03.08-.02.19-.15.32-.18.18-.46.32-.87.43C583.73 369.6 583.08 369.68 582.18 369.72zM581.03 369.6h-12.99c-.34.0-.62.03-.85.08-.17.04-.3.1-.38.17s-.07.13.03.18c.14.06.41.09.81.09h13c-.08-.11-.07-.2.02-.29.06-.06.16-.12.29-.2L581.03 369.6zM580.85 370.12c.25.0.47-.03.64-.08s.29-.11.37-.18c.04-.04.06-.09.05-.14-.3.03-.52.07-.66.11s-.24.1-.31.16C580.9 370.03 580.87 370.07 580.85 370.12z"/><path class="st15" d="M583.56 368h-13.15c.08.17.08.29.01.35l-.06.02c-.04.01-.09.01-.13.01-.03.0-.05-.02-.05-.07.01-.33-.27-.54-.85-.62-.09-.01-.14-.03-.15-.04-.02-.01-.01-.03.01-.05l.32-.29c.02-.02.06-.04.13-.05.11-.02.22-.04.32-.04h14.39l.26-.26c.02-.02.05-.03.09-.05.04-.01.08-.02.12-.02s.06.01.07.02c.02.01.02.03.0.05l-1.4 1.39-.06.03c-.04.01-.08.02-.13.02-.04.0-.07-.02-.1-.04L583.56 368z"/><path class="st15" d="M578.6 365.88l-7.98.65-.18.16c-.01.01-.04.02-.07.03s-.07.01-.1.01c-.04.0-.07.0-.08-.01s-.01-.02.01-.03l1.42-1.29c.08-.03.13-.04.16-.04.04.0.07.01.09.04l-.35.32 7.4-.61-4.74-.46c-.17-.02-.35-.03-.51-.03-.25.0-.46.02-.65.05s-.34.07-.45.13l-.18.13c-.04.02-.08.02-.14.02-.05.0-.08-.01-.09-.04l.7-.64c.03-.03.06-.05.08-.06l.06-.01c.05.0.08.02.1.05.05.13.32.22.83.27l5.53.55h7.1l.31-.31c.01-.01.04-.02.07-.03s.07-.01.1-.01c.04.0.06.0.08.01.01.01.01.02.0.03l-1.47 1.45c-.01.01-.03.02-.07.03-.03.01-.06.01-.1.01s-.06.0-.08-.01c-.01-.01-.01-.02.0-.03l.33-.33H578.6z"/><path class="st15" d="M578.95 362.77l-.2.19c-.06.03-.11.04-.14.04-.04.0-.08-.01-.1-.04l.2-.19h-1.55c-.94.0-1.55-.07-1.85-.21-.29-.14-.35-.29-.16-.46.14-.12.39-.23.75-.33.37-.1.74-.14 1.12-.14.31.0.52.03.64.09s.14.13.06.2-.22.13-.42.19c-.2.05-.42.08-.67.08-.29.0-.48-.03-.57-.08-.09-.06-.08-.14.04-.25-.16.03-.29.06-.4.1s-.19.09-.25.14c-.09.08-.07.15.05.22s.35.1.68.1c.39.0.96-.05 1.7-.15s1.25-.15 1.55-.16l.47-.44c.07-.03.12-.04.15-.04.04.0.07.01.09.04l-.47.44h9.89l.47-.45.11-.01c.04.0.08.01.1.02l-1.31 1.3-.05.02-.1.01c-.04.0-.07-.01-.09-.03l.19-.19h-9.93V362.77z"/><path class="st15" d="M580.39 361.43l-.09.09-.05.02c-.03.01-.07.01-.1.01s-.06-.01-.08-.03l1-.93c.07-.02.12-.03.16-.03s.06.01.08.03l-.2.19 7.49-.35-4.67-.32-2.22.11-.1.09c-.01.01-.03.02-.06.03s-.06.01-.1.01-.06.0-.08-.01-.02-.02.0-.03l1-.93c.01-.01.03-.02.06-.03s.06-.01.1-.01.06.0.07.01.01.02.0.03l-.21.2 7.34-.36-5.51-.37c-.16-.01-.3-.02-.43-.02-.16.0-.3.01-.41.04s-.25.08-.4.16c-.03.02-.06.03-.08.03-.02.01-.05.01-.08.01s-.06-.01-.08-.04l.55-.51.05-.02.11-.01c.03.0.05.0.06.0s.02.01.01.02c-.02.13.4.23 1.26.28l7.31.46c.27.02.43.03.47.05.03.01.02.03-.01.06l-.27.27c-.02.02-.06.03-.12.05-.06.01-.24.03-.52.04l-7 .34 5.67.36c.58.04.91.07.99.1.05.01.05.03.02.06l-.28.27c-.02.02-.07.04-.14.06-.05.01-.43.03-1.15.06L580.39 361.43z"/><path class="st15" d="M580.32 357.52h9.26l-3.06-.7c-.19-.04-.36-.06-.54-.06-.14.0-.28.01-.4.04s-.22.07-.3.12l-.17.13c-.03.01-.08.02-.13.02-.04.0-.06.0-.08-.01s-.02-.02.0-.03l.84-.78c.02-.01.04-.03.07-.03.03-.01.07-.01.11-.01.05.0.08.0.09.01l-.09.1c-.04.04-.06.08-.06.11.0.06.06.11.17.15.07.03.3.08.69.17l1.52.35 7.18-.76.12-.12c.01-.01.04-.03.07-.03.03-.01.06-.01.1-.01l.07.01c.01.01.01.02.0.04l-.93.92c-.01.01-.04.03-.07.03-.03.01-.06.01-.1.01s-.06.0-.07-.01-.01-.02.0-.03l.18-.17-5.18.56h4.62l.14-.14c.07-.03.12-.04.16-.04s.06.01.08.04l-.93.92c-.01.01-.04.03-.07.03-.03.01-.06.01-.1.01s-.06.0-.07-.01-.01-.02.0-.03l.13-.13h-13.7l-.15.13c-.01.01-.04.02-.07.03s-.06.01-.09.01c-.04.0-.06.0-.08-.01-.01-.01-.01-.02.0-.03L580.32 357.52z"/><path class="st15" d="M595.88 355.85h-13.49l-.25.23c-.07.03-.13.04-.16.04s-.05-.01-.07-.04l1.13-1.02c.34-.31.91-.56 1.7-.76.79-.2 1.7-.29 2.74-.29.64.0 1.15.03 1.54.1.39.07.67.17.83.31.1.09.15.22.13.4.38-.19.71-.32 1-.41.46-.14.95-.25 1.47-.32s1.1-.11 1.75-.11c.84.0 1.52.05 2.06.16.38.07.64.19.77.36.14.17.09.37-.15.6l-1 .99c-.07.03-.12.04-.15.04s-.06-.01-.08-.04L595.88 355.85zM583.18 355.14h6.34l.19-.18c.09-.08.1-.14.03-.18s-.23-.06-.49-.06h-4.8c-.31.0-.55.02-.71.06-.16.04-.3.12-.44.24L583.18 355.14zM589.76 355.14h6.82l.11-.11c.1-.1.1-.17.01-.23s-.26-.09-.51-.09h-5.35c-.23.0-.41.02-.54.05s-.24.09-.31.16L589.76 355.14z"/></g></g><path class="st16" d="M524.43 414.5c-1.54 1.43-1.27 2.61.64 2.61s4.68-1.18 6.17-2.61c1.47-1.41 1.15-2.54-.71-2.54C528.68 411.96 525.96 413.09 524.43 414.5z"/><rect x="469.81" y="415.15" class="st16" width="54.38" height="1.07"/><path class="st16" d="M487.27 401.35l-17.15 13.08c-.47.36-.41.65.13.65h3.82 4.81 45.19c-.13.67.46 1.13 1.73 1.13 1.9.0 4.52-1.02 5.84-2.27 1.31-1.24.85-2.23-1.02-2.23-1.24.0-2.79.44-4.09 1.1h-44.76l14.57-11.47c.41-.32.32-.58-.19-.58h-7.19C488.45 400.77 487.7 401.03 487.27 401.35z"/><path class="st11" d="M621.24 456.71h-42.59v-2.66s65.36-35.19 66.72-19.42l-.01 7.51C642.25 450.98 627.92 456.61 621.24 456.71z"/><path class="st11" d="M644.46 439.19c-3.3 7.93-14.56 14.86-24.79 14.86h-41.02l18.77-27.95h36.11C642.54 426.1 647.54 431.79 644.46 439.19z"/><path class="st17" d="M642.53 439.19c-3.02 7.11-13.13 13.29-22.28 13.29h-38.64l16.67-25.13h34.45C640.89 427.34 645.36 432.51 642.53 439.19z"/><path class="st12" d="M613.93 394.1"/><polygon class="st11" points="723.11,392.66 716.29,399.35 716.17,408.63 588.91,346.03 588.99,337.05 598.34,332.12"/><polygon class="st18" points="716.17,399.29 716.17,408.63 588.91,346.03 588.8,337.43"/><polygon class="st11" points="716.17,408.63 723.06,401.92 723.11,392.66 716.17,399.29"/></g><g><g><path class="st19" d="M805.24 379.32h-5.16c-10.95.0-19.91-8.96-19.91-19.91v-52.19h44.99v52.19C825.15 370.36 816.19 379.32 805.24 379.32z"/><rect x="896.03" y="307.21" class="st12" width="18.46" height="147.75"/><path class="st12" d="M1033.75 307.21H776.77v-52.32c0-10.88 8.9-19.79 19.79-19.79h217.41c10.88.0 19.79 8.9 19.79 19.79v52.32H1033.75z"/><path class="st12" d="M801.85 235.11h-5.16c-10.95.0-19.91 8.96-19.91 19.91v52.19h44.99v-52.19C821.76 244.07 812.8 235.11 801.85 235.11z"/><path class="st13" d="M801.59 237.8h-4.65c-9.86.0-17.92 8.07-17.92 17.92v48.8h40.49v-48.8C819.51 245.87 811.45 237.8 801.59 237.8z"/><path class="st20" d="M790.09 240.16c-5.39 2.31-11.07 9.52-11.07 17.91v46.45h20.25v-46.45C799.26 252.99 797.39 243.62 790.09 240.16z"/><path class="st12" d="M801.85 379.32h-5.16c-10.95.0-19.91-8.96-19.91-19.91v-52.19h44.99v52.19C821.76 370.36 812.8 379.32 801.85 379.32z"/><path class="st17" d="M801.59 376.82h-4.65c-9.86.0-17.92-8.07-17.92-17.92v-49.37h40.49v49.37C819.51 368.75 811.45 376.82 801.59 376.82z"/><path class="st16" d="M862.2 204.28h-24.52c-.64.0-1.15.52-1.15 1.15v4.47 5.62 52.84c-1.18.7-1.98 1.97-1.98 3.44.0 2.21 1.79 4 4 4s4-1.79 4-4c0-1.47-.8-2.74-1.98-3.44v-52.84h21.63c.64.0 1.15-.52 1.15-1.15v-8.94C863.35 204.8 862.84 204.28 862.2 204.28z"/><rect x="896.03" y="307.21" class="st19" width="9.66" height="147.67"/><g><g><path class="st14" d="M857.71 288.45v-7.13c-.4.56-.71.91-.92 1.06s-.44.22-.7.22c-.68.0-1.25-.41-1.7-1.24-.7-1.29-1.04-3.69-1.04-7.2.0-1.43.05-3 .14-4.7s.29-2.94.58-3.71c.29-.77.67-1.35 1.13-1.74s.93-.59 1.39-.59c.48.0.9.22 1.27.67s.65 1.28.83 2.49c.52-.85.96-1.66 1.32-2.43.22-.49.37-.73.47-.73.05.06.08.13.08.21v24.83h.52c.06.0.11.02.15.06s.06.09.06.15l-.05.15c-.05.05-.11.07-.17.07h-4.16c-.05.0-.09-.02-.12-.06s-.05-.09-.05-.15c0-.07.02-.13.05-.16.03-.04.07-.05.13-.05h.79V288.45zM856.14 280.99c0 .24.06.44.17.59.07.1.18.16.31.16.3.0.54-.22.73-.66.24-.58.36-1.08.36-1.5v-14.44c0-.37-.09-.69-.28-.96-.12-.17-.29-.26-.5-.26s-.37.1-.5.31c-.2.3-.3.79-.3 1.45v15.31H856.14z"/><path class="st14" d="M866.92 288.45v-7.13c-.4.56-.71.91-.92 1.06s-.44.22-.7.22c-.68.0-1.25-.41-1.7-1.24-.7-1.29-1.04-3.69-1.04-7.2.0-1.43.05-3 .14-4.7s.29-2.94.58-3.71c.29-.77.67-1.35 1.13-1.74s.93-.59 1.39-.59c.48.0.9.22 1.27.67s.65 1.28.83 2.49c.52-.85.96-1.66 1.32-2.43.22-.49.37-.73.47-.73.05.06.08.13.08.21v24.83h.52c.06.0.11.02.15.06s.06.09.06.15l-.05.15c-.05.05-.11.07-.17.07h-4.16c-.05.0-.09-.02-.12-.06s-.05-.09-.05-.15c0-.07.02-.13.05-.16.03-.04.07-.05.13-.05h.79V288.45zM865.35 280.99c0 .24.06.44.17.59.07.1.18.16.31.16.3.0.54-.22.73-.66.24-.58.36-1.08.36-1.5v-14.44c0-.37-.09-.69-.28-.96-.12-.17-.29-.26-.5-.26s-.37.1-.5.31c-.2.3-.3.79-.3 1.45v15.31H865.35z"/><path class="st14" d="M874.84 256.09v8.97c.43-.64.8-1.08 1.14-1.3.33-.23.72-.34 1.17-.34.7.0 1.19.2 1.48.61.41.55.62 1.41.62 2.57v15.35h.57c.11.08.16.15.16.22s-.05.14-.16.22h-3.73c-.07-.07-.11-.14-.11-.22s.04-.15.11-.22h.37v-16.28c0-.42-.05-.71-.14-.87-.08-.12-.2-.18-.35-.18-.24.0-.47.16-.68.49-.3.49-.45 1.15-.45 1.98v14.86h.42c.1.08.16.15.16.22s-.05.14-.16.22h-3.84l-.08-.05-.05-.17c0-.08.04-.15.12-.22h.7v-25.42h-.7c-.1-.07-.16-.14-.16-.21.0-.08.05-.16.16-.23H874.84z"/><path class="st14" d="M881.69 264.1h-.81c-.08.0-.15-.02-.19-.07-.04-.05-.06-.1-.06-.17.0-.06.02-.1.06-.14.05-.06.11-.09.19-.09h3.6v19.25c0 2.14-.35 3.76-1.04 4.84-.49.78-1.1 1.17-1.84 1.17-.55.0-1.01-.21-1.37-.64s-.54-.98-.54-1.65c0-.58.12-1.04.37-1.37s.53-.5.86-.5c.29.0.54.13.75.38s.31.57.31.97c0 .48-.12.85-.35 1.13-.23.27-.54.41-.91.41-.07.0-.16-.01-.26-.02.06.29.18.51.35.65.17.14.41.21.71.21.45.0.8-.17 1.07-.51.26-.34.4-.85.4-1.54.0-.56-.1-1.18-.31-1.87-.3-.98-.59-1.75-.86-2.31-.07-.14-.11-.34-.11-.6V264.1H881.69zM883.03 255.88c.46.0.84.18 1.15.53.31.36.47.78.47 1.29s-.16.95-.49 1.32-.72.55-1.18.55-.85-.18-1.17-.54c-.32-.36-.48-.8-.48-1.31s.16-.95.48-1.3C882.14 256.06 882.54 255.88 883.03 255.88z"/><path class="st14" d="M892.12 281.22c-.2.17-.44.48-.72.91-.21.31-.36.47-.47.47-.04.0-.08-.02-.11-.05-.03-.04-.05-.09-.05-.16v-8.18c0-.08.02-.14.05-.18.04-.04.08-.06.13-.06.06.0.11.02.14.07s.06.23.08.56c.13 2.26.48 4.14 1.03 5.65.39 1.09.86 1.64 1.4 1.64.27.0.51-.15.73-.45s.33-.73.33-1.29c0-.64-.12-1.42-.37-2.35-.24-.93-.76-2.36-1.54-4.3s-1.29-3.34-1.51-4.2-.33-1.62-.33-2.27c0-1.07.26-1.94.79-2.61.52-.66 1.13-1 1.83-1 .62.0 1.22.32 1.81.96.16-.12.39-.35.7-.69.18-.18.3-.27.36-.27.04.0.08.01.11.04.03.05.05.1.05.16V271c0 .08-.02.15-.06.19-.04.05-.09.07-.14.07-.06.0-.11-.03-.14-.09s-.06-.23-.08-.52c-.14-2.15-.43-3.89-.87-5.23-.32-.93-.74-1.4-1.26-1.4-.29.0-.53.12-.73.37-.2.24-.3.58-.3 1 0 1.06.62 2.98 1.85 5.75.83 1.84 1.4 3.31 1.7 4.41s.45 2.06.45 2.9c0 1.27-.29 2.28-.87 3.03s-1.26 1.13-2.02 1.13c-.39.0-.74-.1-1.03-.31C892.75 282.09 892.44 281.73 892.12 281.22z"/><path class="st14" d="M902.03 268.16c1.23.41 2.1.97 2.6 1.68.8 1.15 1.2 2.89 1.2 5.21.0 2.58-.45 4.48-1.34 5.71-.89 1.23-1.9 1.84-3.03 1.84-.9.0-1.7-.48-2.39-1.44s-1.03-2.37-1.03-4.24c0-1.33.22-2.32.65-2.97.33-.49.75-.73 1.24-.73.43.0.79.21 1.09.62.3.41.45 1.03.45 1.86.0.86-.17 1.52-.5 1.96s-.72.66-1.17.66c-.27.0-.56-.09-.86-.28-.19-.12-.31-.17-.38-.17-.06.06-.09.12-.09.19.0 1.17.3 2.14.89 2.92.6.78 1.22 1.17 1.88 1.17.4.0.73-.13.96-.4.29-.35.44-.73.44-1.15v-9.77c0-.89-.12-1.5-.36-1.85s-.56-.52-.95-.52c-.21.0-.43.06-.67.19-.17.09-.27.14-.33.14-.05.0-.11-.01-.17-.03l-.88-.35-.11-.1.11-.12.89-.51.12-.03c.09.0.26.06.51.17s.46.17.64.17c.31.0.54-.1.7-.3.25-.31.37-.66.37-1.05v-9.18c0-.4-.08-.69-.23-.87-.16-.19-.38-.28-.67-.28-.73.0-1.4.37-2.02 1.12s-.93 1.61-.93 2.61c0 .09.05.18.16.26.05.0.22-.08.51-.25s.55-.25.79-.25c.38.0.71.18.99.55.27.37.41.9.41 1.6.0.69-.15 1.22-.45 1.6s-.68.57-1.14.57-.85-.23-1.17-.69-.48-1.23-.48-2.32c0-1.72.33-3.02.99-3.88s1.48-1.29 2.47-1.29c1.03.0 1.91.5 2.65 1.51s1.11 2.49 1.11 4.43c0 1.79-.29 3.18-.86 4.15C904.09 266.95 903.22 267.68 902.03 268.16z"/><path class="st14" d="M910.38 256.09v25.86h.61c.05.0.1.02.13.06.04.04.05.09.05.16s-.02.12-.05.16c-.04.04-.08.06-.13.06h-4.05c-.05.0-.1-.02-.13-.06-.04-.04-.05-.09-.05-.16s.02-.12.05-.16c.04-.04.08-.06.13-.06h.65v-25.42h-.65c-.06.0-.11-.02-.16-.06-.04-.04-.06-.09-.06-.15.0-.07.02-.12.06-.16.04-.05.09-.07.15-.07H910.38z"/><path class="st14" d="M917.77 264.83c.31-.28.59-.59.83-.92.24-.33.4-.5.48-.5l.08.04.03.17v7.48c0 .08-.02.15-.06.19-.04.05-.09.07-.14.07-.07.0-.12-.03-.16-.09-.02-.05-.05-.33-.09-.85-.06-.87-.26-1.98-.61-3.32-.34-1.34-.68-2.22-1.02-2.63s-.7-.62-1.08-.62c-.25.0-.43.07-.53.22-.1.15-.16.46-.16.93v15.41c0 .63.08 1.06.25 1.3s.39.36.68.36c.37.0.73-.17 1.07-.52.34-.34.61-.85.81-1.51.41-1.35.62-2.91.62-4.67v-.98c0-.16.03-.29.08-.37l.12-.1c.05.0.09.03.12.1.05.08.08.2.08.37v1.15c0 2.6-.38 4.52-1.15 5.75-.54.86-1.22 1.29-2.05 1.29-.91.0-1.66-.47-2.24-1.4-.76-1.22-1.14-3.36-1.14-6.4v-3.34c0-3.03.41-5.24 1.25-6.63.57-.94 1.28-1.42 2.12-1.42C916.69 263.42 917.29 263.89 917.77 264.83z"/><path class="st14" d="M925.09 278.56c.4.0.73.17.99.5s.39.83.39 1.49-.14 1.17-.41 1.52c-.27.35-.6.52-.99.52-.41.0-.74-.17-1-.5s-.39-.82-.39-1.46c0-.69.14-1.21.41-1.56C924.36 278.73 924.69 278.56 925.09 278.56zM929.66 280.59c0-.68.13-1.18.4-1.52s.59-.51.96-.51c.41.0.75.17 1.02.52.27.35.41.85.41 1.5s-.13 1.15-.39 1.49-.59.52-1 .52c-.42.0-.75-.17-1.01-.5C929.79 281.77 929.66 281.26 929.66 280.59zM937.04 278.56c.4.0.73.17.99.52.26.34.39.85.39 1.51s-.13 1.17-.4 1.5c-.27.34-.6.51-1.01.51s-.74-.16-.99-.49c-.26-.33-.38-.82-.38-1.47.0-.66.14-1.18.41-1.54C936.33 278.74 936.66 278.56 937.04 278.56z"/><path class="st14" d="M945.37 278.52c-.63-.66-1.09-1.45-1.38-2.36-.4-1.28-.61-2.94-.61-4.98.0-2.91.42-5.02 1.25-6.33.6-.96 1.39-1.43 2.37-1.43.62.0 1.19.24 1.7.73.24-.55.5-.96.79-1.23.29-.27.61-.41.95-.41.36.0.65.14.88.41.22.28.33.67.33 1.17.0.43-.08.76-.23.98-.16.22-.33.33-.53.33-.22.0-.39-.08-.53-.25-.13-.17-.2-.42-.2-.74v-.19c.01-.1.02-.19.02-.26.0-.2-.03-.33-.08-.4-.06-.07-.14-.1-.24-.1-.14.0-.29.09-.43.28s-.28.47-.42.86c.98 1.41 1.47 3.7 1.47 6.86.0 2.76-.42 4.8-1.26 6.13-.62.98-1.38 1.47-2.26 1.47-.14.0-.31-.01-.51-.02-.13-.01-.45-.02-.98-.02-.63.0-1.08.1-1.35.31s-.4.41-.4.61c0 .19.07.34.22.45.21.16.54.24.98.24h2.48c1.22.0 2.1.31 2.66.93s.83 1.57.83 2.85c0 1.4-.37 2.5-1.1 3.3-.74.8-1.76 1.2-3.08 1.2-1.33.0-2.33-.31-3.01-.94-.68-.62-1.03-1.34-1.03-2.14.0-.5.11-.97.32-1.41s.53-.84.94-1.22c-.33-.24-.58-.54-.76-.88-.17-.34-.26-.74-.26-1.18.0-.77.18-1.36.55-1.77C943.81 278.94 944.45 278.66 945.37 278.52zM944.24 283.45c-.28.3-.48.61-.62.93-.14.31-.21.63-.21.94.0.61.3 1.17.89 1.7s1.43.8 2.53.8c1.12.0 2.03-.31 2.73-.93.53-.49.79-1.06.79-1.71.0-.49-.15-.85-.44-1.08-.39-.3-1.19-.45-2.38-.45h-.64C945.86 283.65 944.98 283.58 944.24 283.45zM947.68 265.18c0-.56-.07-.93-.2-1.12s-.32-.28-.56-.28c-.23.0-.42.1-.57.31-.15.2-.22.57-.22 1.09v11.63c0 .69.09 1.18.28 1.47.14.21.32.31.55.31.21.0.38-.09.51-.28s.2-.51.2-.98L947.68 265.18z"/><path class="st14" d="M959.63 281.95h.67c.1.08.16.15.16.22s-.05.14-.16.22h-3.45v-1.4c-.2.54-.43.94-.71 1.21s-.6.4-.96.4c-.83.0-1.48-.69-1.95-2.08-.48-1.39-.71-3.57-.71-6.56.0-4.69.36-7.76 1.09-9.21.44-.89 1.02-1.33 1.74-1.33.28.0.55.1.8.29s.49.48.72.87v-8.04H956c-.1-.07-.16-.15-.16-.23.0-.07.05-.14.16-.21h3.66v25.85H959.63zM956.85 266.53c0-.78-.14-1.4-.43-1.87-.19-.33-.41-.49-.66-.49-.12.0-.23.06-.33.18s-.15.28-.15.48v16.08c0 .36.05.61.14.75s.2.21.32.21c.18.0.36-.15.54-.45.37-.57.56-1.07.56-1.49v-13.4H956.85z"/><path class="st14" d="M964.07 273.07v6.5c0 1.01.1 1.68.31 2.01.16.24.41.37.76.37.58.0 1.1-.37 1.56-1.1.76-1.24 1.16-2.92 1.21-5.05.01-.7.04-1.1.09-1.19.05-.09.11-.14.19-.14.07.0.13.03.17.1.05.09.08.31.08.66.0 2.08-.32 3.82-.97 5.24s-1.52 2.12-2.62 2.12c-1.03.0-1.88-.54-2.55-1.63s-1.01-3.45-1.01-7.09v-2.57c0-2.79.46-4.9 1.37-6.35.65-1.03 1.44-1.54 2.37-1.54 1.1.0 1.95.66 2.54 1.98.6 1.32.9 2.92.9 4.81v2.87L964.07 273.07zM965.67 272.6v-7.45c0-.48-.08-.84-.25-1.08-.11-.17-.28-.26-.51-.26s-.42.11-.59.33c-.17.22-.25.56-.25 1.01v7.45H965.67z"/><path class="st14" d="M970.53 265.48c.15-.06.29-.1.42-.13s.26-.04.37-.04c.42.0.77.17 1.05.51.29.34.43.78.43 1.33.0.56-.15 1.01-.44 1.35s-.68.51-1.17.51-.87-.17-1.15-.52c-.28-.34-.42-.85-.42-1.53.0-1 .34-1.84 1.01-2.52s1.63-1.01 2.88-1.01c1.12.0 1.93.24 2.42.71s.74 1.08.74 1.81v15.11c0 .17.04.32.12.43s.17.17.26.17c.26.0.52-.31.79-.93.07-.19.15-.28.22-.28l.19.19c0 .41-.23.84-.7 1.29-.47.45-1.03.68-1.68.68-.56.0-.99-.15-1.3-.44s-.54-.8-.69-1.54c-.48.79-.89 1.32-1.25 1.58s-.78.39-1.27.39c-.59.0-1.05-.17-1.36-.52s-.47-.8-.47-1.35v-6.59c0-.71.14-1.24.41-1.57.27-.34 1.09-.76 2.44-1.26.6-.23 1.11-.47 1.51-.7v-5.04c0-.52-.12-.93-.37-1.22-.24-.29-.56-.44-.96-.44C971.65 263.91 970.97 264.43 970.53 265.48zM973.89 271.15c-.66.29-1.09.58-1.28.87s-.29.76-.29 1.4v7.4c0 .24.04.43.12.54s.17.17.29.17c.17.0.35-.2.56-.59.4-.73.61-1.62.61-2.66L973.89 271.15z"/><path class="st14" d="M986.48 256.09v17.26l3.08-7.1c.19-.43.28-.81.28-1.14.0-.27-.06-.49-.19-.66-.12-.17-.3-.29-.51-.33l-.59-.05c-.06-.03-.09-.1-.09-.19.0-.07.02-.13.05-.17.04-.05.09-.07.15-.07h3.45c.06.0.11.02.15.07s.05.1.05.17c0 .09-.02.16-.06.19l-.47.04c-.18.01-.34.05-.48.1-.25.12-.47.32-.65.61-.11.19-.36.73-.74 1.62l-1.57 3.54 3.39 11.97h.53c.06.0.11.02.16.06.04.04.06.09.06.16l-.05.15c-.05.04-.11.07-.17.07h-4.07c-.06.0-.11-.02-.15-.06s-.05-.09-.05-.16.02-.12.05-.16c.04-.04.09-.06.15-.06h.76l-2.47-8.6v8.6h.62c.11.08.17.15.17.22s-.06.14-.17.22h-4.02c-.06.0-.11-.02-.15-.06s-.05-.09-.05-.16.02-.12.06-.16.09-.06.14-.06h.58v-25.42h-.58c-.05.0-.1-.02-.13-.06-.04-.04-.05-.09-.05-.15.0-.07.02-.13.05-.17.04-.04.08-.06.13-.06H986.48z"/><path class="st14" d="M993.34 264.06h-.45c-.05.0-.1-.02-.14-.06s-.06-.09-.06-.16.02-.12.05-.15c.05-.05.1-.07.16-.07h3.69c.06.0.11.02.15.07.04.04.06.09.06.15.0.07-.02.12-.05.15-.05.05-.11.07-.17.07h-.54l1.39 13.6 1.64-11.67c.02-.13.03-.27.03-.44.0-.71-.27-1.21-.81-1.49-.13-.07-.2-.16-.2-.26.0-.06.01-.1.05-.12.03-.04.07-.05.12-.05h2.04c.06.0.11.01.14.05.03.03.05.07.05.12.0.11-.07.2-.22.27-.24.13-.4.27-.48.43-.15.27-.26.71-.34 1.35l-2.02 15.07c-.1.79-.19 1.24-.25 1.33s-.2.14-.4.14h-1.23c-.12.0-.22-.05-.28-.16-.03-.06-.09-.5-.19-1.31L993.34 264.06z"/><path class="st14" d="M1006.09 270.22c-.03.04-.07.09-.11.17-.48.94-1.08 1.42-1.81 1.42-.71.0-1.31-.42-1.81-1.26-.65-1.11-.98-3.11-.98-6 0-2.84.34-5 1.03-6.47.68-1.47 1.65-2.2 2.89-2.2 1.23.0 2.18.78 2.85 2.33.66 1.56 1 3.61 1 6.16v9.34c0 3.31-.48 5.74-1.45 7.29-.67 1.06-1.56 1.59-2.66 1.59-.82.0-1.52-.38-2.09-1.14-.75-.99-1.12-2.19-1.12-3.58.0-.94.17-1.66.51-2.15s.72-.73 1.12-.73c.44.0.81.22 1.14.66.32.44.48 1.08.48 1.92.0.82-.16 1.43-.47 1.85s-.68.63-1.11.63c-.11.0-.24-.02-.39-.05-.08-.02-.14-.03-.17-.03-.04.0-.07.02-.09.05-.03.03-.05.09-.05.16.0.4.22.83.67 1.29.45.47.94.7 1.48.7.37.0.65-.12.84-.36s.28-.64.28-1.2v-10.39H1006.09zm0-12.8c0-.3-.1-.59-.31-.87-.12-.16-.3-.24-.53-.24s-.42.1-.56.29-.22.47-.22.83v11.89c0 .71.04 1.15.13 1.31s.21.24.37.24c.21.0.41-.16.61-.47.34-.54.51-1.11.51-1.73V257.42z"/><path class="st14" d="M1010.29 264.06h-.36l-.09-.05c-.03-.05-.05-.1-.05-.17s.05-.14.14-.22h3.88c.09.08.14.15.14.22s-.05.14-.14.22h-.79l1.49 13.01 1.36-9.16-.46-3.85h-.39c-.05.0-.09-.02-.12-.06s-.04-.09-.04-.16.01-.12.04-.16.06-.06.12-.06h3.94c.05.0.09.02.12.06s.05.09.05.16-.02.12-.05.16-.07.06-.12.06h-.84l1.53 12.82 1.6-10.89c.05-.31.08-.59.08-.82.0-.3-.06-.52-.17-.68-.11-.15-.34-.3-.68-.43-.07-.02-.12-.05-.15-.08s-.04-.07-.04-.13.06-.13.18-.24h2.18l.08.05.03.19c0 .06-.01.1-.02.12s-.04.05-.09.07c-.58.23-.99 1.19-1.21 2.88l-1.99 14.37c-.07.54-.15.86-.22.96-.05.07-.14.1-.26.1h-1.13c-.07.0-.14-.05-.19-.14-.06-.09-.12-.39-.18-.88l-1.44-12.2-1.53 11.07c-.16 1.12-.29 1.78-.42 1.99-.05.1-.14.16-.26.16h-1.15c-.09.0-.17-.05-.23-.16-.03-.07-.11-.74-.25-1.99L1010.29 264.06z"/></g><g><path class="st15" d="M857.71 288.45v-7.13c-.4.56-.71.91-.92 1.06s-.44.22-.7.22c-.68.0-1.25-.41-1.7-1.24-.7-1.29-1.04-3.69-1.04-7.2.0-1.43.05-3 .14-4.7s.29-2.94.58-3.71c.29-.77.67-1.35 1.13-1.74s.93-.59 1.39-.59c.48.0.9.22 1.27.67s.65 1.28.83 2.49c.52-.85.96-1.66 1.32-2.43.22-.49.37-.73.47-.73.05.06.08.13.08.21v24.83h.52c.06.0.11.02.15.06s.06.09.06.15l-.05.15c-.05.05-.11.07-.17.07h-4.16c-.05.0-.09-.02-.12-.06s-.05-.09-.05-.15c0-.07.02-.13.05-.16.03-.04.07-.05.13-.05h.79V288.45zM856.14 280.99c0 .24.06.44.17.59.07.1.18.16.31.16.3.0.54-.22.73-.66.24-.58.36-1.08.36-1.5v-14.44c0-.37-.09-.69-.28-.96-.12-.17-.29-.26-.5-.26s-.37.1-.5.31c-.2.3-.3.79-.3 1.45v15.31H856.14z"/><path class="st15" d="M866.92 288.45v-7.13c-.4.56-.71.91-.92 1.06s-.44.22-.7.22c-.68.0-1.25-.41-1.7-1.24-.7-1.29-1.04-3.69-1.04-7.2.0-1.43.05-3 .14-4.7s.29-2.94.58-3.71c.29-.77.67-1.35 1.13-1.74s.93-.59 1.39-.59c.48.0.9.22 1.27.67s.65 1.28.83 2.49c.52-.85.96-1.66 1.32-2.43.22-.49.37-.73.47-.73.05.06.08.13.08.21v24.83h.52c.06.0.11.02.15.06s.06.09.06.15l-.05.15c-.05.05-.11.07-.17.07h-4.16c-.05.0-.09-.02-.12-.06s-.05-.09-.05-.15c0-.07.02-.13.05-.16.03-.04.07-.05.13-.05h.79V288.45zM865.35 280.99c0 .24.06.44.17.59.07.1.18.16.31.16.3.0.54-.22.73-.66.24-.58.36-1.08.36-1.5v-14.44c0-.37-.09-.69-.28-.96-.12-.17-.29-.26-.5-.26s-.37.1-.5.31c-.2.3-.3.79-.3 1.45v15.31H865.35z"/><path class="st15" d="M874.84 256.09v8.97c.43-.64.8-1.08 1.14-1.3.33-.23.72-.34 1.17-.34.7.0 1.19.2 1.48.61.41.55.62 1.41.62 2.57v15.35h.57c.11.08.16.15.16.22s-.05.14-.16.22h-3.73c-.07-.07-.11-.14-.11-.22s.04-.15.11-.22h.37v-16.28c0-.42-.05-.71-.14-.87-.08-.12-.2-.18-.35-.18-.24.0-.47.16-.68.49-.3.49-.45 1.15-.45 1.98v14.86h.42c.1.08.16.15.16.22s-.05.14-.16.22h-3.84l-.08-.05-.05-.17c0-.08.04-.15.12-.22h.7v-25.42h-.7c-.1-.07-.16-.14-.16-.21.0-.08.05-.16.16-.23H874.84z"/><path class="st15" d="M881.69 264.1h-.81c-.08.0-.15-.02-.19-.07-.04-.05-.06-.1-.06-.17.0-.06.02-.1.06-.14.05-.06.11-.09.19-.09h3.6v19.25c0 2.14-.35 3.76-1.04 4.84-.49.78-1.1 1.17-1.84 1.17-.55.0-1.01-.21-1.37-.64s-.54-.98-.54-1.65c0-.58.12-1.04.37-1.37s.53-.5.86-.5c.29.0.54.13.75.38s.31.57.31.97c0 .48-.12.85-.35 1.13-.23.27-.54.41-.91.41-.07.0-.16-.01-.26-.02.06.29.18.51.35.65.17.14.41.21.71.21.45.0.8-.17 1.07-.51.26-.34.4-.85.4-1.54.0-.56-.1-1.18-.31-1.87-.3-.98-.59-1.75-.86-2.31-.07-.14-.11-.34-.11-.6V264.1H881.69zM883.03 255.88c.46.0.84.18 1.15.53.31.36.47.78.47 1.29s-.16.95-.49 1.32-.72.55-1.18.55-.85-.18-1.17-.54c-.32-.36-.48-.8-.48-1.31s.16-.95.48-1.3C882.14 256.06 882.54 255.88 883.03 255.88z"/><path class="st15" d="M892.12 281.22c-.2.17-.44.48-.72.91-.21.31-.36.47-.47.47-.04.0-.08-.02-.11-.05-.03-.04-.05-.09-.05-.16v-8.18c0-.08.02-.14.05-.18.04-.04.08-.06.13-.06.06.0.11.02.14.07s.06.23.08.56c.13 2.26.48 4.14 1.03 5.65.39 1.09.86 1.64 1.4 1.64.27.0.51-.15.73-.45s.33-.73.33-1.29c0-.64-.12-1.42-.37-2.35-.24-.93-.76-2.36-1.54-4.3s-1.29-3.34-1.51-4.2-.33-1.62-.33-2.27c0-1.07.26-1.94.79-2.61.52-.66 1.13-1 1.83-1 .62.0 1.22.32 1.81.96.16-.12.39-.35.7-.69.18-.18.3-.27.36-.27.04.0.08.01.11.04.03.05.05.1.05.16V271c0 .08-.02.15-.06.19-.04.05-.09.07-.14.07-.06.0-.11-.03-.14-.09s-.06-.23-.08-.52c-.14-2.15-.43-3.89-.87-5.23-.32-.93-.74-1.4-1.26-1.4-.29.0-.53.12-.73.37-.2.24-.3.58-.3 1 0 1.06.62 2.98 1.85 5.75.83 1.84 1.4 3.31 1.7 4.41s.45 2.06.45 2.9c0 1.27-.29 2.28-.87 3.03s-1.26 1.13-2.02 1.13c-.39.0-.74-.1-1.03-.31C892.75 282.09 892.44 281.73 892.12 281.22z"/><path class="st15" d="M902.03 268.16c1.23.41 2.1.97 2.6 1.68.8 1.15 1.2 2.89 1.2 5.21.0 2.58-.45 4.48-1.34 5.71-.89 1.23-1.9 1.84-3.03 1.84-.9.0-1.7-.48-2.39-1.44s-1.03-2.37-1.03-4.24c0-1.33.22-2.32.65-2.97.33-.49.75-.73 1.24-.73.43.0.79.21 1.09.62.3.41.45 1.03.45 1.86.0.86-.17 1.52-.5 1.96s-.72.66-1.17.66c-.27.0-.56-.09-.86-.28-.19-.12-.31-.17-.38-.17-.06.06-.09.12-.09.19.0 1.17.3 2.14.89 2.92.6.78 1.22 1.17 1.88 1.17.4.0.73-.13.96-.4.29-.35.44-.73.44-1.15v-9.77c0-.89-.12-1.5-.36-1.85s-.56-.52-.95-.52c-.21.0-.43.06-.67.19-.17.09-.27.14-.33.14-.05.0-.11-.01-.17-.03l-.88-.35-.11-.1.11-.12.89-.51.12-.03c.09.0.26.06.51.17s.46.17.64.17c.31.0.54-.1.7-.3.25-.31.37-.66.37-1.05v-9.18c0-.4-.08-.69-.23-.87-.16-.19-.38-.28-.67-.28-.73.0-1.4.37-2.02 1.12s-.93 1.61-.93 2.61c0 .09.05.18.16.26.05.0.22-.08.51-.25s.55-.25.79-.25c.38.0.71.18.99.55.27.37.41.9.41 1.6.0.69-.15 1.22-.45 1.6s-.68.57-1.14.57-.85-.23-1.17-.69-.48-1.23-.48-2.32c0-1.72.33-3.02.99-3.88s1.48-1.29 2.47-1.29c1.03.0 1.91.5 2.65 1.51s1.11 2.49 1.11 4.43c0 1.79-.29 3.18-.86 4.15C904.09 266.95 903.22 267.68 902.03 268.16z"/><path class="st15" d="M910.38 256.09v25.86h.61c.05.0.1.02.13.06.04.04.05.09.05.16s-.02.12-.05.16c-.04.04-.08.06-.13.06h-4.05c-.05.0-.1-.02-.13-.06-.04-.04-.05-.09-.05-.16s.02-.12.05-.16c.04-.04.08-.06.13-.06h.65v-25.42h-.65c-.06.0-.11-.02-.16-.06-.04-.04-.06-.09-.06-.15.0-.07.02-.12.06-.16.04-.05.09-.07.15-.07H910.38z"/><path class="st15" d="M917.77 264.83c.31-.28.59-.59.83-.92.24-.33.4-.5.48-.5l.08.04.03.17v7.48c0 .08-.02.15-.06.19-.04.05-.09.07-.14.07-.07.0-.12-.03-.16-.09-.02-.05-.05-.33-.09-.85-.06-.87-.26-1.98-.61-3.32-.34-1.34-.68-2.22-1.02-2.63s-.7-.62-1.08-.62c-.25.0-.43.07-.53.22-.1.15-.16.46-.16.93v15.41c0 .63.08 1.06.25 1.3s.39.36.68.36c.37.0.73-.17 1.07-.52.34-.34.61-.85.81-1.51.41-1.35.62-2.91.62-4.67v-.98c0-.16.03-.29.08-.37l.12-.1c.05.0.09.03.12.1.05.08.08.2.08.37v1.15c0 2.6-.38 4.52-1.15 5.75-.54.86-1.22 1.29-2.05 1.29-.91.0-1.66-.47-2.24-1.4-.76-1.22-1.14-3.36-1.14-6.4v-3.34c0-3.03.41-5.24 1.25-6.63.57-.94 1.28-1.42 2.12-1.42C916.69 263.42 917.29 263.89 917.77 264.83z"/><path class="st15" d="M925.09 278.56c.4.0.73.17.99.5s.39.83.39 1.49-.14 1.17-.41 1.52c-.27.35-.6.52-.99.52-.41.0-.74-.17-1-.5s-.39-.82-.39-1.46c0-.69.14-1.21.41-1.56C924.36 278.73 924.69 278.56 925.09 278.56zM929.66 280.59c0-.68.13-1.18.4-1.52s.59-.51.96-.51c.41.0.75.17 1.02.52.27.35.41.85.41 1.5s-.13 1.15-.39 1.49-.59.52-1 .52c-.42.0-.75-.17-1.01-.5C929.79 281.77 929.66 281.26 929.66 280.59zM937.04 278.56c.4.0.73.17.99.52.26.34.39.85.39 1.51s-.13 1.17-.4 1.5c-.27.34-.6.51-1.01.51s-.74-.16-.99-.49c-.26-.33-.38-.82-.38-1.47.0-.66.14-1.18.41-1.54C936.33 278.74 936.66 278.56 937.04 278.56z"/><path class="st15" d="M945.37 278.52c-.63-.66-1.09-1.45-1.38-2.36-.4-1.28-.61-2.94-.61-4.98.0-2.91.42-5.02 1.25-6.33.6-.96 1.39-1.43 2.37-1.43.62.0 1.19.24 1.7.73.24-.55.5-.96.79-1.23.29-.27.61-.41.95-.41.36.0.65.14.88.41.22.28.33.67.33 1.17.0.43-.08.76-.23.98-.16.22-.33.33-.53.33-.22.0-.39-.08-.53-.25-.13-.17-.2-.42-.2-.74v-.19c.01-.1.02-.19.02-.26.0-.2-.03-.33-.08-.4-.06-.07-.14-.1-.24-.1-.14.0-.29.09-.43.28s-.28.47-.42.86c.98 1.41 1.47 3.7 1.47 6.86.0 2.76-.42 4.8-1.26 6.13-.62.98-1.38 1.47-2.26 1.47-.14.0-.31-.01-.51-.02-.13-.01-.45-.02-.98-.02-.63.0-1.08.1-1.35.31s-.4.41-.4.61c0 .19.07.34.22.45.21.16.54.24.98.24h2.48c1.22.0 2.1.31 2.66.93s.83 1.57.83 2.85c0 1.4-.37 2.5-1.1 3.3-.74.8-1.76 1.2-3.08 1.2-1.33.0-2.33-.31-3.01-.94-.68-.62-1.03-1.34-1.03-2.14.0-.5.11-.97.32-1.41s.53-.84.94-1.22c-.33-.24-.58-.54-.76-.88-.17-.34-.26-.74-.26-1.18.0-.77.18-1.36.55-1.77C943.81 278.94 944.45 278.66 945.37 278.52zM944.24 283.45c-.28.3-.48.61-.62.93-.14.31-.21.63-.21.94.0.61.3 1.17.89 1.7s1.43.8 2.53.8c1.12.0 2.03-.31 2.73-.93.53-.49.79-1.06.79-1.71.0-.49-.15-.85-.44-1.08-.39-.3-1.19-.45-2.38-.45h-.64C945.86 283.65 944.98 283.58 944.24 283.45zM947.68 265.18c0-.56-.07-.93-.2-1.12s-.32-.28-.56-.28c-.23.0-.42.1-.57.31-.15.2-.22.57-.22 1.09v11.63c0 .69.09 1.18.28 1.47.14.21.32.31.55.31.21.0.38-.09.51-.28s.2-.51.2-.98L947.68 265.18z"/><path class="st15" d="M959.63 281.95h.67c.1.08.16.15.16.22s-.05.14-.16.22h-3.45v-1.4c-.2.54-.43.94-.71 1.21s-.6.4-.96.4c-.83.0-1.48-.69-1.95-2.08-.48-1.39-.71-3.57-.71-6.56.0-4.69.36-7.76 1.09-9.21.44-.89 1.02-1.33 1.74-1.33.28.0.55.1.8.29s.49.48.72.87v-8.04H956c-.1-.07-.16-.15-.16-.23.0-.07.05-.14.16-.21h3.66v25.85H959.63zM956.85 266.53c0-.78-.14-1.4-.43-1.87-.19-.33-.41-.49-.66-.49-.12.0-.23.06-.33.18s-.15.28-.15.48v16.08c0 .36.05.61.14.75s.2.21.32.21c.18.0.36-.15.54-.45.37-.57.56-1.07.56-1.49v-13.4H956.85z"/><path class="st15" d="M964.07 273.07v6.5c0 1.01.1 1.68.31 2.01.16.24.41.37.76.37.58.0 1.1-.37 1.56-1.1.76-1.24 1.16-2.92 1.21-5.05.01-.7.04-1.1.09-1.19.05-.09.11-.14.19-.14.07.0.13.03.17.1.05.09.08.31.08.66.0 2.08-.32 3.82-.97 5.24s-1.52 2.12-2.62 2.12c-1.03.0-1.88-.54-2.55-1.63s-1.01-3.45-1.01-7.09v-2.57c0-2.79.46-4.9 1.37-6.35.65-1.03 1.44-1.54 2.37-1.54 1.1.0 1.95.66 2.54 1.98.6 1.32.9 2.92.9 4.81v2.87L964.07 273.07zM965.67 272.6v-7.45c0-.48-.08-.84-.25-1.08-.11-.17-.28-.26-.51-.26s-.42.11-.59.33c-.17.22-.25.56-.25 1.01v7.45H965.67z"/><path class="st15" d="M970.53 265.48c.15-.06.29-.1.42-.13s.26-.04.37-.04c.42.0.77.17 1.05.51.29.34.43.78.43 1.33.0.56-.15 1.01-.44 1.35s-.68.51-1.17.51-.87-.17-1.15-.52c-.28-.34-.42-.85-.42-1.53.0-1 .34-1.84 1.01-2.52s1.63-1.01 2.88-1.01c1.12.0 1.93.24 2.42.71s.74 1.08.74 1.81v15.11c0 .17.04.32.12.43s.17.17.26.17c.26.0.52-.31.79-.93.07-.19.15-.28.22-.28l.19.19c0 .41-.23.84-.7 1.29-.47.45-1.03.68-1.68.68-.56.0-.99-.15-1.3-.44s-.54-.8-.69-1.54c-.48.79-.89 1.32-1.25 1.58s-.78.39-1.27.39c-.59.0-1.05-.17-1.36-.52s-.47-.8-.47-1.35v-6.59c0-.71.14-1.24.41-1.57.27-.34 1.09-.76 2.44-1.26.6-.23 1.11-.47 1.51-.7v-5.04c0-.52-.12-.93-.37-1.22-.24-.29-.56-.44-.96-.44C971.65 263.91 970.97 264.43 970.53 265.48zM973.89 271.15c-.66.29-1.09.58-1.28.87s-.29.76-.29 1.4v7.4c0 .24.04.43.12.54s.17.17.29.17c.17.0.35-.2.56-.59.4-.73.61-1.62.61-2.66L973.89 271.15z"/><path class="st15" d="M986.48 256.09v17.26l3.08-7.1c.19-.43.28-.81.28-1.14.0-.27-.06-.49-.19-.66-.12-.17-.3-.29-.51-.33l-.59-.05c-.06-.03-.09-.1-.09-.19.0-.07.02-.13.05-.17.04-.05.09-.07.15-.07h3.45c.06.0.11.02.15.07s.05.1.05.17c0 .09-.02.16-.06.19l-.47.04c-.18.01-.34.05-.48.1-.25.12-.47.32-.65.61-.11.19-.36.73-.74 1.62l-1.57 3.54 3.39 11.97h.53c.06.0.11.02.16.06.04.04.06.09.06.16l-.05.15c-.05.04-.11.07-.17.07h-4.07c-.06.0-.11-.02-.15-.06s-.05-.09-.05-.16.02-.12.05-.16c.04-.04.09-.06.15-.06h.76l-2.47-8.6v8.6h.62c.11.08.17.15.17.22s-.06.14-.17.22h-4.02c-.06.0-.11-.02-.15-.06s-.05-.09-.05-.16.02-.12.06-.16.09-.06.14-.06h.58v-25.42h-.58c-.05.0-.1-.02-.13-.06-.04-.04-.05-.09-.05-.15.0-.07.02-.13.05-.17.04-.04.08-.06.13-.06H986.48z"/><path class="st15" d="M993.34 264.06h-.45c-.05.0-.1-.02-.14-.06s-.06-.09-.06-.16.02-.12.05-.15c.05-.05.1-.07.16-.07h3.69c.06.0.11.02.15.07.04.04.06.09.06.15.0.07-.02.12-.05.15-.05.05-.11.07-.17.07h-.54l1.39 13.6 1.64-11.67c.02-.13.03-.27.03-.44.0-.71-.27-1.21-.81-1.49-.13-.07-.2-.16-.2-.26.0-.06.01-.1.05-.12.03-.04.07-.05.12-.05h2.04c.06.0.11.01.14.05.03.03.05.07.05.12.0.11-.07.2-.22.27-.24.13-.4.27-.48.43-.15.27-.26.71-.34 1.35l-2.02 15.07c-.1.79-.19 1.24-.25 1.33s-.2.14-.4.14h-1.23c-.12.0-.22-.05-.28-.16-.03-.06-.09-.5-.19-1.31L993.34 264.06z"/><path class="st15" d="M1006.09 270.22c-.03.04-.07.09-.11.17-.48.94-1.08 1.42-1.81 1.42-.71.0-1.31-.42-1.81-1.26-.65-1.11-.98-3.11-.98-6 0-2.84.34-5 1.03-6.47.68-1.47 1.65-2.2 2.89-2.2 1.23.0 2.18.78 2.85 2.33.66 1.56 1 3.61 1 6.16v9.34c0 3.31-.48 5.74-1.45 7.29-.67 1.06-1.56 1.59-2.66 1.59-.82.0-1.52-.38-2.09-1.14-.75-.99-1.12-2.19-1.12-3.58.0-.94.17-1.66.51-2.15s.72-.73 1.12-.73c.44.0.81.22 1.14.66.32.44.48 1.08.48 1.92.0.82-.16 1.43-.47 1.85s-.68.63-1.11.63c-.11.0-.24-.02-.39-.05-.08-.02-.14-.03-.17-.03-.04.0-.07.02-.09.05-.03.03-.05.09-.05.16.0.4.22.83.67 1.29.45.47.94.7 1.48.7.37.0.65-.12.84-.36s.28-.64.28-1.2v-10.39H1006.09zm0-12.8c0-.3-.1-.59-.31-.87-.12-.16-.3-.24-.53-.24s-.42.1-.56.29-.22.47-.22.83v11.89c0 .71.04 1.15.13 1.31s.21.24.37.24c.21.0.41-.16.61-.47.34-.54.51-1.11.51-1.73V257.42z"/><path class="st15" d="M1010.29 264.06h-.36l-.09-.05c-.03-.05-.05-.1-.05-.17s.05-.14.14-.22h3.88c.09.08.14.15.14.22s-.05.14-.14.22h-.79l1.49 13.01 1.36-9.16-.46-3.85h-.39c-.05.0-.09-.02-.12-.06s-.04-.09-.04-.16.01-.12.04-.16.06-.06.12-.06h3.94c.05.0.09.02.12.06s.05.09.05.16-.02.12-.05.16-.07.06-.12.06h-.84l1.53 12.82 1.6-10.89c.05-.31.08-.59.08-.82.0-.3-.06-.52-.17-.68-.11-.15-.34-.3-.68-.43-.07-.02-.12-.05-.15-.08s-.04-.07-.04-.13.06-.13.18-.24h2.18l.08.05.03.19c0 .06-.01.1-.02.12s-.04.05-.09.07c-.58.23-.99 1.19-1.21 2.88l-1.99 14.37c-.07.54-.15.86-.22.96-.05.07-.14.1-.26.1h-1.13c-.07.0-.14-.05-.19-.14-.06-.09-.12-.39-.18-.88l-1.44-12.2-1.53 11.07c-.16 1.12-.29 1.78-.42 1.99-.05.1-.14.16-.26.16h-1.15c-.09.0-.17-.05-.23-.16-.03-.07-.11-.74-.25-1.99L1010.29 264.06z"/></g></g></g><path class="st21" d="M933.68 431.23s-12.7 3.88-17.78 17.6c1.7-8.23 6.8-19.49 11.15-25.48.0.0-13.71 11.67-17.48 29.25-.75-3.85-1.76-7.28-3.52-9.61.67-1.52 1.62-3.16 2.98-5.03.0.0-1.82.86-3.99 3.92-.78-.73-1.66-1.29-2.7-1.61.0.0 1.02.78 1.94 2.76-1.1 1.76-2.24 4.09-3.24 7.15-5.06-13.51-17.47-16.92-17.47-16.92 5.67 4.58 11.27 12.49 12.61 19.16-2.33-5.44-7.11-9.26-12.61-3.06.0.0 10.08-3.75 9.26 6.3l-.2 1.54 28.94-.2-.67-2.11C919.74 447.67 926.66 436.91 933.68 431.23zM905.35 454.81c-.57-3.43-.97-6.17-.21-9.24C905.68 447.77 905.9 450.8 905.35 454.81z"/><path class="st22" d="M933.68 431.23s-12.7 3.88-17.78 17.6c1.7-8.23 6.8-19.49 11.15-25.48.0.0-13.71 11.67-17.48 29.25-.75-3.85-1.76-7.28-3.52-9.61.67-1.52 1.62-3.16 2.98-5.03.0.0-1.82.86-3.99 3.92-.78-.73-1.66-1.29-2.7-1.61.0.0 1.02.78 1.94 2.76-1.1 1.76-2.24 4.09-3.24 7.15-5.06-13.51-17.47-16.92-17.47-16.92 5.67 4.58 11.27 12.49 12.61 19.16-2.33-5.44-7.11-9.26-12.61-3.06.0.0 10.08-3.75 9.26 6.3l-.2 1.54 28.94-.2-.67-2.11C919.74 447.67 926.66 436.91 933.68 431.23zM905.35 454.81c-.57-3.43-.97-6.17-.21-9.24C905.68 447.77 905.9 450.8 905.35 454.81z"/></g></g></g></svg>