<?xml version="1.0" encoding="utf-8"?>
<!-- Generator: Adobe Illustrator 27.7.0, SVG Export Plug-In . SVG Version: 6.00 Build 0)  -->
<svg version="1.1" id="Capa_1" xmlns="http://www.w3.org/2000/svg" xmlns:xlink="http://www.w3.org/1999/xlink" x="0px" y="0px"
	 viewBox="0 0 1500 500" style="enable-background:new 0 0 1500 500;" xml:space="preserve">
<style type="text/css">
	.st0{fill:url(#SVGID_1_);}
	.st1{fill:url(#SVGID_00000120516819799284088730000003974840407752806836_);stroke:#1D1D1B;stroke-width:2;stroke-miterlimit:10;}
	.st2{fill:#3AA135;stroke:#1D1D1B;stroke-miterlimit:10;}
	.st3{fill:url(#SVGID_00000057122412236805336840000003263050441409842072_);stroke:#1D1D1B;stroke-miterlimit:10;}
	.st4{fill:#008436;stroke:#1D1D1B;stroke-miterlimit:10;}
	.st5{fill:#C4581C;stroke:#1D1D1B;stroke-width:2;stroke-miterlimit:10;}
	.st6{fill:#FF945F;}
	.st7{fill:url(#SVGID_00000052816284135166965400000006120111606385924784_);stroke:#1D1D1B;stroke-miterlimit:10;}
	.st8{fill:none;stroke:#F0A933;stroke-miterlimit:10;stroke-dasharray:5.9976,2.9988;}
	.st9{fill:none;stroke:#F0A933;stroke-miterlimit:10;stroke-dasharray:6,3;}
	.st10{fill:#C4581C;}
	.st11{fill:#B51622;stroke:#1D1D1B;stroke-linecap:round;stroke-linejoin:round;stroke-miterlimit:10;}
	.st12{fill:#B51622;stroke:#1D1D1B;stroke-miterlimit:10;}
	.st13{fill:#3C3C3B;}
	.st14{fill:#1D1D1B;stroke:#1D1D1B;stroke-miterlimit:10;}
	.st15{fill:#FFFFFF;}
	.st16{fill:#3C3C3B;stroke:#1D1D1B;stroke-miterlimit:10;}
	.st17{fill:#DD332A;}
	.st18{fill:#94161B;stroke:#1D1D1B;stroke-linecap:round;stroke-linejoin:round;stroke-miterlimit:10;}
	.st19{fill:#94161B;stroke:#1D1D1B;stroke-miterlimit:10;}
	.st20{opacity:0.1;fill:#EDEDED;enable-background:new    ;}
	.st21{fill:#1D1D1B;stroke:#1D1D1B;stroke-linecap:round;stroke-linejoin:round;stroke-miterlimit:10;}
	.st22{fill:#006633;}
</style>
<g id="Capa_4">
	
		<radialGradient id="SVGID_1_" cx="750" cy="251.41" r="795.9713" gradientTransform="matrix(1 0 0 -1 0 502)" gradientUnits="userSpaceOnUse">
		<stop  offset="1.065558e-07" style="stop-color:#FDC417"/>
		<stop  offset="0.0735" style="stop-color:#FDC627"/>
		<stop  offset="0.2668" style="stop-color:#FDCA4C"/>
		<stop  offset="0.4232" style="stop-color:#FDCC63"/>
		<stop  offset="0.5221" style="stop-color:#FDCD6B"/>
		<stop  offset="0.6958" style="stop-color:#FBCC6A;stop-opacity:0.9818"/>
		<stop  offset="0.7648" style="stop-color:#F4C669;stop-opacity:0.9746"/>
		<stop  offset="0.8152" style="stop-color:#E8BD65;stop-opacity:0.9693"/>
		<stop  offset="0.8565" style="stop-color:#D6B061;stop-opacity:0.965"/>
		<stop  offset="0.8923" style="stop-color:#C09F5B;stop-opacity:0.9613"/>
		<stop  offset="0.9242" style="stop-color:#A48954;stop-opacity:0.9579"/>
		<stop  offset="0.9533" style="stop-color:#83704B;stop-opacity:0.9549"/>
		<stop  offset="0.9793" style="stop-color:#5D5441;stop-opacity:0.9522"/>
		<stop  offset="1" style="stop-color:#3A3938;stop-opacity:0.95"/>
	</radialGradient>
	<rect y="0.59" class="st0" width="1500" height="500"/>
</g>
<g id="fondo">
</g>
<g id="cashAccount">
</g>
<g id="Capa_3">
	<g>
		
			<linearGradient id="SVGID_00000050654467188420030340000013489149604248449704_" gradientUnits="userSpaceOnUse" x1="596.6191" y1="34.83" x2="901.8777" y2="470.7843" gradientTransform="matrix(1 0 0 -1 0 502)">
			<stop  offset="0" style="stop-color:#2D2770"/>
			<stop  offset="0.1256" style="stop-color:#2F478D"/>
			<stop  offset="0.2766" style="stop-color:#3166AA"/>
			<stop  offset="0.4349" style="stop-color:#327EC0"/>
			<stop  offset="0.6014" style="stop-color:#3390D0"/>
			<stop  offset="0.7815" style="stop-color:#349AD9"/>
			<stop  offset="1" style="stop-color:#349DDC"/>
		</linearGradient>
		
			<circle style="fill:url(#SVGID_00000050654467188420030340000013489149604248449704_);stroke:#1D1D1B;stroke-width:2;stroke-miterlimit:10;" cx="747.85" cy="251.19" r="246.27"/>
		<rect x="522.11" y="317.1" class="st2" width="467.06" height="27.28"/>
		
			<linearGradient id="SVGID_00000146462365170894334250000005509461700560345267_" gradientUnits="userSpaceOnUse" x1="466.25" y1="261.05" x2="696.52" y2="261.05" gradientTransform="matrix(1 0 0 -1 0 502)">
			<stop  offset="0" style="stop-color:#006633"/>
			<stop  offset="0.1314" style="stop-color:#007739"/>
			<stop  offset="0.2963" style="stop-color:#00843D"/>
			<stop  offset="0.5153" style="stop-color:#008B3F"/>
			<stop  offset="1" style="stop-color:#008D40"/>
		</linearGradient>
		<path style="fill:url(#SVGID_00000146462365170894334250000005509461700560345267_);stroke:#1D1D1B;stroke-miterlimit:10;" d="
			M607.43,165.79c-49.2,0-89.09,33.65-89.09,75.16c0,3.89,0.35,7.72,1.03,11.45c-30.12,2.48-53.12,15.7-53.12,31.64
			c0,16.35,24.19,29.83,55.44,31.81v0.26h85.74c49.2,0,89.09-33.65,89.09-75.16S656.63,165.79,607.43,165.79z"/>
		<path class="st4" d="M988.33,252.73c-6.71,0-12.93,2.09-18.05,5.65c3.98-10.24,6.17-21.37,6.17-33.01
			c0-50.32-40.79-91.11-91.11-91.11s-91.11,40.79-91.11,91.11s40.79,91.11,91.11,91.11c6.86,0,13.54-0.76,19.97-2.2v2.2h83.03v-0.37
			c17.5,0,31.69-14.19,31.69-31.69C1020.02,266.92,1005.84,252.73,988.33,252.73z"/>
		<g>
			<path class="st5" d="M907.57,115.8v-4.84v-4.79c0-4.86-3.93-8.79-8.77-8.79H588.12c0,0,0,6.38,0,14.25c0,0.01,0,0.01,0,0.02l0,0
				c0-0.01,0-0.01,0-0.02v191.22c0,7.51,6.09,13.6,13.6,13.6h287.81c0.99,0,2.15,0.04,3.29-0.08l5.16-0.03
				c0,0.01,0.01,0.02,0.02,0.02h0.82v0.07c0,0.01,0.01,0.02,0.02,0.02h3.83c2.71,0,4.91-2.2,4.91-4.91v-0.09V125.23v-8.89
				C907.6,116.16,907.58,115.98,907.57,115.8z"/>
			<path class="st6" d="M898.35,97.69H607.17c-2.65,0-4.79,12.11-4.81,9.47c0-0.01-0.01-9.77-0.02-9.77h-14.21
				c-0.01,0-0.02,9.76-0.02,9.77c0.01,7.86,6.39-0.03,14.25-0.03l295.99-9.75c0.01,0,0.02,0.01,0.02,0.02l-14.71,218.86
				c0,0.01,14.72,0.1,14.74,0.1h3.83c2.71,0,4.91-2.2,4.91-4.91V106.48C907.15,101.63,903.21,97.69,898.35,97.69z"/>
			<g>
				<g>
					
						<linearGradient id="SVGID_00000057116226204839716750000017703323358910788736_" gradientUnits="userSpaceOnUse" x1="541.6215" y1="320.1291" x2="879.4583" y2="270.9618" gradientTransform="matrix(0.9857 -0.1682 -0.1682 -0.9857 94.3164 617.6741)">
						<stop  offset="0" style="stop-color:#8A6037"/>
						<stop  offset="0.047" style="stop-color:#986437"/>
						<stop  offset="0.1488" style="stop-color:#AF6B37"/>
						<stop  offset="0.2659" style="stop-color:#C17037"/>
						<stop  offset="0.4056" style="stop-color:#CE7337"/>
						<stop  offset="0.5905" style="stop-color:#D57537"/>
						<stop  offset="1" style="stop-color:#D77637"/>
					</linearGradient>
					<path style="fill:url(#SVGID_00000057116226204839716750000017703323358910788736_);stroke:#1D1D1B;stroke-miterlimit:10;" d="
						M898.82,97.41c0-0.01-0.01-0.02-0.02-0.02H602.36c-7.87,0-14.25,0-14.25,0v219.07l310.71-0.1c0,0,0,0.58,0-7.71L898.82,97.41z"
						/>
					<g>
						<path class="st8" d="M873.95,307.46H612.99c-7.51,0-13.6-6.09-13.6-13.6V120.75c0-7.51,6.09-13.6,13.6-13.6h260.96
							c7.51,0,13.6,6.09,13.6,13.6v173.11C887.56,301.37,881.46,307.46,873.95,307.46z"/>
					</g>
				</g>
				<g>
					<circle class="st9" cx="744.97" cy="208.17" r="79.54"/>
					<path id="symbol_00000109030502420464395350000006830884039102975657_" class="st10" d="M772.27,180.95
						c-4.15-9.41-13.68-11.43-25.36-9.48c-0.01,0-0.02-0.01-0.03-0.02l-3.74-14.51c0-0.01-0.02-0.02-0.03-0.02l-8.81,2.27
						c-0.01,0-0.02,0.02-0.02,0.03l3.68,14.47c0,0.01,0,0.02-0.02,0.03c-2.31,0.58-4.69,1.08-7.04,1.75c-0.01,0-0.02,0-0.03-0.02
						l-3.68-14.38c0-0.01-0.02-0.02-0.03-0.02l-8.81,2.27c-0.01,0-0.02,0.02-0.02,0.03l3.74,14.51c0,0.01,0,0.02-0.01,0.03
						c-1.95,0.56-17.26,4.48-17.83,4.63c-0.01,0-0.01,0.01-0.01,0.03l2.42,9.43c0,0.01,0.01,0.02,0.03,0.02
						c0.4-0.11,6.48-1.81,6.42-1.67c3.61-0.94,5.3,0.86,6.1,2.56l0,0l10.32,39.89c0.13,1.15-0.08,3.12-2.56,3.8
						c0.14,0.08-6.08,1.57-6.42,1.65c-0.01,0-0.01,0.01-0.01,0.02l0.96,11.01c0,0.01,0.01,0.02,0.03,0.02
						c0.67-0.17,15.74-4.03,17.85-4.56c0.01,0,0.02,0.01,0.02,0.02l3.78,14.68c0,0.01,0.02,0.02,0.03,0.02l8.81-2.27
						c0.01,0,0.02-0.02,0.02-0.03l-3.78-14.78c0-0.01,0-0.02,0.02-0.03c2.42-0.56,4.77-1.15,7.06-1.75c0.01,0,0.02,0,0.03,0.02
						l3.76,14.7c0,0.01,0.02,0.02,0.03,0.02l8.81-2.27c0.01,0,0.02-0.02,0.02-0.03l-3.78-14.66c0-0.01,0-0.02,0.02-0.03
						c13.62-3.32,23.23-11.91,21.26-25.06c-1.26-7.91-9.88-14.4-17.07-15.16c-0.02,0-0.03-0.02-0.01-0.04
						C772.78,194.13,775.01,188.42,772.27,180.95L772.27,180.95z M768.01,215.66c1.76,13.01-16.3,14.61-22.29,16.18
						c-0.01,0-0.02,0-0.03-0.02l-5.19-19.44c0-0.01,0-0.02,0.01-0.03C746.53,210.78,765.03,204.2,768.01,215.66L768.01,215.66z
						 M757.1,189.13c1.86,11.56-13.57,12.91-18.58,14.19c-0.01,0-0.02,0-0.03-0.02l-4.73-17.64c0-0.01,0-0.02,0.02-0.03
						C738.81,184.39,753.31,178.43,757.1,189.13L757.1,189.13z"/>
				</g>
			</g>
		</g>
		<rect x="521.69" y="316.11" class="st2" width="467.48" height="28.27"/>
		<g>
			<polygon class="st11" points="546.56,466.74 613.88,377.09 613.88,350.25 546.56,423.15 			"/>
			<path class="st11" d="M613.88,350.25l-83.83,89.78h-41.13c-10.16,0-11.85-5.57-4.17-12.03l86.53-72.77
				c3.3-2.78,11.03-4.97,17.28-4.97h25.32V350.25z"/>
			<path class="st12" d="M476.61,443.36v3.77c0,10.95,8.96,19.91,19.91,19.91h49.96v-43.6h-49.96
				C485.58,423.45,476.61,432.41,476.61,443.36z"/>
			<path class="st13" d="M479.22,443.55v3.39c0,9.86,8.07,17.92,17.92,17.92h46.73v-39.24h-46.73
				C487.29,425.63,479.22,433.69,479.22,443.55z"/>
			<g>
				<g>
					<path class="st14" d="M544.51,406.62h-16.29c0.04,0.27,0.01,0.45-0.1,0.54l-0.08,0.04c-0.05,0.01-0.11,0.02-0.17,0.02
						c-0.04,0-0.05-0.04-0.03-0.11c0.12-0.51-0.16-0.83-0.85-0.96c-0.1-0.02-0.16-0.04-0.18-0.07c-0.02-0.02-0.01-0.05,0.03-0.08
						l0.49-0.44c0.03-0.03,0.09-0.06,0.17-0.08c0.15-0.04,0.28-0.06,0.41-0.06h17.8l0.4-0.39c0.03-0.03,0.07-0.05,0.12-0.07
						c0.05-0.02,0.1-0.03,0.15-0.03c0.05,0,0.08,0.01,0.09,0.02c0.02,0.02,0.02,0.05-0.01,0.07l-2.15,2.13l-0.08,0.04
						c-0.05,0.02-0.1,0.03-0.16,0.03c-0.05,0-0.08-0.02-0.1-0.07L544.51,406.62z"/>
					<path class="st14" d="M528.88,404.16l2.64-2.39h-0.47c-0.05-0.03-0.05-0.06-0.02-0.09c0.03-0.02,0.1-0.05,0.21-0.08l2.36,0.07
						c0.05,0,0.08,0.01,0.08,0.02c0.01,0.02-0.01,0.04-0.04,0.07l-2.44,2.23l5.35,0.07c-0.62-0.21-0.98-0.4-1.08-0.57
						c-0.1-0.17-0.02-0.37,0.23-0.61c0.48-0.45,1.36-0.8,2.64-1.05s3.14-0.38,5.61-0.38c2.16,0,3.56,0.11,4.2,0.34
						c0.84,0.3,0.98,0.73,0.42,1.29c-0.36,0.36-0.99,0.67-1.88,0.93c-0.89,0.26-1.95,0.39-3.16,0.39c-0.84,0-1.37-0.07-1.59-0.2
						c-0.22-0.13-0.23-0.29-0.05-0.47c0.17-0.17,0.49-0.31,0.94-0.44s0.98-0.19,1.57-0.19c0.64,0,1.06,0.07,1.26,0.2
						s0.21,0.29,0.03,0.46c-0.08,0.08-0.19,0.16-0.32,0.24l-0.07,0.05v0.02c0.02,0.01,0.06,0.02,0.12,0.02
						c0.45,0,0.95-0.09,1.5-0.28c0.55-0.18,0.95-0.4,1.2-0.64c0.17-0.17,0.2-0.3,0.08-0.39c-0.17-0.12-0.51-0.18-1.01-0.18h-9.35
						c-0.57,0-1.02,0.04-1.36,0.13c-0.25,0.06-0.43,0.15-0.55,0.26c-0.24,0.22-0.19,0.44,0.15,0.64c0.51,0.29,1.55,0.46,3.1,0.49
						c0.07,0,0.11,0.02,0.13,0.07c-0.02,0.02-0.05,0.04-0.1,0.05c-0.06,0.02-0.12,0.02-0.17,0.02L528.88,404.16z"/>
					<path class="st14" d="M534.41,399.41l-0.42,0.38c-0.02,0.02-0.05,0.04-0.09,0.05c-0.04,0.01-0.08,0.02-0.12,0.02
						c-0.05,0-0.08-0.02-0.09-0.06l2.08-1.89c0.02-0.02,0.05-0.04,0.1-0.05c0.04-0.01,0.08-0.02,0.12-0.02
						c0.05,0,0.08,0.01,0.09,0.02c0.01,0.01,0.01,0.03-0.01,0.05l-0.34,0.31h14.62c0.94,0,1.56,0.14,1.86,0.42s0.23,0.65-0.22,1.1
						c-0.4,0.4-1,0.73-1.8,0.98s-1.67,0.38-2.61,0.38c-0.8,0-1.3-0.07-1.52-0.2c-0.21-0.14-0.23-0.29-0.05-0.47
						c0.15-0.14,0.42-0.27,0.8-0.38c0.38-0.11,0.83-0.16,1.35-0.16c0.49,0,0.81,0.05,0.95,0.15c0.15,0.1,0.15,0.22,0.01,0.37
						c-0.06,0.05-0.15,0.12-0.27,0.2c-0.13,0.08-0.21,0.13-0.25,0.17c-0.03,0.03-0.03,0.05-0.01,0.06c0.03,0.02,0.1,0.04,0.19,0.04
						c0.39,0,0.87-0.09,1.44-0.28c0.56-0.19,0.95-0.38,1.15-0.58c0.17-0.17,0.18-0.3,0.03-0.4c-0.21-0.13-0.62-0.2-1.23-0.2h-15.76
						V399.41z"/>
					<path class="st14" d="M536.93,397.13l-0.37,0.33c-0.02,0.02-0.05,0.04-0.09,0.05c-0.04,0.01-0.08,0.02-0.12,0.02
						c-0.05,0-0.08-0.01-0.09-0.02c-0.01-0.01-0.01-0.03,0.01-0.05l1.69-1.53l11.35-0.53l-10.01-0.68l1.64-1.49
						c0.02-0.02,0.06-0.04,0.1-0.05c0.04-0.01,0.08-0.02,0.12-0.02c0.05,0,0.08,0.01,0.09,0.02c0.01,0.01,0,0.03-0.02,0.05
						l-0.39,0.35h16.89l0.36-0.35c0.01-0.01,0.03-0.02,0.04-0.02c0.05-0.01,0.1-0.02,0.15-0.02c0.04,0,0.07,0,0.09,0.01
						c0.01,0.01,0.02,0.02,0.01,0.03l-1.82,1.8c-0.01,0.01-0.04,0.03-0.08,0.04c-0.04,0.01-0.08,0.02-0.13,0.02
						s-0.07-0.01-0.09-0.02c-0.01-0.01-0.01-0.03,0-0.04l0.39-0.38h-16.23l15.13,0.98c0.2,0.01,0.3,0.03,0.32,0.04s0.02,0.03,0,0.05
						l-0.37,0.36c-0.02,0.02-0.06,0.04-0.1,0.05c-0.04,0.01-0.18,0.02-0.4,0.03l-16.97,0.81h15c0.41,0,0.72-0.02,0.92-0.06
						c0.21-0.04,0.39-0.11,0.56-0.21l0.3-0.25c0.04-0.02,0.1-0.03,0.17-0.03c0.06,0,0.1,0,0.11,0.01s0,0.03-0.04,0.07l-1.01,1
						c-0.02,0.02-0.04,0.03-0.07,0.04s-0.07,0.01-0.11,0.01s-0.06,0-0.07-0.01s-0.01-0.04,0-0.1c0.02-0.12-0.02-0.2-0.13-0.24
						c-0.15-0.06-0.41-0.09-0.79-0.09h-15.94V397.13z"/>
					<path class="st14" d="M560.56,390.75h-15c0.06,0.23,0.04,0.38-0.05,0.46l-0.07,0.03c-0.05,0.01-0.1,0.02-0.15,0.02
						c-0.04,0-0.05-0.03-0.04-0.09c0.07-0.43-0.22-0.7-0.86-0.81c-0.1-0.02-0.15-0.04-0.17-0.06c-0.02-0.02-0.01-0.04,0.02-0.07
						l0.42-0.38c0.03-0.02,0.08-0.05,0.15-0.07c0.13-0.03,0.26-0.05,0.37-0.05h16.4l0.34-0.33c0.02-0.02,0.06-0.04,0.11-0.06
						s0.09-0.02,0.14-0.02s0.07,0.01,0.08,0.02c0.02,0.02,0.02,0.04-0.01,0.06l-1.82,1.8l-0.07,0.04c-0.05,0.01-0.09,0.02-0.15,0.02
						c-0.05,0-0.08-0.02-0.1-0.06L560.56,390.75z"/>
					<path class="st14" d="M557.53,388.87h-2.22c-1.77,0-2.93-0.14-3.47-0.41c-0.4-0.2-0.43-0.45-0.1-0.76
						c0.41-0.38,1.18-0.68,2.28-0.88c1.11-0.2,2.39-0.31,3.85-0.31h2.43c1.9,0,3.13,0.13,3.69,0.39c0.41,0.19,0.45,0.44,0.13,0.76
						c-0.19,0.18-0.46,0.35-0.83,0.5c-0.36,0.15-0.89,0.29-1.56,0.41c-0.68,0.12-1.49,0.2-2.44,0.24
						C558.36,388.85,557.77,388.87,557.53,388.87z M553.5,387.42c-0.42,0-0.74,0.03-0.97,0.08c-0.23,0.06-0.38,0.12-0.46,0.19
						c-0.07,0.06-0.06,0.12,0.02,0.17c0.08,0.05,0.27,0.08,0.55,0.08h9.47c0.59,0,1.03-0.03,1.3-0.09c0.2-0.05,0.34-0.11,0.42-0.19
						c0.08-0.08,0.07-0.14-0.02-0.18c-0.09-0.04-0.35-0.06-0.78-0.06H553.5z"/>
					<path class="st14" d="M550.59,384.72l-0.36,0.33c-0.02,0.02-0.05,0.03-0.08,0.04c-0.04,0.01-0.07,0.01-0.11,0.01
						s-0.07-0.02-0.08-0.05l1.78-1.61c0.02-0.02,0.05-0.03,0.08-0.04c0.04-0.01,0.08-0.02,0.11-0.02c0.04,0,0.07,0.01,0.09,0.02
						c0.01,0.01,0.01,0.03-0.01,0.04l-0.29,0.26h13.52c0.87,0,1.45,0.12,1.75,0.36s0.26,0.55-0.13,0.94
						c-0.34,0.34-0.88,0.62-1.6,0.84s-1.51,0.33-2.38,0.33c-0.74,0-1.21-0.06-1.42-0.17c-0.21-0.12-0.23-0.25-0.08-0.4
						c0.13-0.12,0.37-0.23,0.71-0.32c0.35-0.09,0.76-0.14,1.23-0.14c0.45,0,0.75,0.04,0.89,0.13s0.15,0.19,0.03,0.31
						c-0.05,0.05-0.13,0.1-0.24,0.17c-0.11,0.06-0.18,0.11-0.22,0.15c-0.02,0.02-0.02,0.04,0,0.06c0.03,0.02,0.09,0.03,0.18,0.03
						c0.36,0,0.8-0.08,1.31-0.24s0.85-0.33,1.02-0.5c0.14-0.14,0.14-0.26,0-0.34c-0.2-0.11-0.59-0.17-1.15-0.17h-14.55V384.72z"/>
					<path class="st14" d="M557.33,382.89l-0.2,0.18c-0.07,0.03-0.13,0.04-0.17,0.04c-0.05,0-0.08-0.01-0.1-0.04l1.13-1.05h10.95
						c0.09,0,0.16-0.01,0.23-0.03c0.06-0.02,0.11-0.05,0.15-0.08c0.07-0.07,0.03-0.14-0.13-0.21c-0.25-0.11-0.64-0.17-1.16-0.17
						h-9.23l-0.2,0.19c-0.02,0.02-0.04,0.03-0.07,0.04s-0.07,0.01-0.12,0.01c-0.04,0-0.07,0-0.09-0.01s-0.02-0.02,0-0.04l1.12-1.04
						h11.34l0.16-0.16c0.02-0.02,0.04-0.03,0.08-0.04c0.04-0.01,0.07-0.02,0.12-0.02s0.07,0.01,0.08,0.02
						c0.01,0.01,0.01,0.02,0,0.04l-1.02,1.01h-0.87c0.27,0.1,0.42,0.21,0.46,0.31c0.04,0.11-0.01,0.24-0.16,0.38
						c-0.22,0.22-0.51,0.38-0.88,0.49s-0.78,0.17-1.22,0.17L557.33,382.89L557.33,382.89z"/>
					<path class="st14" d="M570.64,378.76c0.12-0.12,0.32-0.22,0.6-0.29c0.28-0.08,0.63-0.12,1.03-0.12s0.67,0.04,0.81,0.12
						c0.13,0.08,0.14,0.18,0.03,0.29c-0.12,0.12-0.32,0.22-0.61,0.3c-0.28,0.08-0.62,0.12-1.01,0.12c-0.42,0-0.7-0.04-0.83-0.12
						C570.52,378.98,570.52,378.88,570.64,378.76z M573.25,377.41c-0.41,0-0.68-0.04-0.8-0.12c-0.13-0.08-0.13-0.17-0.02-0.28
						c0.12-0.12,0.33-0.22,0.62-0.3s0.63-0.12,1.03-0.12c0.39,0,0.66,0.04,0.79,0.11c0.13,0.08,0.14,0.17,0.02,0.29
						s-0.32,0.22-0.6,0.29C574,377.38,573.66,377.41,573.25,377.41z M574.19,375.28c0.12-0.11,0.31-0.21,0.6-0.28
						c0.28-0.07,0.62-0.11,1.02-0.11s0.66,0.04,0.79,0.11c0.13,0.08,0.13,0.17,0.01,0.29s-0.31,0.21-0.58,0.28s-0.6,0.11-0.99,0.11
						c-0.4,0-0.67-0.04-0.8-0.12C574.09,375.49,574.08,375.39,574.19,375.28z"/>
					<path class="st14" d="M562.96,373.49l-0.31,0.28c-0.08,0.03-0.14,0.04-0.17,0.04c-0.05,0-0.08-0.01-0.09-0.04l2.69-2.44h5.7
						c0.05,0.02,0.07,0.03,0.05,0.05s-0.04,0.03-0.07,0.03c-0.03,0.01-0.13,0.01-0.31,0.01c-1.15,0.02-2.29,0.09-3.4,0.22
						c-1.12,0.13-1.87,0.25-2.26,0.37c-0.21,0.06-0.39,0.17-0.55,0.32l-0.29,0.27h7.25c0.13-0.16,0.07-0.3-0.2-0.4
						c-0.36-0.14-1.05-0.2-2.09-0.2h-0.8c-0.03,0-0.06-0.01-0.07-0.02c-0.01-0.01-0.01-0.02,0-0.04c0.02-0.01,0.04-0.03,0.07-0.03
						c0.03-0.01,0.07-0.01,0.1-0.01h7.63c0.03,0,0.06,0,0.07,0.01c0.02,0.01,0.02,0.02,0,0.03c-0.01,0.01-0.04,0.03-0.07,0.04
						s-0.07,0.02-0.1,0.02H575c-1.01,0-1.9,0.08-2.66,0.23c-0.44,0.09-0.71,0.19-0.82,0.29c-0.03,0.03-0.03,0.05,0,0.06
						c0.03,0.02,0.1,0.03,0.2,0.03h7.19l0.14-0.14c0.12-0.12,0.13-0.23,0.04-0.35c-0.09-0.11-0.35-0.22-0.76-0.32
						c-0.42-0.1-0.9-0.18-1.45-0.23c-0.89-0.09-1.62-0.13-2.17-0.13h-0.68c-0.05-0.02-0.07-0.04-0.05-0.06s0.04-0.03,0.07-0.04
						s0.06-0.01,0.1-0.01h6.33l-2.46,2.44c-0.02,0.02-0.05,0.04-0.09,0.05s-0.07,0.02-0.11,0.02s-0.07-0.01-0.08-0.02
						c-0.01-0.01-0.01-0.03,0.01-0.05l0.28-0.28L562.96,373.49L562.96,373.49z"/>
					<path class="st14" d="M582.18,369.72c-0.03,0.05-0.07,0.1-0.12,0.15c-0.17,0.17-0.43,0.32-0.77,0.45s-0.79,0.25-1.34,0.35
						c-0.41,0.08-1.02,0.16-1.84,0.24s-1.78,0.12-2.89,0.12h-4.42c-2.03,0-3.38-0.14-4.06-0.42c-0.47-0.2-0.54-0.45-0.21-0.74
						c0.34-0.31,0.95-0.55,1.84-0.74c1.27-0.27,3.07-0.4,5.4-0.4h3.73c0.99,0,1.81,0.03,2.47,0.09s1.18,0.14,1.56,0.24
						c0.18,0.05,0.37,0.13,0.56,0.24c0.52-0.12,1.17-0.23,1.94-0.33c0.27-0.04,0.47-0.07,0.59-0.1c0.12-0.03,0.23-0.07,0.32-0.12
						l0.1-0.05l0.06-0.01c0.04,0,0.06,0.02,0.07,0.05c0.03,0.08-0.02,0.19-0.15,0.32c-0.18,0.18-0.46,0.32-0.87,0.43
						C583.73,369.6,583.08,369.68,582.18,369.72z M581.03,369.6h-12.99c-0.34,0-0.62,0.03-0.85,0.08c-0.17,0.04-0.3,0.1-0.38,0.17
						s-0.07,0.13,0.03,0.18c0.14,0.06,0.41,0.09,0.81,0.09h13c-0.08-0.11-0.07-0.2,0.02-0.29c0.06-0.06,0.16-0.12,0.29-0.2
						L581.03,369.6z M580.85,370.12c0.25,0,0.47-0.03,0.64-0.08c0.17-0.05,0.29-0.11,0.37-0.18c0.04-0.04,0.06-0.09,0.05-0.14
						c-0.3,0.03-0.52,0.07-0.66,0.11c-0.14,0.04-0.24,0.1-0.31,0.16C580.9,370.03,580.87,370.07,580.85,370.12z"/>
					<path class="st14" d="M583.56,368h-13.15c0.08,0.17,0.08,0.29,0.01,0.35l-0.06,0.02c-0.04,0.01-0.09,0.01-0.13,0.01
						c-0.03,0-0.05-0.02-0.05-0.07c0.01-0.33-0.27-0.54-0.85-0.62c-0.09-0.01-0.14-0.03-0.15-0.04c-0.02-0.01-0.01-0.03,0.01-0.05
						l0.32-0.29c0.02-0.02,0.06-0.04,0.13-0.05c0.11-0.02,0.22-0.04,0.32-0.04h14.39l0.26-0.26c0.02-0.02,0.05-0.03,0.09-0.05
						c0.04-0.01,0.08-0.02,0.12-0.02s0.06,0.01,0.07,0.02c0.02,0.01,0.02,0.03,0,0.05l-1.4,1.39l-0.06,0.03
						c-0.04,0.01-0.08,0.02-0.13,0.02c-0.04,0-0.07-0.02-0.1-0.04L583.56,368z"/>
					<path class="st14" d="M578.6,365.88l-7.98,0.65l-0.18,0.16c-0.01,0.01-0.04,0.02-0.07,0.03s-0.07,0.01-0.1,0.01
						c-0.04,0-0.07,0-0.08-0.01s-0.01-0.02,0.01-0.03l1.42-1.29c0.08-0.03,0.13-0.04,0.16-0.04c0.04,0,0.07,0.01,0.09,0.04
						l-0.35,0.32l7.4-0.61l-4.74-0.46c-0.17-0.02-0.35-0.03-0.51-0.03c-0.25,0-0.46,0.02-0.65,0.05s-0.34,0.07-0.45,0.13l-0.18,0.13
						c-0.04,0.02-0.08,0.02-0.14,0.02c-0.05,0-0.08-0.01-0.09-0.04l0.7-0.64c0.03-0.03,0.06-0.05,0.08-0.06l0.06-0.01
						c0.05,0,0.08,0.02,0.1,0.05c0.05,0.13,0.32,0.22,0.83,0.27l5.53,0.55h7.1l0.31-0.31c0.01-0.01,0.04-0.02,0.07-0.03
						s0.07-0.01,0.1-0.01c0.04,0,0.06,0,0.08,0.01c0.01,0.01,0.01,0.02,0,0.03l-1.47,1.45c-0.01,0.01-0.03,0.02-0.07,0.03
						c-0.03,0.01-0.06,0.01-0.1,0.01s-0.06,0-0.08-0.01c-0.01-0.01-0.01-0.02,0-0.03l0.33-0.33L578.6,365.88L578.6,365.88z"/>
					<path class="st14" d="M578.95,362.77l-0.2,0.19c-0.06,0.03-0.11,0.04-0.14,0.04c-0.04,0-0.08-0.01-0.1-0.04l0.2-0.19h-1.55
						c-0.94,0-1.55-0.07-1.85-0.21c-0.29-0.14-0.35-0.29-0.16-0.46c0.14-0.12,0.39-0.23,0.75-0.33c0.37-0.1,0.74-0.14,1.12-0.14
						c0.31,0,0.52,0.03,0.64,0.09s0.14,0.13,0.06,0.2s-0.22,0.13-0.42,0.19c-0.2,0.05-0.42,0.08-0.67,0.08
						c-0.29,0-0.48-0.03-0.57-0.08c-0.09-0.06-0.08-0.14,0.04-0.25c-0.16,0.03-0.29,0.06-0.4,0.1c-0.11,0.04-0.19,0.09-0.25,0.14
						c-0.09,0.08-0.07,0.15,0.05,0.22s0.35,0.1,0.68,0.1c0.39,0,0.96-0.05,1.7-0.15s1.25-0.15,1.55-0.16l0.47-0.44
						c0.07-0.03,0.12-0.04,0.15-0.04c0.04,0,0.07,0.01,0.09,0.04l-0.47,0.44h9.89l0.47-0.45l0.11-0.01c0.04,0,0.08,0.01,0.1,0.02
						l-1.31,1.3l-0.05,0.02l-0.1,0.01c-0.04,0-0.07-0.01-0.09-0.03l0.19-0.19h-9.93V362.77z"/>
					<path class="st14" d="M580.39,361.43l-0.09,0.09l-0.05,0.02c-0.03,0.01-0.07,0.01-0.1,0.01s-0.06-0.01-0.08-0.03l1-0.93
						c0.07-0.02,0.12-0.03,0.16-0.03s0.06,0.01,0.08,0.03l-0.2,0.19l7.49-0.35l-4.67-0.32l-2.22,0.11l-0.1,0.09
						c-0.01,0.01-0.03,0.02-0.06,0.03c-0.03,0.01-0.06,0.01-0.1,0.01s-0.06,0-0.08-0.01s-0.02-0.02,0-0.03l1-0.93
						c0.01-0.01,0.03-0.02,0.06-0.03c0.03-0.01,0.06-0.01,0.1-0.01s0.06,0,0.07,0.01s0.01,0.02,0,0.03l-0.21,0.2l7.34-0.36
						l-5.51-0.37c-0.16-0.01-0.3-0.02-0.43-0.02c-0.16,0-0.3,0.01-0.41,0.04s-0.25,0.08-0.4,0.16c-0.03,0.02-0.06,0.03-0.08,0.03
						c-0.02,0.01-0.05,0.01-0.08,0.01s-0.06-0.01-0.08-0.04l0.55-0.51l0.05-0.02l0.11-0.01c0.03,0,0.05,0,0.06,0
						s0.02,0.01,0.01,0.02c-0.02,0.13,0.4,0.23,1.26,0.28l7.31,0.46c0.27,0.02,0.43,0.03,0.47,0.05c0.03,0.01,0.02,0.03-0.01,0.06
						l-0.27,0.27c-0.02,0.02-0.06,0.03-0.12,0.05c-0.06,0.01-0.24,0.03-0.52,0.04l-7,0.34l5.67,0.36c0.58,0.04,0.91,0.07,0.99,0.1
						c0.05,0.01,0.05,0.03,0.02,0.06l-0.28,0.27c-0.02,0.02-0.07,0.04-0.14,0.06c-0.05,0.01-0.43,0.03-1.15,0.06L580.39,361.43z"/>
					<path class="st14" d="M580.32,357.52h9.26l-3.06-0.7c-0.19-0.04-0.36-0.06-0.54-0.06c-0.14,0-0.28,0.01-0.4,0.04
						s-0.22,0.07-0.3,0.12l-0.17,0.13c-0.03,0.01-0.08,0.02-0.13,0.02c-0.04,0-0.06,0-0.08-0.01s-0.02-0.02,0-0.03l0.84-0.78
						c0.02-0.01,0.04-0.03,0.07-0.03c0.03-0.01,0.07-0.01,0.11-0.01c0.05,0,0.08,0,0.09,0.01l-0.09,0.1
						c-0.04,0.04-0.06,0.08-0.06,0.11c0,0.06,0.06,0.11,0.17,0.15c0.07,0.03,0.3,0.08,0.69,0.17l1.52,0.35l7.18-0.76l0.12-0.12
						c0.01-0.01,0.04-0.03,0.07-0.03c0.03-0.01,0.06-0.01,0.1-0.01l0.07,0.01c0.01,0.01,0.01,0.02,0,0.04l-0.93,0.92
						c-0.01,0.01-0.04,0.03-0.07,0.03c-0.03,0.01-0.06,0.01-0.1,0.01s-0.06,0-0.07-0.01s-0.01-0.02,0-0.03l0.18-0.17l-5.18,0.56
						h4.62l0.14-0.14c0.07-0.03,0.12-0.04,0.16-0.04s0.06,0.01,0.08,0.04l-0.93,0.92c-0.01,0.01-0.04,0.03-0.07,0.03
						c-0.03,0.01-0.06,0.01-0.1,0.01s-0.06,0-0.07-0.01s-0.01-0.02,0-0.03l0.13-0.13h-13.7l-0.15,0.13
						c-0.01,0.01-0.04,0.02-0.07,0.03s-0.06,0.01-0.09,0.01c-0.04,0-0.06,0-0.08-0.01c-0.01-0.01-0.01-0.02,0-0.03L580.32,357.52z"
						/>
					<path class="st14" d="M595.88,355.85h-13.49l-0.25,0.23c-0.07,0.03-0.13,0.04-0.16,0.04c-0.03,0-0.05-0.01-0.07-0.04l1.13-1.02
						c0.34-0.31,0.91-0.56,1.7-0.76c0.79-0.2,1.7-0.29,2.74-0.29c0.64,0,1.15,0.03,1.54,0.1c0.39,0.07,0.67,0.17,0.83,0.31
						c0.1,0.09,0.15,0.22,0.13,0.4c0.38-0.19,0.71-0.32,1-0.41c0.46-0.14,0.95-0.25,1.47-0.32c0.52-0.07,1.1-0.11,1.75-0.11
						c0.84,0,1.52,0.05,2.06,0.16c0.38,0.07,0.64,0.19,0.77,0.36c0.14,0.17,0.09,0.37-0.15,0.6l-1,0.99
						c-0.07,0.03-0.12,0.04-0.15,0.04s-0.06-0.01-0.08-0.04L595.88,355.85z M583.18,355.14h6.34l0.19-0.18
						c0.09-0.08,0.1-0.14,0.03-0.18c-0.07-0.04-0.23-0.06-0.49-0.06h-4.8c-0.31,0-0.55,0.02-0.71,0.06
						c-0.16,0.04-0.3,0.12-0.44,0.24L583.18,355.14z M589.76,355.14h6.82l0.11-0.11c0.1-0.1,0.1-0.17,0.01-0.23
						c-0.09-0.06-0.26-0.09-0.51-0.09h-5.35c-0.23,0-0.41,0.02-0.54,0.05s-0.24,0.09-0.31,0.16L589.76,355.14z"/>
				</g>
				<g>
					<path class="st15" d="M544.51,406.62h-16.29c0.04,0.27,0.01,0.45-0.1,0.54l-0.08,0.04c-0.05,0.01-0.11,0.02-0.17,0.02
						c-0.04,0-0.05-0.04-0.03-0.11c0.12-0.51-0.16-0.83-0.85-0.96c-0.1-0.02-0.16-0.04-0.18-0.07c-0.02-0.02-0.01-0.05,0.03-0.08
						l0.49-0.44c0.03-0.03,0.09-0.06,0.17-0.08c0.15-0.04,0.28-0.06,0.41-0.06h17.8l0.4-0.39c0.03-0.03,0.07-0.05,0.12-0.07
						c0.05-0.02,0.1-0.03,0.15-0.03c0.05,0,0.08,0.01,0.09,0.02c0.02,0.02,0.02,0.05-0.01,0.07l-2.15,2.13l-0.08,0.04
						c-0.05,0.02-0.1,0.03-0.16,0.03c-0.05,0-0.08-0.02-0.1-0.07L544.51,406.62z"/>
					<path class="st15" d="M528.88,404.16l2.64-2.39h-0.47c-0.05-0.03-0.05-0.06-0.02-0.09c0.03-0.02,0.1-0.05,0.21-0.08l2.36,0.07
						c0.05,0,0.08,0.01,0.08,0.02c0.01,0.02-0.01,0.04-0.04,0.07l-2.44,2.23l5.35,0.07c-0.62-0.21-0.98-0.4-1.08-0.57
						c-0.1-0.17-0.02-0.37,0.23-0.61c0.48-0.45,1.36-0.8,2.64-1.05s3.14-0.38,5.61-0.38c2.16,0,3.56,0.11,4.2,0.34
						c0.84,0.3,0.98,0.73,0.42,1.29c-0.36,0.36-0.99,0.67-1.88,0.93c-0.89,0.26-1.95,0.39-3.16,0.39c-0.84,0-1.37-0.07-1.59-0.2
						c-0.22-0.13-0.23-0.29-0.05-0.47c0.17-0.17,0.49-0.31,0.94-0.44s0.98-0.19,1.57-0.19c0.64,0,1.06,0.07,1.26,0.2
						s0.21,0.29,0.03,0.46c-0.08,0.08-0.19,0.16-0.32,0.24l-0.07,0.05v0.02c0.02,0.01,0.06,0.02,0.12,0.02
						c0.45,0,0.95-0.09,1.5-0.28c0.55-0.18,0.95-0.4,1.2-0.64c0.17-0.17,0.2-0.3,0.08-0.39c-0.17-0.12-0.51-0.18-1.01-0.18h-9.35
						c-0.57,0-1.02,0.04-1.36,0.13c-0.25,0.06-0.43,0.15-0.55,0.26c-0.24,0.22-0.19,0.44,0.15,0.64c0.51,0.29,1.55,0.46,3.1,0.49
						c0.07,0,0.11,0.02,0.13,0.07c-0.02,0.02-0.05,0.04-0.1,0.05c-0.06,0.02-0.12,0.02-0.17,0.02L528.88,404.16z"/>
					<path class="st15" d="M534.41,399.41l-0.42,0.38c-0.02,0.02-0.05,0.04-0.09,0.05c-0.04,0.01-0.08,0.02-0.12,0.02
						c-0.05,0-0.08-0.02-0.09-0.06l2.08-1.89c0.02-0.02,0.05-0.04,0.1-0.05c0.04-0.01,0.08-0.02,0.12-0.02
						c0.05,0,0.08,0.01,0.09,0.02c0.01,0.01,0.01,0.03-0.01,0.05l-0.34,0.31h14.62c0.94,0,1.56,0.14,1.86,0.42s0.23,0.65-0.22,1.1
						c-0.4,0.4-1,0.73-1.8,0.98s-1.67,0.38-2.61,0.38c-0.8,0-1.3-0.07-1.52-0.2c-0.21-0.14-0.23-0.29-0.05-0.47
						c0.15-0.14,0.42-0.27,0.8-0.38c0.38-0.11,0.83-0.16,1.35-0.16c0.49,0,0.81,0.05,0.95,0.15c0.15,0.1,0.15,0.22,0.01,0.37
						c-0.06,0.05-0.15,0.12-0.27,0.2c-0.13,0.08-0.21,0.13-0.25,0.17c-0.03,0.03-0.03,0.05-0.01,0.06c0.03,0.02,0.1,0.04,0.19,0.04
						c0.39,0,0.87-0.09,1.44-0.28c0.56-0.19,0.95-0.38,1.15-0.58c0.17-0.17,0.18-0.3,0.03-0.4c-0.21-0.13-0.62-0.2-1.23-0.2h-15.76
						V399.41z"/>
					<path class="st15" d="M536.93,397.13l-0.37,0.33c-0.02,0.02-0.05,0.04-0.09,0.05c-0.04,0.01-0.08,0.02-0.12,0.02
						c-0.05,0-0.08-0.01-0.09-0.02c-0.01-0.01-0.01-0.03,0.01-0.05l1.69-1.53l11.35-0.53l-10.01-0.68l1.64-1.49
						c0.02-0.02,0.06-0.04,0.1-0.05c0.04-0.01,0.08-0.02,0.12-0.02c0.05,0,0.08,0.01,0.09,0.02c0.01,0.01,0,0.03-0.02,0.05
						l-0.39,0.35h16.89l0.36-0.35c0.01-0.01,0.03-0.02,0.04-0.02c0.05-0.01,0.1-0.02,0.15-0.02c0.04,0,0.07,0,0.09,0.01
						c0.01,0.01,0.02,0.02,0.01,0.03l-1.82,1.8c-0.01,0.01-0.04,0.03-0.08,0.04c-0.04,0.01-0.08,0.02-0.13,0.02
						s-0.07-0.01-0.09-0.02c-0.01-0.01-0.01-0.03,0-0.04l0.39-0.38h-16.23l15.13,0.98c0.2,0.01,0.3,0.03,0.32,0.04s0.02,0.03,0,0.05
						l-0.37,0.36c-0.02,0.02-0.06,0.04-0.1,0.05c-0.04,0.01-0.18,0.02-0.4,0.03l-16.97,0.81h15c0.41,0,0.72-0.02,0.92-0.06
						c0.21-0.04,0.39-0.11,0.56-0.21l0.3-0.25c0.04-0.02,0.1-0.03,0.17-0.03c0.06,0,0.1,0,0.11,0.01s0,0.03-0.04,0.07l-1.01,1
						c-0.02,0.02-0.04,0.03-0.07,0.04s-0.07,0.01-0.11,0.01s-0.06,0-0.07-0.01s-0.01-0.04,0-0.1c0.02-0.12-0.02-0.2-0.13-0.24
						c-0.15-0.06-0.41-0.09-0.79-0.09h-15.94V397.13z"/>
					<path class="st15" d="M560.56,390.75h-15c0.06,0.23,0.04,0.38-0.05,0.46l-0.07,0.03c-0.05,0.01-0.1,0.02-0.15,0.02
						c-0.04,0-0.05-0.03-0.04-0.09c0.07-0.43-0.22-0.7-0.86-0.81c-0.1-0.02-0.15-0.04-0.17-0.06c-0.02-0.02-0.01-0.04,0.02-0.07
						l0.42-0.38c0.03-0.02,0.08-0.05,0.15-0.07c0.13-0.03,0.26-0.05,0.37-0.05h16.4l0.34-0.33c0.02-0.02,0.06-0.04,0.11-0.06
						s0.09-0.02,0.14-0.02s0.07,0.01,0.08,0.02c0.02,0.02,0.02,0.04-0.01,0.06l-1.82,1.8l-0.07,0.04c-0.05,0.01-0.09,0.02-0.15,0.02
						c-0.05,0-0.08-0.02-0.1-0.06L560.56,390.75z"/>
					<path class="st15" d="M557.53,388.87h-2.22c-1.77,0-2.93-0.14-3.47-0.41c-0.4-0.2-0.43-0.45-0.1-0.76
						c0.41-0.38,1.18-0.68,2.28-0.88c1.11-0.2,2.39-0.31,3.85-0.31h2.43c1.9,0,3.13,0.13,3.69,0.39c0.41,0.19,0.45,0.44,0.13,0.76
						c-0.19,0.18-0.46,0.35-0.83,0.5c-0.36,0.15-0.89,0.29-1.56,0.41c-0.68,0.12-1.49,0.2-2.44,0.24
						C558.36,388.85,557.77,388.87,557.53,388.87z M553.5,387.42c-0.42,0-0.74,0.03-0.97,0.08c-0.23,0.06-0.38,0.12-0.46,0.19
						c-0.07,0.06-0.06,0.12,0.02,0.17c0.08,0.05,0.27,0.08,0.55,0.08h9.47c0.59,0,1.03-0.03,1.3-0.09c0.2-0.05,0.34-0.11,0.42-0.19
						c0.08-0.08,0.07-0.14-0.02-0.18c-0.09-0.04-0.35-0.06-0.78-0.06H553.5z"/>
					<path class="st15" d="M550.59,384.72l-0.36,0.33c-0.02,0.02-0.05,0.03-0.08,0.04c-0.04,0.01-0.07,0.01-0.11,0.01
						s-0.07-0.02-0.08-0.05l1.78-1.61c0.02-0.02,0.05-0.03,0.08-0.04c0.04-0.01,0.08-0.02,0.11-0.02c0.04,0,0.07,0.01,0.09,0.02
						c0.01,0.01,0.01,0.03-0.01,0.04l-0.29,0.26h13.52c0.87,0,1.45,0.12,1.75,0.36s0.26,0.55-0.13,0.94
						c-0.34,0.34-0.88,0.62-1.6,0.84s-1.51,0.33-2.38,0.33c-0.74,0-1.21-0.06-1.42-0.17c-0.21-0.12-0.23-0.25-0.08-0.4
						c0.13-0.12,0.37-0.23,0.71-0.32c0.35-0.09,0.76-0.14,1.23-0.14c0.45,0,0.75,0.04,0.89,0.13s0.15,0.19,0.03,0.31
						c-0.05,0.05-0.13,0.1-0.24,0.17c-0.11,0.06-0.18,0.11-0.22,0.15c-0.02,0.02-0.02,0.04,0,0.06c0.03,0.02,0.09,0.03,0.18,0.03
						c0.36,0,0.8-0.08,1.31-0.24s0.85-0.33,1.02-0.5c0.14-0.14,0.14-0.26,0-0.34c-0.2-0.11-0.59-0.17-1.15-0.17h-14.55V384.72z"/>
					<path class="st15" d="M557.33,382.89l-0.2,0.18c-0.07,0.03-0.13,0.04-0.17,0.04c-0.05,0-0.08-0.01-0.1-0.04l1.13-1.05h10.95
						c0.09,0,0.16-0.01,0.23-0.03c0.06-0.02,0.11-0.05,0.15-0.08c0.07-0.07,0.03-0.14-0.13-0.21c-0.25-0.11-0.64-0.17-1.16-0.17
						h-9.23l-0.2,0.19c-0.02,0.02-0.04,0.03-0.07,0.04s-0.07,0.01-0.12,0.01c-0.04,0-0.07,0-0.09-0.01s-0.02-0.02,0-0.04l1.12-1.04
						h11.34l0.16-0.16c0.02-0.02,0.04-0.03,0.08-0.04c0.04-0.01,0.07-0.02,0.12-0.02s0.07,0.01,0.08,0.02
						c0.01,0.01,0.01,0.02,0,0.04l-1.02,1.01h-0.87c0.27,0.1,0.42,0.21,0.46,0.31c0.04,0.11-0.01,0.24-0.16,0.38
						c-0.22,0.22-0.51,0.38-0.88,0.49s-0.78,0.17-1.22,0.17L557.33,382.89L557.33,382.89z"/>
					<path class="st15" d="M570.64,378.76c0.12-0.12,0.32-0.22,0.6-0.29c0.28-0.08,0.63-0.12,1.03-0.12s0.67,0.04,0.81,0.12
						c0.13,0.08,0.14,0.18,0.03,0.29c-0.12,0.12-0.32,0.22-0.61,0.3c-0.28,0.08-0.62,0.12-1.01,0.12c-0.42,0-0.7-0.04-0.83-0.12
						C570.52,378.98,570.52,378.88,570.64,378.76z M573.25,377.41c-0.41,0-0.68-0.04-0.8-0.12c-0.13-0.08-0.13-0.17-0.02-0.28
						c0.12-0.12,0.33-0.22,0.62-0.3s0.63-0.12,1.03-0.12c0.39,0,0.66,0.04,0.79,0.11c0.13,0.08,0.14,0.17,0.02,0.29
						s-0.32,0.22-0.6,0.29C574,377.38,573.66,377.41,573.25,377.41z M574.19,375.28c0.12-0.11,0.31-0.21,0.6-0.28
						c0.28-0.07,0.62-0.11,1.02-0.11s0.66,0.04,0.79,0.11c0.13,0.08,0.13,0.17,0.01,0.29s-0.31,0.21-0.58,0.28s-0.6,0.11-0.99,0.11
						c-0.4,0-0.67-0.04-0.8-0.12C574.09,375.49,574.08,375.39,574.19,375.28z"/>
					<path class="st15" d="M562.96,373.49l-0.31,0.28c-0.08,0.03-0.14,0.04-0.17,0.04c-0.05,0-0.08-0.01-0.09-0.04l2.69-2.44h5.7
						c0.05,0.02,0.07,0.03,0.05,0.05s-0.04,0.03-0.07,0.03c-0.03,0.01-0.13,0.01-0.31,0.01c-1.15,0.02-2.29,0.09-3.4,0.22
						c-1.12,0.13-1.87,0.25-2.26,0.37c-0.21,0.06-0.39,0.17-0.55,0.32l-0.29,0.27h7.25c0.13-0.16,0.07-0.3-0.2-0.4
						c-0.36-0.14-1.05-0.2-2.09-0.2h-0.8c-0.03,0-0.06-0.01-0.07-0.02c-0.01-0.01-0.01-0.02,0-0.04c0.02-0.01,0.04-0.03,0.07-0.03
						c0.03-0.01,0.07-0.01,0.1-0.01h7.63c0.03,0,0.06,0,0.07,0.01c0.02,0.01,0.02,0.02,0,0.03c-0.01,0.01-0.04,0.03-0.07,0.04
						s-0.07,0.02-0.1,0.02H575c-1.01,0-1.9,0.08-2.66,0.23c-0.44,0.09-0.71,0.19-0.82,0.29c-0.03,0.03-0.03,0.05,0,0.06
						c0.03,0.02,0.1,0.03,0.2,0.03h7.19l0.14-0.14c0.12-0.12,0.13-0.23,0.04-0.35c-0.09-0.11-0.35-0.22-0.76-0.32
						c-0.42-0.1-0.9-0.18-1.45-0.23c-0.89-0.09-1.62-0.13-2.17-0.13h-0.68c-0.05-0.02-0.07-0.04-0.05-0.06s0.04-0.03,0.07-0.04
						s0.06-0.01,0.1-0.01h6.33l-2.46,2.44c-0.02,0.02-0.05,0.04-0.09,0.05s-0.07,0.02-0.11,0.02s-0.07-0.01-0.08-0.02
						c-0.01-0.01-0.01-0.03,0.01-0.05l0.28-0.28L562.96,373.49L562.96,373.49z"/>
					<path class="st15" d="M582.18,369.72c-0.03,0.05-0.07,0.1-0.12,0.15c-0.17,0.17-0.43,0.32-0.77,0.45s-0.79,0.25-1.34,0.35
						c-0.41,0.08-1.02,0.16-1.84,0.24s-1.78,0.12-2.89,0.12h-4.42c-2.03,0-3.38-0.14-4.06-0.42c-0.47-0.2-0.54-0.45-0.21-0.74
						c0.34-0.31,0.95-0.55,1.84-0.74c1.27-0.27,3.07-0.4,5.4-0.4h3.73c0.99,0,1.81,0.03,2.47,0.09s1.18,0.14,1.56,0.24
						c0.18,0.05,0.37,0.13,0.56,0.24c0.52-0.12,1.17-0.23,1.94-0.33c0.27-0.04,0.47-0.07,0.59-0.1c0.12-0.03,0.23-0.07,0.32-0.12
						l0.1-0.05l0.06-0.01c0.04,0,0.06,0.02,0.07,0.05c0.03,0.08-0.02,0.19-0.15,0.32c-0.18,0.18-0.46,0.32-0.87,0.43
						C583.73,369.6,583.08,369.68,582.18,369.72z M581.03,369.6h-12.99c-0.34,0-0.62,0.03-0.85,0.08c-0.17,0.04-0.3,0.1-0.38,0.17
						s-0.07,0.13,0.03,0.18c0.14,0.06,0.41,0.09,0.81,0.09h13c-0.08-0.11-0.07-0.2,0.02-0.29c0.06-0.06,0.16-0.12,0.29-0.2
						L581.03,369.6z M580.85,370.12c0.25,0,0.47-0.03,0.64-0.08c0.17-0.05,0.29-0.11,0.37-0.18c0.04-0.04,0.06-0.09,0.05-0.14
						c-0.3,0.03-0.52,0.07-0.66,0.11c-0.14,0.04-0.24,0.1-0.31,0.16C580.9,370.03,580.87,370.07,580.85,370.12z"/>
					<path class="st15" d="M583.56,368h-13.15c0.08,0.17,0.08,0.29,0.01,0.35l-0.06,0.02c-0.04,0.01-0.09,0.01-0.13,0.01
						c-0.03,0-0.05-0.02-0.05-0.07c0.01-0.33-0.27-0.54-0.85-0.62c-0.09-0.01-0.14-0.03-0.15-0.04c-0.02-0.01-0.01-0.03,0.01-0.05
						l0.32-0.29c0.02-0.02,0.06-0.04,0.13-0.05c0.11-0.02,0.22-0.04,0.32-0.04h14.39l0.26-0.26c0.02-0.02,0.05-0.03,0.09-0.05
						c0.04-0.01,0.08-0.02,0.12-0.02s0.06,0.01,0.07,0.02c0.02,0.01,0.02,0.03,0,0.05l-1.4,1.39l-0.06,0.03
						c-0.04,0.01-0.08,0.02-0.13,0.02c-0.04,0-0.07-0.02-0.1-0.04L583.56,368z"/>
					<path class="st15" d="M578.6,365.88l-7.98,0.65l-0.18,0.16c-0.01,0.01-0.04,0.02-0.07,0.03s-0.07,0.01-0.1,0.01
						c-0.04,0-0.07,0-0.08-0.01s-0.01-0.02,0.01-0.03l1.42-1.29c0.08-0.03,0.13-0.04,0.16-0.04c0.04,0,0.07,0.01,0.09,0.04
						l-0.35,0.32l7.4-0.61l-4.74-0.46c-0.17-0.02-0.35-0.03-0.51-0.03c-0.25,0-0.46,0.02-0.65,0.05s-0.34,0.07-0.45,0.13l-0.18,0.13
						c-0.04,0.02-0.08,0.02-0.14,0.02c-0.05,0-0.08-0.01-0.09-0.04l0.7-0.64c0.03-0.03,0.06-0.05,0.08-0.06l0.06-0.01
						c0.05,0,0.08,0.02,0.1,0.05c0.05,0.13,0.32,0.22,0.83,0.27l5.53,0.55h7.1l0.31-0.31c0.01-0.01,0.04-0.02,0.07-0.03
						s0.07-0.01,0.1-0.01c0.04,0,0.06,0,0.08,0.01c0.01,0.01,0.01,0.02,0,0.03l-1.47,1.45c-0.01,0.01-0.03,0.02-0.07,0.03
						c-0.03,0.01-0.06,0.01-0.1,0.01s-0.06,0-0.08-0.01c-0.01-0.01-0.01-0.02,0-0.03l0.33-0.33L578.6,365.88L578.6,365.88z"/>
					<path class="st15" d="M578.95,362.77l-0.2,0.19c-0.06,0.03-0.11,0.04-0.14,0.04c-0.04,0-0.08-0.01-0.1-0.04l0.2-0.19h-1.55
						c-0.94,0-1.55-0.07-1.85-0.21c-0.29-0.14-0.35-0.29-0.16-0.46c0.14-0.12,0.39-0.23,0.75-0.33c0.37-0.1,0.74-0.14,1.12-0.14
						c0.31,0,0.52,0.03,0.64,0.09s0.14,0.13,0.06,0.2s-0.22,0.13-0.42,0.19c-0.2,0.05-0.42,0.08-0.67,0.08
						c-0.29,0-0.48-0.03-0.57-0.08c-0.09-0.06-0.08-0.14,0.04-0.25c-0.16,0.03-0.29,0.06-0.4,0.1c-0.11,0.04-0.19,0.09-0.25,0.14
						c-0.09,0.08-0.07,0.15,0.05,0.22s0.35,0.1,0.68,0.1c0.39,0,0.96-0.05,1.7-0.15s1.25-0.15,1.55-0.16l0.47-0.44
						c0.07-0.03,0.12-0.04,0.15-0.04c0.04,0,0.07,0.01,0.09,0.04l-0.47,0.44h9.89l0.47-0.45l0.11-0.01c0.04,0,0.08,0.01,0.1,0.02
						l-1.31,1.3l-0.05,0.02l-0.1,0.01c-0.04,0-0.07-0.01-0.09-0.03l0.19-0.19h-9.93V362.77z"/>
					<path class="st15" d="M580.39,361.43l-0.09,0.09l-0.05,0.02c-0.03,0.01-0.07,0.01-0.1,0.01s-0.06-0.01-0.08-0.03l1-0.93
						c0.07-0.02,0.12-0.03,0.16-0.03s0.06,0.01,0.08,0.03l-0.2,0.19l7.49-0.35l-4.67-0.32l-2.22,0.11l-0.1,0.09
						c-0.01,0.01-0.03,0.02-0.06,0.03c-0.03,0.01-0.06,0.01-0.1,0.01s-0.06,0-0.08-0.01s-0.02-0.02,0-0.03l1-0.93
						c0.01-0.01,0.03-0.02,0.06-0.03c0.03-0.01,0.06-0.01,0.1-0.01s0.06,0,0.07,0.01s0.01,0.02,0,0.03l-0.21,0.2l7.34-0.36
						l-5.51-0.37c-0.16-0.01-0.3-0.02-0.43-0.02c-0.16,0-0.3,0.01-0.41,0.04s-0.25,0.08-0.4,0.16c-0.03,0.02-0.06,0.03-0.08,0.03
						c-0.02,0.01-0.05,0.01-0.08,0.01s-0.06-0.01-0.08-0.04l0.55-0.51l0.05-0.02l0.11-0.01c0.03,0,0.05,0,0.06,0
						s0.02,0.01,0.01,0.02c-0.02,0.13,0.4,0.23,1.26,0.28l7.31,0.46c0.27,0.02,0.43,0.03,0.47,0.05c0.03,0.01,0.02,0.03-0.01,0.06
						l-0.27,0.27c-0.02,0.02-0.06,0.03-0.12,0.05c-0.06,0.01-0.24,0.03-0.52,0.04l-7,0.34l5.67,0.36c0.58,0.04,0.91,0.07,0.99,0.1
						c0.05,0.01,0.05,0.03,0.02,0.06l-0.28,0.27c-0.02,0.02-0.07,0.04-0.14,0.06c-0.05,0.01-0.43,0.03-1.15,0.06L580.39,361.43z"/>
					<path class="st15" d="M580.32,357.52h9.26l-3.06-0.7c-0.19-0.04-0.36-0.06-0.54-0.06c-0.14,0-0.28,0.01-0.4,0.04
						s-0.22,0.07-0.3,0.12l-0.17,0.13c-0.03,0.01-0.08,0.02-0.13,0.02c-0.04,0-0.06,0-0.08-0.01s-0.02-0.02,0-0.03l0.84-0.78
						c0.02-0.01,0.04-0.03,0.07-0.03c0.03-0.01,0.07-0.01,0.11-0.01c0.05,0,0.08,0,0.09,0.01l-0.09,0.1
						c-0.04,0.04-0.06,0.08-0.06,0.11c0,0.06,0.06,0.11,0.17,0.15c0.07,0.03,0.3,0.08,0.69,0.17l1.52,0.35l7.18-0.76l0.12-0.12
						c0.01-0.01,0.04-0.03,0.07-0.03c0.03-0.01,0.06-0.01,0.1-0.01l0.07,0.01c0.01,0.01,0.01,0.02,0,0.04l-0.93,0.92
						c-0.01,0.01-0.04,0.03-0.07,0.03c-0.03,0.01-0.06,0.01-0.1,0.01s-0.06,0-0.07-0.01s-0.01-0.02,0-0.03l0.18-0.17l-5.18,0.56
						h4.62l0.14-0.14c0.07-0.03,0.12-0.04,0.16-0.04s0.06,0.01,0.08,0.04l-0.93,0.92c-0.01,0.01-0.04,0.03-0.07,0.03
						c-0.03,0.01-0.06,0.01-0.1,0.01s-0.06,0-0.07-0.01s-0.01-0.02,0-0.03l0.13-0.13h-13.7l-0.15,0.13
						c-0.01,0.01-0.04,0.02-0.07,0.03s-0.06,0.01-0.09,0.01c-0.04,0-0.06,0-0.08-0.01c-0.01-0.01-0.01-0.02,0-0.03L580.32,357.52z"
						/>
					<path class="st15" d="M595.88,355.85h-13.49l-0.25,0.23c-0.07,0.03-0.13,0.04-0.16,0.04c-0.03,0-0.05-0.01-0.07-0.04l1.13-1.02
						c0.34-0.31,0.91-0.56,1.7-0.76c0.79-0.2,1.7-0.29,2.74-0.29c0.64,0,1.15,0.03,1.54,0.1c0.39,0.07,0.67,0.17,0.83,0.31
						c0.1,0.09,0.15,0.22,0.13,0.4c0.38-0.19,0.71-0.32,1-0.41c0.46-0.14,0.95-0.25,1.47-0.32c0.52-0.07,1.1-0.11,1.75-0.11
						c0.84,0,1.52,0.05,2.06,0.16c0.38,0.07,0.64,0.19,0.77,0.36c0.14,0.17,0.09,0.37-0.15,0.6l-1,0.99
						c-0.07,0.03-0.12,0.04-0.15,0.04s-0.06-0.01-0.08-0.04L595.88,355.85z M583.18,355.14h6.34l0.19-0.18
						c0.09-0.08,0.1-0.14,0.03-0.18c-0.07-0.04-0.23-0.06-0.49-0.06h-4.8c-0.31,0-0.55,0.02-0.71,0.06
						c-0.16,0.04-0.3,0.12-0.44,0.24L583.18,355.14z M589.76,355.14h6.82l0.11-0.11c0.1-0.1,0.1-0.17,0.01-0.23
						c-0.09-0.06-0.26-0.09-0.51-0.09h-5.35c-0.23,0-0.41,0.02-0.54,0.05s-0.24,0.09-0.31,0.16L589.76,355.14z"/>
				</g>
			</g>
			<path class="st16" d="M524.43,414.5c-1.54,1.43-1.27,2.61,0.64,2.61s4.68-1.18,6.17-2.61c1.47-1.41,1.15-2.54-0.71-2.54
				C528.68,411.96,525.96,413.09,524.43,414.5z"/>
			<rect x="469.81" y="415.15" class="st16" width="54.38" height="1.07"/>
			<path class="st16" d="M487.27,401.35l-17.15,13.08c-0.47,0.36-0.41,0.65,0.13,0.65h3.82h4.81h45.19
				c-0.13,0.67,0.46,1.13,1.73,1.13c1.9,0,4.52-1.02,5.84-2.27c1.31-1.24,0.85-2.23-1.02-2.23c-1.24,0-2.79,0.44-4.09,1.1h-44.76
				l14.57-11.47c0.41-0.32,0.32-0.58-0.19-0.58h-7.19C488.45,400.77,487.7,401.03,487.27,401.35z"/>
			<path class="st11" d="M621.24,456.71h-42.59v-2.66c0,0,65.36-35.19,66.72-19.42l-0.01,7.51
				C642.25,450.98,627.92,456.61,621.24,456.71z"/>
			<path class="st11" d="M644.46,439.19L644.46,439.19c-3.3,7.93-14.56,14.86-24.79,14.86h-41.02l18.77-27.95h36.11
				C642.54,426.1,647.54,431.79,644.46,439.19z"/>
			<path class="st17" d="M642.53,439.19L642.53,439.19c-3.02,7.11-13.13,13.29-22.28,13.29h-38.64l16.67-25.13h34.45
				C640.89,427.34,645.36,432.51,642.53,439.19z"/>
			<path class="st12" d="M613.93,394.1"/>
			<polygon class="st11" points="723.11,392.66 716.29,399.35 716.17,408.63 588.91,346.03 588.99,337.05 598.34,332.12 			"/>
			<polygon class="st18" points="716.17,399.29 716.17,408.63 588.91,346.03 588.8,337.43 			"/>
			<polygon class="st11" points="716.17,408.63 723.06,401.92 723.11,392.66 716.17,399.29 			"/>
		</g>
		<g>
			<g>
				<path class="st19" d="M805.24,379.32h-5.16c-10.95,0-19.91-8.96-19.91-19.91v-52.19h44.99v52.19
					C825.15,370.36,816.19,379.32,805.24,379.32z"/>
				<rect x="896.03" y="307.21" class="st12" width="18.46" height="147.75"/>
				<path class="st12" d="M1033.75,307.21H776.77v-52.32c0-10.88,8.9-19.79,19.79-19.79h217.41c10.88,0,19.79,8.9,19.79,19.79v52.32
					H1033.75z"/>
				<path class="st12" d="M801.85,235.11h-5.16c-10.95,0-19.91,8.96-19.91,19.91v52.19h44.99v-52.19
					C821.76,244.07,812.8,235.11,801.85,235.11z"/>
				<path class="st13" d="M801.59,237.8h-4.65c-9.86,0-17.92,8.07-17.92,17.92v48.8h40.49v-48.8
					C819.51,245.87,811.45,237.8,801.59,237.8z"/>
				<path class="st20" d="M790.09,240.16L790.09,240.16c-5.39,2.31-11.07,9.52-11.07,17.91v46.45h20.25v-46.45
					C799.26,252.99,797.39,243.62,790.09,240.16z"/>
				<path class="st12" d="M801.85,379.32h-5.16c-10.95,0-19.91-8.96-19.91-19.91v-52.19h44.99v52.19
					C821.76,370.36,812.8,379.32,801.85,379.32z"/>
				<path class="st17" d="M801.59,376.82h-4.65c-9.86,0-17.92-8.07-17.92-17.92v-49.37h40.49v49.37
					C819.51,368.75,811.45,376.82,801.59,376.82z"/>
				<path class="st16" d="M862.2,204.28h-24.52c-0.64,0-1.15,0.52-1.15,1.15v4.47v5.62v52.84c-1.18,0.7-1.98,1.97-1.98,3.44
					c0,2.21,1.79,4,4,4s4-1.79,4-4c0-1.47-0.8-2.74-1.98-3.44v-52.84h21.63c0.64,0,1.15-0.52,1.15-1.15v-8.94
					C863.35,204.8,862.84,204.28,862.2,204.28z"/>
				<rect x="896.03" y="307.21" class="st19" width="9.66" height="147.67"/>
				<g>
					<g>
						<path class="st14" d="M857.71,288.45v-7.13c-0.4,0.56-0.71,0.91-0.92,1.06s-0.44,0.22-0.7,0.22c-0.68,0-1.25-0.41-1.7-1.24
							c-0.7-1.29-1.04-3.69-1.04-7.2c0-1.43,0.05-3,0.14-4.7s0.29-2.94,0.58-3.71c0.29-0.77,0.67-1.35,1.13-1.74
							c0.46-0.39,0.93-0.59,1.39-0.59c0.48,0,0.9,0.22,1.27,0.67s0.65,1.28,0.83,2.49c0.52-0.85,0.96-1.66,1.32-2.43
							c0.22-0.49,0.37-0.73,0.47-0.73c0.05,0.06,0.08,0.13,0.08,0.21v24.83h0.52c0.06,0,0.11,0.02,0.15,0.06
							c0.04,0.04,0.06,0.09,0.06,0.15l-0.05,0.15c-0.05,0.05-0.11,0.07-0.17,0.07h-4.16c-0.05,0-0.09-0.02-0.12-0.06
							c-0.03-0.04-0.05-0.09-0.05-0.15c0-0.07,0.02-0.13,0.05-0.16c0.03-0.04,0.07-0.05,0.13-0.05h0.79V288.45z M856.14,280.99
							c0,0.24,0.06,0.44,0.17,0.59c0.07,0.1,0.18,0.16,0.31,0.16c0.3,0,0.54-0.22,0.73-0.66c0.24-0.58,0.36-1.08,0.36-1.5v-14.44
							c0-0.37-0.09-0.69-0.28-0.96c-0.12-0.17-0.29-0.26-0.5-0.26s-0.37,0.1-0.5,0.31c-0.2,0.3-0.3,0.79-0.3,1.45v15.31H856.14z"/>
						<path class="st14" d="M866.92,288.45v-7.13c-0.4,0.56-0.71,0.91-0.92,1.06s-0.44,0.22-0.7,0.22c-0.68,0-1.25-0.41-1.7-1.24
							c-0.7-1.29-1.04-3.69-1.04-7.2c0-1.43,0.05-3,0.14-4.7s0.29-2.94,0.58-3.71c0.29-0.77,0.67-1.35,1.13-1.74
							s0.93-0.59,1.39-0.59c0.48,0,0.9,0.22,1.27,0.67s0.65,1.28,0.83,2.49c0.52-0.85,0.96-1.66,1.32-2.43
							c0.22-0.49,0.37-0.73,0.47-0.73c0.05,0.06,0.08,0.13,0.08,0.21v24.83h0.52c0.06,0,0.11,0.02,0.15,0.06
							c0.04,0.04,0.06,0.09,0.06,0.15l-0.05,0.15c-0.05,0.05-0.11,0.07-0.17,0.07h-4.16c-0.05,0-0.09-0.02-0.12-0.06
							c-0.03-0.04-0.05-0.09-0.05-0.15c0-0.07,0.02-0.13,0.05-0.16c0.03-0.04,0.07-0.05,0.13-0.05h0.79V288.45z M865.35,280.99
							c0,0.24,0.06,0.44,0.17,0.59c0.07,0.1,0.18,0.16,0.31,0.16c0.3,0,0.54-0.22,0.73-0.66c0.24-0.58,0.36-1.08,0.36-1.5v-14.44
							c0-0.37-0.09-0.69-0.28-0.96c-0.12-0.17-0.29-0.26-0.5-0.26s-0.37,0.1-0.5,0.31c-0.2,0.3-0.3,0.79-0.3,1.45v15.31H865.35z"/>
						<path class="st14" d="M874.84,256.09v8.97c0.43-0.64,0.8-1.08,1.14-1.3c0.33-0.23,0.72-0.34,1.17-0.34
							c0.7,0,1.19,0.2,1.48,0.61c0.41,0.55,0.62,1.41,0.62,2.57v15.35h0.57c0.11,0.08,0.16,0.15,0.16,0.22s-0.05,0.14-0.16,0.22
							h-3.73c-0.07-0.07-0.11-0.14-0.11-0.22s0.04-0.15,0.11-0.22h0.37v-16.28c0-0.42-0.05-0.71-0.14-0.87
							c-0.08-0.12-0.2-0.18-0.35-0.18c-0.24,0-0.47,0.16-0.68,0.49c-0.3,0.49-0.45,1.15-0.45,1.98v14.86h0.42
							c0.1,0.08,0.16,0.15,0.16,0.22s-0.05,0.14-0.16,0.22h-3.84l-0.08-0.05l-0.05-0.17c0-0.08,0.04-0.15,0.12-0.22h0.7v-25.42h-0.7
							c-0.1-0.07-0.16-0.14-0.16-0.21c0-0.08,0.05-0.16,0.16-0.23H874.84z"/>
						<path class="st14" d="M881.69,264.1h-0.81c-0.08,0-0.15-0.02-0.19-0.07c-0.04-0.05-0.06-0.1-0.06-0.17
							c0-0.06,0.02-0.1,0.06-0.14c0.05-0.06,0.11-0.09,0.19-0.09h3.6v19.25c0,2.14-0.35,3.76-1.04,4.84
							c-0.49,0.78-1.1,1.17-1.84,1.17c-0.55,0-1.01-0.21-1.37-0.64c-0.36-0.43-0.54-0.98-0.54-1.65c0-0.58,0.12-1.04,0.37-1.37
							s0.53-0.5,0.86-0.5c0.29,0,0.54,0.13,0.75,0.38s0.31,0.57,0.31,0.97c0,0.48-0.12,0.85-0.35,1.13
							c-0.23,0.27-0.54,0.41-0.91,0.41c-0.07,0-0.16-0.01-0.26-0.02c0.06,0.29,0.18,0.51,0.35,0.65c0.17,0.14,0.41,0.21,0.71,0.21
							c0.45,0,0.8-0.17,1.07-0.51c0.26-0.34,0.4-0.85,0.4-1.54c0-0.56-0.1-1.18-0.31-1.87c-0.3-0.98-0.59-1.75-0.86-2.31
							c-0.07-0.14-0.11-0.34-0.11-0.6V264.1H881.69z M883.03,255.88c0.46,0,0.84,0.18,1.15,0.53c0.31,0.36,0.47,0.78,0.47,1.29
							s-0.16,0.95-0.49,1.32s-0.72,0.55-1.18,0.55s-0.85-0.18-1.17-0.54c-0.32-0.36-0.48-0.8-0.48-1.31s0.16-0.95,0.48-1.3
							C882.14,256.06,882.54,255.88,883.03,255.88z"/>
						<path class="st14" d="M892.12,281.22c-0.2,0.17-0.44,0.48-0.72,0.91c-0.21,0.31-0.36,0.47-0.47,0.47
							c-0.04,0-0.08-0.02-0.11-0.05c-0.03-0.04-0.05-0.09-0.05-0.16v-8.18c0-0.08,0.02-0.14,0.05-0.18
							c0.04-0.04,0.08-0.06,0.13-0.06c0.06,0,0.11,0.02,0.14,0.07s0.06,0.23,0.08,0.56c0.13,2.26,0.48,4.14,1.03,5.65
							c0.39,1.09,0.86,1.64,1.4,1.64c0.27,0,0.51-0.15,0.73-0.45c0.22-0.3,0.33-0.73,0.33-1.29c0-0.64-0.12-1.42-0.37-2.35
							c-0.24-0.93-0.76-2.36-1.54-4.3c-0.78-1.94-1.29-3.34-1.51-4.2c-0.22-0.86-0.33-1.62-0.33-2.27c0-1.07,0.26-1.94,0.79-2.61
							c0.52-0.66,1.13-1,1.83-1c0.62,0,1.22,0.32,1.81,0.96c0.16-0.12,0.39-0.35,0.7-0.69c0.18-0.18,0.3-0.27,0.36-0.27
							c0.04,0,0.08,0.01,0.11,0.04c0.03,0.05,0.05,0.1,0.05,0.16V271c0,0.08-0.02,0.15-0.06,0.19c-0.04,0.05-0.09,0.07-0.14,0.07
							c-0.06,0-0.11-0.03-0.14-0.09s-0.06-0.23-0.08-0.52c-0.14-2.15-0.43-3.89-0.87-5.23c-0.32-0.93-0.74-1.4-1.26-1.4
							c-0.29,0-0.53,0.12-0.73,0.37c-0.2,0.24-0.3,0.58-0.3,1c0,1.06,0.62,2.98,1.85,5.75c0.83,1.84,1.4,3.31,1.7,4.41
							s0.45,2.06,0.45,2.9c0,1.27-0.29,2.28-0.87,3.03s-1.26,1.13-2.02,1.13c-0.39,0-0.74-0.1-1.03-0.31
							C892.75,282.09,892.44,281.73,892.12,281.22z"/>
						<path class="st14" d="M902.03,268.16c1.23,0.41,2.1,0.97,2.6,1.68c0.8,1.15,1.2,2.89,1.2,5.21c0,2.58-0.45,4.48-1.34,5.71
							c-0.89,1.23-1.9,1.84-3.03,1.84c-0.9,0-1.7-0.48-2.39-1.44s-1.03-2.37-1.03-4.24c0-1.33,0.22-2.32,0.65-2.97
							c0.33-0.49,0.75-0.73,1.24-0.73c0.43,0,0.79,0.21,1.09,0.62c0.3,0.41,0.45,1.03,0.45,1.86c0,0.86-0.17,1.52-0.5,1.96
							s-0.72,0.66-1.17,0.66c-0.27,0-0.56-0.09-0.86-0.28c-0.19-0.12-0.31-0.17-0.38-0.17c-0.06,0.06-0.09,0.12-0.09,0.19
							c0,1.17,0.3,2.14,0.89,2.92c0.6,0.78,1.22,1.17,1.88,1.17c0.4,0,0.73-0.13,0.96-0.4c0.29-0.35,0.44-0.73,0.44-1.15v-9.77
							c0-0.89-0.12-1.5-0.36-1.85s-0.56-0.52-0.95-0.52c-0.21,0-0.43,0.06-0.67,0.19c-0.17,0.09-0.27,0.14-0.33,0.14
							c-0.05,0-0.11-0.01-0.17-0.03l-0.88-0.35l-0.11-0.1l0.11-0.12l0.89-0.51l0.12-0.03c0.09,0,0.26,0.06,0.51,0.17
							c0.25,0.11,0.46,0.17,0.64,0.17c0.31,0,0.54-0.1,0.7-0.3c0.25-0.31,0.37-0.66,0.37-1.05v-9.18c0-0.4-0.08-0.69-0.23-0.87
							c-0.16-0.19-0.38-0.28-0.67-0.28c-0.73,0-1.4,0.37-2.02,1.12s-0.93,1.61-0.93,2.61c0,0.09,0.05,0.18,0.16,0.26
							c0.05,0,0.22-0.08,0.51-0.25c0.29-0.17,0.55-0.25,0.79-0.25c0.38,0,0.71,0.18,0.99,0.55c0.27,0.37,0.41,0.9,0.41,1.6
							c0,0.69-0.15,1.22-0.45,1.6s-0.68,0.57-1.14,0.57s-0.85-0.23-1.17-0.69s-0.48-1.23-0.48-2.32c0-1.72,0.33-3.02,0.99-3.88
							c0.66-0.86,1.48-1.29,2.47-1.29c1.03,0,1.91,0.5,2.65,1.51c0.74,1.01,1.11,2.49,1.11,4.43c0,1.79-0.29,3.18-0.86,4.15
							C904.09,266.95,903.22,267.68,902.03,268.16z"/>
						<path class="st14" d="M910.38,256.09v25.86h0.61c0.05,0,0.1,0.02,0.13,0.06c0.04,0.04,0.05,0.09,0.05,0.16
							s-0.02,0.12-0.05,0.16c-0.04,0.04-0.08,0.06-0.13,0.06h-4.05c-0.05,0-0.1-0.02-0.13-0.06c-0.04-0.04-0.05-0.09-0.05-0.16
							s0.02-0.12,0.05-0.16c0.04-0.04,0.08-0.06,0.13-0.06h0.65v-25.42h-0.65c-0.06,0-0.11-0.02-0.16-0.06
							c-0.04-0.04-0.06-0.09-0.06-0.15c0-0.07,0.02-0.12,0.06-0.16c0.04-0.05,0.09-0.07,0.15-0.07H910.38z"/>
						<path class="st14" d="M917.77,264.83c0.31-0.28,0.59-0.59,0.83-0.92c0.24-0.33,0.4-0.5,0.48-0.5l0.08,0.04l0.03,0.17v7.48
							c0,0.08-0.02,0.15-0.06,0.19c-0.04,0.05-0.09,0.07-0.14,0.07c-0.07,0-0.12-0.03-0.16-0.09c-0.02-0.05-0.05-0.33-0.09-0.85
							c-0.06-0.87-0.26-1.98-0.61-3.32c-0.34-1.34-0.68-2.22-1.02-2.63s-0.7-0.62-1.08-0.62c-0.25,0-0.43,0.07-0.53,0.22
							c-0.1,0.15-0.16,0.46-0.16,0.93v15.41c0,0.63,0.08,1.06,0.25,1.3s0.39,0.36,0.68,0.36c0.37,0,0.73-0.17,1.07-0.52
							c0.34-0.34,0.61-0.85,0.81-1.51c0.41-1.35,0.62-2.91,0.62-4.67v-0.98c0-0.16,0.03-0.29,0.08-0.37l0.12-0.1
							c0.05,0,0.09,0.03,0.12,0.1c0.05,0.08,0.08,0.2,0.08,0.37v1.15c0,2.6-0.38,4.52-1.15,5.75c-0.54,0.86-1.22,1.29-2.05,1.29
							c-0.91,0-1.66-0.47-2.24-1.4c-0.76-1.22-1.14-3.36-1.14-6.4v-3.34c0-3.03,0.41-5.24,1.25-6.63c0.57-0.94,1.28-1.42,2.12-1.42
							C916.69,263.42,917.29,263.89,917.77,264.83z"/>
						<path class="st14" d="M925.09,278.56c0.4,0,0.73,0.17,0.99,0.5s0.39,0.83,0.39,1.49s-0.14,1.17-0.41,1.52
							c-0.27,0.35-0.6,0.52-0.99,0.52c-0.41,0-0.74-0.17-1-0.5s-0.39-0.82-0.39-1.46c0-0.69,0.14-1.21,0.41-1.56
							C924.36,278.73,924.69,278.56,925.09,278.56z M929.66,280.59c0-0.68,0.13-1.18,0.4-1.52s0.59-0.51,0.96-0.51
							c0.41,0,0.75,0.17,1.02,0.52c0.27,0.35,0.41,0.85,0.41,1.5s-0.13,1.15-0.39,1.49s-0.59,0.52-1,0.52
							c-0.42,0-0.75-0.17-1.01-0.5C929.79,281.77,929.66,281.26,929.66,280.59z M937.04,278.56c0.4,0,0.73,0.17,0.99,0.52
							c0.26,0.34,0.39,0.85,0.39,1.51s-0.13,1.17-0.4,1.5c-0.27,0.34-0.6,0.51-1.01,0.51c-0.41,0-0.74-0.16-0.99-0.49
							c-0.26-0.33-0.38-0.82-0.38-1.47c0-0.66,0.14-1.18,0.41-1.54C936.33,278.74,936.66,278.56,937.04,278.56z"/>
						<path class="st14" d="M945.37,278.52c-0.63-0.66-1.09-1.45-1.38-2.36c-0.4-1.28-0.61-2.94-0.61-4.98
							c0-2.91,0.42-5.02,1.25-6.33c0.6-0.96,1.39-1.43,2.37-1.43c0.62,0,1.19,0.24,1.7,0.73c0.24-0.55,0.5-0.96,0.79-1.23
							c0.29-0.27,0.61-0.41,0.95-0.41c0.36,0,0.65,0.14,0.88,0.41c0.22,0.28,0.33,0.67,0.33,1.17c0,0.43-0.08,0.76-0.23,0.98
							c-0.16,0.22-0.33,0.33-0.53,0.33c-0.22,0-0.39-0.08-0.53-0.25c-0.13-0.17-0.2-0.42-0.2-0.74v-0.19
							c0.01-0.1,0.02-0.19,0.02-0.26c0-0.2-0.03-0.33-0.08-0.4c-0.06-0.07-0.14-0.1-0.24-0.1c-0.14,0-0.29,0.09-0.43,0.28
							s-0.28,0.47-0.42,0.86c0.98,1.41,1.47,3.7,1.47,6.86c0,2.76-0.42,4.8-1.26,6.13c-0.62,0.98-1.38,1.47-2.26,1.47
							c-0.14,0-0.31-0.01-0.51-0.02c-0.13-0.01-0.45-0.02-0.98-0.02c-0.63,0-1.08,0.1-1.35,0.31c-0.27,0.21-0.4,0.41-0.4,0.61
							c0,0.19,0.07,0.34,0.22,0.45c0.21,0.16,0.54,0.24,0.98,0.24h2.48c1.22,0,2.1,0.31,2.66,0.93s0.83,1.57,0.83,2.85
							c0,1.4-0.37,2.5-1.1,3.3c-0.74,0.8-1.76,1.2-3.08,1.2c-1.33,0-2.33-0.31-3.01-0.94c-0.68-0.62-1.03-1.34-1.03-2.14
							c0-0.5,0.11-0.97,0.32-1.41s0.53-0.84,0.94-1.22c-0.33-0.24-0.58-0.54-0.76-0.88c-0.17-0.34-0.26-0.74-0.26-1.18
							c0-0.77,0.18-1.36,0.55-1.77C943.81,278.94,944.45,278.66,945.37,278.52z M944.24,283.45c-0.28,0.3-0.48,0.61-0.62,0.93
							c-0.14,0.31-0.21,0.63-0.21,0.94c0,0.61,0.3,1.17,0.89,1.7s1.43,0.8,2.53,0.8c1.12,0,2.03-0.31,2.73-0.93
							c0.53-0.49,0.79-1.06,0.79-1.71c0-0.49-0.15-0.85-0.44-1.08c-0.39-0.3-1.19-0.45-2.38-0.45h-0.64
							C945.86,283.65,944.98,283.58,944.24,283.45z M947.68,265.18c0-0.56-0.07-0.93-0.2-1.12s-0.32-0.28-0.56-0.28
							c-0.23,0-0.42,0.1-0.57,0.31c-0.15,0.2-0.22,0.57-0.22,1.09v11.63c0,0.69,0.09,1.18,0.28,1.47c0.14,0.21,0.32,0.31,0.55,0.31
							c0.21,0,0.38-0.09,0.51-0.28s0.2-0.51,0.2-0.98L947.68,265.18L947.68,265.18z"/>
						<path class="st14" d="M959.63,281.95h0.67c0.1,0.08,0.16,0.15,0.16,0.22s-0.05,0.14-0.16,0.22h-3.45v-1.4
							c-0.2,0.54-0.43,0.94-0.71,1.21s-0.6,0.4-0.96,0.4c-0.83,0-1.48-0.69-1.95-2.08c-0.48-1.39-0.71-3.57-0.71-6.56
							c0-4.69,0.36-7.76,1.09-9.21c0.44-0.89,1.02-1.33,1.74-1.33c0.28,0,0.55,0.1,0.8,0.29s0.49,0.48,0.72,0.87v-8.04H956
							c-0.1-0.07-0.16-0.15-0.16-0.23c0-0.07,0.05-0.14,0.16-0.21h3.66v25.85H959.63z M956.85,266.53c0-0.78-0.14-1.4-0.43-1.87
							c-0.19-0.33-0.41-0.49-0.66-0.49c-0.12,0-0.23,0.06-0.33,0.18c-0.1,0.12-0.15,0.28-0.15,0.48v16.08
							c0,0.36,0.05,0.61,0.14,0.75s0.2,0.21,0.32,0.21c0.18,0,0.36-0.15,0.54-0.45c0.37-0.57,0.56-1.07,0.56-1.49v-13.4H956.85z"/>
						<path class="st14" d="M964.07,273.07v6.5c0,1.01,0.1,1.68,0.31,2.01c0.16,0.24,0.41,0.37,0.76,0.37c0.58,0,1.1-0.37,1.56-1.1
							c0.76-1.24,1.16-2.92,1.21-5.05c0.01-0.7,0.04-1.1,0.09-1.19c0.05-0.09,0.11-0.14,0.19-0.14c0.07,0,0.13,0.03,0.17,0.1
							c0.05,0.09,0.08,0.31,0.08,0.66c0,2.08-0.32,3.82-0.97,5.24c-0.65,1.42-1.52,2.12-2.62,2.12c-1.03,0-1.88-0.54-2.55-1.63
							s-1.01-3.45-1.01-7.09v-2.57c0-2.79,0.46-4.9,1.37-6.35c0.65-1.03,1.44-1.54,2.37-1.54c1.1,0,1.95,0.66,2.54,1.98
							c0.6,1.32,0.9,2.92,0.9,4.81v2.87L964.07,273.07L964.07,273.07z M965.67,272.6v-7.45c0-0.48-0.08-0.84-0.25-1.08
							c-0.11-0.17-0.28-0.26-0.51-0.26s-0.42,0.11-0.59,0.33c-0.17,0.22-0.25,0.56-0.25,1.01v7.45H965.67z"/>
						<path class="st14" d="M970.53,265.48c0.15-0.06,0.29-0.1,0.42-0.13s0.26-0.04,0.37-0.04c0.42,0,0.77,0.17,1.05,0.51
							c0.29,0.34,0.43,0.78,0.43,1.33c0,0.56-0.15,1.01-0.44,1.35s-0.68,0.51-1.17,0.51s-0.87-0.17-1.15-0.52
							c-0.28-0.34-0.42-0.85-0.42-1.53c0-1,0.34-1.84,1.01-2.52s1.63-1.01,2.88-1.01c1.12,0,1.93,0.24,2.42,0.71
							s0.74,1.08,0.74,1.81v15.11c0,0.17,0.04,0.32,0.12,0.43s0.17,0.17,0.26,0.17c0.26,0,0.52-0.31,0.79-0.93
							c0.07-0.19,0.15-0.28,0.22-0.28l0.19,0.19c0,0.41-0.23,0.84-0.7,1.29c-0.47,0.45-1.03,0.68-1.68,0.68
							c-0.56,0-0.99-0.15-1.3-0.44s-0.54-0.8-0.69-1.54c-0.48,0.79-0.89,1.32-1.25,1.58c-0.36,0.26-0.78,0.39-1.27,0.39
							c-0.59,0-1.05-0.17-1.36-0.52s-0.47-0.8-0.47-1.35v-6.59c0-0.71,0.14-1.24,0.41-1.57c0.27-0.34,1.09-0.76,2.44-1.26
							c0.6-0.23,1.11-0.47,1.51-0.7v-5.04c0-0.52-0.12-0.93-0.37-1.22c-0.24-0.29-0.56-0.44-0.96-0.44
							C971.65,263.91,970.97,264.43,970.53,265.48z M973.89,271.15c-0.66,0.29-1.09,0.58-1.28,0.87s-0.29,0.76-0.29,1.4v7.4
							c0,0.24,0.04,0.43,0.12,0.54s0.17,0.17,0.29,0.17c0.17,0,0.35-0.2,0.56-0.59c0.4-0.73,0.61-1.62,0.61-2.66L973.89,271.15
							L973.89,271.15z"/>
						<path class="st14" d="M986.48,256.09v17.26l3.08-7.1c0.19-0.43,0.28-0.81,0.28-1.14c0-0.27-0.06-0.49-0.19-0.66
							c-0.12-0.17-0.3-0.29-0.51-0.33l-0.59-0.05c-0.06-0.03-0.09-0.1-0.09-0.19c0-0.07,0.02-0.13,0.05-0.17
							c0.04-0.05,0.09-0.07,0.15-0.07h3.45c0.06,0,0.11,0.02,0.15,0.07c0.04,0.05,0.05,0.1,0.05,0.17c0,0.09-0.02,0.16-0.06,0.19
							l-0.47,0.04c-0.18,0.01-0.34,0.05-0.48,0.1c-0.25,0.12-0.47,0.32-0.65,0.61c-0.11,0.19-0.36,0.73-0.74,1.62l-1.57,3.54
							l3.39,11.97h0.53c0.06,0,0.11,0.02,0.16,0.06c0.04,0.04,0.06,0.09,0.06,0.16l-0.05,0.15c-0.05,0.04-0.11,0.07-0.17,0.07h-4.07
							c-0.06,0-0.11-0.02-0.15-0.06c-0.04-0.04-0.05-0.09-0.05-0.16s0.02-0.12,0.05-0.16c0.04-0.04,0.09-0.06,0.15-0.06h0.76
							l-2.47-8.6v8.6h0.62c0.11,0.08,0.17,0.15,0.17,0.22s-0.06,0.14-0.17,0.22h-4.02c-0.06,0-0.11-0.02-0.15-0.06
							c-0.04-0.04-0.05-0.09-0.05-0.16s0.02-0.12,0.06-0.16s0.09-0.06,0.14-0.06h0.58v-25.42h-0.58c-0.05,0-0.1-0.02-0.13-0.06
							c-0.04-0.04-0.05-0.09-0.05-0.15c0-0.07,0.02-0.13,0.05-0.17c0.04-0.04,0.08-0.06,0.13-0.06H986.48z"/>
						<path class="st14" d="M993.34,264.06h-0.45c-0.05,0-0.1-0.02-0.14-0.06c-0.04-0.04-0.06-0.09-0.06-0.16s0.02-0.12,0.05-0.15
							c0.05-0.05,0.1-0.07,0.16-0.07h3.69c0.06,0,0.11,0.02,0.15,0.07c0.04,0.04,0.06,0.09,0.06,0.15c0,0.07-0.02,0.12-0.05,0.15
							c-0.05,0.05-0.11,0.07-0.17,0.07h-0.54l1.39,13.6l1.64-11.67c0.02-0.13,0.03-0.27,0.03-0.44c0-0.71-0.27-1.21-0.81-1.49
							c-0.13-0.07-0.2-0.16-0.2-0.26c0-0.06,0.01-0.1,0.05-0.12c0.03-0.04,0.07-0.05,0.12-0.05h2.04c0.06,0,0.11,0.01,0.14,0.05
							c0.03,0.03,0.05,0.07,0.05,0.12c0,0.11-0.07,0.2-0.22,0.27c-0.24,0.13-0.4,0.27-0.48,0.43c-0.15,0.27-0.26,0.71-0.34,1.35
							l-2.02,15.07c-0.1,0.79-0.19,1.24-0.25,1.33s-0.2,0.14-0.4,0.14h-1.23c-0.12,0-0.22-0.05-0.28-0.16
							c-0.03-0.06-0.09-0.5-0.19-1.31L993.34,264.06z"/>
						<path class="st14" d="M1006.09,270.22c-0.03,0.04-0.07,0.09-0.11,0.17c-0.48,0.94-1.08,1.42-1.81,1.42
							c-0.71,0-1.31-0.42-1.81-1.26c-0.65-1.11-0.98-3.11-0.98-6c0-2.84,0.34-5,1.03-6.47c0.68-1.47,1.65-2.2,2.89-2.2
							c1.23,0,2.18,0.78,2.85,2.33c0.66,1.56,1,3.61,1,6.16v9.34c0,3.31-0.48,5.74-1.45,7.29c-0.67,1.06-1.56,1.59-2.66,1.59
							c-0.82,0-1.52-0.38-2.09-1.14c-0.75-0.99-1.12-2.19-1.12-3.58c0-0.94,0.17-1.66,0.51-2.15s0.72-0.73,1.12-0.73
							c0.44,0,0.81,0.22,1.14,0.66c0.32,0.44,0.48,1.08,0.48,1.92c0,0.82-0.16,1.43-0.47,1.85s-0.68,0.63-1.11,0.63
							c-0.11,0-0.24-0.02-0.39-0.05c-0.08-0.02-0.14-0.03-0.17-0.03c-0.04,0-0.07,0.02-0.09,0.05c-0.03,0.03-0.05,0.09-0.05,0.16
							c0,0.4,0.22,0.83,0.67,1.29c0.45,0.47,0.94,0.7,1.48,0.7c0.37,0,0.65-0.12,0.84-0.36s0.28-0.64,0.28-1.2v-10.39H1006.09z
							 M1006.09,257.42c0-0.3-0.1-0.59-0.31-0.87c-0.12-0.16-0.3-0.24-0.53-0.24c-0.23,0-0.42,0.1-0.56,0.29s-0.22,0.47-0.22,0.83
							v11.89c0,0.71,0.04,1.15,0.13,1.31s0.21,0.24,0.37,0.24c0.21,0,0.41-0.16,0.61-0.47c0.34-0.54,0.51-1.11,0.51-1.73V257.42z"/>
						<path class="st14" d="M1010.29,264.06h-0.36l-0.09-0.05c-0.03-0.05-0.05-0.1-0.05-0.17s0.05-0.14,0.14-0.22h3.88
							c0.09,0.08,0.14,0.15,0.14,0.22s-0.05,0.14-0.14,0.22h-0.79l1.49,13.01l1.36-9.16l-0.46-3.85h-0.39
							c-0.05,0-0.09-0.02-0.12-0.06c-0.03-0.04-0.04-0.09-0.04-0.16s0.01-0.12,0.04-0.16c0.03-0.04,0.06-0.06,0.12-0.06h3.94
							c0.05,0,0.09,0.02,0.12,0.06c0.03,0.04,0.05,0.09,0.05,0.16s-0.02,0.12-0.05,0.16c-0.03,0.04-0.07,0.06-0.12,0.06h-0.84
							l1.53,12.82l1.6-10.89c0.05-0.31,0.08-0.59,0.08-0.82c0-0.3-0.06-0.52-0.17-0.68c-0.11-0.15-0.34-0.3-0.68-0.43
							c-0.07-0.02-0.12-0.05-0.15-0.08s-0.04-0.07-0.04-0.13s0.06-0.13,0.18-0.24h2.18l0.08,0.05l0.03,0.19
							c0,0.06-0.01,0.1-0.02,0.12s-0.04,0.05-0.09,0.07c-0.58,0.23-0.99,1.19-1.21,2.88l-1.99,14.37c-0.07,0.54-0.15,0.86-0.22,0.96
							c-0.05,0.07-0.14,0.1-0.26,0.1h-1.13c-0.07,0-0.14-0.05-0.19-0.14c-0.06-0.09-0.12-0.39-0.18-0.88l-1.44-12.2l-1.53,11.07
							c-0.16,1.12-0.29,1.78-0.42,1.99c-0.05,0.1-0.14,0.16-0.26,0.16h-1.15c-0.09,0-0.17-0.05-0.23-0.16
							c-0.03-0.07-0.11-0.74-0.25-1.99L1010.29,264.06z"/>
					</g>
					<g>
						<path class="st15" d="M857.71,288.45v-7.13c-0.4,0.56-0.71,0.91-0.92,1.06s-0.44,0.22-0.7,0.22c-0.68,0-1.25-0.41-1.7-1.24
							c-0.7-1.29-1.04-3.69-1.04-7.2c0-1.43,0.05-3,0.14-4.7s0.29-2.94,0.58-3.71c0.29-0.77,0.67-1.35,1.13-1.74
							c0.46-0.39,0.93-0.59,1.39-0.59c0.48,0,0.9,0.22,1.27,0.67s0.65,1.28,0.83,2.49c0.52-0.85,0.96-1.66,1.32-2.43
							c0.22-0.49,0.37-0.73,0.47-0.73c0.05,0.06,0.08,0.13,0.08,0.21v24.83h0.52c0.06,0,0.11,0.02,0.15,0.06
							c0.04,0.04,0.06,0.09,0.06,0.15l-0.05,0.15c-0.05,0.05-0.11,0.07-0.17,0.07h-4.16c-0.05,0-0.09-0.02-0.12-0.06
							c-0.03-0.04-0.05-0.09-0.05-0.15c0-0.07,0.02-0.13,0.05-0.16c0.03-0.04,0.07-0.05,0.13-0.05h0.79V288.45z M856.14,280.99
							c0,0.24,0.06,0.44,0.17,0.59c0.07,0.1,0.18,0.16,0.31,0.16c0.3,0,0.54-0.22,0.73-0.66c0.24-0.58,0.36-1.08,0.36-1.5v-14.44
							c0-0.37-0.09-0.69-0.28-0.96c-0.12-0.17-0.29-0.26-0.5-0.26s-0.37,0.1-0.5,0.31c-0.2,0.3-0.3,0.79-0.3,1.45v15.31H856.14z"/>
						<path class="st15" d="M866.92,288.45v-7.13c-0.4,0.56-0.71,0.91-0.92,1.06s-0.44,0.22-0.7,0.22c-0.68,0-1.25-0.41-1.7-1.24
							c-0.7-1.29-1.04-3.69-1.04-7.2c0-1.43,0.05-3,0.14-4.7s0.29-2.94,0.58-3.71c0.29-0.77,0.67-1.35,1.13-1.74
							s0.93-0.59,1.39-0.59c0.48,0,0.9,0.22,1.27,0.67s0.65,1.28,0.83,2.49c0.52-0.85,0.96-1.66,1.32-2.43
							c0.22-0.49,0.37-0.73,0.47-0.73c0.05,0.06,0.08,0.13,0.08,0.21v24.83h0.52c0.06,0,0.11,0.02,0.15,0.06
							c0.04,0.04,0.06,0.09,0.06,0.15l-0.05,0.15c-0.05,0.05-0.11,0.07-0.17,0.07h-4.16c-0.05,0-0.09-0.02-0.12-0.06
							c-0.03-0.04-0.05-0.09-0.05-0.15c0-0.07,0.02-0.13,0.05-0.16c0.03-0.04,0.07-0.05,0.13-0.05h0.79V288.45z M865.35,280.99
							c0,0.24,0.06,0.44,0.17,0.59c0.07,0.1,0.18,0.16,0.31,0.16c0.3,0,0.54-0.22,0.73-0.66c0.24-0.58,0.36-1.08,0.36-1.5v-14.44
							c0-0.37-0.09-0.69-0.28-0.96c-0.12-0.17-0.29-0.26-0.5-0.26s-0.37,0.1-0.5,0.31c-0.2,0.3-0.3,0.79-0.3,1.45v15.31H865.35z"/>
						<path class="st15" d="M874.84,256.09v8.97c0.43-0.64,0.8-1.08,1.14-1.3c0.33-0.23,0.72-0.34,1.17-0.34
							c0.7,0,1.19,0.2,1.48,0.61c0.41,0.55,0.62,1.41,0.62,2.57v15.35h0.57c0.11,0.08,0.16,0.15,0.16,0.22s-0.05,0.14-0.16,0.22
							h-3.73c-0.07-0.07-0.11-0.14-0.11-0.22s0.04-0.15,0.11-0.22h0.37v-16.28c0-0.42-0.05-0.71-0.14-0.87
							c-0.08-0.12-0.2-0.18-0.35-0.18c-0.24,0-0.47,0.16-0.68,0.49c-0.3,0.49-0.45,1.15-0.45,1.98v14.86h0.42
							c0.1,0.08,0.16,0.15,0.16,0.22s-0.05,0.14-0.16,0.22h-3.84l-0.08-0.05l-0.05-0.17c0-0.08,0.04-0.15,0.12-0.22h0.7v-25.42h-0.7
							c-0.1-0.07-0.16-0.14-0.16-0.21c0-0.08,0.05-0.16,0.16-0.23H874.84z"/>
						<path class="st15" d="M881.69,264.1h-0.81c-0.08,0-0.15-0.02-0.19-0.07c-0.04-0.05-0.06-0.1-0.06-0.17
							c0-0.06,0.02-0.1,0.06-0.14c0.05-0.06,0.11-0.09,0.19-0.09h3.6v19.25c0,2.14-0.35,3.76-1.04,4.84
							c-0.49,0.78-1.1,1.17-1.84,1.17c-0.55,0-1.01-0.21-1.37-0.64c-0.36-0.43-0.54-0.98-0.54-1.65c0-0.58,0.12-1.04,0.37-1.37
							s0.53-0.5,0.86-0.5c0.29,0,0.54,0.13,0.75,0.38s0.31,0.57,0.31,0.97c0,0.48-0.12,0.85-0.35,1.13
							c-0.23,0.27-0.54,0.41-0.91,0.41c-0.07,0-0.16-0.01-0.26-0.02c0.06,0.29,0.18,0.51,0.35,0.65c0.17,0.14,0.41,0.21,0.71,0.21
							c0.45,0,0.8-0.17,1.07-0.51c0.26-0.34,0.4-0.85,0.4-1.54c0-0.56-0.1-1.18-0.31-1.87c-0.3-0.98-0.59-1.75-0.86-2.31
							c-0.07-0.14-0.11-0.34-0.11-0.6V264.1H881.69z M883.03,255.88c0.46,0,0.84,0.18,1.15,0.53c0.31,0.36,0.47,0.78,0.47,1.29
							s-0.16,0.95-0.49,1.32s-0.72,0.55-1.18,0.55s-0.85-0.18-1.17-0.54c-0.32-0.36-0.48-0.8-0.48-1.31s0.16-0.95,0.48-1.3
							C882.14,256.06,882.54,255.88,883.03,255.88z"/>
						<path class="st15" d="M892.12,281.22c-0.2,0.17-0.44,0.48-0.72,0.91c-0.21,0.31-0.36,0.47-0.47,0.47
							c-0.04,0-0.08-0.02-0.11-0.05c-0.03-0.04-0.05-0.09-0.05-0.16v-8.18c0-0.08,0.02-0.14,0.05-0.18
							c0.04-0.04,0.08-0.06,0.13-0.06c0.06,0,0.11,0.02,0.14,0.07s0.06,0.23,0.08,0.56c0.13,2.26,0.48,4.14,1.03,5.65
							c0.39,1.09,0.86,1.64,1.4,1.64c0.27,0,0.51-0.15,0.73-0.45c0.22-0.3,0.33-0.73,0.33-1.29c0-0.64-0.12-1.42-0.37-2.35
							c-0.24-0.93-0.76-2.36-1.54-4.3c-0.78-1.94-1.29-3.34-1.51-4.2c-0.22-0.86-0.33-1.62-0.33-2.27c0-1.07,0.26-1.94,0.79-2.61
							c0.52-0.66,1.13-1,1.83-1c0.62,0,1.22,0.32,1.81,0.96c0.16-0.12,0.39-0.35,0.7-0.69c0.18-0.18,0.3-0.27,0.36-0.27
							c0.04,0,0.08,0.01,0.11,0.04c0.03,0.05,0.05,0.1,0.05,0.16V271c0,0.08-0.02,0.15-0.06,0.19c-0.04,0.05-0.09,0.07-0.14,0.07
							c-0.06,0-0.11-0.03-0.14-0.09s-0.06-0.23-0.08-0.52c-0.14-2.15-0.43-3.89-0.87-5.23c-0.32-0.93-0.74-1.4-1.26-1.4
							c-0.29,0-0.53,0.12-0.73,0.37c-0.2,0.24-0.3,0.58-0.3,1c0,1.06,0.62,2.98,1.85,5.75c0.83,1.84,1.4,3.31,1.7,4.41
							s0.45,2.06,0.45,2.9c0,1.27-0.29,2.28-0.87,3.03s-1.26,1.13-2.02,1.13c-0.39,0-0.74-0.1-1.03-0.31
							C892.75,282.09,892.44,281.73,892.12,281.22z"/>
						<path class="st15" d="M902.03,268.16c1.23,0.41,2.1,0.97,2.6,1.68c0.8,1.15,1.2,2.89,1.2,5.21c0,2.58-0.45,4.48-1.34,5.71
							c-0.89,1.23-1.9,1.84-3.03,1.84c-0.9,0-1.7-0.48-2.39-1.44s-1.03-2.37-1.03-4.24c0-1.33,0.22-2.32,0.65-2.97
							c0.33-0.49,0.75-0.73,1.24-0.73c0.43,0,0.79,0.21,1.09,0.62c0.3,0.41,0.45,1.03,0.45,1.86c0,0.86-0.17,1.52-0.5,1.96
							s-0.72,0.66-1.17,0.66c-0.27,0-0.56-0.09-0.86-0.28c-0.19-0.12-0.31-0.17-0.38-0.17c-0.06,0.06-0.09,0.12-0.09,0.19
							c0,1.17,0.3,2.14,0.89,2.92c0.6,0.78,1.22,1.17,1.88,1.17c0.4,0,0.73-0.13,0.96-0.4c0.29-0.35,0.44-0.73,0.44-1.15v-9.77
							c0-0.89-0.12-1.5-0.36-1.85s-0.56-0.52-0.95-0.52c-0.21,0-0.43,0.06-0.67,0.19c-0.17,0.09-0.27,0.14-0.33,0.14
							c-0.05,0-0.11-0.01-0.17-0.03l-0.88-0.35l-0.11-0.1l0.11-0.12l0.89-0.51l0.12-0.03c0.09,0,0.26,0.06,0.51,0.17
							c0.25,0.11,0.46,0.17,0.64,0.17c0.31,0,0.54-0.1,0.7-0.3c0.25-0.31,0.37-0.66,0.37-1.05v-9.18c0-0.4-0.08-0.69-0.23-0.87
							c-0.16-0.19-0.38-0.28-0.67-0.28c-0.73,0-1.4,0.37-2.02,1.12s-0.93,1.61-0.93,2.61c0,0.09,0.05,0.18,0.16,0.26
							c0.05,0,0.22-0.08,0.51-0.25c0.29-0.17,0.55-0.25,0.79-0.25c0.38,0,0.71,0.18,0.99,0.55c0.27,0.37,0.41,0.9,0.41,1.6
							c0,0.69-0.15,1.22-0.45,1.6s-0.68,0.57-1.14,0.57s-0.85-0.23-1.17-0.69s-0.48-1.23-0.48-2.32c0-1.72,0.33-3.02,0.99-3.88
							c0.66-0.86,1.48-1.29,2.47-1.29c1.03,0,1.91,0.5,2.65,1.51c0.74,1.01,1.11,2.49,1.11,4.43c0,1.79-0.29,3.18-0.86,4.15
							C904.09,266.95,903.22,267.68,902.03,268.16z"/>
						<path class="st15" d="M910.38,256.09v25.86h0.61c0.05,0,0.1,0.02,0.13,0.06c0.04,0.04,0.05,0.09,0.05,0.16
							s-0.02,0.12-0.05,0.16c-0.04,0.04-0.08,0.06-0.13,0.06h-4.05c-0.05,0-0.1-0.02-0.13-0.06c-0.04-0.04-0.05-0.09-0.05-0.16
							s0.02-0.12,0.05-0.16c0.04-0.04,0.08-0.06,0.13-0.06h0.65v-25.42h-0.65c-0.06,0-0.11-0.02-0.16-0.06
							c-0.04-0.04-0.06-0.09-0.06-0.15c0-0.07,0.02-0.12,0.06-0.16c0.04-0.05,0.09-0.07,0.15-0.07H910.38z"/>
						<path class="st15" d="M917.77,264.83c0.31-0.28,0.59-0.59,0.83-0.92c0.24-0.33,0.4-0.5,0.48-0.5l0.08,0.04l0.03,0.17v7.48
							c0,0.08-0.02,0.15-0.06,0.19c-0.04,0.05-0.09,0.07-0.14,0.07c-0.07,0-0.12-0.03-0.16-0.09c-0.02-0.05-0.05-0.33-0.09-0.85
							c-0.06-0.87-0.26-1.98-0.61-3.32c-0.34-1.34-0.68-2.22-1.02-2.63s-0.7-0.62-1.08-0.62c-0.25,0-0.43,0.07-0.53,0.22
							c-0.1,0.15-0.16,0.46-0.16,0.93v15.41c0,0.63,0.08,1.06,0.25,1.3s0.39,0.36,0.68,0.36c0.37,0,0.73-0.17,1.07-0.52
							c0.34-0.34,0.61-0.85,0.81-1.51c0.41-1.35,0.62-2.91,0.62-4.67v-0.98c0-0.16,0.03-0.29,0.08-0.37l0.12-0.1
							c0.05,0,0.09,0.03,0.12,0.1c0.05,0.08,0.08,0.2,0.08,0.37v1.15c0,2.6-0.38,4.52-1.15,5.75c-0.54,0.86-1.22,1.29-2.05,1.29
							c-0.91,0-1.66-0.47-2.24-1.4c-0.76-1.22-1.14-3.36-1.14-6.4v-3.34c0-3.03,0.41-5.24,1.25-6.63c0.57-0.94,1.28-1.42,2.12-1.42
							C916.69,263.42,917.29,263.89,917.77,264.83z"/>
						<path class="st15" d="M925.09,278.56c0.4,0,0.73,0.17,0.99,0.5s0.39,0.83,0.39,1.49s-0.14,1.17-0.41,1.52
							c-0.27,0.35-0.6,0.52-0.99,0.52c-0.41,0-0.74-0.17-1-0.5s-0.39-0.82-0.39-1.46c0-0.69,0.14-1.21,0.41-1.56
							C924.36,278.73,924.69,278.56,925.09,278.56z M929.66,280.59c0-0.68,0.13-1.18,0.4-1.52s0.59-0.51,0.96-0.51
							c0.41,0,0.75,0.17,1.02,0.52c0.27,0.35,0.41,0.85,0.41,1.5s-0.13,1.15-0.39,1.49s-0.59,0.52-1,0.52
							c-0.42,0-0.75-0.17-1.01-0.5C929.79,281.77,929.66,281.26,929.66,280.59z M937.04,278.56c0.4,0,0.73,0.17,0.99,0.52
							c0.26,0.34,0.39,0.85,0.39,1.51s-0.13,1.17-0.4,1.5c-0.27,0.34-0.6,0.51-1.01,0.51c-0.41,0-0.74-0.16-0.99-0.49
							c-0.26-0.33-0.38-0.82-0.38-1.47c0-0.66,0.14-1.18,0.41-1.54C936.33,278.74,936.66,278.56,937.04,278.56z"/>
						<path class="st15" d="M945.37,278.52c-0.63-0.66-1.09-1.45-1.38-2.36c-0.4-1.28-0.61-2.94-0.61-4.98
							c0-2.91,0.42-5.02,1.25-6.33c0.6-0.96,1.39-1.43,2.37-1.43c0.62,0,1.19,0.24,1.7,0.73c0.24-0.55,0.5-0.96,0.79-1.23
							c0.29-0.27,0.61-0.41,0.95-0.41c0.36,0,0.65,0.14,0.88,0.41c0.22,0.28,0.33,0.67,0.33,1.17c0,0.43-0.08,0.76-0.23,0.98
							c-0.16,0.22-0.33,0.33-0.53,0.33c-0.22,0-0.39-0.08-0.53-0.25c-0.13-0.17-0.2-0.42-0.2-0.74v-0.19
							c0.01-0.1,0.02-0.19,0.02-0.26c0-0.2-0.03-0.33-0.08-0.4c-0.06-0.07-0.14-0.1-0.24-0.1c-0.14,0-0.29,0.09-0.43,0.28
							s-0.28,0.47-0.42,0.86c0.98,1.41,1.47,3.7,1.47,6.86c0,2.76-0.42,4.8-1.26,6.13c-0.62,0.98-1.38,1.47-2.26,1.47
							c-0.14,0-0.31-0.01-0.51-0.02c-0.13-0.01-0.45-0.02-0.98-0.02c-0.63,0-1.08,0.1-1.35,0.31c-0.27,0.21-0.4,0.41-0.4,0.61
							c0,0.19,0.07,0.34,0.22,0.45c0.21,0.16,0.54,0.24,0.98,0.24h2.48c1.22,0,2.1,0.31,2.66,0.93s0.83,1.57,0.83,2.85
							c0,1.4-0.37,2.5-1.1,3.3c-0.74,0.8-1.76,1.2-3.08,1.2c-1.33,0-2.33-0.31-3.01-0.94c-0.68-0.62-1.03-1.34-1.03-2.14
							c0-0.5,0.11-0.97,0.32-1.41s0.53-0.84,0.94-1.22c-0.33-0.24-0.58-0.54-0.76-0.88c-0.17-0.34-0.26-0.74-0.26-1.18
							c0-0.77,0.18-1.36,0.55-1.77C943.81,278.94,944.45,278.66,945.37,278.52z M944.24,283.45c-0.28,0.3-0.48,0.61-0.62,0.93
							c-0.14,0.31-0.21,0.63-0.21,0.94c0,0.61,0.3,1.17,0.89,1.7s1.43,0.8,2.53,0.8c1.12,0,2.03-0.31,2.73-0.93
							c0.53-0.49,0.79-1.06,0.79-1.71c0-0.49-0.15-0.85-0.44-1.08c-0.39-0.3-1.19-0.45-2.38-0.45h-0.64
							C945.86,283.65,944.98,283.58,944.24,283.45z M947.68,265.18c0-0.56-0.07-0.93-0.2-1.12s-0.32-0.28-0.56-0.28
							c-0.23,0-0.42,0.1-0.57,0.31c-0.15,0.2-0.22,0.57-0.22,1.09v11.63c0,0.69,0.09,1.18,0.28,1.47c0.14,0.21,0.32,0.31,0.55,0.31
							c0.21,0,0.38-0.09,0.51-0.28s0.2-0.51,0.2-0.98L947.68,265.18L947.68,265.18z"/>
						<path class="st15" d="M959.63,281.95h0.67c0.1,0.08,0.16,0.15,0.16,0.22s-0.05,0.14-0.16,0.22h-3.45v-1.4
							c-0.2,0.54-0.43,0.94-0.71,1.21s-0.6,0.4-0.96,0.4c-0.83,0-1.48-0.69-1.95-2.08c-0.48-1.39-0.71-3.57-0.71-6.56
							c0-4.69,0.36-7.76,1.09-9.21c0.44-0.89,1.02-1.33,1.74-1.33c0.28,0,0.55,0.1,0.8,0.29s0.49,0.48,0.72,0.87v-8.04H956
							c-0.1-0.07-0.16-0.15-0.16-0.23c0-0.07,0.05-0.14,0.16-0.21h3.66v25.85H959.63z M956.85,266.53c0-0.78-0.14-1.4-0.43-1.87
							c-0.19-0.33-0.41-0.49-0.66-0.49c-0.12,0-0.23,0.06-0.33,0.18c-0.1,0.12-0.15,0.28-0.15,0.48v16.08
							c0,0.36,0.05,0.61,0.14,0.75s0.2,0.21,0.32,0.21c0.18,0,0.36-0.15,0.54-0.45c0.37-0.57,0.56-1.07,0.56-1.49v-13.4H956.85z"/>
						<path class="st15" d="M964.07,273.07v6.5c0,1.01,0.1,1.68,0.31,2.01c0.16,0.24,0.41,0.37,0.76,0.37c0.58,0,1.1-0.37,1.56-1.1
							c0.76-1.24,1.16-2.92,1.21-5.05c0.01-0.7,0.04-1.1,0.09-1.19c0.05-0.09,0.11-0.14,0.19-0.14c0.07,0,0.13,0.03,0.17,0.1
							c0.05,0.09,0.08,0.31,0.08,0.66c0,2.08-0.32,3.82-0.97,5.24c-0.65,1.42-1.52,2.12-2.62,2.12c-1.03,0-1.88-0.54-2.55-1.63
							s-1.01-3.45-1.01-7.09v-2.57c0-2.79,0.46-4.9,1.37-6.35c0.65-1.03,1.44-1.54,2.37-1.54c1.1,0,1.95,0.66,2.54,1.98
							c0.6,1.32,0.9,2.92,0.9,4.81v2.87L964.07,273.07L964.07,273.07z M965.67,272.6v-7.45c0-0.48-0.08-0.84-0.25-1.08
							c-0.11-0.17-0.28-0.26-0.51-0.26s-0.42,0.11-0.59,0.33c-0.17,0.22-0.25,0.56-0.25,1.01v7.45H965.67z"/>
						<path class="st15" d="M970.53,265.48c0.15-0.06,0.29-0.1,0.42-0.13s0.26-0.04,0.37-0.04c0.42,0,0.77,0.17,1.05,0.51
							c0.29,0.34,0.43,0.78,0.43,1.33c0,0.56-0.15,1.01-0.44,1.35s-0.68,0.51-1.17,0.51s-0.87-0.17-1.15-0.52
							c-0.28-0.34-0.42-0.85-0.42-1.53c0-1,0.34-1.84,1.01-2.52s1.63-1.01,2.88-1.01c1.12,0,1.93,0.24,2.42,0.71
							s0.74,1.08,0.74,1.81v15.11c0,0.17,0.04,0.32,0.12,0.43s0.17,0.17,0.26,0.17c0.26,0,0.52-0.31,0.79-0.93
							c0.07-0.19,0.15-0.28,0.22-0.28l0.19,0.19c0,0.41-0.23,0.84-0.7,1.29c-0.47,0.45-1.03,0.68-1.68,0.68
							c-0.56,0-0.99-0.15-1.3-0.44s-0.54-0.8-0.69-1.54c-0.48,0.79-0.89,1.32-1.25,1.58c-0.36,0.26-0.78,0.39-1.27,0.39
							c-0.59,0-1.05-0.17-1.36-0.52s-0.47-0.8-0.47-1.35v-6.59c0-0.71,0.14-1.24,0.41-1.57c0.27-0.34,1.09-0.76,2.44-1.26
							c0.6-0.23,1.11-0.47,1.51-0.7v-5.04c0-0.52-0.12-0.93-0.37-1.22c-0.24-0.29-0.56-0.44-0.96-0.44
							C971.65,263.91,970.97,264.43,970.53,265.48z M973.89,271.15c-0.66,0.29-1.09,0.58-1.28,0.87s-0.29,0.76-0.29,1.4v7.4
							c0,0.24,0.04,0.43,0.12,0.54s0.17,0.17,0.29,0.17c0.17,0,0.35-0.2,0.56-0.59c0.4-0.73,0.61-1.62,0.61-2.66L973.89,271.15
							L973.89,271.15z"/>
						<path class="st15" d="M986.48,256.09v17.26l3.08-7.1c0.19-0.43,0.28-0.81,0.28-1.14c0-0.27-0.06-0.49-0.19-0.66
							c-0.12-0.17-0.3-0.29-0.51-0.33l-0.59-0.05c-0.06-0.03-0.09-0.1-0.09-0.19c0-0.07,0.02-0.13,0.05-0.17
							c0.04-0.05,0.09-0.07,0.15-0.07h3.45c0.06,0,0.11,0.02,0.15,0.07c0.04,0.05,0.05,0.1,0.05,0.17c0,0.09-0.02,0.16-0.06,0.19
							l-0.47,0.04c-0.18,0.01-0.34,0.05-0.48,0.1c-0.25,0.12-0.47,0.32-0.65,0.61c-0.11,0.19-0.36,0.73-0.74,1.62l-1.57,3.54
							l3.39,11.97h0.53c0.06,0,0.11,0.02,0.16,0.06c0.04,0.04,0.06,0.09,0.06,0.16l-0.05,0.15c-0.05,0.04-0.11,0.07-0.17,0.07h-4.07
							c-0.06,0-0.11-0.02-0.15-0.06c-0.04-0.04-0.05-0.09-0.05-0.16s0.02-0.12,0.05-0.16c0.04-0.04,0.09-0.06,0.15-0.06h0.76
							l-2.47-8.6v8.6h0.62c0.11,0.08,0.17,0.15,0.17,0.22s-0.06,0.14-0.17,0.22h-4.02c-0.06,0-0.11-0.02-0.15-0.06
							c-0.04-0.04-0.05-0.09-0.05-0.16s0.02-0.12,0.06-0.16s0.09-0.06,0.14-0.06h0.58v-25.42h-0.58c-0.05,0-0.1-0.02-0.13-0.06
							c-0.04-0.04-0.05-0.09-0.05-0.15c0-0.07,0.02-0.13,0.05-0.17c0.04-0.04,0.08-0.06,0.13-0.06H986.48z"/>
						<path class="st15" d="M993.34,264.06h-0.45c-0.05,0-0.1-0.02-0.14-0.06c-0.04-0.04-0.06-0.09-0.06-0.16s0.02-0.12,0.05-0.15
							c0.05-0.05,0.1-0.07,0.16-0.07h3.69c0.06,0,0.11,0.02,0.15,0.07c0.04,0.04,0.06,0.09,0.06,0.15c0,0.07-0.02,0.12-0.05,0.15
							c-0.05,0.05-0.11,0.07-0.17,0.07h-0.54l1.39,13.6l1.64-11.67c0.02-0.13,0.03-0.27,0.03-0.44c0-0.71-0.27-1.21-0.81-1.49
							c-0.13-0.07-0.2-0.16-0.2-0.26c0-0.06,0.01-0.1,0.05-0.12c0.03-0.04,0.07-0.05,0.12-0.05h2.04c0.06,0,0.11,0.01,0.14,0.05
							c0.03,0.03,0.05,0.07,0.05,0.12c0,0.11-0.07,0.2-0.22,0.27c-0.24,0.13-0.4,0.27-0.48,0.43c-0.15,0.27-0.26,0.71-0.34,1.35
							l-2.02,15.07c-0.1,0.79-0.19,1.24-0.25,1.33s-0.2,0.14-0.4,0.14h-1.23c-0.12,0-0.22-0.05-0.28-0.16
							c-0.03-0.06-0.09-0.5-0.19-1.31L993.34,264.06z"/>
						<path class="st15" d="M1006.09,270.22c-0.03,0.04-0.07,0.09-0.11,0.17c-0.48,0.94-1.08,1.42-1.81,1.42
							c-0.71,0-1.31-0.42-1.81-1.26c-0.65-1.11-0.98-3.11-0.98-6c0-2.84,0.34-5,1.03-6.47c0.68-1.47,1.65-2.2,2.89-2.2
							c1.23,0,2.18,0.78,2.85,2.33c0.66,1.56,1,3.61,1,6.16v9.34c0,3.31-0.48,5.74-1.45,7.29c-0.67,1.06-1.56,1.59-2.66,1.59
							c-0.82,0-1.52-0.38-2.09-1.14c-0.75-0.99-1.12-2.19-1.12-3.58c0-0.94,0.17-1.66,0.51-2.15s0.72-0.73,1.12-0.73
							c0.44,0,0.81,0.22,1.14,0.66c0.32,0.44,0.48,1.08,0.48,1.92c0,0.82-0.16,1.43-0.47,1.85s-0.68,0.63-1.11,0.63
							c-0.11,0-0.24-0.02-0.39-0.05c-0.08-0.02-0.14-0.03-0.17-0.03c-0.04,0-0.07,0.02-0.09,0.05c-0.03,0.03-0.05,0.09-0.05,0.16
							c0,0.4,0.22,0.83,0.67,1.29c0.45,0.47,0.94,0.7,1.48,0.7c0.37,0,0.65-0.12,0.84-0.36s0.28-0.64,0.28-1.2v-10.39H1006.09z
							 M1006.09,257.42c0-0.3-0.1-0.59-0.31-0.87c-0.12-0.16-0.3-0.24-0.53-0.24c-0.23,0-0.42,0.1-0.56,0.29s-0.22,0.47-0.22,0.83
							v11.89c0,0.71,0.04,1.15,0.13,1.31s0.21,0.24,0.37,0.24c0.21,0,0.41-0.16,0.61-0.47c0.34-0.54,0.51-1.11,0.51-1.73V257.42z"/>
						<path class="st15" d="M1010.29,264.06h-0.36l-0.09-0.05c-0.03-0.05-0.05-0.1-0.05-0.17s0.05-0.14,0.14-0.22h3.88
							c0.09,0.08,0.14,0.15,0.14,0.22s-0.05,0.14-0.14,0.22h-0.79l1.49,13.01l1.36-9.16l-0.46-3.85h-0.39
							c-0.05,0-0.09-0.02-0.12-0.06c-0.03-0.04-0.04-0.09-0.04-0.16s0.01-0.12,0.04-0.16c0.03-0.04,0.06-0.06,0.12-0.06h3.94
							c0.05,0,0.09,0.02,0.12,0.06c0.03,0.04,0.05,0.09,0.05,0.16s-0.02,0.12-0.05,0.16c-0.03,0.04-0.07,0.06-0.12,0.06h-0.84
							l1.53,12.82l1.6-10.89c0.05-0.31,0.08-0.59,0.08-0.82c0-0.3-0.06-0.52-0.17-0.68c-0.11-0.15-0.34-0.3-0.68-0.43
							c-0.07-0.02-0.12-0.05-0.15-0.08s-0.04-0.07-0.04-0.13s0.06-0.13,0.18-0.24h2.18l0.08,0.05l0.03,0.19
							c0,0.06-0.01,0.1-0.02,0.12s-0.04,0.05-0.09,0.07c-0.58,0.23-0.99,1.19-1.21,2.88l-1.99,14.37c-0.07,0.54-0.15,0.86-0.22,0.96
							c-0.05,0.07-0.14,0.1-0.26,0.1h-1.13c-0.07,0-0.14-0.05-0.19-0.14c-0.06-0.09-0.12-0.39-0.18-0.88l-1.44-12.2l-1.53,11.07
							c-0.16,1.12-0.29,1.78-0.42,1.99c-0.05,0.1-0.14,0.16-0.26,0.16h-1.15c-0.09,0-0.17-0.05-0.23-0.16
							c-0.03-0.07-0.11-0.74-0.25-1.99L1010.29,264.06z"/>
					</g>
				</g>
			</g>
			<path class="st21" d="M933.68,431.23c0,0-12.7,3.88-17.78,17.6c1.7-8.23,6.8-19.49,11.15-25.48c0,0-13.71,11.67-17.48,29.25
				c-0.75-3.85-1.76-7.28-3.52-9.61c0.67-1.52,1.62-3.16,2.98-5.03c0,0-1.82,0.86-3.99,3.92c-0.78-0.73-1.66-1.29-2.7-1.61
				c0,0,1.02,0.78,1.94,2.76c-1.1,1.76-2.24,4.09-3.24,7.15c-5.06-13.51-17.47-16.92-17.47-16.92c5.67,4.58,11.27,12.49,12.61,19.16
				c-2.33-5.44-7.11-9.26-12.61-3.06c0,0,10.08-3.75,9.26,6.3l-0.2,1.54l28.94-0.2l-0.67-2.11
				C919.74,447.67,926.66,436.91,933.68,431.23z M905.35,454.81c-0.57-3.43-0.97-6.17-0.21-9.24
				C905.68,447.77,905.9,450.8,905.35,454.81z"/>
			<path class="st22" d="M933.68,431.23c0,0-12.7,3.88-17.78,17.6c1.7-8.23,6.8-19.49,11.15-25.48c0,0-13.71,11.67-17.48,29.25
				c-0.75-3.85-1.76-7.28-3.52-9.61c0.67-1.52,1.62-3.16,2.98-5.03c0,0-1.82,0.86-3.99,3.92c-0.78-0.73-1.66-1.29-2.7-1.61
				c0,0,1.02,0.78,1.94,2.76c-1.1,1.76-2.24,4.09-3.24,7.15c-5.06-13.51-17.47-16.92-17.47-16.92c5.67,4.58,11.27,12.49,12.61,19.16
				c-2.33-5.44-7.11-9.26-12.61-3.06c0,0,10.08-3.75,9.26,6.3l-0.2,1.54l28.94-0.2l-0.67-2.11
				C919.74,447.67,926.66,436.91,933.68,431.23z M905.35,454.81c-0.57-3.43-0.97-6.17-0.21-9.24
				C905.68,447.77,905.9,450.8,905.35,454.81z"/>
		</g>
	</g>
</g>
</svg>
