<svg xmlns="http://www.w3.org/2000/svg" xmlns:xlink="http://www.w3.org/1999/xlink" viewBox="0 0 1500 500" style="enable-background:new 0 0 1500 500"><style>.st0{fill:url(#SVGID_1_);stroke:#1d1d1b;stroke-miterlimit:10}.st1{clip-path:url(#SVGID_00000119803188051374643250000001740638818431409795_)}.st2{clip-path:url(#SVGID_00000129918125552297846770000003335606988402475675_)}.st3{opacity:.8;fill:none;stroke:#1d1e1c;stroke-width:.5;stroke-miterlimit:10}.st4{fill:none;stroke:#1d1e1c;stroke-width:.5;stroke-miterlimit:10}.st5{fill:none;stroke:#3c3c3b;stroke-width:3;stroke-miterlimit:10;stroke-dasharray:12.0933,12.0933}.st6{fill:#1d1d1b;stroke:#1d1d1b;stroke-width:2;stroke-miterlimit:10}.st7{fill:#706f6f}.st8{opacity:.6;fill:url(#SVGID_00000136413227116206175880000014598936314708795791_)}.st9{fill:#fcddd4}.st10{opacity:.6;fill:url(#SVGID_00000014593201307172053200000001394263461846822800_)}.st11{fill:#ffd2c0}.st12{fill:#1d1d1b}.st13{opacity:.8}.st14{fill:url(#SVGID_00000132798561336264195000000008330875011478969739_)}.st15{fill-rule:evenodd;clip-rule:evenodd;fill:#0ac18e}.st16{opacity:.1;fill-rule:evenodd;clip-rule:evenodd;fill:#1d1d1b}.st17{fill-rule:evenodd;clip-rule:evenodd;fill:#1d1d1b}.st18{fill:#f0a933}.st19{fill:#f0a933;stroke:#1d1d1b;stroke-miterlimit:10}.st20{opacity:.1}.st21{fill:#1d1d1b;stroke:#1d1d1b;stroke-miterlimit:10}.st22{fill:#f2ca76;stroke:#1d1d1b;stroke-miterlimit:10}.st23{fill:#edaa00}.st24{opacity:.2;fill:#404041}.st25{opacity:.2;fill:#1d1d1b}.st26{fill:#f2ca76}.st27{opacity:.1;fill:#1d1d1b}</style><g id="fondo"><radialGradient id="SVGID_1_" cx="750" cy="250" r="737.7386" gradientUnits="userSpaceOnUse"><stop offset="0" style="stop-color:#14B3A0"/><stop offset=".1535" style="stop-color:#169888"/><stop offset=".5499" style="stop-color:#1A564D"/><stop offset=".8382" style="stop-color:#1C2D29"/><stop offset=".9862" style="stop-color:#1D1D1B"/></radialGradient><rect y="0" class="st0" width="1500" height="500"/></g><g id="Capa_5"><g id="OBJECTS"><g><defs><rect id="SVGID_00000096056962966191967730000007008872152399385529_" x="-1.66" y="-.55" width="1500" height="500"/></defs><clipPath id="SVGID_00000017479595807641445030000005936454443739391668_"><use xlink:href="#SVGID_00000096056962966191967730000007008872152399385529_" style="overflow:visible"/></clipPath><g style="clip-path:url(#SVGID_00000017479595807641445030000005936454443739391668_)"><defs><rect id="SVGID_00000121250496566330241720000016570420817665744798_" x="-1.66" y="-.55" width="1500" height="500"/></defs><clipPath id="SVGID_00000080200999987023331970000015241542616730534583_"><use xlink:href="#SVGID_00000121250496566330241720000016570420817665744798_" style="overflow:visible"/></clipPath><g style="clip-path:url(#SVGID_00000080200999987023331970000015241542616730534583_)"><path class="st3" d="M748.92-142.7c-211.57.0-383.69 176.46-383.69 393.36s172.12 393.36 383.69 393.36 383.69-176.46 383.69-393.36S960.48-142.7 748.92-142.7zm0 778.05c-206.91.0-375.24-172.57-375.24-384.69s168.33-384.69 375.24-384.69 375.24 172.57 375.24 384.69S955.82 635.35 748.92 635.35z"/><path class="st3" d="M1291.62 289.96l-.04.22c-.04.47-.04.99-.08 1.47-.04.43-.08.91-.08 1.34l-.04.22 28.2 2.17.04-.22c.04-.99.13-1.95.21-2.95V292l-27.98-1.99L1291.62 289.96z"/><path class="st3" d="M1320.7 225.44l-.04-.22-28.03 1.21h-.21l.13 3.25 28.28-1.08-.04-.22C1320.79 227.39 1320.74 226.43 1320.7 225.44z"/><path class="st3" d="M1319.56 205.93l-.08-1.47-28.2 2.25v.22c.08.91.13 1.86.21 2.77v.22l28.24-2.08-.04-.22C1319.65 207.06 1319.6 206.5 1319.56 205.93z"/><path class="st3" d="M1321.21 246.19v-.22l-28.07.22h-.21v.22c0 .95.0 1.86.0 2.82v.22l28.07-.04.21-.22c0-1 0-2 0-3z"/><polygon class="st3" points="1320.87,271.24 1292.59,270.2 1292.51,273.5 1320.74,274.63"/><path class="st3" d="M1321.21 253.65c0-1 0-1.99.0-2.99l-28.07-.22-.21.22c0 .95.0 1.91.0 2.82l28.28.39V253.65z"/><path class="st3" d="M1307.98 376.69c.13-.65.3-1.3.42-1.95h1.82l-29.38-6.5-.68 3.21 27.6 6.2L1307.98 376.69z"/><path class="st3" d="M1291.79 436.84c.21-.69.47-1.39.68-2.08l.08-.22-26.88-9.06-.97 3.08 26.59 9.19.21.04L1291.79 436.84z"/><polygon class="st3" points="1227.24,516.28 1225.84,519.18 1227.66,516.49 1227.66,515.76 1227.36,516.32"/><path class="st3" d="M1314.87 336.68l.21.04.04-.22c.13-.91.25-1.82.38-2.73h.04l-27.82-4.46-.84.05.63.3-.42 2.86L1314.87 336.68z"/><path class="st3" d="M1258.27 447.02l-.08.22 26.46 10.23.51-1.34c.17-.56.38-1.13.59-1.65l.08-.22-26.34-10.01h-.04-.93l.64.35-.34.95C1258.6 446.03 1258.44 446.55 1258.27 447.02z"/><path class="st3" d="M1312.04 355.8c.13-.56.21-1.13.3-1.69l.04-.17-27.65-5.07h-.21l-.04.22c-.13.91-.29 1.82-.46 2.77l-.04.17 27.61 5.2.21.04L1312.04 355.8z"/><path class="st3" d="M1303.03 397.88l.04-.17c.17-.61.34-1.26.47-1.86l.34-1.26-27.23-7.06-.25-.09v.26c-.21.91-.47 1.82-.68 2.73l-.08.22 27.18 7.19L1303.03 397.88z"/><path class="st3" d="M1289.89 309.69v.22c-.08.95-.17 1.86-.3 2.81v.22l28.11 3.16.3-2.99h.04l-27.9-3.42H1289.89z"/><path class="st3" d="M211.64 338.68l-.04-.22-27.94 4.55.04.22c.13.96.3 1.95.46 2.91l.04.22 27.69-4.64.21-.04-.04-.22c-.08-.48-.17-.96-.21-1.43C211.77 339.59 211.68 339.11 211.64 338.68z"/><path class="st3" d="M176.72 239.61c-.04.69-.04 1.39-.04 2.08v.87l28.24.61.04-.22c0-.43.0-.91.0-1.39s0-.95.04-1.43v-.22l-28.28-.52V239.61z"/><path class="st3" d="M187.08 138.33l-.21 1.13 27.77 5.46.04-.22c.17-.91.38-1.86.55-2.77l.04-.22-27.73-5.63-.04.22C187.33 136.99 187.21 137.68 187.08 138.33z"/><path class="st3" d="M242.88 455.82l-.08-.22c-.25-.61-.46-1.21-.72-1.82l-.38-1-26.13 10.4-.21.08.08.22c.34.91.68 1.82 1.06 2.73v.26l26.38-10.65z"/><path class="st3" d="M218.61 125.59l.34-1.43c.13-.52.21-1.04.34-1.56l.04-.22-1.69-.41 19.2-19.68c.22.1.46.16.71.16.98.0 1.78-.82 1.78-1.83s-.8-1.83-1.78-1.83-1.78.82-1.78 1.83c0 .26.06.51.15.73l-19.77 20.27-24.13-5.82h-.21l-.04.22c-.21.95-.47 1.91-.68 2.86l-.04.22 12.2 2.88H-2.14v1.33h211.02L218.61 125.59z"/><path class="st3" d="M207.07 200.43l-28.15-2.56-.04.22c-.04.48-.08 1-.13 1.52-.04.48-.08.95-.13 1.43v.22l28.15 2.43L207.07 200.43z"/><path class="st3" d="M177.4 219.33c-.04.82-.08 1.65-.08 2.47l-.04.22 28.24 1.39.04-.74c.04-.74.08-1.52.13-2.3v-.22l-28.24-1.56L177.4 219.33z"/><path class="st3" d="M1244.1 19.41l25.74-12.05-.08-.17c-.25-.56-.46-1.08-.72-1.6l-.59-1.3-25.66 12.18.3.61c.3.74.63 1.43.93 2.17L1244.1 19.41z"/><path class="st3" d="M196 98.67l-.04.22 27.31 7.5.85-3.16L196.8 95.6l-.04.22C196.51 96.77 196.25 97.72 196 98.67z"/><path class="st3" d="M1258.86 55.9l26.46-10.14-.51-1.39c-.17-.52-.38-1.08-.55-1.6l-.08-.22-26.46 10.27.08.22c.21.61.42 1.17.64 1.73L1258.86 55.9z"/><path class="st3" d="M215.95 36.44c-.34.91-.67 1.86-1.06 2.77l-.04.22 26.17 10.36.21.09.04-.22c.34-.87.67-1.69 1.01-2.56l.08-.26-26.34-10.62L215.95 36.44z"/><path class="st3" d="M1303.29 105.35l.21-.04-.04-.22c-.25-.95-.47-1.91-.72-2.86l-.04-.22-27.18 7.24-.17.04v.26c.25.87.51 1.78.72 2.73l.04.22L1303.29 105.35z"/><path class="st3" d="M187.84 366.8l.71-.14h31.78L239.19 386h12.64l17.94-18.39c.24.13.51.22.8.22.98.0 1.78-.82 1.78-1.83s-.8-1.83-1.78-1.83c-.98.0-1.78.82-1.78 1.83.0.22.05.42.12.62l-17.61 18.05h-11.57l-18.86-19.34h-25.82l20.54-4.2-.3-1.52c-.08-.47-.21-.99-.3-1.47l-.04-.22-27.73 5.55.13.86c.07.32.14.66.21 1H-2.14v1.33H187.8L187.84 366.8z"/><path class="st3" d="M191.43 383.83l.04.22c.21.95.42 1.9.64 2.9l.08.17 25.23-6.13 18.5 18.97c-.1.22-.15.47-.15.73.0 1.01.8 1.83 1.78 1.83s1.78-.82 1.78-1.83-.8-1.83-1.78-1.83c-.25.0-.49.06-.71.16l-17.94-18.39.77-.19-.72-3.21-3.26.78H-2.14v1.33h212.28L191.43 383.83z"/><path class="st3" d="M1317.91 187.13l-.04-.22c-.08-.69-.17-1.43-.21-2.17l-.13-1-28.11 3.25.04.22c.04.48.08.95.13 1.43.08.48.13.91.17 1.39v.22L1317.91 187.13z"/><path class="st3" d="M223.65 396.45l-27.27 7.54.85 3.29 27.05-7.63.21-.09-.04-.22c-.13-.47-.25-.99-.42-1.47L223.65 396.45z"/><path class="st3" d="M1284.26 150.9l.04.22 27.82-5.16-.04-.22c-.17-.95-.34-1.95-.51-2.91l-.04-.22-27.81 5.29.04.22c.08.48.17.95.25 1.43C1284.09 149.99 1284.18 150.46 1284.26 150.9z"/><path class="st3" d="M205.76 282.73v-.13l.38-.65-.42.22c0-.35.0-.69-.04-1.08.0-.47-.04-.91-.08-1.38v-.22l-28.24 1.48.17 3.42L205.76 282.73z"/><path class="st3" d="M176.68 260.41c0 .61.04 1.21.04 1.82l.04 1.34 28.07-.61h.21l-.08-3.25-28.28.48V260.41z"/><path class="st3" d="M179.05 305.09l27.94-2.64v-.22h.21l-.25-3.03-27.98 2.47-.21.05v.22c.08.78.17 1.6.21 2.38L179.05 305.09z"/><path class="st3" d="M1269.04 495.78c.21-.52.42-.99.68-1.52l.59-1.43-25.74-11.96-.08.17c-.21.47-.42.95-.63 1.43l-.59 1.34 25.7 12.13L1269.04 495.78z"/><path class="st3" d="M1326.11 439.11h-76.52l-20.86 21.38h-82.53c-.26-.68-.9-1.16-1.65-1.16-.98.0-1.78.82-1.78 1.83s.8 1.83 1.78 1.83c.75.0 1.39-.48 1.65-1.16h83.07l20.86-21.38h75.44l19.56 20.06h-46.83c-.26-.68-.9-1.16-1.65-1.16-.98.0-1.78.82-1.78 1.83s.8 1.83 1.78 1.83c.75.0 1.39-.48 1.65-1.16h133.43l-11.02 11.29h-143.76l-24.37-10.32v-.96l-.34.83-.08-.04-1.14 3.03 17.4 7.46h-55.67c-.26-.68-.9-1.16-1.65-1.16-.98.0-1.78.82-1.78 1.83s.8 1.83 1.78 1.83c.75.0 1.39-.48 1.65-1.16h58.76l5.58 2.39.97-2.39h143.18l12.31-12.62h29.09l-24.66 25.28h-84.45l-20.86 21.38h-75.44l-20.86-21.38h-83.07c-.26-.68-.9-1.16-1.65-1.16-.98.0-1.78.82-1.78 1.83s.8 1.83 1.78 1.83c.75.0 1.39-.48 1.65-1.16h82.54l19.91 20.41-19.49-10.07-.08.17c-.42.87-.85 1.69-1.27 2.56l-.08.17 25.28 13.04 1.4-2.9-3.86-2h75.58l20.86-21.38h84.45l25.95-26.61h35.46v-1.33h-152.99L1326.11 439.11z"/><path class="st3" d="M1373.43 229.85c-1.03.0-1.87.86-1.87 1.92.0 1.06.84 1.92 1.87 1.92.8.0 1.47-.52 1.74-1.25h124.8v-1.33h-124.8C1374.9 230.38 1374.23 229.85 1373.43 229.85z"/><path class="st3" d="M1361.49 159.02h-141.43c-.26-.73-.94-1.25-1.74-1.25-1.03.0-1.87.86-1.87 1.92.0 1.06.84 1.92 1.87 1.92.8.0 1.47-.52 1.74-1.25h140.89l21.89 22.44h117.12v-1.33h-116.59L1361.49 159.02z"/><path class="st3" d="M1449.24 159.21c-.34-.47-.86-.79-1.47-.79-1.03.0-1.87.86-1.87 1.92.0 1.06.84 1.92 1.87 1.92.96.0 1.73-.76 1.83-1.72h34.05l16.32-16.73v-1.88l-16.85 17.28H1449.24z"/><path class="st3" d="M1352.57 181.46h-46.4c-.26-.73-.94-1.25-1.74-1.25-1.03.0-1.87.86-1.87 1.92.0 1.06.84 1.92 1.87 1.92.8.0 1.47-.52 1.74-1.25h45.86l21.89 22.44h126.04v-1.33h-125.51L1352.57 181.46z"/><path class="st3" d="M1418.03 169.92c-.26-.73-.94-1.25-1.74-1.25-1.03.0-1.87.86-1.87 1.92.0 1.06.84 1.92 1.87 1.92.8.0 1.47-.52 1.74-1.25h70.48l11.46-11.74v-1.88l-11.99 12.29H1418.03z"/><path class="st3" d="M1357.03 170.24h-67.1l25.45-3.74-.04-.22c-.13-.95-.25-1.95-.42-2.95l-.04-.22-27.94 4.29.41 2.83h-90.92c-.27-.73-.94-1.25-1.74-1.25-1.03.0-1.87.86-1.87 1.92.0 1.06.84 1.92 1.87 1.92.8.0 1.47-.52 1.74-1.25h160.08l21.89 22.44h121.58v-1.33h-121.05L1357.03 170.24z"/><path class="st3" d="M1455.12 270.37h-71.78c-.26-.73-.94-1.25-1.74-1.25-1.03.0-1.87.86-1.87 1.92s.84 1.92 1.87 1.92c.8.0 1.47-.52 1.74-1.25h71.25l45.39 46.53v-1.88l-44.66-45.79L1455.12 270.37z"/><path class="st3" d="M1348.11 192.68h-80.75c-.26-.73-.94-1.25-1.74-1.25-1.03.0-1.87.86-1.87 1.92.0 1.06.84 1.92 1.87 1.92.8.0 1.47-.52 1.74-1.25h80.22l21.7 22.24.46-.47v.66h130.24v-1.33h-129.97L1348.11 192.68z"/><path class="st3" d="M1430.62 253.87c-1.03.0-1.87.86-1.87 1.92s.84 1.92 1.87 1.92c.8.0 1.47-.52 1.74-1.25h67.6v-1.33h-67.6C1432.1 254.39 1431.43 253.87 1430.62 253.87z"/><path class="st3" d="M1261.9 101.35c.1-.22.15-.47.15-.73.0-1.01-.8-1.83-1.78-1.83s-1.78.82-1.78 1.83.8 1.83 1.78 1.83c.25.0.49-.06.71-.16l20.49 21h21.27l-22.67 5.2-.51.56.38-.09c.17.82.34 1.69.55 2.56l.04.17 27.64-6.15-.08-.22c-.08-.48-.17-.91-.3-1.39-.04-.22-.08-.44-.13-.65h192.28v-1.33h-217.95L1261.9 101.35z"/><path class="st3" d="M1447.63 49.03c-.98.0-1.78.82-1.78 1.83s.8 1.83 1.78 1.83c.75.0 1.39-.48 1.65-1.16h50.68V50.2h-50.68C1449.03 49.51 1448.39 49.03 1447.63 49.03z"/><path class="st3" d="M1464.51 39.5l-25.95-26.61h-84.45L1333.24-8.5h-76.52l-20.86 21.38h-82.54c-.26-.68-.9-1.16-1.65-1.16-.98.0-1.78.82-1.78 1.83s.8 1.83 1.78 1.83c.75.0 1.39-.48 1.65-1.16h83.07l20.86-21.38h75.44l20.86 21.38H1438l24.66 25.28h-29.1l-12.31-12.62h-144.49l1.15-.49-1.27-3.12-8.39 3.61h-55.49c-.26-.68-.9-1.16-1.65-1.16-.98.0-1.78.82-1.78 1.83s.8 1.83 1.78 1.83c.75.0 1.39-.48 1.65-1.16h52.41l-14.61 6.29.08.22c.34.87.72 1.73 1.06 2.6l.08.17 21.85-9.28h147.08l11.02 11.29H1298.3c-.26-.68-.9-1.16-1.65-1.16-.98.0-1.78.82-1.78 1.83s.8 1.83 1.78 1.83c.75.0 1.39-.48 1.65-1.16h46.83l-19.56 20.06h-75.44l-20.86-21.39h-83.07c-.26-.68-.9-1.16-1.65-1.16-.98.0-1.78.82-1.78 1.83s.8 1.83 1.78 1.83c.75.0 1.39-.48 1.65-1.16h82.53l20.86 21.39h41.24l-26.61 9.25 1.02 3.08 26.84-9.14-.08-.22c-.21-.74-.47-1.47-.72-2.21l-.23-.76h35.07l20.86-21.39h152.99V39.5H1464.51z"/><path class="st3" d="M1413.85 59.72c-.98.0-1.78.82-1.78 1.83s.8 1.83 1.78 1.83c.75.0 1.39-.48 1.65-1.16h84.46v-1.33h-84.46C1415.25 60.2 1414.61 59.72 1413.85 59.72z"/><path class="st3" d="M1280.03 319.92c-1.03.0-1.87.86-1.87 1.92s.84 1.92 1.87 1.92c.81.0 1.48-.54 1.74-1.28h173.02l-14.14 14.49H1224.3c-.22-.81-.91-1.42-1.77-1.42-1.03.0-1.87.86-1.87 1.92s.84 1.92 1.87 1.92c.74.0 1.36-.45 1.67-1.09h217l15.43-15.82h20.1l-29.24 29.98h-87.72c-.26-.73-.94-1.25-1.74-1.25-1.03.0-1.87.86-1.87 1.92s.84 1.92 1.87 1.92c.8.0 1.47-.52 1.74-1.25h88.26l30.54-31.3h21.4v-1.33h-218.2C1281.49 320.43 1280.83 319.92 1280.03 319.92z"/><path class="st3" d="M1258.65 115.32h-12.64l-17.94 18.39c-.24-.13-.51-.22-.8-.22-.98.0-1.78.82-1.78 1.83.0 1.01.8 1.83 1.78 1.83s1.78-.82 1.78-1.83c0-.22-.05-.42-.12-.62l17.61-18.05h11.57l18.86 19.34h222.99v-1.33H1277.5L1258.65 115.32z"/><path class="st3" d="M1473.35 80.98h-249.59c-.26-.68-.9-1.16-1.65-1.16-.98.0-1.78.82-1.78 1.83s.8 1.83 1.78 1.83c.75.0 1.39-.48 1.65-1.16h72.28l-25.73 7.92-.17.04.08.39c.01.03.01.05.02.08h-46.28l-20.86 21.38h-82.54c-.26-.68-.9-1.16-1.65-1.16-.98.0-1.78.82-1.78 1.83s.8 1.83 1.78 1.83c.75.0 1.39-.48 1.65-1.16h83.07l20.86-21.38h46.12c.1.38.21.77.32 1.15l.04.22 4.53-1.37h139.21l20.86 21.38h64.38v-1.33h-10.82l-20.86-21.38h-31.39c-.26-.68-.9-1.16-1.65-1.16-.98.0-1.78.82-1.78 1.83s.8 1.83 1.78 1.83c.75.0 1.39-.48 1.65-1.16h30.86l19.56 20.06h-51.19l-20.86-21.38H1279.9l18.21-5.5-.08-.34c-.24-.86-.48-1.73-.72-2.59h175.49l20.86 21.39h6.29v-1.33h-5.76L1473.35 80.98z"/><path class="st3" d="M1478.42 71.22h-91.89l-10.08-10.34h-14.43c-.26-.68-.9-1.16-1.65-1.16-.98.0-1.78.82-1.78 1.83s.8 1.83 1.78 1.83c.75.0 1.39-.48 1.65-1.16h13.9L1386 72.56h91.89l20.86 21.39h1.23V92.6h-.69L1478.42 71.22z"/><path class="st3" d="M1258.11 384.67h-11.57l-17.61-18.05c.07-.19.12-.4.12-.62.0-1.01-.8-1.83-1.78-1.83s-1.78.82-1.78 1.83.8 1.83 1.78 1.83c.29.0.55-.09.8-.22l17.94 18.39h12.64l18.86-19.34h222.46v-1.33h-222.99L1258.11 384.67z"/><path class="st3" d="M1477.88 428.77h-91.89l-10.08 10.34h-13.9c-.26-.68-.9-1.16-1.65-1.16-.98.0-1.78.82-1.78 1.83s.8 1.83 1.78 1.83c.75.0 1.39-.48 1.65-1.16h14.43l10.08-10.34h91.89l20.86-21.39h.69v-1.33h-1.23L1477.88 428.77z"/><path class="st3" d="M1478.29 351.2c-1.03.0-1.87.86-1.87 1.92s.84 1.92 1.87 1.92c.8.0 1.47-.52 1.74-1.25h19.93v-1.33h-19.93C1479.77 351.72 1479.1 351.2 1478.29 351.2z"/><path class="st3" d="M1447.63 448.64c-.98.0-1.78.82-1.78 1.83s.8 1.83 1.78 1.83c.75.0 1.39-.48 1.65-1.16h50.68v-1.33h-50.68C1449.03 449.12 1448.39 448.64 1447.63 448.64z"/><path class="st3" d="M1260.99 399.03c-.22-.1-.46-.16-.71-.16-.98.0-1.78.82-1.78 1.83s.8 1.83 1.78 1.83 1.78-.82 1.78-1.83c0-.26-.06-.51-.15-.73l20.11-20.61h217.95v-1.33h-218.49L1260.99 399.03z"/><path class="st3" d="M1414.73 409.26h-134.4l-8.96-2.67-.04.22c-.23.79-.46 1.62-.7 2.45h-46.13l-20.86-21.38h-83.07c-.26-.68-.9-1.16-1.65-1.16-.98.0-1.78.82-1.78 1.83s.8 1.83 1.78 1.83c.75.0 1.39-.48 1.65-1.16h82.54l20.86 21.38h49.39l24.05 7.31.21.04.04-.22c.3-.95.55-1.91.85-2.82l.04-.22-13.77-4.11h130.49l20.86-21.38h51.19l-19.56 20.06h-30.86c-.26-.68-.9-1.16-1.65-1.16-.98.0-1.78.82-1.78 1.83s.8 1.83 1.78 1.83c.75.0 1.39-.48 1.65-1.16h31.39l20.86-21.38h10.82v-1.33h-64.38L1414.73 409.26z"/><path class="st3" d="M1472.81 419.02h-249.05c-.26-.68-.9-1.16-1.65-1.16-.98.0-1.78.82-1.78 1.83s.8 1.83 1.78 1.83c.75.0 1.39-.48 1.65-1.16h249.59l20.86-21.38h5.76v-1.33h-6.29L1472.81 419.02z"/><path class="st3" d="M1413.85 437.95c-.98.0-1.78.82-1.78 1.83s.8 1.83 1.78 1.83c.75.0 1.39-.48 1.65-1.16h84.46v-1.33h-84.46C1415.25 438.43 1414.61 437.95 1413.85 437.95z"/><path class="st3" d="M48.24 160.54c.1.96.87 1.72 1.83 1.72 1.03.0 1.87-.86 1.87-1.92.0-1.06-.84-1.92-1.87-1.92-.61.0-1.13.32-1.47.79H14.72l-16.85-17.28v1.88l16.32 16.73H48.24z"/><path class="st3" d="M79.8 171.24c.26.73.94 1.25 1.74 1.25 1.03.0 1.87-.86 1.87-1.92.0-1.06-.84-1.92-1.87-1.92-.8.0-1.47.52-1.74 1.25H9.86l-11.99-12.29v1.88l11.46 11.74H79.8z"/><path class="st3" d="M128.1 215.78l.46.47 21.7-22.24h80.22c.26.73.94 1.25 1.74 1.25 1.03.0 1.87-.86 1.87-1.92.0-1.06-.84-1.92-1.87-1.92-.8.0-1.47.52-1.74 1.25h-80.75l-21.89 22.44H-2.14v1.33H128.1V215.78z"/><path class="st3" d="M136.87 160.35h49.01l25.5 4.07v-.22c.13-.74.21-1.47.34-2.21l.13-.83-4.96-.82h70.88c.26.73.94 1.25 1.74 1.25 1.03.0 1.87-.86 1.87-1.92.0-1.06-.84-1.92-1.87-1.92-.8.0-1.47.52-1.74 1.25h-78.94l-14.87-2.45-.04.22c-.13.73-.24 1.47-.35 2.23h-47.22l-21.89 22.44H-2.14v1.33h117.12l21.89-22.42z"/><path class="st3" d="M145.8 182.79h45.86c.26.73.94 1.25 1.74 1.25.96.0 1.74-.74 1.85-1.7l13.48 1.66.04-.22c.13-.95.21-1.86.34-2.82l.04-.22-28.07-3.6-.42 3.38 7.46.92h-42.85l-21.89 22.44H-2.14v1.33H123.9l21.9-22.42z"/><path class="st3" d="M141.34 171.57h160.08c.27.73.94 1.25 1.74 1.25 1.03.0 1.87-.86 1.87-1.92.0-1.06-.84-1.92-1.87-1.92-.8.0-1.47.52-1.74 1.25H140.8l-21.89 22.44H-2.14V194h121.58l21.9-22.43z"/><path class="st3" d="M50.2 52.68c.98.0 1.78-.82 1.78-1.83s-.8-1.83-1.78-1.83c-.75.0-1.39.48-1.65 1.16H-2.14v1.33h50.68C48.8 52.19 49.44 52.68 50.2 52.68z"/><path class="st3" d="M83.98 63.37c.98.0 1.78-.82 1.78-1.83s-.8-1.83-1.78-1.83c-.75.0-1.39.48-1.65 1.16H-2.14v1.33h84.46C82.58 62.89 83.22 63.37 83.98 63.37z"/><path class="st3" d="M239.72 116.65h11.57l17.61 18.05c-.07.19-.12.4-.12.62.0 1.01.8 1.83 1.78 1.83.98.0 1.78-.82 1.78-1.83.0-1.01-.8-1.83-1.78-1.83-.29.0-.55.09-.8.22l-17.94-18.39h-12.64l-18.86 19.34H-2.14v1.33h222.99l18.87-19.34z"/><path class="st3" d="M171.72 62.21h45.09l17.74 6.3.38-1.08c.21-.61.42-1.21.63-1.82l.04-.22-8.86-3.18h21.49l20.86-21.39h82.53c.26.68.9 1.16 1.65 1.16.98.0 1.78-.82 1.78-1.83s-.8-1.83-1.78-1.83c-.75.0-1.39.48-1.65 1.16h-83.07L247.7 60.88h-24.65l-14.11-5.07-.08.17c-.3.95-.64 1.91-.93 2.82l-.08.22 5.24 1.86h-40.82l-19.56-20.06h46.83c.26.68.9 1.16 1.65 1.16.98.0 1.78-.82 1.78-1.83s-.8-1.83-1.78-1.83c-.75.0-1.39.48-1.65 1.16H66.08L77.1 28.2h163.88l7.52 3.3.08-.22c.21-.56.46-1.08.67-1.65l.51-1.13-.69-.31h35.98c.26.68.9 1.16 1.65 1.16.98.0 1.78-.82 1.78-1.83s-.8-1.83-1.78-1.83c-.75.0-1.39.48-1.65 1.16H246.1l-22.29-9.94-.08.22c-.38.91-.76 1.82-1.14 2.73l-.08.22 15.45 6.77H76.56L64.25 39.5h-29.1l24.66-25.28h84.45l20.86-21.38h75.44l17.2 17.64L232.27-2l-.08.17c-.34.69-.68 1.43-1.02 2.12l-.34.78 25.58 12.35.08-.22c.21-.39.42-.82.59-1.26.21-.43.42-.87.59-1.3l.12-.17 3.64 3.73h83.07c.26.68.9 1.16 1.65 1.16.98.0 1.78-.82 1.78-1.83s-.8-1.83-1.78-1.83c-.75.0-1.39.48-1.65 1.16h-82.54L241.11-8.5h-76.52l-20.86 21.38H59.28L33.32 39.5H-2.14v1.33h152.99l20.87 21.38z"/><path class="st3" d="M83.1 92.06h190.23l20.86 21.38h83.07c.26.68.9 1.16 1.65 1.16.98.0 1.78-.82 1.78-1.83s-.8-1.83-1.78-1.83c-.75.0-1.39.48-1.65 1.16h-82.54l-20.86-21.38H82.56L61.7 112.12H10.52l19.56-20.06h30.86c.26.68.9 1.16 1.65 1.16.98.0 1.78-.82 1.78-1.83s-.8-1.83-1.78-1.83c-.75.0-1.39.48-1.65 1.16H29.55L8.69 112.12H-2.14v1.33h64.38L83.1 92.06z"/><path class="st3" d="M25.02 82.3h187.41l15.96 5.02.25.04.17-.78c.21-.69.42-1.43.68-2.12l.04-.22-6.07-1.94h50.62c.26.68.9 1.16 1.65 1.16.98.0 1.78-.82 1.78-1.83s-.8-1.83-1.78-1.83c-.75.0-1.39.48-1.65 1.16H219.3l-16.78-5.36-.04.22c-.25.78-.46 1.56-.72 2.34l-.08.35h-1.27l7.8 2.45H24.48L3.62 102.36h-5.76v1.33h6.29L25.02 82.3z"/><path class="st3" d="M19.95 72.54h91.89l10.08-10.34h13.9c.26.68.9 1.16 1.65 1.16.98.0 1.78-.82 1.78-1.83s-.8-1.83-1.78-1.83c-.75.0-1.39.48-1.65 1.16h-14.43L111.3 71.22H19.41L-1.45 92.6h-.69v1.33h1.23L19.95 72.54z"/><path class="st3" d="M49.8 353.78h88.26c.26.73.94 1.25 1.74 1.25 1.03.0 1.87-.86 1.87-1.92s-.84-1.92-1.87-1.92c-.8.0-1.47.52-1.74 1.25H50.34L21.1 322.47h20.1l15.43 15.82h217c.3.64.93 1.09 1.67 1.09 1.03.0 1.87-.86 1.87-1.92s-.84-1.92-1.87-1.92c-.86.0-1.55.61-1.77 1.42H57.17l-14.14-14.49h137.83v.12c.13 1 .25 1.99.38 2.95v.22l25.17-3.29h9.64c.26.74.93 1.28 1.74 1.28 1.03.0 1.87-.86 1.87-1.92s-.84-1.92-1.87-1.92c-.79.0-1.46.51-1.73 1.23h-6.87c-.09-.7-.16-1.39-.26-2.06v-.22l-18.19 2.27H-2.14v1.33h21.4L49.8 353.78z"/><path class="st3" d="M378.91 386.71c-.75.0-1.39.48-1.65 1.16h-83.07l-20.86 21.38H83.1l-20.86-21.38H-2.14v1.33H8.69l20.86 21.38h31.39c.26.68.9 1.16 1.65 1.16.98.0 1.78-.82 1.78-1.83s-.8-1.83-1.78-1.83c-.75.0-1.39.48-1.65 1.16H30.08L10.52 389.2H61.7l20.86 21.38h191.3l20.86-21.38h82.54c.26.68.9 1.16 1.65 1.16.98.0 1.78-.82 1.78-1.83C380.69 387.53 379.89 386.71 378.91 386.71z"/><path class="st3" d="M353.28 459.33c-.75.0-1.39.48-1.65 1.16H269.1l-20.86-21.38h-17.21l5.05-1.84-.04-.17c-.34-.91-.63-1.78-.93-2.69l-.04-.22-13.72 4.92h-49.62l-20.86 21.38H-2.14v1.33h35.46l25.95 26.61h84.45l20.86 21.38h76.52l20.86-21.38h82.54c.26.68.9 1.16 1.65 1.16.98.0 1.78-.82 1.78-1.83s-.8-1.83-1.78-1.83c-.75.0-1.39.48-1.65 1.16h-83.07l-3.65 3.74c-.09-.2-.19-.4-.28-.61l-.59-1.26-25.57 12.39 1.44 3.08 22.54-11.08-14.75 15.12h-75.44l-20.86-21.38H59.81l-24.66-25.28h29.09l12.31 12.62h164.69L223 482.46l.08.22c.3.65.55 1.3.85 1.95l.42.95 24.86-11.15h35.84c.26.68.9 1.16 1.65 1.16.98.0 1.78-.82 1.78-1.83s-.8-1.83-1.78-1.83c-.75.0-1.39.48-1.65 1.16h-35.16c-.28-.64-.55-1.28-.8-1.91l-.08-.17-4.74 2.09H77.1l-11.02-11.29h133.43c.26.68.9 1.16 1.65 1.16.98.0 1.78-.82 1.78-1.83s-.8-1.83-1.78-1.83c-.75.0-1.39.48-1.65 1.16h-46.83l19.56-20.06h45.38l-9.29 3.33.3.91c.25.69.46 1.39.72 2.04v.3l18.03-6.58h20.31l20.86 21.38h83.07c.26.68.9 1.16 1.65 1.16.98.0 1.78-.82 1.78-1.83C355.06 460.15 354.26 459.33 353.28 459.33z"/><path class="st3" d="M19.54 355.03c1.03.0 1.87-.86 1.87-1.92s-.84-1.92-1.87-1.92c-.8.0-1.47.52-1.74 1.25H-2.14v1.33H17.8C18.06 354.51 18.73 355.03 19.54 355.03z"/><path class="st3" d="M83.98 441.6c.98.0 1.78-.82 1.78-1.83s-.8-1.83-1.78-1.83c-.75.0-1.39.48-1.65 1.16H-2.14v1.33h84.46C82.58 441.12 83.22 441.6 83.98 441.6z"/><path class="st3" d="M114.5 271.7c.26.73.94 1.25 1.74 1.25 1.03.0 1.87-.86 1.87-1.92s-.84-1.92-1.87-1.92c-.8.0-1.47.52-1.74 1.25H42.71l-.19.19-44.66 45.79v1.88l45.39-46.53H114.5z"/><path class="st3" d="M24.48 420.34h189.06L202 424.01l.04.22c.17.43.3.87.42 1.34.17.48.3 1 .46 1.48l.04.22 21.39-6.92h49.71c.26.68.9 1.16 1.65 1.16.98.0 1.78-.82 1.78-1.83s-.8-1.83-1.78-1.83c-.75.0-1.39.48-1.65 1.16h-45.6l1.31-.42.13-.04v-.22c-.25-.91-.55-1.77-.8-2.69l-.08-.22-11.29 3.59H25.02L4.16 397.63h-6.29v1.33h5.76l20.85 21.38z"/><path class="st3" d="M50.2 452.29c.98.0 1.78-.82 1.78-1.83s-.8-1.83-1.78-1.83c-.75.0-1.39.48-1.65 1.16H-2.14v1.33h50.68C48.8 451.81 49.44 452.29 50.2 452.29z"/><path class="st3" d="M19.41 430.1h91.89l10.08 10.34h14.43c.26.68.9 1.16 1.65 1.16.98.0 1.78-.82 1.78-1.83s-.8-1.83-1.78-1.83c-.75.0-1.39.48-1.65 1.16h-13.9l-10.08-10.34H19.95L-.91 407.37h-1.23v1.33h.69L19.41 430.1z"/><path class="st3" d="M67.21 257.7c1.03.0 1.87-.86 1.87-1.92.0-1.06-.84-1.92-1.87-1.92-.8.0-1.47.52-1.74 1.25h-67.6v1.33h67.6C65.73 257.17 66.4 257.7 67.21 257.7z"/><path class="st3" d="M124.4 233.69c1.03.0 1.87-.86 1.87-1.92.0-1.06-.84-1.92-1.87-1.92-.8.0-1.47.52-1.74 1.25H-2.14v1.33h124.8C122.93 233.16 123.6 233.69 124.4 233.69z"/><path class="st3" d="M748.92 110.46c-75.41.0-136.75 62.89-136.75 140.2s61.35 140.2 136.75 140.2c75.41.0 136.75-62.89 136.75-140.2S824.32 110.46 748.92 110.46zm0 277.31c-73.75.0-133.74-61.51-133.74-137.11s60-137.11 133.74-137.11c73.75.0 133.74 61.51 133.74 137.11s-60 137.11-133.74 137.11z"/><path class="st3" d="M489.16 250c0 146.79 116.49 266.22 259.67 266.22 86.77.0 163.73-43.87 210.91-111.1l3.68 2.71c32.45-46.24 49.6-100.82 49.6-157.83h-4.52c0-146.79-116.49-266.22-259.67-266.22S489.16 103.2 489.16 250zm517.83.0h-4.52c0 54.73-16.47 107.12-47.62 151.52l3.66 2.7c-46.91 66.84-123.42 110.46-209.69 110.46-142.35.0-258.16-118.73-258.16-264.67s115.81-264.67 258.16-264.67S1006.99 104.05 1006.99 250z"/><path class="st3" d="M748.83 7C618.13 7 511.8 116.01 511.8 250s106.33 243 237.03 243c130.7.0 237.02-109.01 237.02-243 0-133.99-106.33-243-237.02-243zm0 484.45c-129.87.0-235.52-108.31-235.52-241.45s105.65-241.45 235.52-241.45c129.86.0 235.52 108.32 235.52 241.45S878.69 491.45 748.83 491.45z"/><path class="st3" d="M1040.46 252.55c.01-.93.07-1.85.07-2.79.0-164.11-129.53-297.73-289.27-299.21v26.17c145.66 1.48 263.73 123.36 263.73 273.04.0.94-.06 1.86-.07 2.79H1040.46z"/><path class="st3" d="M614.43 7.42c12.25-7.16 25.14-13.39 38.3-18.5l-2.13-5.78c-13.46 5.22-26.63 11.58-39.15 18.91-22.67 13.25-43.43 29.71-61.7 48.92l4.31 4.31C571.94 36.49 592.25 20.38 614.43 7.42z"/><path class="st3" d="M500.41 118.54c-20.7 42.91-31.42 91.87-30.19 137.88l7.53-.21c-1.2-44.77 9.24-92.44 29.41-134.24L500.41 118.54z"/><path class="st3" d="M748.83 506.16c-68.3.0-132.12-27.83-179.71-78.36l-5.42 5.36c49.02 52.05 114.76 80.72 185.13 80.72 62 0 121.94-23.01 168.78-64.8l-4.95-5.83C867.2 483.82 809.01 506.16 748.83 506.16z"/><path class="st3" d="M932.03 78.85c15.42 17.35 28.39 36.76 38.54 57.69l6.74-3.44c-10.47-21.57-23.83-41.57-39.72-59.45-26.47-29.78-59.73-53.16-96.19-67.59l-2.71 7.2C874.07 27.27 906.34 49.95 932.03 78.85z"/><path class="st3" d="M748.83 57.06c-103.77.0-188.19 86.55-188.19 192.94.0 106.38 84.42 192.93 188.19 192.93 103.77.0 188.19-86.55 188.19-192.93C937.02 143.61 852.6 57.06 748.83 57.06zm0 384.32c-102.94.0-186.69-85.86-186.69-191.39.0-105.53 83.75-191.39 186.69-191.39s186.69 85.86 186.69 191.39C935.52 355.52 851.77 441.38 748.83 441.38z"/><path class="st3" d="M1066.6 233.47c-4.3-86.88-41.43-166.93-104.57-225.41-63.14-58.48-144.57-88.25-229.32-83.85l.08 1.54c84.34-4.39 165.4 25.25 228.23 83.45 62.84 58.2 99.8 137.87 104.08 224.34s-24.63 169.56-81.4 233.98c-56.77 64.42-134.48 102.31-218.82 106.7-174.39 9.05-323.46-129-332.31-307.79l-1.5.08c8.61 174.04 149.46 309.69 317.58 309.68 5.4.0 10.85-.14 16.31-.42 84.74-4.41 162.83-42.48 219.86-107.21C1041.85 403.84 1070.9 320.35 1066.6 233.47z"/><path class="st3" d="M495.7 15.54C556.88-53.89 640.64-94.73 731.54-99.45l-.08-1.54c-91.3 4.75-175.43 45.77-236.88 115.5-61.45 69.73-92.75 159.69-88.11 253.29l1.5-.08C403.36 174.53 434.52 84.97 495.7 15.54z"/><path class="st3" d="M748.92 63.19c-100.83.0-182.86 84.1-182.86 187.47s82.03 187.46 182.86 187.46 182.86-84.1 182.86-187.46S849.74 63.19 748.92 63.19zm0 372.87c-99.72.0-180.84-83.17-180.84-185.4s81.13-185.4 180.84-185.4c99.72.0 180.84 83.17 180.84 185.4s-81.13 185.4-180.84 185.4z"/><rect x="-1.66" y="-.55" class="st4" width="1500" height="500"/></g></g></g></g></g><g id="Capa_3"><g><circle class="st5" cx="750" cy="250" r="227.11"/></g></g><g id="Capa_1"><path class="st6" d="M884.05 342.17c.01-.01.02-.03.03-.04-.01.0-.02-.01-.02-.01.24-4.2-8.74-6.68-18.79-7.6-2.09-.77-4.18-1.51-6.25-2.22 4.69-7.59-4.3-14.9-30.16-9.05-.66-.17-1.32-.34-1.97-.51-.43-8.26-6.53-12.03-16.6-12.33 10.73-15.34 26.28-36.13 33.57-69.91 6.71-31.09 7.02-72.43-31.86-110.67-20.81-20.46-40.79-46.92-58.14-47.35-19.82-.5-40.3 23.23-63.58 43.31-43.65 37.65-36.56 80.68-30.28 123.18 4.86 32.89 23.13 50.24 32.98 62.3-11.52-.03-20.47 3.98-19.51 11.24-12.44-1.81-17.48.18-17.37 4.93-2.27.68-4.56 1.39-6.89 2.13-13.64.87-19.46 3.02-21.91 7.79-3.79 1.5-7.57 3.08-11.33 4.76 3.55 5.82 7.47 11.39 11.72 16.69 3.34 11.83 11.18 25.88 25.96 35.15 13.79 8.65 14.97 6.24 14.33.4 23.88 14.68 51.98 23.16 82.06 23.16 34.55.0 66.47-11.18 92.39-30.1.87 1.68 1.39 3.32 1.39 4.75.0 7.48 10.89 1.18 11.89-7.87.3-2.77 1.22-6.36 2.76-10.29 8.81-8.43 16.64-17.87 23.3-28.14C883.24 344.5 883.97 343.28 884.05 342.17z"/><g><g><path class="st7" d="M843.84 240.51c-10.32 47.82-37.2 69.63-43.51 86.75-4.99 13.51-32.17 8.63-57.39 7.73-22.08-.78-50.84 5.69-44.37-8.09 6.59-14.04-31.27-28.3-38.6-77.92-6.28-42.5-13.37-85.52 30.28-123.18 23.28-20.08 43.76-43.81 63.58-43.31 17.35.44 37.34 26.89 58.14 47.35C850.87 168.08 850.55 209.41 843.84 240.51z"/><linearGradient id="SVGID_00000126296688692116430400000009072041264054221498_" gradientUnits="userSpaceOnUse" x1="655.2803" y1="213.6069" x2="790.5276" y2="213.6069"><stop offset="0" style="stop-color:#1D1D1B"/><stop offset=".0641" style="stop-color:#232321"/><stop offset=".4398" style="stop-color:#3F3F3E"/><stop offset=".7648" style="stop-color:#515150"/><stop offset="1" style="stop-color:#575756"/></linearGradient><path style="opacity:.6;fill:url(#SVGID_00000126296688692116430400000009072041264054221498_)" d="M789.39 253.07c-10.32 47.82-37.2 69.63-43.51 86.75-4.99 13.51 22.29-3.94-2.94-4.83-22.08-.78-50.84 5.69-44.37-8.09 6.59-14.04-31.27-28.3-38.6-77.92-6.28-42.5-13.37-85.52 30.28-123.18 23.28-20.08 43.95-46.11 63.58-43.31 4.3.61-41.01 33.33-20.2 53.79C772.52 174.52 796.1 221.98 789.39 253.07z"/><rect x="708.5" y="239.98" class="st9" width="83" height="93.75"/><path class="st7" d="M884.08 342.13c-44.3-19.76-92.58-26.77-92.58-26.77-22.15 23.1-63.42 23.42-83 0 0 0-48.28 7.01-92.58 26.77 27.53 45.21 77.28 75.39 134.07 75.39C806.8 417.52 856.54 387.34 884.08 342.13z"/><linearGradient id="SVGID_00000176040006986236872630000003412856312348861364_" gradientUnits="userSpaceOnUse" x1="615.9245" y1="366.4764" x2="794.1942" y2="366.4764"><stop offset="0" style="stop-color:#1D1D1B"/><stop offset=".3734" style="stop-color:#343432"/><stop offset="1" style="stop-color:#575756"/></linearGradient><path style="opacity:.6;fill:url(#SVGID_00000176040006986236872630000003412856312348861364_)" d="M794.19 411.21c-50.68-7.01-52.05-50.04-52.05-50.04-41.54-9.75-14.07-22.38-33.65-45.8.0.0-48.28 7.01-92.58 26.77 27.53 45.21 77.31 77.17 134.07 75.39C762.57 417.13 779.26 416.11 794.19 411.21z"/><path class="st9" d="M820.52 207.6c-4-9.57-12.18-4.87-12.18-4.87 1.7-37.5-17.4-63.51-58.87-63.51-41.48.0-60.35 31.21-58.87 63.51.0.0-8.18-4.7-12.18 4.87s3.31 32.02 7.83 39.15c4.52 7.13 11.38 4.11 11.38 4.11s1.67 16.42 3.76 21.98c2.09 5.57 25.75 31.17 32.71 35.08 9.12 5.37 22.56 5.37 30.76.0 6.96-3.92 30.62-29.52 32.71-35.08 2.09-5.57 3.73-22.27 3.73-22.27s6.89 3.31 11.41-3.83C817.22 239.61 824.52 217.17 820.52 207.6z"/><g><path class="st11" d="M750.39 306.38c-18.63.0-32.42-12.91-41.17-22.62l1.56-1.41c8.48 9.41 21.82 21.92 39.6 21.92 16.81.0 29.06-11.08 38.83-21.92l1.56 1.41C780.7 294.94 768.02 306.38 750.39 306.38z"/><rect x="691.14" y="230.72" transform="matrix(0.9938 -0.1115 0.1115 0.9938 -22.0468 78.6684)" class="st11" width="2.11" height="11.37"/><rect x="802.19" y="235.2" transform="matrix(0.1042 -0.9946 0.9946 0.1042 488.5832 1014.9439)" class="st11" width="11.04" height="2.11"/><g><path class="st11" d="M677.51 218.09c-.43-1.56-4.03-15.33.95-19.11 1.66-1.08 3.01-.97 3.87-.69 2.54.82 3.81 3.96 3.94 4.31l-1.97.76c-.27-.71-1.28-2.64-2.63-3.07-.61-.2-1.26-.07-2 .41-2.84 2.15-1.6 11.47-.13 16.82L677.51 218.09z"/><path class="st11" d="M822.49 218.09l-2.03-.56c1.46-5.35 2.7-14.67-.2-16.86-.66-.43-1.32-.57-1.94-.36-1.35.43-2.36 2.36-2.63 3.07l-1.97-.76c.14-.35 1.4-3.49 3.94-4.31.85-.28 2.21-.39 3.8.64C826.52 202.76 822.92 216.53 822.49 218.09z"/></g></g><g><path class="st12" d="M779.29 324.81c-9.76.0-22.96-.47-34.6-.88-19.09-.68-30.97-1.69-35.03-10-6.8-13.95-13.44-20.87-19.3-26.98-8.84-9.21-15.23-15.86-16.75-41.09-2.18-36.18-4.66-77.18 32.11-108.9 18.53-15.98 28.68-18.79 43.17-18.79 1.05.0 2.12.02 3.22.04 13.97.35 30.35 9.67 48.68 27.69 32.12 31.58 29.04 66.32 26.79 91.69l-.1 1.11c-2.44 27.65-11.52 43.17-21.13 59.6-4.57 7.82-9.3 15.9-13.42 25.54C792.68 324.12 790.82 324.81 779.29 324.81z"/><path class="st12" d="M748.9 117.67v1c1.01.0 2.06.01 3.21.04 13.84.35 30.11 9.62 48.34 27.55 14.17 13.93 22.72 29.55 26.15 47.74 2.96 15.69 1.65 30.49.49 43.55l-.1 1.12c-2.43 27.54-11.48 43.01-21.07 59.39-4.55 7.79-9.26 15.83-13.38 25.43-.57.28-3 .82-13.24.82-9.75.0-22.94-.47-34.58-.88-18.9-.67-30.66-1.66-34.59-9.72-6.83-14.02-13.51-20.97-19.39-27.1-8.77-9.13-15.1-15.73-16.61-40.77-2.18-36.06-4.64-76.94 31.94-108.49 18.41-15.88 28.48-18.67 42.85-18.67V117.67M748.9 117.67c-14.88.0-25.19 3.12-43.5 18.91-36.77 31.71-34.47 72.94-32.28 109.3 2.54 42.17 19.08 33.33 36.1 68.25 4.23 8.68 16.86 9.62 35.46 10.28 11.64.41 24.88.88 34.62.88 8.04.0 13.69-.32 14.09-1.25 12.7-29.69 30.97-44.25 34.6-85.3 2.29-25.93 5.92-61-26.83-93.21-17.52-17.23-34.4-27.47-49.02-27.83C751.03 117.69 749.95 117.67 748.9 117.67z"/></g><g class="st13"><radialGradient id="SVGID_00000045596340277764146760000005083548656264364176_" cx="750.708" cy="221.489" r="91.6094" gradientUnits="userSpaceOnUse"><stop offset="0" style="stop-color:#575756;stop-opacity:.8"/><stop offset=".2093" style="stop-color:#504F4E;stop-opacity:.8434"/><stop offset=".5286" style="stop-color:#3B3B39;stop-opacity:.9097"/><stop offset=".9161" style="stop-color:#1B1917;stop-opacity:.9901"/><stop offset=".964" style="stop-color:#161412"/></radialGradient><path style="fill:url(#SVGID_00000045596340277764146760000005083548656264364176_)" d="M779.29 324.81c-9.76.0-22.96-.47-34.6-.88-19.09-.68-30.97-1.69-35.03-10-6.8-13.95-13.44-20.87-19.3-26.98-8.84-9.21-15.23-15.86-16.75-41.09-2.18-36.18-4.66-77.18 32.11-108.9 18.53-15.98 28.68-18.79 43.17-18.79 1.05.0 2.12.02 3.22.04 13.97.35 30.35 9.67 48.68 27.69 32.12 31.58 29.04 66.32 26.79 91.69l-.1 1.11c-2.44 27.65-11.52 43.17-21.13 59.6-4.57 7.82-9.3 15.9-13.42 25.54C792.68 324.12 790.82 324.81 779.29 324.81z"/><path class="st12" d="M748.9 117.67v1c1.01.0 2.06.01 3.21.04 13.84.35 30.11 9.62 48.34 27.55 14.17 13.93 22.72 29.55 26.15 47.74 2.96 15.69 1.65 30.49.49 43.55l-.1 1.12c-2.43 27.54-11.48 43.01-21.07 59.39-4.55 7.79-9.26 15.83-13.38 25.43-.57.28-3 .82-13.24.82-9.75.0-22.94-.47-34.58-.88-18.9-.67-30.66-1.66-34.59-9.72-6.83-14.02-13.51-20.97-19.39-27.1-8.77-9.13-15.1-15.73-16.61-40.77-2.18-36.06-4.64-76.94 31.94-108.49 18.41-15.88 28.48-18.67 42.85-18.67V117.67M748.9 117.67c-14.88.0-25.19 3.12-43.5 18.91-36.77 31.71-34.47 72.94-32.28 109.3 2.54 42.17 19.08 33.33 36.1 68.25 4.23 8.68 16.86 9.62 35.46 10.28 11.64.41 24.88.88 34.62.88 8.04.0 13.69-.32 14.09-1.25 12.7-29.69 30.97-44.25 34.6-85.3 2.29-25.93 5.92-61-26.83-93.21-17.52-17.23-34.4-27.47-49.02-27.83C751.03 117.69 749.95 117.67 748.9 117.67z"/></g><path class="st6" d="M857.62 334.12c7.58-8.34-1.2-17.62-30.71-10.43.0-11.53-10.3-14.91-26.82-12.63-10.69 8.82-67.18 15.8-92.55 2.23-17.36-4.75-35.43-.95-34.09 9.22-13.92-2.02-18.57.71-17.13 6.74-23.53.72-29.16 3.67-30.45 12.92-1.54 11.05 4.63 37.28 27.75 51.78s10.79-2.07 13.88-13.81c3.08-11.74 7.71 16.57 18.5 3.45 8.48-10.31 1.73-18.06-6.79-36.65 44.99 19.41 100.02 14.3 138.35 3.99-5.79 10.07-7.97 21.9-8.89 28.44-1.98 14.17 12.88 6.69 16.84-.79s18.28 6.09 18.28 13.57 10.89 1.18 11.89-7.87c.99-9.05 8.47-26.95 23.33-36.4C893.44 338.7 874.18 334.36 857.62 334.12z"/><g><path class="st15" d="M672.11 329.06c-37 0-44.71 2.07-46.25 13.12s4.63 37.28 27.75 51.78 10.79-2.07 13.88-13.81c3.08-11.74 7.71 16.57 18.5 3.45C696.77 370.49 682.9 361.51 672.11 329.06z"/><path class="st16" d="M672.11 329.06c-37 0-44.71 2.07-46.25 13.12s4.63 37.28 27.75 51.78 10.79-2.07 13.88-13.81c3.08-11.74 7.71 16.57 18.5 3.45C696.77 370.49 682.9 361.51 672.11 329.06z"/><path class="st15" d="M856.21 334.11c16.84.0 37.64 4.33 22.78 13.78s-22.34 27.34-23.33 36.4c-.99 9.05-11.89 15.35-11.89 7.87s-14.32-21.04-18.28-13.57c-3.96 7.48-18.82 14.96-16.84.79C810.64 365.21 818.57 326.24 856.21 334.11z"/><path class="st15" d="M853.81 337.32c-32.06 17.63-129.87 41.32-193.98-.74-7.07-10.93-5.08-16.78 13.61-14.06-1.33-10.17 16.73-13.97 34.09-9.22 25.38 13.57 81.87 6.59 92.55-2.23 16.52-2.28 26.82 1.1 26.82 12.63C860.3 315.56 867.17 328.5 853.81 337.32z"/><path class="st16" d="M797.98 356.19c-14.97 4.6-92.77 11.06-138.15-19.61-7.07-10.93-5.08-16.78 13.61-14.06-.74-3.77 2.33-11.43 19.51-11.24l4.76.23c15.5-3.31 20.06 26.82 42.73 26.82 2.19.0 9.91-1.34 11.69.77C762.23 351.09 779.12 354.79 797.98 356.19z"/><g><path class="st17" d="M842.31 354.34l3.54-4.98c5.01-3.47 8.51-7.46 13.55-8.28C855.78 342.6 848.82 347.76 842.31 354.34zM843.17 343.51c6.39-2.45 11.74-5.02 13.25-7.92-2.67 2.54-8.12 5.09-14.12 7.36L843.17 343.51zM842.31 342.95l.86.56c-6.3 2.42-6.1 2.71-16.68 5.28l-3.79.57C827.68 347.88 835.77 345.43 842.31 342.95zM845.84 349.36c-2.68 1.91-12.46 9.73-16.88 23.61 2.54-6.35 7.78-13.01 13.35-18.63L845.84 349.36zm-22.25-24.37v-.22c.62-.24 1.21-.48 1.79-.72C824.81 324.36 824.21 324.68 823.59 324.99zM664.67 374.93c-1.18-1.05-2.3-2.22-3.36-3.48l-6.03-5.26C656.05 367.79 661.31 373.53 664.67 374.93zm158.92-50.16v.22c-15.12 8.75-94.51 27.03-142.92-.03C735.84 347.68 797.35 335.04 823.59 324.77zM822.7 349.36l-1.79.53c.57.05 4.96-1.11 5.58-1.1L822.7 349.36zM662.77 339.8l-1.46-2.16c4.85 3.32 12.03 6.75 16.43 8.54C671.41 344.55 666.64 342.7 662.77 339.8zM661.31 371.45c-9.97-11.84-14.48-31.46-11.12-34.53-3.32.0-3.13 14.27 5.09 29.27L661.31 371.45zm0-33.81 1.46 2.16c-2.31-1.73-3.77-2.19-4.76-4.77C658.88 335.87 660.01 336.75 661.31 337.64z"/></g></g></g><g><path class="st6" d="M751.31 244.84c-1.31 1.1-3.02 1.78-5.12 2.03-5.12.63-7.95-1.24-8.49-5.61-.74-6.04 2.96-13.36 11.11-21.94l2.56-2.61c9.13-9.64 13.29-17.72 12.49-24.22-.97-7.93-5.74-11.38-14.31-10.32-8.73 1.07-15.7 7.13-20.91 18.16-1.03-1.41-1.65-3.01-1.87-4.82-.56-4.53 2.14-9.28 8.1-14.22 5.95-4.95 12.46-7.86 19.51-8.72 6.17-.76 11.19.21 15.06 2.91 3.87 2.7 6.14 6.8 6.81 12.3.97 7.89-3.55 16.76-13.55 26.59l-2.11 2.11c-8.55 8.42-12.41 16.1-11.56 23.02C749.28 241.3 750.03 243.08 751.31 244.84zM737.25 256.28l4.43-1.44c2.99-.96 5.18-1.53 6.57-1.7 3.61-.44 5.65 1.27 6.13 5.13.19 1.51.2 3.34.04 5.49l-.29 4.38-2.83.86c-4.02 1.26-6.43 1.94-7.23 2.04-2.98.37-4.66-1-5.04-4.11-.1-.84-.12-1.67-.05-2.49l.11-1.68c.07-.78.06-1.58-.04-2.42C738.82 258.71 738.23 257.35 737.25 256.28z"/></g><g><path class="st18" d="M751.31 244.84c-1.31 1.1-3.02 1.78-5.12 2.03-5.12.63-7.95-1.24-8.49-5.61-.74-6.04 2.96-13.36 11.11-21.94l2.56-2.61c9.13-9.64 13.29-17.72 12.49-24.22-.97-7.93-5.74-11.38-14.31-10.32-8.73 1.07-15.7 7.13-20.91 18.16-1.03-1.41-1.65-3.01-1.87-4.82-.56-4.53 2.14-9.28 8.1-14.22 5.95-4.95 12.46-7.86 19.51-8.72 6.17-.76 11.19.21 15.06 2.91 3.87 2.7 6.14 6.8 6.81 12.3.97 7.89-3.55 16.76-13.55 26.59l-2.11 2.11c-8.55 8.42-12.41 16.1-11.56 23.02C749.28 241.3 750.03 243.08 751.31 244.84zM737.25 256.28l4.43-1.44c2.99-.96 5.18-1.53 6.57-1.7 3.61-.44 5.65 1.27 6.13 5.13.19 1.51.2 3.34.04 5.49l-.29 4.38-2.83.86c-4.02 1.26-6.43 1.94-7.23 2.04-2.98.37-4.66-1-5.04-4.11-.1-.84-.12-1.67-.05-2.49l.11-1.68c.07-.78.06-1.58-.04-2.42C738.82 258.71 738.23 257.35 737.25 256.28z"/></g></g></g><g id="Modo_de_aislamiento"><g><path class="st19" d="M913.96 109.05c-1.19.19-2.47-.02-3.83-.63-3.32-1.48-4.35-3.64-3.09-6.47 1.75-3.92 6.64-7 14.69-9.23l2.49-.65c9.02-2.51 14.47-5.88 16.35-10.1 2.29-5.15.66-8.96-4.9-11.44-5.67-2.52-12.08-1.4-19.23 3.38-.11-1.22.1-2.42.62-3.59 1.31-2.94 4.66-4.83 10.06-5.65 5.4-.83 10.38-.22 14.96 1.82 4 1.78 6.68 4.19 8.04 7.23s1.24 6.34-.35 9.91c-2.28 5.12-8.23 8.84-17.84 11.15l-2.04.51c-8.23 1.98-13.34 5.22-15.34 9.71C914.02 106.18 913.82 107.53 913.96 109.05zM901.3 110.86l3.2.74c2.16.5 3.69.96 4.59 1.36 2.34 1.04 2.96 2.82 1.84 5.32-.44.98-1.1 2.09-1.97 3.33l-1.77 2.54-2.03-.51c-2.89-.7-4.59-1.16-5.11-1.39-1.93-.86-2.45-2.3-1.55-4.32.24-.54.53-1.05.87-1.52l.68-.97c.33-.44.61-.93.86-1.48C901.37 112.9 901.51 111.87 901.3 110.86z"/></g><g class="st20"><path class="st21" d="M913.96 109.05c-1.19.19-2.47-.02-3.83-.63-3.32-1.48-4.35-3.64-3.09-6.47 1.75-3.92 6.64-7 14.69-9.23l2.49-.65c9.02-2.51 14.47-5.88 16.35-10.1 2.29-5.15.66-8.96-4.9-11.44-5.67-2.52-12.08-1.4-19.23 3.38-.11-1.22.1-2.42.62-3.59 1.31-2.94 4.66-4.83 10.06-5.65 5.4-.83 10.38-.22 14.96 1.82 4 1.78 6.68 4.19 8.04 7.23s1.24 6.34-.35 9.91c-2.28 5.12-8.23 8.84-17.84 11.15l-2.04.51c-8.23 1.98-13.34 5.22-15.34 9.71C914.02 106.18 913.82 107.53 913.96 109.05zM901.3 110.86l3.2.74c2.16.5 3.69.96 4.59 1.36 2.34 1.04 2.96 2.82 1.84 5.32-.44.98-1.1 2.09-1.97 3.33l-1.77 2.54-2.03-.51c-2.89-.7-4.59-1.16-5.11-1.39-1.93-.86-2.45-2.3-1.55-4.32.24-.54.53-1.05.87-1.52l.68-.97c.33-.44.61-.93.86-1.48C901.37 112.9 901.51 111.87 901.3 110.86z"/></g><g><g><g><path class="st22" d="M644.84 76.92c-1.16 22.02-19.95 38.94-41.97 37.79-22.02-1.15-38.94-19.94-37.78-41.96 1.16-22.02 19.95-38.94 41.97-37.79S646 54.9 644.84 76.92z"/><ellipse transform="matrix(0.774 -0.6332 0.6332 0.774 89.3313 399.9523)" class="st23" cx="604.96" cy="74.83" rx="34.75" ry="34.74"/><path class="st24" d="M606.78 40.13c-19.16-1-35.51 13.72-36.52 32.88-1.01 19.16 13.71 35.51 32.88 36.51 19.16 1 35.51-13.72 36.52-32.88C640.67 57.48 625.95 41.14 606.78 40.13zM603.21 108.27c-18.47-.97-32.66-16.72-31.69-35.19.97-18.47 16.73-32.66 35.2-31.69s32.66 16.72 31.69 35.19C637.44 95.05 621.68 109.24 603.21 108.27z"/></g></g><g><g class="st20"><path class="st21" d="M644.84 76.92c-1.16 22.02-19.95 38.94-41.97 37.79-22.02-1.15-38.94-19.94-37.78-41.96 1.16-22.02 19.95-38.94 41.97-37.79S646 54.9 644.84 76.92z"/><ellipse transform="matrix(0.774 -0.6332 0.6332 0.774 89.3313 399.9523)" class="st12" cx="604.96" cy="74.83" rx="34.75" ry="34.74"/><path class="st25" d="M606.78 40.13c-19.16-1-35.51 13.72-36.52 32.88-1.01 19.16 13.71 35.51 32.88 36.51 19.16 1 35.51-13.72 36.52-32.88C640.67 57.48 625.95 41.14 606.78 40.13zM603.21 108.27c-18.47-.97-32.66-16.72-31.69-35.19.97-18.47 16.73-32.66 35.2-31.69s32.66 16.72 31.69 35.19C637.44 95.05 621.68 109.24 603.21 108.27z"/></g></g><path id="symbol_00000145759052705712056470000002610467591724530087_" class="st26" d="M619.12 60.71c-2.15-4.88-7.1-5.93-13.16-4.92l-1.95-7.55-4.59 1.19 1.91 7.53c-1.21.3-2.45.57-3.68.91l-1.91-7.48-4.59 1.19 1.95 7.55c-.99.28-9.27 2.4-9.27 2.4l1.26 4.92s3.37-.95 3.34-.87c1.87-.49 2.75.45 3.17 1.33l5.35 20.69c.07.6-.04 1.62-1.33 1.97.08.04-3.34.86-3.34.86l.5 5.73s8.2-2.1 9.28-2.37l1.97 7.64 4.59-1.19-1.97-7.69c1.26-.29 2.49-.6 3.69-.91l1.96 7.65 4.59-1.19-1.97-7.63c7.07-1.72 12.06-6.18 11.04-13-.65-4.11-5.15-7.48-8.88-7.87C619.38 67.56 620.55 64.59 619.12 60.71zM616.91 78.71c.91 6.76-8.47 7.58-11.57 8.4L602.64 77C605.75 76.19 615.37 72.76 616.91 78.71zM611.26 64.95c.97 6.01-7.06 6.7-9.65 7.36l-2.46-9.17C601.75 62.5 609.29 59.39 611.26 64.95z"/></g><g><g><g><path class="st22" d="M985.17 391.38c-1.61 30.7-27.8 54.28-58.5 52.67-30.7-1.61-54.28-27.79-52.66-58.49 1.61-30.7 27.8-54.28 58.5-52.67s54.28 27.8 52.66 58.49z"/><ellipse transform="matrix(0.774 -0.6332 0.6332 0.774 -35.9844 676.1291)" class="st23" cx="929.21" cy="388.48" rx="48.43" ry="48.43"/><path class="st24" d="M931.74 340.11c-26.71-1.4-49.5 19.12-50.9 45.83s19.12 49.5 45.83 50.9 49.5-19.12 50.9-45.83-19.12-49.5-45.83-50.9zM926.76 435.09c-25.75-1.35-45.52-23.31-44.17-49.05 1.35-25.75 23.32-45.52 49.06-44.18 25.75 1.35 45.52 23.31 44.17 49.06C974.47 416.66 952.5 436.44 926.76 435.09z"/></g></g><path id="symbol_00000064355146694084015470000007584956895629483454_" class="st26" d="M948.94 368.79c-3-6.81-9.9-8.26-18.35-6.85l-2.71-10.52-6.4 1.65 2.67 10.49c-1.68.42-3.41.79-5.13 1.27l-2.67-10.43-6.4 1.65 2.71 10.52c-1.38.39-12.92 3.35-12.92 3.35l1.76 6.85s4.7-1.32 4.66-1.21c2.61-.68 3.84.62 4.41 1.85l7.46 28.84c.09.83-.06 2.26-1.85 2.74.11.06-4.66 1.2-4.66 1.2l.7 7.99s11.43-2.93 12.93-3.31l2.74 10.64 6.4-1.65-2.74-10.72c1.76-.41 3.47-.83 5.14-1.27l2.73 10.66 6.4-1.65-2.74-10.63c9.86-2.4 16.82-8.61 15.39-18.12-.91-5.73-7.17-10.43-12.37-10.96C949.3 378.35 950.93 374.21 948.94 368.79zM945.86 393.89c1.27 9.42-11.81 10.57-16.13 11.71l-3.76-14.09C930.3 390.37 943.71 385.59 945.86 393.89zm-7.88-19.18c1.35 8.37-9.84 9.34-13.45 10.27l-3.43-12.78C924.72 371.3 935.23 366.96 937.98 374.71z"/></g><path class="st27" d="M913.28 335.25s-37.52 12.46-39.27 50.32c-1.42 30.71 21.93 58.44 52.66 58.49 36.75.06 50.96-27.89 50.96-27.89-51.66 19.51-71.97-52.24-64.35-80.92z"/><g><path class="st19" d="M550.63 353.34c1.32-1.27 3.09-2.13 5.32-2.56 5.43-1.06 8.59.72 9.5 5.35 1.25 6.4-2.15 14.5-10.21 24.3l-2.53 2.99c-9.02 11-12.86 19.94-11.51 26.84 1.64 8.41 7 11.72 16.07 9.95 9.25-1.81 16.24-8.81 20.97-21 1.2 1.43 1.99 3.1 2.36 5.01.94 4.8-1.59 10.08-7.57 15.82-5.99 5.74-12.72 9.34-20.19 10.8-6.54 1.28-11.98.62-16.32-1.97-4.34-2.59-7.08-6.8-8.22-12.63-1.64-8.36 2.52-18.18 12.46-29.45l2.09-2.42c8.5-9.65 12.04-18.14 10.6-25.48C553.07 356.97 552.13 355.12 550.63 353.34zm14.16-13.3-4.62 1.87c-3.12 1.26-5.42 2.03-6.89 2.32-3.82.75-6.14-.92-6.94-5.02-.31-1.6-.46-3.56-.45-5.87l-.02-4.71 2.96-1.13c4.2-1.65 6.73-2.56 7.57-2.73 3.16-.62 5.06.72 5.7 4.01.17.89.25 1.77.24 2.65l.01 1.8c-.02.84.05 1.7.23 2.59C562.92 337.57 563.66 338.97 564.79 340.04z"/></g><g><path class="st27" d="M550.63 353.34c1.32-1.27.19-.29 2.41-.72.0.0 4.05.88 5.96 5.19 1.62 3.66-.48 10.26-6.21 20.89l-7.85 9.19c-9.02 11-12.64 24.51-9 32.62 3.51 7.81 15.25 6.63 24.32 4.85 9.25-1.81 24.45-14.81 17.97-26.16 1.2 1.43 1.99 3.1 2.36 5.01.94 4.8-1.59 10.08-7.57 15.82-5.99 5.74-12.72 9.34-20.19 10.8-6.54 1.28-11.98.62-16.32-1.97-4.34-2.59-7.08-6.8-8.22-12.63-1.64-8.36 2.52-18.18 12.46-29.45l2.09-2.42c8.5-9.65 12.04-18.14 10.6-25.48C553.07 356.97 552.13 355.12 550.63 353.34zM546.37 328.95c.01-.2 2.17-.77 2.17-.77 2.75 3.01 8.09 11 15.38 11.65.14.01-.02-.06.0.0.0.0-.9.34-4.6 1.88-2.85 1.2-8.04 3.41-10.44 1.4C548.89 343.12 545.54 342.1 546.37 328.95z"/></g></g></svg>