<svg id="Capa_1" xmlns="http://www.w3.org/2000/svg" xmlns:xlink="http://www.w3.org/1999/xlink" viewBox="0 0 100 100.35" style="enable-background:new 0 0 100 100.35"><style>.st0{fill:#3c3c3b;stroke:#000;stroke-width:3;stroke-miterlimit:10}.st1{fill:#fcc23b}.st2{fill:#454545}.st3{stroke:#000;stroke-width:3;stroke-miterlimit:10}.st4{fill:#4e4d4d}.st5{fill:#4e4d4d;stroke:#000;stroke-miterlimit:10}.st6{fill:#3ab28a}.st7{stroke:#000;stroke-width:3;stroke-linecap:round;stroke-linejoin:round;stroke-miterlimit:10}.st8{fill:#fff}.st9{fill:#fcc23b;stroke:#000;stroke-width:3;stroke-miterlimit:10}.st10{opacity:.5;fill:#fcc23b}</style><g><path class="st0" d="M89.93 42.58H90v-3.33c0-.12-.01-.24-.04-.35-.01-.03-.02-.07-.02-.1-.02-.08-.04-.16-.07-.24-.01-.03-.02-.06-.04-.09-.04-.1-.09-.19-.15-.28.0-.01-.01-.01-.01-.02-.06-.09-.13-.18-.21-.26-.02-.02-.05-.04-.07-.07-.06-.06-.12-.11-.19-.16-.03-.02-.06-.04-.08-.06-.08-.05-.17-.1-.26-.14-.01.0-.02-.01-.03-.02h-.01.0v-6.53l5.54-3.13-5.56-3.19c-.02-.17-.05-.34-.11-.58-.06-.31-.13-.47-.13-.47-.01-.02-.01-.03-.02-.05-.01-.04-.03-.07-.04-.11-.05-.16-.11-.32-.18-.47-.01-.01-.01-.03-.02-.04-.07-.16-.15-.31-.23-.46-.02-.03-.04-.07-.06-.1-.08-.14-.17-.27-.25-.39-.02-.03-.04-.06-.06-.09-.11-.15-.22-.29-.34-.41-.02-.03-.05-.05-.07-.08-.21-.23-.41-.41-.57-.54v.01c-1.03-.85-2.32-1.32-3.67-1.32h-3.16L49.01 1.82 6.12 27.94l16.41 9.25c-1.32 2.34-2.52 4.96-3.54 7.9C15.83 50.39 14 56.58 14 63.2c0 19.55 15.85 35.4 35.4 35.4s35.4-15.85 35.4-35.4c0-1.52-.11-3.02-.29-4.49 1.05.22 2.28.33 3.52.33s0 0 0 0c.47.0.95-.02 1.41-.05.22-.02.44-.03.65-.06.39-.04.76-.09 1.12-.16.13-.02.26-.05.38-.07.22-.05.42-.1.62-.15.56-.16 1.04-.35 1.41-.58.11-.07.21-.15.3-.23.07-.07.14-.14.19-.21.09-.12.17-.24.2-.37.02-.08.04-.17.04-.26C94.35 50.19 92.49 44.5 89.93 42.58zM83.04 20.99c1.05.0 2.07.39 2.86 1.09.47.42.83.93 1.08 1.5l-4.52-2.59H83.04zM82.35 50.27c-.71-1.8-1.56-3.54-2.54-5.19-.89-2.69-1.94-5.11-3.11-7.3l10.65-6.03v5.71c-.71.28-1.22.98-1.22 1.79v3.31C84.48 43.8 83.11 46.62 82.35 50.27z"/><g><g><path class="st1" d="M88.07 26.02c.41.0.74-.33.74-.74.0-1.64-.7-3.21-1.93-4.3-1.06-.94-2.42-1.46-3.84-1.46h-9.67c-.41.0-.74.33-.74.74s.33.74.74.74h9.67c1.05.0 2.07.39 2.86 1.09.91.81 1.43 1.98 1.43 3.2C87.33 25.69 87.66 26.02 88.07 26.02z"/></g><polygon class="st2" points="49.01,1.82 94.35,27.8 50.2,52.78 6.12,27.94"/><polygon class="st3" points="49.01,1.82 94.35,27.8 50.2,52.78 6.12,27.94"/><polygon class="st4" points="49.01,1.82 94.35,27.8 50.2,52.78 6.12,27.94"/><polyline class="st2" points="50.2,52.78 6.12,27.94 49.01,1.82"/><path class="st5" d="M94.35 27.8"/><path class="st2" d="M49.01 1.93l15.96 9.15c-28.08-.8-14.33 32.91-14.46 32.62L26.07 23.93l22.94-22z"/><g><circle class="st6" cx="49.4" cy="63.2" r="35.4"/><path id="symbol_00000150069442166921085520000002511139894064394665_" class="st7" d="M60.44 51.31c-1.78-4.03-5.87-4.9-10.87-4.06l-1.61-6.24L44.17 42l1.58 6.22c-1 .25-2.02.47-3.04.75l-1.58-6.18-3.79.98L38.95 50c-.82.23-7.65 1.99-7.65 1.99l1.04 4.06s2.79-.78 2.76-.72c1.55-.4 2.27.37 2.61 1.1l4.42 17.09c.05.49-.04 1.34-1.1 1.63.06.04-2.76.71-2.76.71l.41 4.73s6.77-1.73 7.66-1.96l1.63 6.31 3.79-.98-1.63-6.35c1.04-.24 2.06-.49 3.05-.75l1.62 6.32 3.79-.98-1.63-6.3c5.84-1.42 9.96-5.1 9.12-10.74-.54-3.4-4.25-6.18-7.33-6.5C60.66 56.97 61.62 54.52 60.44 51.31zM58.62 66.18c.75 5.58-7 6.26-9.56 6.94l-2.23-8.35C49.4 64.1 57.34 61.27 58.62 66.18zM53.95 54.82c.8 4.96-5.83 5.53-7.97 6.08l-2.03-7.57C46.1 52.8 52.32 50.23 53.95 54.82z"/><path id="symbol_00000170994359291327834020000014772187778460630404_" class="st8" d="M60.44 51.31c-1.78-4.03-5.87-4.9-10.87-4.06l-1.61-6.24L44.17 42l1.58 6.22c-1 .25-2.02.47-3.04.75l-1.58-6.18-3.79.98L38.95 50c-.82.23-7.65 1.99-7.65 1.99l1.04 4.06s2.79-.78 2.76-.72c1.55-.4 2.27.37 2.61 1.1l4.42 17.09c.05.49-.04 1.34-1.1 1.63.06.04-2.76.71-2.76.71l.41 4.73s6.77-1.73 7.66-1.96l1.63 6.31 3.79-.98-1.63-6.35c1.04-.24 2.06-.49 3.05-.75l1.62 6.32 3.79-.98-1.63-6.3c5.84-1.42 9.96-5.1 9.12-10.74-.54-3.4-4.25-6.18-7.33-6.5C60.66 56.97 61.62 54.52 60.44 51.31zM58.62 66.18c.75 5.58-7 6.26-9.56 6.94l-2.23-8.35C49.4 64.1 57.34 61.27 58.62 66.18zM53.95 54.82c.8 4.96-5.83 5.53-7.97 6.08l-2.03-7.57C46.1 52.8 52.32 50.23 53.95 54.82z"/></g><g><path class="st3" d="M79.81 45.09H18.99c8.8-25.26 30.41-27.2 30.41-27.2C49.4 17.88 71.61 20.29 79.81 45.09z"/><path class="st3" d="M49.4 17.88s-21.61 1.94-30.41 27.2H49.4"/></g><g><path class="st4" d="M79.81 45.09H18.99c8.8-25.26 30.41-27.2 30.41-27.2C49.4 17.88 71.61 20.29 79.81 45.09z"/><path class="st2" d="M49.4 17.88s-21.61 1.94-30.41 27.2H49.4"/></g><g><g><path class="st3" d="M85.93 22.11s1.38.86 1.42 3.2V38.4c0 .41.33.74.73.74s.73-.33.73-.74V25.32c-.03-1.19-.26-1.75-.26-1.75"/></g><g><path class="st1" d="M85.93 22.11c.22.18.47.41.69.72.7.97.74 2.03.73 2.48V38.4c0 .41.33.74.73.74s.73-.33.73-.74V25.32c0-.69.0-.84-.26-1.75-.39-1.34-1.31-2.33-1.84-2.74"/></g></g><g><path class="st9" d="M86.14 42.58H90v-3.33c0-1.07-.86-1.93-1.93-1.93-1.07.0-1.93.86-1.93 1.93v3.33z"/><path class="st1" d="M86.14 42.58H90v-3.33c0-1.07-.86-1.93-1.93-1.93-1.07.0-1.93.86-1.93 1.93v3.33z"/><path class="st10" d="M88.03 42.58H90v-3.33c0-.8-.49-1.49-1.19-1.78.0.0-.74-.18-.74 2.64L88.03 42.58z"/></g><path class="st3" d="M94.35 56.91c0-8.3-2.83-15.02-6.32-15.02s-6.32 6.73-6.32 15.02C81.7 59.75 94.35 59.75 94.35 56.91z"/><path class="st1" d="M94.35 56.91c0-8.3-2.83-15.02-6.32-15.02s-6.32 6.73-6.32 15.02C81.7 59.75 94.35 59.75 94.35 56.91z"/><path class="st10" d="M88.03 59.04c3.16.0 6.32-.71 6.32-2.13.0-8.3-2.83-15.02-6.32-15.02"/></g></g></svg>