<?xml version="1.0" encoding="utf-8"?>
<!-- Generator: Adobe Illustrator 27.3.1, SVG Export Plug-In . SVG Version: 6.00 Build 0)  -->
<svg version="1.1" id="Capa_1" xmlns="http://www.w3.org/2000/svg" xmlns:xlink="http://www.w3.org/1999/xlink" x="0px" y="0px"
	 viewBox="0 0 100 100.35" style="enable-background:new 0 0 100 100.35;" xml:space="preserve">
<style type="text/css">
	.st0{fill:#3C3C3B;stroke:#000000;stroke-width:3;stroke-miterlimit:10;}
	.st1{fill:#FCC23B;}
	.st2{fill:#454545;}
	.st3{stroke:#000000;stroke-width:3;stroke-miterlimit:10;}
	.st4{fill:#4E4D4D;}
	.st5{fill:#4E4D4D;stroke:#000000;stroke-miterlimit:10;}
	.st6{fill:#3AB28A;}
	.st7{stroke:#000000;stroke-width:3;stroke-linecap:round;stroke-linejoin:round;stroke-miterlimit:10;}
	.st8{fill:#FFFFFF;}
	.st9{fill:#FCC23B;stroke:#000000;stroke-width:3;stroke-miterlimit:10;}
	.st10{opacity:0.5;fill:#FCC23B;}
</style>
<g>
	<path class="st0" d="M89.93,42.58H90v-3.33c0-0.12-0.01-0.24-0.04-0.35c-0.01-0.03-0.02-0.07-0.02-0.1
		c-0.02-0.08-0.04-0.16-0.07-0.24c-0.01-0.03-0.02-0.06-0.04-0.09c-0.04-0.1-0.09-0.19-0.15-0.28c0-0.01-0.01-0.01-0.01-0.02
		c-0.06-0.09-0.13-0.18-0.21-0.26c-0.02-0.02-0.05-0.04-0.07-0.07c-0.06-0.06-0.12-0.11-0.19-0.16c-0.03-0.02-0.06-0.04-0.08-0.06
		c-0.08-0.05-0.17-0.1-0.26-0.14c-0.01,0-0.02-0.01-0.03-0.02c0,0,0,0-0.01,0h0v-6.53l5.54-3.13l-5.56-3.19
		c-0.02-0.17-0.05-0.34-0.11-0.58c-0.06-0.31-0.13-0.47-0.13-0.47c-0.01-0.02-0.01-0.03-0.02-0.05c-0.01-0.04-0.03-0.07-0.04-0.11
		c-0.05-0.16-0.11-0.32-0.18-0.47c-0.01-0.01-0.01-0.03-0.02-0.04c-0.07-0.16-0.15-0.31-0.23-0.46c-0.02-0.03-0.04-0.07-0.06-0.1
		c-0.08-0.14-0.17-0.27-0.25-0.39c-0.02-0.03-0.04-0.06-0.06-0.09c-0.11-0.15-0.22-0.29-0.34-0.41c-0.02-0.03-0.05-0.05-0.07-0.08
		c-0.21-0.23-0.41-0.41-0.57-0.54l0,0.01c-1.03-0.85-2.32-1.32-3.67-1.32h-3.16L49.01,1.82L6.12,27.94l16.41,9.25
		c-1.32,2.34-2.52,4.96-3.54,7.9l0,0l0,0C15.83,50.39,14,56.58,14,63.2c0,19.55,15.85,35.4,35.4,35.4s35.4-15.85,35.4-35.4
		c0-1.52-0.11-3.02-0.29-4.49c1.05,0.22,2.28,0.33,3.52,0.33l0,0c0,0,0,0,0,0c0.47,0,0.95-0.02,1.41-0.05
		c0.22-0.02,0.44-0.03,0.65-0.06c0.39-0.04,0.76-0.09,1.12-0.16c0.13-0.02,0.26-0.05,0.38-0.07c0.22-0.05,0.42-0.1,0.62-0.15
		c0.56-0.16,1.04-0.35,1.41-0.58c0.11-0.07,0.21-0.15,0.3-0.23c0.07-0.07,0.14-0.14,0.19-0.21c0.09-0.12,0.17-0.24,0.2-0.37
		c0.02-0.08,0.04-0.17,0.04-0.26C94.35,50.19,92.49,44.5,89.93,42.58z M83.04,20.99c1.05,0,2.07,0.39,2.86,1.09
		c0.47,0.42,0.83,0.93,1.08,1.5l-4.52-2.59H83.04z M82.35,50.27c-0.71-1.8-1.56-3.54-2.54-5.19l0,0l0,0
		c-0.89-2.69-1.94-5.11-3.11-7.3l10.65-6.03v5.71c-0.71,0.28-1.22,0.98-1.22,1.79v3.31C84.48,43.8,83.11,46.62,82.35,50.27z"/>
	<g>
		<g>
			<path class="st1" d="M88.07,26.02c0.41,0,0.74-0.33,0.74-0.74c0-1.64-0.7-3.21-1.93-4.3c-1.06-0.94-2.42-1.46-3.84-1.46h-9.67
				c-0.41,0-0.74,0.33-0.74,0.74c0,0.41,0.33,0.74,0.74,0.74h9.67c1.05,0,2.07,0.39,2.86,1.09c0.91,0.81,1.43,1.98,1.43,3.2
				C87.33,25.69,87.66,26.02,88.07,26.02z"/>
		</g>
		<polygon class="st2" points="49.01,1.82 94.35,27.8 50.2,52.78 6.12,27.94 		"/>
		<polygon class="st3" points="49.01,1.82 94.35,27.8 50.2,52.78 6.12,27.94 		"/>
		<polygon class="st4" points="49.01,1.82 94.35,27.8 50.2,52.78 6.12,27.94 		"/>
		<polyline class="st2" points="50.2,52.78 6.12,27.94 49.01,1.82 		"/>
		<path class="st5" d="M94.35,27.8"/>
		<path class="st2" d="M49.01,1.93l15.96,9.15c-28.08-0.8-14.33,32.91-14.46,32.62L26.07,23.93L49.01,1.93z"/>
		<g>
			<circle class="st6" cx="49.4" cy="63.2" r="35.4"/>
			<path id="symbol_00000150069442166921085520000002511139894064394665_" class="st7" d="M60.44,51.31
				c-1.78-4.03-5.87-4.9-10.87-4.06l-1.61-6.24L44.17,42l1.58,6.22c-1,0.25-2.02,0.47-3.04,0.75l-1.58-6.18l-3.79,0.98L38.95,50
				c-0.82,0.23-7.65,1.99-7.65,1.99l1.04,4.06c0,0,2.79-0.78,2.76-0.72c1.55-0.4,2.27,0.37,2.61,1.1l4.42,17.09
				c0.05,0.49-0.04,1.34-1.1,1.63c0.06,0.04-2.76,0.71-2.76,0.71l0.41,4.73c0,0,6.77-1.73,7.66-1.96l1.63,6.31l3.79-0.98l-1.63-6.35
				c1.04-0.24,2.06-0.49,3.05-0.75l1.62,6.32l3.79-0.98l-1.63-6.3c5.84-1.42,9.96-5.1,9.12-10.74c-0.54-3.4-4.25-6.18-7.33-6.5
				C60.66,56.97,61.62,54.52,60.44,51.31L60.44,51.31z M58.62,66.18c0.75,5.58-7,6.26-9.56,6.94l-2.23-8.35
				C49.4,64.1,57.34,61.27,58.62,66.18z M53.95,54.82c0.8,4.96-5.83,5.53-7.97,6.08l-2.03-7.57C46.1,52.8,52.32,50.23,53.95,54.82z"
				/>
			<path id="symbol_00000170994359291327834020000014772187778460630404_" class="st8" d="M60.44,51.31
				c-1.78-4.03-5.87-4.9-10.87-4.06l-1.61-6.24L44.17,42l1.58,6.22c-1,0.25-2.02,0.47-3.04,0.75l-1.58-6.18l-3.79,0.98L38.95,50
				c-0.82,0.23-7.65,1.99-7.65,1.99l1.04,4.06c0,0,2.79-0.78,2.76-0.72c1.55-0.4,2.27,0.37,2.61,1.1l4.42,17.09
				c0.05,0.49-0.04,1.34-1.1,1.63c0.06,0.04-2.76,0.71-2.76,0.71l0.41,4.73c0,0,6.77-1.73,7.66-1.96l1.63,6.31l3.79-0.98l-1.63-6.35
				c1.04-0.24,2.06-0.49,3.05-0.75l1.62,6.32l3.79-0.98l-1.63-6.3c5.84-1.42,9.96-5.1,9.12-10.74c-0.54-3.4-4.25-6.18-7.33-6.5
				C60.66,56.97,61.62,54.52,60.44,51.31L60.44,51.31z M58.62,66.18c0.75,5.58-7,6.26-9.56,6.94l-2.23-8.35
				C49.4,64.1,57.34,61.27,58.62,66.18z M53.95,54.82c0.8,4.96-5.83,5.53-7.97,6.08l-2.03-7.57C46.1,52.8,52.32,50.23,53.95,54.82z"
				/>
		</g>
		<g>
			<path class="st3" d="M79.81,45.09H18.99c8.8-25.26,30.41-27.2,30.41-27.2l0,0C49.4,17.88,71.61,20.29,79.81,45.09z"/>
			<path class="st3" d="M49.4,17.88L49.4,17.88c0,0-21.61,1.94-30.41,27.2l30.41,0"/>
		</g>
		<g>
			<path class="st4" d="M79.81,45.09H18.99c8.8-25.26,30.41-27.2,30.41-27.2l0,0C49.4,17.88,71.61,20.29,79.81,45.09z"/>
			<path class="st2" d="M49.4,17.88L49.4,17.88c0,0-21.61,1.94-30.41,27.2l30.41,0"/>
		</g>
		<g>
			<g>
				<path class="st3" d="M85.93,22.11c0,0,1.38,0.86,1.42,3.2V38.4c0,0.41,0.33,0.74,0.73,0.74c0.4,0,0.73-0.33,0.73-0.74V25.32
					c-0.03-1.19-0.26-1.75-0.26-1.75"/>
			</g>
			<g>
				<path class="st1" d="M85.93,22.11c0.22,0.18,0.47,0.41,0.69,0.72c0.7,0.97,0.74,2.03,0.73,2.48V38.4c0,0.41,0.33,0.74,0.73,0.74
					s0.73-0.33,0.73-0.74l0-13.08c0-0.69,0-0.84-0.26-1.75c-0.39-1.34-1.31-2.33-1.84-2.74"/>
			</g>
		</g>
		<g>
			<path class="st9" d="M86.14,42.58H90v-3.33c0-1.07-0.86-1.93-1.93-1.93l0,0c-1.07,0-1.93,0.86-1.93,1.93V42.58z"/>
			<path class="st1" d="M86.14,42.58H90v-3.33c0-1.07-0.86-1.93-1.93-1.93l0,0c-1.07,0-1.93,0.86-1.93,1.93V42.58z"/>
			<path class="st10" d="M88.03,42.58H90v-3.33c0-0.8-0.49-1.49-1.19-1.78c0,0-0.74-0.18-0.74,2.64L88.03,42.58L88.03,42.58z"/>
		</g>
		<path class="st3" d="M94.35,56.91c0-8.3-2.83-15.02-6.32-15.02c-3.49,0-6.32,6.73-6.32,15.02C81.7,59.75,94.35,59.75,94.35,56.91z
			"/>
		<path class="st1" d="M94.35,56.91c0-8.3-2.83-15.02-6.32-15.02c-3.49,0-6.32,6.73-6.32,15.02C81.7,59.75,94.35,59.75,94.35,56.91z
			"/>
		<path class="st10" d="M88.03,59.04c3.16,0,6.32-0.71,6.32-2.13c0-8.3-2.83-15.02-6.32-15.02"/>
	</g>
</g>
</svg>
