<?xml version="1.0" encoding="utf-8"?>
<!-- Generator: Adobe Illustrator 27.3.1, SVG Export Plug-In . SVG Version: 6.00 Build 0)  -->
<svg version="1.1" id="Capa_1" xmlns="http://www.w3.org/2000/svg" xmlns:xlink="http://www.w3.org/1999/xlink" x="0px" y="0px"
	 viewBox="0 0 977.2 415.71" style="enable-background:new 0 0 977.2 415.71;" xml:space="preserve">
<style type="text/css">
	.st0{stroke:#000000;stroke-width:3;stroke-miterlimit:10;}
	.st1{fill:#3C3C3B;stroke:#000000;stroke-width:2.5;stroke-miterlimit:10;}
	.st2{fill:#FCBE0C;stroke:#000000;stroke-width:0.3;stroke-miterlimit:10;}
	.st3{opacity:0.1;}
	.st4{fill:#3C3C3B;stroke:#000000;stroke-width:3;stroke-miterlimit:10;}
	.st5{fill:#FCC23B;}
	.st6{fill:#454545;}
	.st7{fill:#4E4D4D;}
	.st8{fill:#4E4D4D;stroke:#000000;stroke-miterlimit:10;}
	.st9{fill:#3AB28A;}
	.st10{stroke:#000000;stroke-width:3;stroke-linecap:round;stroke-linejoin:round;stroke-miterlimit:10;}
	.st11{fill:#FFFFFF;}
	.st12{opacity:0.05;fill:#010202;}
	.st13{fill:#FCC23B;stroke:#000000;stroke-width:3;stroke-miterlimit:10;}
	.st14{opacity:0.1;fill:#FFFFFF;}
	.st15{fill:#D43732;stroke:#000000;stroke-width:1.2;stroke-miterlimit:10;}
	.st16{fill:#706F6F;stroke:#000000;stroke-width:1.2;stroke-miterlimit:10;}
	.st17{fill:#9D9D9C;stroke:#000000;stroke-width:1.2;stroke-miterlimit:10;}
	.st18{fill:#B2B2B2;stroke:#000000;stroke-width:1.2;stroke-miterlimit:10;}
	.st19{fill:#C6C6C6;stroke:#000000;stroke-width:1.2;stroke-miterlimit:10;}
	.st20{opacity:0.1;stroke:#000000;stroke-width:1.2;stroke-miterlimit:10;}
	.st21{opacity:0.1;fill:#F6F6F6;}
</style>
<g>
	<path class="st0" d="M493.04,150.25c12.56,0,22.02-2.2,28.38-6.6c6.36-4.4,9.54-10.96,9.54-19.68c0-4.32-0.96-8.2-2.88-11.64
		c-1.92-3.44-5.52-6.16-10.8-8.16c6.4-3.84,9.6-9.08,9.6-15.72c0-4.4-0.9-8.1-2.7-11.1s-4.3-5.42-7.5-7.26
		c-3.2-1.84-7.02-3.14-11.46-3.9c-4.44-0.76-9.3-1.14-14.58-1.14c-3.92,0-8.16,0.18-12.72,0.54c-4.56,0.36-8.76,0.9-12.6,1.62v80.64
		c4.88,1.04,9.58,1.7,14.1,1.98C483.94,150.11,488.48,150.25,493.04,150.25z M483.56,80.53c1.44-0.16,3.08-0.26,4.92-0.3
		c1.84-0.04,3.56-0.06,5.16-0.06c4.96,0,8.72,0.68,11.28,2.04c2.56,1.36,3.84,3.72,3.84,7.08c0,3.28-1.24,5.66-3.72,7.14
		c-2.48,1.48-6.6,2.22-12.36,2.22h-9.12V80.53z M483.56,112.93h11.76c5.36,0,9.48,0.82,12.36,2.46c2.88,1.64,4.32,4.38,4.32,8.22
		c0,4.32-1.72,7.28-5.16,8.88c-3.44,1.6-7.96,2.4-13.56,2.4c-1.92,0-3.68-0.04-5.28-0.12c-1.6-0.08-3.08-0.2-4.44-0.36V112.93z"/>
	<path class="st0" d="M546.14,75.55c2.12,1.88,4.62,2.82,7.5,2.82s5.38-0.94,7.5-2.82c2.12-1.88,3.18-4.46,3.18-7.74
		c0-3.28-1.06-5.86-3.18-7.74c-2.12-1.88-4.62-2.82-7.5-2.82s-5.38,0.94-7.5,2.82c-2.12,1.88-3.18,4.46-3.18,7.74
		C542.96,71.09,544.02,73.67,546.14,75.55z"/>
	<rect x="544.76" y="86.05" class="st0" width="17.88" height="63.12"/>
	<path class="st0" d="M584,143.11c1.92,2.36,4.48,4.2,7.68,5.52c3.2,1.32,7.24,1.98,12.12,1.98c3.84,0,7.08-0.32,9.72-0.96
		c2.64-0.64,5.04-1.4,7.2-2.28l-2.52-13.92c-1.68,0.64-3.54,1.14-5.58,1.5c-2.04,0.36-4.02,0.54-5.94,0.54c-4,0-6.66-1.12-7.98-3.36
		c-1.32-2.24-1.98-5.24-1.98-9v-22.2h21.48V86.05h-21.48v-18.6l-17.88,2.88v53.04c0,4.08,0.38,7.8,1.14,11.16
		C580.74,137.89,582.08,140.75,584,143.11z"/>
	<path class="st0" d="M635.06,141.25c2.68,2.96,6.1,5.3,10.26,7.02c4.16,1.72,9.12,2.58,14.88,2.58c3.76,0,7.2-0.32,10.32-0.96
		c3.12-0.64,5.72-1.4,7.8-2.28l-2.52-14.64c-2.08,0.88-4.36,1.52-6.84,1.92c-2.48,0.4-4.8,0.6-6.96,0.6
		c-6.08,0-10.34-1.56-12.78-4.68c-2.44-3.12-3.66-7.52-3.66-13.2c0-5.36,1.3-9.68,3.9-12.96c2.6-3.28,6.54-4.92,11.82-4.92
		c2.48,0,4.72,0.24,6.72,0.72c2,0.48,3.84,1.04,5.52,1.68l3.72-14.28c-2.64-1.12-5.36-1.98-8.16-2.58c-2.8-0.6-5.88-0.9-9.24-0.9
		c-5.12,0-9.68,0.88-13.68,2.64c-4,1.76-7.4,4.14-10.2,7.14c-2.8,3-4.94,6.52-6.42,10.56c-1.48,4.04-2.22,8.34-2.22,12.9
		c0,4.72,0.62,9.1,1.86,13.14C630.42,134.79,632.38,138.29,635.06,141.25z"/>
	<path class="st0" d="M692.96,141.67c2.72,2.92,5.98,5.18,9.78,6.78c3.8,1.6,8.02,2.4,12.66,2.4c4.72,0,8.98-0.8,12.78-2.4
		c3.8-1.6,7.06-3.86,9.78-6.78c2.72-2.92,4.8-6.44,6.24-10.56c1.44-4.12,2.16-8.66,2.16-13.62c0-4.96-0.76-9.48-2.28-13.56
		c-1.52-4.08-3.64-7.56-6.36-10.44c-2.72-2.88-5.98-5.12-9.78-6.72c-3.8-1.6-7.98-2.4-12.54-2.4c-4.48,0-8.62,0.8-12.42,2.4
		c-3.8,1.6-7.08,3.84-9.84,6.72c-2.76,2.88-4.92,6.36-6.48,10.44c-1.56,4.08-2.34,8.6-2.34,13.56c0,4.96,0.76,9.5,2.28,13.62
		C688.12,135.23,690.24,138.75,692.96,141.67z M705.92,104.47c2.24-3.16,5.4-4.74,9.48-4.74c4.08,0,7.22,1.58,9.42,4.74
		c2.2,3.16,3.3,7.5,3.3,13.02s-1.1,9.9-3.3,13.14c-2.2,3.24-5.34,4.86-9.42,4.86c-4.08,0-7.24-1.62-9.48-4.86
		c-2.24-3.24-3.36-7.62-3.36-13.14S703.68,107.63,705.92,104.47z"/>
	<rect x="760.16" y="86.05" class="st0" width="17.88" height="63.12"/>
	<path class="st0" d="M761.54,75.55c2.12,1.88,4.62,2.82,7.5,2.82s5.38-0.94,7.5-2.82c2.12-1.88,3.18-4.46,3.18-7.74
		c0-3.28-1.06-5.86-3.18-7.74c-2.12-1.88-4.62-2.82-7.5-2.82s-5.38,0.94-7.5,2.82c-2.12,1.88-3.18,4.46-3.18,7.74
		C758.36,71.09,759.42,73.67,761.54,75.55z"/>
	<path class="st0" d="M812.72,100.45c1.12-0.16,2.4-0.3,3.84-0.42c1.44-0.12,2.8-0.18,4.08-0.18c4.16,0,7,1.2,8.52,3.6
		c1.52,2.4,2.28,6.48,2.28,12.24v33.48h17.88v-35.64c0-4.32-0.44-8.24-1.32-11.76c-0.88-3.52-2.36-6.56-4.44-9.12
		c-2.08-2.56-4.9-4.54-8.46-5.94c-3.56-1.4-8.02-2.1-13.38-2.1c-5.28,0-10.32,0.38-15.12,1.14c-4.8,0.76-8.72,1.58-11.76,2.46v60.96
		h17.88V100.45z"/>
	<path class="st0" d="M503.24,260.85c6.32,0,11.88-0.64,16.68-1.92c4.8-1.28,8.52-2.72,11.16-4.32l-5.16-15
		c-1.04,0.48-2.2,1-3.48,1.56c-1.28,0.56-2.76,1.06-4.44,1.5c-1.68,0.44-3.6,0.82-5.76,1.14c-2.16,0.32-4.6,0.48-7.32,0.48
		c-4.32,0-8-0.7-11.04-2.1c-3.04-1.4-5.5-3.3-7.38-5.7c-1.88-2.4-3.24-5.26-4.08-8.58c-0.84-3.32-1.26-6.9-1.26-10.74
		c0-4.8,0.64-8.88,1.92-12.24c1.28-3.36,2.98-6.1,5.1-8.22c2.12-2.12,4.56-3.66,7.32-4.62c2.76-0.96,5.58-1.44,8.46-1.44
		c4.32,0,8.18,0.48,11.58,1.44c3.4,0.96,6.38,2.12,8.94,3.48l5.4-15.12c-0.64-0.4-1.68-0.96-3.12-1.68c-1.44-0.72-3.24-1.42-5.4-2.1
		c-2.16-0.68-4.68-1.28-7.56-1.8c-2.88-0.52-6.08-0.78-9.6-0.78c-6.08,0-11.72,0.96-16.92,2.88c-5.2,1.92-9.68,4.74-13.44,8.46
		c-3.76,3.72-6.72,8.28-8.88,13.68s-3.24,11.54-3.24,18.42c0,13.84,3.54,24.52,10.62,32.04
		C479.42,257.09,489.72,260.85,503.24,260.85z"/>
	<path class="st0" d="M566,260.49c6.48,0,12-0.38,16.56-1.14c4.56-0.76,8.12-1.42,10.68-1.98v-37.2c0-3.92-0.44-7.48-1.32-10.68
		c-0.88-3.2-2.38-5.92-4.5-8.16c-2.12-2.24-4.94-3.96-8.46-5.16c-3.52-1.2-7.92-1.8-13.2-1.8c-2.08,0-4.14,0.1-6.18,0.3
		c-2.04,0.2-3.98,0.44-5.82,0.72c-1.84,0.28-3.54,0.6-5.1,0.96c-1.56,0.36-2.86,0.7-3.9,1.02l2.28,14.4
		c2.16-0.8,4.72-1.42,7.68-1.86c2.96-0.44,5.96-0.66,9-0.66c4.56,0,7.76,0.92,9.6,2.76c1.84,1.84,2.76,4.28,2.76,7.32v1.68
		c-1.12-0.32-2.58-0.58-4.38-0.78c-1.8-0.2-3.86-0.3-6.18-0.3c-3.44,0-6.76,0.34-9.96,1.02c-3.2,0.68-6.04,1.78-8.52,3.3
		c-2.48,1.52-4.46,3.56-5.94,6.12c-1.48,2.56-2.22,5.68-2.22,9.36c0,3.84,0.64,7.08,1.92,9.72c1.28,2.64,3.12,4.78,5.52,6.42
		c2.4,1.64,5.26,2.82,8.58,3.54C558.22,260.13,561.92,260.49,566,260.49z M557.6,235.65c0.64-0.96,1.52-1.72,2.64-2.28
		c1.12-0.56,2.42-0.94,3.9-1.14c1.48-0.2,3.06-0.3,4.74-0.3c1.2,0,2.52,0.08,3.96,0.24c1.44,0.16,2.52,0.32,3.24,0.48v13.56
		c-0.96,0.16-2.24,0.28-3.84,0.36c-1.6,0.08-3.28,0.12-5.04,0.12c-3.28,0-5.86-0.54-7.74-1.62c-1.88-1.08-2.82-3.02-2.82-5.82
		C556.64,237.81,556.96,236.61,557.6,235.65z"/>
	<path class="st0" d="M634.52,245.37c-1.36,0.64-3.68,0.96-6.96,0.96c-3.12,0-6.28-0.34-9.48-1.02c-3.2-0.68-6.32-1.62-9.36-2.82
		l-3,14.52c1.44,0.64,4.02,1.44,7.74,2.4s8.38,1.44,13.98,1.44c8.56,0,15.18-1.6,19.86-4.79c4.68-3.19,7.02-7.9,7.02-14.13
		c0-2.63-0.3-4.95-0.9-6.94c-0.6-2-1.64-3.81-3.12-5.45c-1.48-1.63-3.5-3.16-6.06-4.57c-2.56-1.41-5.8-2.84-9.72-4.3
		c-1.92-0.72-3.5-1.39-4.74-2c-1.24-0.6-2.22-1.17-2.94-1.69c-0.72-0.52-1.2-1.06-1.44-1.62c-0.24-0.56-0.36-1.2-0.36-1.92
		c0-3.12,2.8-4.68,8.4-4.68c3.04,0,5.78,0.28,8.22,0.84c2.44,0.56,4.7,1.2,6.78,1.92l3.12-13.92c-2.08-0.8-4.88-1.54-8.4-2.22
		c-3.52-0.68-7.2-1.02-11.04-1.02c-7.68,0-13.72,1.72-18.12,5.16c-4.4,3.44-6.6,8.12-6.6,14.04c0,3.04,0.44,5.64,1.32,7.8
		c0.88,2.16,2.12,4.02,3.72,5.58c1.6,1.56,3.54,2.9,5.82,4.02c2.28,1.12,4.82,2.2,7.62,3.24c3.6,1.36,6.28,2.58,8.04,3.66
		c1.76,1.08,2.64,2.34,2.64,3.78C636.56,243.49,635.88,244.73,634.52,245.37z"/>
	<path class="st0" d="M722.12,259.17v-35.64c0-4.32-0.42-8.24-1.26-11.76c-0.84-3.52-2.28-6.56-4.32-9.12
		c-2.04-2.56-4.76-4.54-8.16-5.94c-3.4-1.4-7.66-2.1-12.78-2.1c-1.76,0-3.58,0.18-5.46,0.54c-1.88,0.36-3.42,0.74-4.62,1.14v-30.24
		l-17.88,2.88v90.24h17.88v-48c1.12-0.32,2.38-0.62,3.78-0.9c1.4-0.28,2.9-0.42,4.5-0.42c4,0,6.74,1.2,8.22,3.6
		c1.48,2.4,2.22,6.48,2.22,12.24v33.48H722.12z"/>
	<path class="st0" d="M533.3,326.63c-1-7.32-2.08-14.48-3.24-21.48c-1.16-7-2.38-13.38-3.66-19.14h-16.68
		c-4.16,5.76-8.24,11.66-12.24,17.7c-4,6.04-8.1,12.42-12.3,19.14c-4.2,6.72-8.56,13.88-13.08,21.48
		c-4.52,7.6-9.38,15.88-14.58,24.84h19.56c1.6-3.12,3.28-6.18,5.04-9.18c1.76-3,3.44-5.98,5.04-8.94h31.2
		c0.24,2.96,0.46,5.94,0.66,8.94c0.2,3,0.38,6.06,0.54,9.18h18.84c-0.72-6.4-1.5-13.26-2.34-20.58S534.3,333.95,533.3,326.63z
		 M494.72,336.41c3.04-5.52,6.18-10.92,9.42-16.2s6.54-10.6,9.9-15.96c0.8,5.52,1.42,11.04,1.86,16.56
		c0.44,5.52,0.86,10.72,1.26,15.6H494.72z"/>
	<path class="st0" d="M588.8,304.37c-5.76,0-10.98,1.04-15.66,3.12c-4.68,2.08-8.66,4.92-11.94,8.52c-3.28,3.6-5.8,7.8-7.56,12.6
		c-1.76,4.8-2.64,9.92-2.64,15.36c0,3.6,0.5,7.04,1.5,10.32c1,3.28,2.62,6.14,4.86,8.58c2.24,2.44,5.08,4.38,8.52,5.82
		c3.44,1.44,7.64,2.16,12.6,2.16c3.84,0,7.1-0.34,9.78-1.02c2.68-0.68,5.14-1.46,7.38-2.34l-1.32-14.28
		c-1.68,0.72-3.6,1.32-5.76,1.8c-2.16,0.48-4.4,0.72-6.72,0.72c-4.72,0-7.96-1.26-9.72-3.78c-1.76-2.52-2.64-5.82-2.64-9.9
		c0-6.96,1.72-12.46,5.16-16.5c3.44-4.04,8.16-6.06,14.16-6.06c2.48,0,4.58,0.26,6.3,0.78c1.72,0.52,3.38,1.1,4.98,1.74l6.12-13.92
		c-2.32-1.12-4.9-2.02-7.74-2.7C595.62,304.71,592.41,304.37,588.8,304.37z"/>
	<path class="st0" d="M669.57,309.29c-2.32-1.12-4.76-2-7.32-2.64c-2.56-0.64-5-1.1-7.32-1.38c-2.32-0.28-4.38-0.46-6.18-0.54
		c-1.8-0.08-3.06-0.12-3.78-0.12c-5.52,0-10.64,1.04-15.36,3.12c-4.72,2.08-8.82,4.94-12.3,8.58c-3.48,3.64-6.2,7.9-8.16,12.78
		c-1.96,4.88-2.94,10.08-2.94,15.6c0,3.6,0.4,6.98,1.2,10.14c0.8,3.16,2.1,5.92,3.9,8.28c1.8,2.36,4.12,4.24,6.96,5.64
		c2.84,1.4,6.26,2.1,10.26,2.1c3.36,0,6.4-0.6,9.12-1.8c2.72-1.2,5.2-2.72,7.44-4.56c0.4,1.12,0.8,2.12,1.2,3
		c0.4,0.88,0.84,1.8,1.32,2.76l15.96-2.28c-1.36-3.6-2.28-7.7-2.76-12.3c-0.48-4.6-0.16-9.18,0.96-13.74L669.57,309.29z
		 M644.61,338.81c-0.4,1.84-0.78,3.86-1.14,6.06c-0.36,2.2-0.62,4.3-0.78,6.3c-1.68,1.68-3.26,2.88-4.74,3.6
		c-1.48,0.72-3.14,1.08-4.98,1.08c-3.44,0-5.8-1.12-7.08-3.36c-1.28-2.24-1.92-5.28-1.92-9.12c0-3.12,0.5-6.12,1.5-9
		c1-2.88,2.38-5.42,4.14-7.62c1.76-2.2,3.82-3.98,6.18-5.34c2.36-1.36,4.9-2.04,7.62-2.04c1.2,0,2.22,0.04,3.06,0.12
		c0.84,0.08,1.78,0.2,2.82,0.36L644.61,338.81z"/>
	<path class="st0" d="M732.56,341.93l15.84-65.88l-18.6,2.88l-6.48,27.12c-1.28-0.32-2.54-0.56-3.78-0.72
		c-1.24-0.16-2.58-0.24-4.02-0.24c-5.6,0-10.76,1.04-15.48,3.12c-4.72,2.08-8.8,4.92-12.24,8.52c-3.44,3.6-6.14,7.82-8.1,12.66
		c-1.96,4.84-2.94,9.98-2.94,15.42c0,3.6,0.42,6.98,1.26,10.14c0.84,3.16,2.16,5.92,3.96,8.28c1.8,2.36,4.12,4.22,6.96,5.58
		c2.84,1.36,6.26,2.04,10.26,2.04c3.36,0,6.42-0.6,9.18-1.8s5.26-2.72,7.5-4.56c0.4,1.12,0.8,2.12,1.2,3
		c0.4,0.88,0.84,1.8,1.32,2.76l15.96-2.28c-1.36-3.6-2.28-7.7-2.76-12.3C731.12,351.07,731.44,346.49,732.56,341.93z M715.4,338.81
		c-0.4,1.84-0.78,3.86-1.14,6.06c-0.36,2.2-0.62,4.3-0.78,6.3c-1.68,1.68-3.28,2.88-4.8,3.6c-1.52,0.72-3.2,1.08-5.04,1.08
		c-3.44,0-5.82-1.1-7.14-3.3c-1.32-2.2-1.98-5.22-1.98-9.06c0-2.96,0.48-5.86,1.44-8.7c0.96-2.84,2.3-5.38,4.02-7.62
		c1.72-2.24,3.78-4.02,6.18-5.34c2.4-1.32,5-1.98,7.8-1.98c0.88,0,1.6,0,2.16,0c0.56,0,1.02,0.02,1.38,0.06
		c0.36,0.04,0.72,0.1,1.08,0.18c0.36,0.08,0.78,0.16,1.26,0.24L715.4,338.81z"/>
	<path class="st0" d="M799.47,309.05c-1.8-1.52-3.9-2.68-6.3-3.48c-2.4-0.8-5-1.2-7.8-1.2c-5.68,0-10.86,1.14-15.54,3.42
		c-4.68,2.28-8.66,5.28-11.94,9c-3.28,3.72-5.82,7.98-7.62,12.78c-1.8,4.8-2.7,9.76-2.7,14.88c0,3.6,0.48,7,1.44,10.2
		c0.96,3.2,2.5,6,4.62,8.4c2.12,2.4,4.88,4.3,8.28,5.7c3.4,1.4,7.58,2.1,12.54,2.1c4.08,0,7.86-0.36,11.34-1.08
		c3.48-0.72,6.34-1.52,8.58-2.4l-1.32-14.04c-2.32,0.88-4.8,1.54-7.44,1.98c-2.64,0.44-5.24,0.66-7.8,0.66
		c-4.08,0-7.06-0.7-8.94-2.1c-1.88-1.4-3.1-3.78-3.66-7.14c5.76,0,11.08-0.44,15.96-1.32c4.88-0.88,9.1-2.3,12.66-4.26
		c3.56-1.96,6.34-4.5,8.34-7.62c2-3.12,3-6.92,3-11.4c0-2.8-0.5-5.3-1.5-7.5C802.66,312.43,801.27,310.57,799.47,309.05z
		 M788.12,327.65c-0.56,1.12-1.68,2.16-3.36,3.12c-1.68,0.96-4.04,1.78-7.08,2.46c-3.04,0.68-7.04,1.1-12,1.26
		c0.96-4.8,2.98-8.66,6.06-11.58c3.08-2.92,6.66-4.38,10.74-4.38c4.32,0,6.48,1.92,6.48,5.76
		C788.97,325.41,788.68,326.53,788.12,327.65z"/>
	<path class="st0" d="M903.38,330.29c0.2-1.6,0.3-3.12,0.3-4.56c0-3.12-0.4-5.98-1.2-8.58c-0.8-2.6-2.08-4.84-3.84-6.72
		c-1.76-1.88-3.98-3.32-6.66-4.32c-2.68-1-5.9-1.5-9.66-1.5c-3.92,0-7.34,0.54-10.26,1.62c-2.92,1.08-5.86,2.46-8.82,4.14
		c-2.08-1.92-4.38-3.36-6.9-4.32c-2.52-0.96-5.7-1.44-9.54-1.44c-3.2,0-6.02,0.14-8.46,0.42c-2.44,0.28-4.64,0.64-6.6,1.08
		c-1.96,0.44-3.72,0.92-5.28,1.44c-1.56,0.52-3.02,0.98-4.38,1.38l-14.52,60.24h17.88l11.64-48.84c1.2-0.24,2.24-0.42,3.12-0.54
		c0.88-0.12,1.96-0.18,3.24-0.18c3.04,0,5.08,0.82,6.12,2.46c1.04,1.64,1.56,3.58,1.56,5.82c0,1.36-0.14,2.74-0.42,4.14
		c-0.28,1.4-0.54,2.66-0.78,3.78L842,369.17h17.88l8.16-34.08c0.4-1.6,0.7-3.2,0.9-4.8c0.2-1.6,0.3-3.12,0.3-4.56c0-0.48,0-1,0-1.56
		c0-0.56-0.08-1.16-0.24-1.8c1.2-0.64,2.56-1.26,4.08-1.86c1.52-0.6,3.12-0.9,4.8-0.9c3.04,0,5.08,0.82,6.12,2.46
		c1.04,1.64,1.56,3.58,1.56,5.82c0,1.36-0.14,2.74-0.42,4.14c-0.28,1.4-0.54,2.66-0.78,3.78l-7.92,33.36h17.88l8.16-34.08
		C902.88,333.49,903.18,331.89,903.38,330.29z"/>
	<path class="st0" d="M956.25,306.05c-2.56,8.48-5.3,16.24-8.22,23.28c-2.92,7.04-6.3,13.44-10.14,19.2
		c-0.48-2.88-0.92-6.12-1.32-9.72c-0.4-3.6-0.76-7.3-1.08-11.1c-0.32-3.8-0.6-7.58-0.84-11.34c-0.24-3.76-0.4-7.2-0.48-10.32h-18.36
		c0.64,12.48,1.82,23.68,3.54,33.6c1.72,9.92,3.62,18.88,5.7,26.88c-1.68,3.04-3.78,5.46-6.3,7.26c-2.52,1.8-5.18,2.7-7.98,2.7
		c-1.84,0-3.4-0.18-4.68-0.54c-1.28-0.36-2.72-0.86-4.32-1.5l-5.4,14.04c1.76,0.88,3.64,1.58,5.64,2.1c2,0.52,4.4,0.78,7.2,0.78
		c4.56,0,8.58-0.8,12.06-2.4c3.48-1.6,6.64-3.68,9.48-6.24c2.84-2.56,5.42-5.44,7.74-8.64c2.32-3.2,4.56-6.36,6.72-9.48
		c2.96-4.24,5.76-8.52,8.4-12.84c2.64-4.32,5.2-8.86,7.68-13.62c2.48-4.76,4.86-9.78,7.14-15.06c2.28-5.28,4.54-10.96,6.78-17.04
		H956.25z"/>
</g>
<g>
	<g>
		<path class="st1" d="M331.56,317.88c-0.47-0.85-1.14-2.16-1.82-3.86c-1.26-3.11-2.51-7.43-2.85-12.36
			c-0.35-4.95,0.24-10.42,2.54-16.11c2.32-5.7,6.43-11.46,13.08-18.02c3.47,3.42,5.92,6.75,7.65,10.1c1.69,3.32,2.71,6.7,2.93,9.88
			c0.47,5.88-1.25,11.4-3.98,15.97c3.26-3.07,6.39-6.27,9.37-9.61c4.41-4.92,8.49-10.12,12.24-15.56c-0.73-0.64-1.81-1.64-3.05-3.02
			c-2.24-2.48-4.95-6.13-6.95-10.54c-1-2.21-1.99-4.69-2.58-7.28c-0.31-1.3-0.53-2.63-0.68-4.01c-0.21-1.41-0.33-2.85-0.33-4.32
			c0.07-5.91,1.38-12.44,4.88-20.76c4.5,1.75,8.17,3.84,11.13,6.23c2.89,2.37,4.96,5.01,6.47,7.86c0.75,1.42,1.36,2.88,1.83,4.38
			c0.39,1.46,0.65,2.95,0.79,4.44c0.24,2.44,0.19,4.91-0.19,7.24c1.66-3.58,3.19-7.22,4.58-10.91l2.15-6.45
			c0.39-1.07,0.68-2.16,0.95-3.27l0.84-3.3c0.71-2.43,1.2-4.91,1.65-7.4c-0.92-0.29-2.32-0.78-4.02-1.55
			c-3.04-1.38-6.98-3.63-10.57-6.85c-1.78-1.6-3.72-3.5-5.32-5.63c-0.81-1.07-1.57-2.2-2.25-3.41c-0.35-0.6-0.64-1.22-0.98-1.86
			c-0.36-0.65-0.69-1.32-1.01-2.01c-0.63-1.38-1.17-2.84-1.59-4.4c-0.21-0.78-0.4-1.58-0.55-2.41c-0.21-0.84-0.43-1.71-0.6-2.61
			c-0.35-1.8-0.57-3.71-0.65-5.77c0-1.02-0.13-2.11-0.2-3.22c-0.07-1.12-0.1-2.28-0.09-3.48c4.83-0.02,9,0.59,12.63,1.74
			c1.81,0.57,3.49,1.28,5.03,2.1c1.5,0.82,2.81,1.76,4.03,2.79c2.43,2.07,4.37,4.52,5.91,7.15c1.23,2.21,2.01,4.55,2.62,6.89
			c0.1-3.53,0.22-7.06-0.08-10.59c-0.33-7.55-1.22-15.06-2.56-22.5c-0.97,0.06-2.43,0.1-4.26-0.02c-3.34-0.21-7.83-0.93-12.38-2.79
			c-4.42-1.87-9.46-4.8-13.44-9.63c-1.89-2.42-4.08-5.29-5.76-8.81c-0.89-1.76-1.59-3.69-2.4-5.79c-0.86-2.09-1.64-4.37-2.34-6.86
			c9.3-2.51,16.89-1.86,22.9,0.77c2.91,1.34,5.45,3.16,7.65,5.26c1.1,1.05,2.12,2.17,3.06,3.32c0.47,0.58,0.92,1.17,1.35,1.77
			c0.06,0.09,0.1,0.18,0.16,0.26c-0.64-2.1-1.31-4.18-2.01-6.26c-0.91-0.54-2.13-1.31-3.56-2.33c-1.51-1.07-3.16-2.41-4.95-3.99
			c-1.86-1.56-3.77-3.37-5.56-5.48c-1.82-2.09-3.41-4.51-4.94-7.19c-1.59-2.66-2.91-5.66-3.84-9.06c-0.47-1.7-0.83-3.51-1.08-5.42
			c-0.34-1.88-0.58-3.87-0.68-5.99c-0.2-4.23,0.12-8.97,1.07-14.32c4.95,1.9,9.18,4.25,12.76,6.87c1.79,1.31,3.42,2.69,4.89,4.11
			c1.4,1.47,2.63,2.99,3.73,4.54c2.2,3.09,3.85,6.27,5.06,9.39c1.15,3.15,1.68,6.34,2,9.28c0.29,2.95,0.27,5.71,0.08,8.18
			c-0.27,2.49-0.79,4.73-1.28,6.55c-0.49,1.77-0.99,3.17-1.38,4.16c3.94,11.68,6.93,23.72,8.64,35.94c0.06-0.96,0.13-1.93,0.25-2.92
			c0.26-2.9,0.61-5.88,1.47-8.92c0.8-3.02,2.16-6.13,3.69-9.06c3.23-5.9,8.61-11.63,17.34-15.99c1.18,3.14,2.15,6.14,2.92,9
			c0.39,1.43,0.73,2.82,1.03,4.17c0.24,1.38,0.4,2.73,0.54,4.04c0.27,2.62,0.38,5.08,0.35,7.38c-0.03,2.3-0.16,4.42-0.61,6.46
			c-1.62,8.1-4.86,13.53-8.92,17.21c-3.93,3.65-8.11,5.47-11.3,6.43c-2.56,0.77-4.46,0.99-5.12,1.04c0.11,3.65-0.08,7.31-0.14,10.96
			c0.03,2.31-0.35,4.6-0.54,6.9c-0.27,2.29-0.38,4.61-0.77,6.88c-0.78,4.2-1.39,8.44-2.5,12.58c0.37-0.79,0.76-1.58,1.18-2.38
			c1.32-2.6,2.71-5.28,4.62-7.83c1.97-2.55,3.96-5.06,6.54-7.35c2.55-2.29,5.65-4.37,9.22-6.08c3.5-1.71,7.61-3.04,12.42-3.76
			c0.1,1.76,0.19,3.48,0.19,5.14c-0.08,1.67-0.19,3.28-0.34,4.84c-0.32,3.12-0.68,6.03-1.31,8.71c-0.71,2.68-1.51,5.14-2.39,7.38
			c-0.87,2.24-1.81,4.27-2.99,6.07c-2.28,3.6-4.64,6.42-7.17,8.53c-2.61,2.09-5.22,3.53-7.71,4.49c-2.5,0.96-4.84,1.47-7.05,1.66
			c-2.22,0.19-4.21,0.1-5.89-0.09c-2.68-0.31-4.53-0.86-5.16-1.06c-2.93,7.22-6.37,14.24-10.44,20.89c-2.52,4.06-5.23,8-8.11,11.82
			c0.66-0.61,1.33-1.21,2.05-1.8c2.31-1.82,4.64-3.72,7.4-5.3c2.79-1.56,5.64-3.05,8.95-4.1c1.64-0.53,3.38-0.96,5.2-1.27
			c1.8-0.32,3.65-0.57,5.62-0.64c3.93-0.16,8.26,0.25,12.98,1.52c-2.48,6.74-5.69,12.16-8.91,16.59c-3.4,4.3-6.74,7.7-10.22,10.04
			c-1.71,1.2-3.37,2.21-5,3.02c-1.67,0.77-3.3,1.38-4.86,1.83c-3.12,0.92-6.01,1.25-8.71,1.11c-5.35-0.23-9.58-1.92-12.5-3.52
			c-2.41-1.32-3.92-2.55-4.4-2.96c-5.07,5.26-10.48,10.2-16.19,14.75c-7.22,5.75-14.84,10.99-23.01,15.36
			c-0.73,0.39-1.58,0.2-1.87-0.41c-0.29-0.6,0.03-1.37,0.74-1.74C321.4,324.79,326.57,321.46,331.56,317.88z"/>
		<path class="st1" d="M97.01,319.67c0.47-0.85,1.14-2.16,1.82-3.86c1.26-3.11,2.51-7.43,2.85-12.36
			c0.35-4.95-0.24-10.42-2.54-16.11c-2.32-5.7-6.43-11.46-13.08-18.02c-3.47,3.42-5.92,6.75-7.65,10.1
			c-1.69,3.32-2.71,6.7-2.93,9.88c-0.47,5.88,1.25,11.4,3.98,15.97c-3.26-3.07-6.39-6.27-9.37-9.61
			c-4.41-4.92-8.49-10.12-12.24-15.56c0.73-0.64,1.81-1.64,3.05-3.02c2.24-2.48,4.95-6.13,6.95-10.54c1-2.21,1.99-4.69,2.58-7.28
			c0.31-1.3,0.53-2.63,0.68-4.01c0.21-1.41,0.33-2.85,0.33-4.32c-0.07-5.91-1.38-12.44-4.88-20.76c-4.5,1.75-8.17,3.84-11.13,6.23
			c-2.89,2.37-4.96,5.01-6.47,7.86c-0.75,1.42-1.36,2.88-1.83,4.38c-0.39,1.46-0.65,2.95-0.79,4.44c-0.24,2.44-0.19,4.91,0.19,7.24
			c-1.66-3.58-3.19-7.22-4.58-10.91l-2.15-6.45c-0.39-1.07-0.68-2.16-0.95-3.27l-0.84-3.3c-0.71-2.43-1.2-4.91-1.65-7.4
			c0.92-0.29,2.32-0.78,4.02-1.55c3.04-1.38,6.98-3.63,10.57-6.85c1.78-1.6,3.72-3.5,5.32-5.63c0.81-1.07,1.57-2.2,2.25-3.41
			c0.35-0.6,0.64-1.22,0.98-1.86c0.36-0.65,0.69-1.32,1.01-2.01c0.63-1.38,1.17-2.84,1.59-4.4c0.21-0.78,0.4-1.58,0.55-2.41
			c0.21-0.84,0.43-1.71,0.6-2.61c0.35-1.8,0.57-3.71,0.65-5.77c0-1.02,0.13-2.11,0.2-3.22c0.07-1.12,0.1-2.28,0.09-3.48
			c-4.83-0.02-9,0.59-12.63,1.74c-1.81,0.57-3.49,1.28-5.03,2.1c-1.5,0.82-2.81,1.76-4.03,2.79c-2.43,2.07-4.37,4.52-5.91,7.15
			c-1.23,2.21-2.01,4.55-2.62,6.89c-0.1-3.53-0.22-7.06,0.08-10.59c0.33-7.55,1.22-15.06,2.56-22.5c0.97,0.06,2.43,0.1,4.26-0.02
			c3.34-0.21,7.83-0.93,12.38-2.79c4.42-1.87,9.46-4.8,13.44-9.63c1.89-2.42,4.08-5.29,5.76-8.81c0.89-1.76,1.59-3.69,2.4-5.79
			c0.86-2.09,1.64-4.37,2.34-6.86c-9.3-2.51-16.89-1.86-22.9,0.77c-2.91,1.34-5.45,3.16-7.65,5.26c-1.1,1.05-2.12,2.17-3.06,3.32
			c-0.47,0.58-0.92,1.17-1.35,1.77c-0.06,0.09-0.1,0.18-0.16,0.26c0.64-2.1,1.31-4.18,2.01-6.26c0.91-0.54,2.13-1.31,3.56-2.33
			c1.51-1.07,3.16-2.41,4.95-3.99c1.86-1.56,3.77-3.37,5.56-5.48c1.82-2.09,3.41-4.51,4.94-7.19c1.59-2.66,2.91-5.66,3.84-9.06
			c0.47-1.7,0.83-3.51,1.08-5.42c0.34-1.88,0.58-3.87,0.68-5.99c0.2-4.23-0.12-8.97-1.07-14.32c-4.95,1.9-9.18,4.25-12.76,6.87
			c-1.79,1.31-3.42,2.69-4.89,4.11c-1.4,1.47-2.63,2.99-3.73,4.54c-2.2,3.09-3.85,6.27-5.06,9.39c-1.15,3.15-1.68,6.34-2,9.28
			c-0.29,2.95-0.27,5.71-0.08,8.18c0.27,2.49,0.79,4.73,1.28,6.55c0.49,1.77,0.99,3.17,1.38,4.16c-3.94,11.68-6.93,23.72-8.64,35.94
			c-0.06-0.96-0.13-1.93-0.25-2.92c-0.26-2.9-0.61-5.88-1.47-8.92c-0.8-3.02-2.16-6.13-3.69-9.06c-3.23-5.9-8.61-11.63-17.34-15.99
			c-1.18,3.14-2.15,6.14-2.92,9c-0.39,1.43-0.73,2.82-1.03,4.17c-0.24,1.38-0.4,2.73-0.54,4.04c-0.27,2.62-0.38,5.08-0.35,7.38
			c0.03,2.3,0.16,4.42,0.61,6.46c1.62,8.1,4.86,13.53,8.92,17.21c3.93,3.65,8.11,5.47,11.3,6.43c2.56,0.77,4.46,0.99,5.12,1.04
			c-0.11,3.65,0.08,7.31,0.14,10.96c-0.03,2.31,0.35,4.6,0.54,6.9c0.27,2.29,0.38,4.61,0.77,6.88c0.78,4.2,1.39,8.44,2.5,12.58
			c-0.37-0.79-0.76-1.58-1.18-2.38c-1.32-2.6-2.71-5.28-4.62-7.83c-1.97-2.55-3.96-5.06-6.54-7.35c-2.55-2.29-5.65-4.37-9.22-6.08
			c-3.5-1.71-7.61-3.04-12.42-3.76c-0.1,1.76-0.19,3.48-0.19,5.14c0.08,1.67,0.19,3.28,0.34,4.84c0.32,3.12,0.68,6.03,1.31,8.71
			c0.71,2.68,1.51,5.14,2.39,7.38c0.87,2.24,1.81,4.27,2.99,6.07c2.28,3.6,4.64,6.42,7.17,8.53c2.61,2.09,5.22,3.53,7.71,4.49
			c2.5,0.96,4.84,1.47,7.05,1.66c2.22,0.19,4.21,0.1,5.89-0.09c2.68-0.31,4.53-0.86,5.16-1.06c2.93,7.22,6.37,14.24,10.44,20.89
			c2.52,4.06,5.23,8,8.11,11.82c-0.66-0.61-1.33-1.21-2.05-1.8c-2.31-1.82-4.64-3.72-7.4-5.3c-2.79-1.56-5.64-3.05-8.95-4.1
			c-1.64-0.53-3.38-0.96-5.2-1.27c-1.8-0.32-3.65-0.57-5.62-0.64c-3.93-0.16-8.26,0.25-12.98,1.52c2.48,6.74,5.69,12.16,8.91,16.59
			c3.4,4.3,6.74,7.7,10.22,10.04c1.71,1.2,3.37,2.21,5,3.02c1.67,0.77,3.3,1.38,4.86,1.83c3.12,0.92,6.01,1.25,8.71,1.11
			c5.35-0.23,9.58-1.92,12.5-3.52c2.41-1.32,3.92-2.55,4.4-2.96c5.07,5.26,10.48,10.2,16.19,14.75
			c7.22,5.75,14.84,10.99,23.01,15.36c0.73,0.39,1.58,0.2,1.87-0.41c0.29-0.6-0.03-1.37-0.74-1.74
			C107.18,326.57,102.01,323.25,97.01,319.67z"/>
	</g>
	<path class="st2" d="M36.6,173.38"/>
	<g>
		<path class="st2" d="M97.01,319.67c0.47-0.85,1.14-2.16,1.82-3.86c1.26-3.11,2.51-7.43,2.85-12.36
			c0.35-4.95-0.24-10.42-2.54-16.11c-2.32-5.7-6.43-11.46-13.08-18.02c-3.47,3.42-5.92,6.75-7.65,10.1
			c-1.69,3.32-2.71,6.7-2.93,9.88c-0.47,5.88,1.25,11.4,3.98,15.97c-3.26-3.07-6.39-6.27-9.37-9.61
			c-4.41-4.92-8.49-10.12-12.24-15.56c0.73-0.64,1.81-1.64,3.05-3.02c2.24-2.48,4.95-6.13,6.95-10.54c1-2.21,1.99-4.69,2.58-7.28
			c0.31-1.3,0.53-2.63,0.68-4.01c0.21-1.41,0.33-2.85,0.33-4.32c-0.07-5.91-1.38-12.44-4.88-20.76c-4.5,1.75-8.17,3.84-11.13,6.23
			c-2.89,2.37-4.96,5.01-6.47,7.86c-0.75,1.42-1.36,2.88-1.83,4.38c-0.39,1.46-0.65,2.95-0.79,4.44c-0.24,2.44-0.19,4.91,0.19,7.24
			c-1.66-3.58-3.19-7.22-4.58-10.91l-2.15-6.45c-0.39-1.07-0.68-2.16-0.95-3.27l-0.84-3.3c-0.71-2.43-1.2-4.91-1.65-7.4
			c0.92-0.29,2.32-0.78,4.02-1.55c3.04-1.38,6.98-3.63,10.57-6.85c1.78-1.6,3.72-3.5,5.32-5.63c0.81-1.07,1.57-2.2,2.25-3.41
			c0.35-0.6,0.64-1.22,0.98-1.86c0.36-0.65,0.69-1.32,1.01-2.01c0.63-1.38,1.17-2.84,1.59-4.4c0.21-0.78,0.4-1.58,0.55-2.41
			c0.21-0.84,0.43-1.71,0.6-2.61c0.35-1.8,0.57-3.71,0.65-5.77c0-1.02,0.13-2.11,0.2-3.22c0.07-1.12,0.1-2.28,0.09-3.48
			c-4.83-0.02-9,0.59-12.63,1.74c-1.81,0.57-3.49,1.28-5.03,2.1c-1.5,0.82-2.81,1.76-4.03,2.79c-2.43,2.07-4.37,4.52-5.91,7.15
			c-1.23,2.21-2.01,4.55-2.62,6.89c-0.1-3.53-0.22-7.06,0.08-10.59c0.33-7.55,1.22-15.06,2.56-22.5c0.97,0.06,2.43,0.1,4.26-0.02
			c3.34-0.21,7.83-0.93,12.38-2.79c4.42-1.87,9.46-4.8,13.44-9.63c1.89-2.42,4.08-5.29,5.76-8.81c0.89-1.76,1.59-3.69,2.4-5.79
			c0.86-2.09,1.64-4.37,2.34-6.86c-9.3-2.51-16.89-1.86-22.9,0.77c-2.91,1.34-5.45,3.16-7.65,5.26c-1.1,1.05-2.12,2.17-3.06,3.32
			c-0.47,0.58-0.92,1.17-1.35,1.77c-0.06,0.09-0.1,0.18-0.16,0.26c0.64-2.1,1.31-4.18,2.01-6.26c0.91-0.54,2.13-1.31,3.56-2.33
			c1.51-1.07,3.16-2.41,4.95-3.99c1.86-1.56,3.77-3.37,5.56-5.48c1.82-2.09,3.41-4.51,4.94-7.19c1.59-2.66,2.91-5.66,3.84-9.06
			c0.47-1.7,0.83-3.51,1.08-5.42c0.34-1.88,0.58-3.87,0.68-5.99c0.2-4.23-0.12-8.97-1.07-14.32c-4.95,1.9-9.18,4.25-12.76,6.87
			c-1.79,1.31-3.42,2.69-4.89,4.11c-1.4,1.47-2.63,2.99-3.73,4.54c-2.2,3.09-3.85,6.27-5.06,9.39c-1.15,3.15-1.68,6.34-2,9.28
			c-0.29,2.95-0.27,5.71-0.08,8.18c0.27,2.49,0.79,4.73,1.28,6.55c0.49,1.77,0.99,3.17,1.38,4.16c-3.94,11.68-6.93,23.72-8.64,35.94
			c-0.06-0.96-0.13-1.93-0.25-2.92c-0.26-2.9-0.61-5.88-1.47-8.92c-0.8-3.02-2.16-6.13-3.69-9.06c-3.23-5.9-8.61-11.63-17.34-15.99
			c-1.18,3.14-2.15,6.14-2.92,9c-0.39,1.43-0.73,2.82-1.03,4.17c-0.24,1.38-0.4,2.73-0.54,4.04c-0.27,2.62-0.38,5.08-0.35,7.38
			c0.03,2.3,0.16,4.42,0.61,6.46c1.62,8.1,4.86,13.53,8.92,17.21c3.93,3.65,8.11,5.47,11.3,6.43c2.56,0.77,4.46,0.99,5.12,1.04
			c-0.11,3.65,0.08,7.31,0.14,10.96c-0.03,2.31,0.35,4.6,0.54,6.9c0.27,2.29,0.38,4.61,0.77,6.88c0.78,4.2,1.39,8.44,2.5,12.58
			c-0.37-0.79-0.76-1.58-1.18-2.38c-1.32-2.6-2.71-5.28-4.62-7.83c-1.97-2.55-3.96-5.06-6.54-7.35c-2.55-2.29-5.65-4.37-9.22-6.08
			c-3.5-1.71-7.61-3.04-12.42-3.76c-0.1,1.76-0.19,3.48-0.19,5.14c0.08,1.67,0.19,3.28,0.34,4.84c0.32,3.12,0.68,6.03,1.31,8.71
			c0.71,2.68,1.51,5.14,2.39,7.38c0.87,2.24,1.81,4.27,2.99,6.07c2.28,3.6,4.64,6.42,7.17,8.53c2.61,2.09,5.22,3.53,7.71,4.49
			c2.5,0.96,4.84,1.47,7.05,1.66c2.22,0.19,4.21,0.1,5.89-0.09c2.68-0.31,4.53-0.86,5.16-1.06c2.93,7.22,6.37,14.24,10.44,20.89
			c2.52,4.06,5.23,8,8.11,11.82c-0.66-0.61-1.33-1.21-2.05-1.8c-2.31-1.82-4.64-3.72-7.4-5.3c-2.79-1.56-5.64-3.05-8.95-4.1
			c-1.64-0.53-3.38-0.96-5.2-1.27c-1.8-0.32-3.65-0.57-5.62-0.64c-3.93-0.16-8.26,0.25-12.98,1.52c2.48,6.74,5.69,12.16,8.91,16.59
			c3.4,4.3,6.74,7.7,10.22,10.04c1.71,1.2,3.37,2.21,5,3.02c1.67,0.77,3.3,1.38,4.86,1.83c3.12,0.92,6.01,1.25,8.71,1.11
			c5.35-0.23,9.58-1.92,12.5-3.52c2.41-1.32,3.92-2.55,4.4-2.96c5.07,5.26,10.48,10.2,16.19,14.75
			c7.22,5.75,14.84,10.99,23.01,15.36c0.73,0.39,1.58,0.2,1.87-0.41c0.29-0.6-0.03-1.37-0.74-1.74
			C107.18,326.57,102.01,323.25,97.01,319.67z"/>
		<path class="st3" d="M86.08,269.32c-4.35,30.6,15.3,27.03,15.3,27.03c1.99,5.86-18.97,18.65-25.05,1.02
			C71.47,283.26,86.08,269.32,86.08,269.32z"/>
		<path class="st3" d="M31.46,198.66c-20.45-6.62-21.11-55.72-21.11-55.72l0,0c0,0,8.74,4.36,0,0c-1.18,3.14-2.15,6.14-2.92,9
			c-0.39,1.43-0.73,2.82-1.03,4.17c-0.24,1.38-0.4,2.73-0.54,4.04c-0.27,2.62-0.38,5.08-0.35,7.38c0.03,2.3,0.16,4.42,0.61,6.46
			c1.62,8.1,4.86,13.53,8.92,17.21c3.93,3.65,8.11,5.47,11.3,6.43C28.9,198.39,30.8,198.61,31.46,198.66"/>
		<path class="st3" d="M41.26,254.26c0,0-19.33,6.39-31.31-11.33c-10.07-13.68-8.52-34.34-8.52-34.34
			C18.85,250.28,41.26,254.26,41.26,254.26L41.26,254.26z"/>
		<path class="st3" d="M72.23,301.49c0,0-7.73,7.11-19.33,6.47c-26.4-3.04-35-32.6-35-32.6C40.69,299.4,72.23,301.49,72.23,301.49
			S68.97,358.73,72.23,301.49z"/>
		<path class="st3" d="M77.18,139.49c-10.24,0.05-35.06,12.07-40.58,33.89l5.46-22.51C53.2,131.02,77.18,139.49,77.18,139.49z"/>
		<path class="st3" d="M36.38,228.98c0,0-2.62-10.25-2.47-21.63c0.08-6.43,9.71-22.87,30.28-21.56
			C64.19,185.79,39.37,189.01,36.38,228.98z"/>
		<path class="st3" d="M46.87,260.94c1.28,6.22,10.99,19.15,10.99,19.15c1.99,0.48-6.14-26.14,8.72-49.93
			C66.57,230.17,42.16,238.15,46.87,260.94z"/>
	</g>
	<g>
		<path class="st2" d="M331.56,317.88c-0.47-0.85-1.14-2.16-1.82-3.86c-1.26-3.11-2.51-7.43-2.85-12.36
			c-0.35-4.95,0.24-10.42,2.54-16.11c2.32-5.7,6.43-11.46,13.08-18.02c3.47,3.42,5.92,6.75,7.65,10.1c1.69,3.32,2.71,6.7,2.93,9.88
			c0.47,5.88-1.25,11.4-3.98,15.97c3.26-3.07,6.39-6.27,9.37-9.61c4.41-4.92,8.49-10.12,12.24-15.56c-0.73-0.64-1.81-1.64-3.05-3.02
			c-2.24-2.48-4.95-6.13-6.95-10.54c-1-2.21-1.99-4.69-2.58-7.28c-0.31-1.3-0.53-2.63-0.68-4.01c-0.21-1.41-0.33-2.85-0.33-4.32
			c0.07-5.91,1.38-12.44,4.88-20.76c4.5,1.75,8.17,3.84,11.13,6.23c2.89,2.37,4.96,5.01,6.47,7.86c0.75,1.42,1.36,2.88,1.83,4.38
			c0.39,1.46,0.65,2.95,0.79,4.44c0.24,2.44,0.19,4.91-0.19,7.24c1.66-3.58,3.19-7.22,4.58-10.91l2.15-6.45
			c0.39-1.07,0.68-2.16,0.95-3.27l0.84-3.3c0.71-2.43,1.2-4.91,1.65-7.4c-0.92-0.29-2.32-0.78-4.02-1.55
			c-3.04-1.38-6.98-3.63-10.57-6.85c-1.78-1.6-3.72-3.5-5.32-5.63c-0.81-1.07-1.57-2.2-2.25-3.41c-0.35-0.6-0.64-1.22-0.98-1.86
			c-0.36-0.65-0.69-1.32-1.01-2.01c-0.63-1.38-1.17-2.84-1.59-4.4c-0.21-0.78-0.4-1.58-0.55-2.41c-0.21-0.84-0.43-1.71-0.6-2.61
			c-0.35-1.8-0.57-3.71-0.65-5.77c0-1.02-0.13-2.11-0.2-3.22c-0.07-1.12-0.1-2.28-0.09-3.48c4.83-0.02,9,0.59,12.63,1.74
			c1.81,0.57,3.49,1.28,5.03,2.1c1.5,0.82,2.81,1.76,4.03,2.79c2.43,2.07,4.37,4.52,5.91,7.15c1.23,2.21,2.01,4.55,2.62,6.89
			c0.1-3.53,0.22-7.06-0.08-10.59c-0.33-7.55-1.22-15.06-2.56-22.5c-0.97,0.06-2.43,0.1-4.26-0.02c-3.34-0.21-7.83-0.93-12.38-2.79
			c-4.42-1.87-9.46-4.8-13.44-9.63c-1.89-2.42-4.08-5.29-5.76-8.81c-0.89-1.76-1.59-3.69-2.4-5.79c-0.86-2.09-1.64-4.37-2.34-6.86
			c9.3-2.51,16.89-1.86,22.9,0.77c2.91,1.34,5.45,3.16,7.65,5.26c1.1,1.05,2.12,2.17,3.06,3.32c0.47,0.58,0.92,1.17,1.35,1.77
			c0.06,0.09,0.1,0.18,0.16,0.26c-0.64-2.1-1.31-4.18-2.01-6.26c-0.91-0.54-2.13-1.31-3.56-2.33c-1.51-1.07-3.16-2.41-4.95-3.99
			c-1.86-1.56-3.77-3.37-5.56-5.48c-1.82-2.09-3.41-4.51-4.94-7.19c-1.59-2.66-2.91-5.66-3.84-9.06c-0.47-1.7-0.83-3.51-1.08-5.42
			c-0.34-1.88-0.58-3.87-0.68-5.99c-0.2-4.23,0.12-8.97,1.07-14.32c4.95,1.9,9.18,4.25,12.76,6.87c1.79,1.31,3.42,2.69,4.89,4.11
			c1.4,1.47,2.63,2.99,3.73,4.54c2.2,3.09,3.85,6.27,5.06,9.39c1.15,3.15,1.68,6.34,2,9.28c0.29,2.95,0.27,5.71,0.08,8.18
			c-0.27,2.49-0.79,4.73-1.28,6.55c-0.49,1.77-0.99,3.17-1.38,4.16c3.94,11.68,6.93,23.72,8.64,35.94c0.06-0.96,0.13-1.93,0.25-2.92
			c0.26-2.9,0.61-5.88,1.47-8.92c0.8-3.02,2.16-6.13,3.69-9.06c3.23-5.9,8.61-11.63,17.34-15.99c1.18,3.14,2.15,6.14,2.92,9
			c0.39,1.43,0.73,2.82,1.03,4.17c0.24,1.38,0.4,2.73,0.54,4.04c0.27,2.62,0.38,5.08,0.35,7.38c-0.03,2.3-0.16,4.42-0.61,6.46
			c-1.62,8.1-4.86,13.53-8.92,17.21c-3.93,3.65-8.11,5.47-11.3,6.43c-2.56,0.77-4.46,0.99-5.12,1.04c0.11,3.65-0.08,7.31-0.14,10.96
			c0.03,2.31-0.35,4.6-0.54,6.9c-0.27,2.29-0.38,4.61-0.77,6.88c-0.78,4.2-1.39,8.44-2.5,12.58c0.37-0.79,0.76-1.58,1.18-2.38
			c1.32-2.6,2.71-5.28,4.62-7.83c1.97-2.55,3.96-5.06,6.54-7.35c2.55-2.29,5.65-4.37,9.22-6.08c3.5-1.71,7.61-3.04,12.42-3.76
			c0.1,1.76,0.19,3.48,0.19,5.14c-0.08,1.67-0.19,3.28-0.34,4.84c-0.32,3.12-0.68,6.03-1.31,8.71c-0.71,2.68-1.51,5.14-2.39,7.38
			c-0.87,2.24-1.81,4.27-2.99,6.07c-2.28,3.6-4.64,6.42-7.17,8.53c-2.61,2.09-5.22,3.53-7.71,4.49c-2.5,0.96-4.84,1.47-7.05,1.66
			c-2.22,0.19-4.21,0.1-5.89-0.09c-2.68-0.31-4.53-0.86-5.16-1.06c-2.93,7.22-6.37,14.24-10.44,20.89c-2.52,4.06-5.23,8-8.11,11.82
			c0.66-0.61,1.33-1.21,2.05-1.8c2.31-1.82,4.64-3.72,7.4-5.3c2.79-1.56,5.64-3.05,8.95-4.1c1.64-0.53,3.38-0.96,5.2-1.27
			c1.8-0.32,3.65-0.57,5.62-0.64c3.93-0.16,8.26,0.25,12.98,1.52c-2.48,6.74-5.69,12.16-8.91,16.59c-3.4,4.3-6.74,7.7-10.22,10.04
			c-1.71,1.2-3.37,2.21-5,3.02c-1.67,0.77-3.3,1.38-4.86,1.83c-3.12,0.92-6.01,1.25-8.71,1.11c-5.35-0.23-9.58-1.92-12.5-3.52
			c-2.41-1.32-3.92-2.55-4.4-2.96c-5.07,5.26-10.48,10.2-16.19,14.75c-7.22,5.75-14.84,10.99-23.01,15.36
			c-0.73,0.39-1.58,0.2-1.87-0.41c-0.29-0.6,0.03-1.37,0.74-1.74C321.4,324.79,326.57,321.46,331.56,317.88z"/>
		<path class="st3" d="M342.5,267.54c-15.44,14.73-15.3,27.03-15.3,27.03c20.87,28.07,25.05,1.02,25.05,1.02
			C326.38,299.77,342.5,267.54,342.5,267.54z"/>
		<path class="st3" d="M418.23,141.16c-12.87,10.29-19.38,44.15-21.11,55.72l-1.58-18.19C396.09,149.13,418.23,141.16,418.23,141.16
			z"/>
		<path class="st3" d="M387.31,252.47l5.85-18.27c10.65-25.39,33.98-27.4,33.98-27.4C405.5,216.64,387.31,252.47,387.31,252.47
			L387.31,252.47z"/>
		<path class="st3" d="M368.57,305.38c0,0-4.63,0-12.22-5.67c17.18-24.99,35.6-26.92,35.6-26.92
			C367.69,296.94,368.57,305.38,368.57,305.38S368.57,305.38,368.57,305.38z"/>
		<path class="st3" d="M352.07,138.27c0,0,19.18,25.54,39.91,33.33c0,0-13.24,0.1-20.72-4.78
			C363.77,161.93,352.07,138.27,352.07,138.27z"/>
		<path class="st3" d="M392.2,227.2c0,0-19.05-6.59-24.54-22.23c-2.13-6.06-4.46-15.24,6.14-19.87
			C373.79,185.09,367.96,195.46,392.2,227.2z"/>
		<path class="st3" d="M370.72,278.31L370.72,278.31c-9.78-8.91-19.78-24.94-8.72-49.93C363.3,225.46,361.23,264.11,370.72,278.31z"
			/>
	</g>
	<g>
		<path class="st4" d="M358.73,147.08h0.22v-11.86c0-0.43-0.05-0.84-0.13-1.25c-0.02-0.12-0.05-0.24-0.08-0.36
			c-0.07-0.29-0.16-0.58-0.27-0.85c-0.04-0.11-0.08-0.23-0.13-0.34c-0.15-0.34-0.33-0.68-0.54-0.99c-0.01-0.02-0.02-0.04-0.04-0.06
			c-0.22-0.33-0.48-0.63-0.76-0.92c-0.08-0.08-0.17-0.16-0.25-0.24c-0.21-0.2-0.44-0.38-0.67-0.56c-0.1-0.07-0.2-0.14-0.3-0.21
			c-0.3-0.19-0.61-0.37-0.94-0.51c-0.04-0.02-0.08-0.04-0.12-0.06c-0.01,0-0.02-0.01-0.02-0.01h0v-23.3l19.76-11.18l-19.84-11.37
			c-0.06-0.6-0.18-1.22-0.39-2.05c-0.23-1.12-0.46-1.68-0.46-1.68c-0.02-0.06-0.04-0.12-0.06-0.18c-0.04-0.13-0.09-0.27-0.14-0.4
			c-0.19-0.58-0.41-1.14-0.65-1.67c-0.02-0.05-0.05-0.1-0.07-0.15c-0.26-0.57-0.54-1.11-0.83-1.62c-0.07-0.12-0.14-0.24-0.21-0.36
			c-0.29-0.49-0.59-0.95-0.9-1.39c-0.08-0.11-0.14-0.22-0.22-0.32c-0.4-0.54-0.8-1.02-1.2-1.47c-0.09-0.1-0.17-0.19-0.26-0.28
			c-0.74-0.81-1.45-1.47-2.01-1.92l-0.01,0.02c-3.68-3.04-8.28-4.72-13.08-4.72h-11.28L212.79,1.74L59.85,94.86l58.52,32.98
			c-4.69,8.35-8.97,17.69-12.62,28.17l0,0l0,0c-11.28,18.9-17.78,40.99-17.78,64.6c0,69.72,56.52,126.23,126.23,126.23
			s126.23-56.52,126.23-126.23c0-5.43-0.38-10.76-1.05-16c3.73,0.78,8.13,1.17,12.54,1.17l0,0c0,0,0,0,0,0
			c1.69,0,3.38-0.06,5.04-0.18c0.78-0.05,1.55-0.12,2.31-0.2c1.38-0.14,2.71-0.33,3.99-0.56c0.46-0.08,0.91-0.17,1.35-0.26
			c0.77-0.16,1.51-0.34,2.21-0.54c2.01-0.56,3.72-1.25,5.02-2.08c0.4-0.26,0.76-0.53,1.07-0.81c0.26-0.24,0.5-0.48,0.69-0.74
			c0.33-0.42,0.59-0.85,0.72-1.32c0.09-0.3,0.13-0.6,0.13-0.92C374.47,174.21,367.85,153.94,358.73,147.08z M334.14,70.08
			c3.76,0,7.38,1.38,10.18,3.88c1.68,1.5,2.98,3.33,3.85,5.35l-16.11-9.23H334.14z M331.7,174.5c-2.53-6.44-5.55-12.62-9.06-18.49
			l0,0l0,0c-3.17-9.58-6.93-18.23-11.11-26.03l37.99-21.49v20.35c-2.54,1.01-4.34,3.48-4.34,6.38v11.8
			C339.27,151.42,334.41,161.47,331.7,174.5z"/>
		<g>
			<g>
				<path class="st5" d="M352.07,88.02c1.45,0,2.63-1.18,2.63-2.63c0-5.86-2.51-11.45-6.88-15.35c-3.77-3.37-8.63-5.22-13.69-5.22
					h-34.47c-1.45,0-2.63,1.18-2.63,2.63c0,1.45,1.18,2.63,2.63,2.63h34.47c3.76,0,7.38,1.38,10.18,3.88
					c3.25,2.9,5.12,7.06,5.12,11.42C349.44,86.84,350.62,88.02,352.07,88.02z"/>
			</g>
			<polygon class="st6" points="212.79,1.74 374.47,94.38 217.03,183.45 59.85,94.86 			"/>
			<polygon class="st0" points="212.79,1.74 374.47,94.38 217.03,183.45 59.85,94.86 			"/>
			<polygon class="st7" points="212.79,1.74 374.47,94.38 217.03,183.45 59.85,94.86 			"/>
			<polyline class="st6" points="217.03,183.45 59.85,94.86 212.79,1.74 			"/>
			<path class="st8" d="M374.47,94.38"/>
			<path class="st6" d="M212.78,2.12l56.91,32.62c-100.15-2.84-51.08,117.37-51.55,116.31l-87.15-70.47L212.78,2.12z"/>
			<g>
				<circle class="st9" cx="214.2" cy="220.61" r="126.23"/>
				<path id="symbol_00000011742559761217356130000017566101654983623862_" class="st10" d="M253.57,178.22
					c-6.34-14.39-20.92-17.46-38.77-14.48l-5.73-22.23L195.55,145l5.64,22.17c-3.56,0.9-7.21,1.67-10.83,2.69l-5.64-22.04
					l-13.52,3.49l5.73,22.23c-2.92,0.83-27.3,7.08-27.3,7.08l3.72,14.48c0,0,9.93-2.79,9.84-2.56c5.51-1.44,8.11,1.31,9.32,3.91
					l15.76,60.94c0.19,1.76-0.13,4.77-3.91,5.8c0.22,0.13-9.84,2.53-9.84,2.53l1.47,16.88c0,0,24.16-6.18,27.33-6.98l5.8,22.49
					l13.52-3.49l-5.8-22.65c3.72-0.87,7.34-1.76,10.86-2.69l5.77,22.52l13.52-3.49l-5.8-22.46c20.83-5.06,35.53-18.2,32.52-38.29
					c-1.92-12.11-15.15-22.04-26.14-23.16C254.34,198.41,257.77,189.66,253.57,178.22L253.57,178.22z M247.07,231.25
					c2.69,19.9-24.96,22.33-34.09,24.73l-7.95-29.76C214.2,223.81,242.52,213.72,247.07,231.25z M230.41,190.72
					c2.85,17.69-20.79,19.74-28.42,21.69l-7.24-27.01C202.41,183.51,224.61,174.35,230.41,190.72z"/>
				<path id="symbol_00000093170818560266661120000012193105817062177215_" class="st11" d="M253.57,178.22
					c-6.34-14.39-20.92-17.46-38.77-14.48l-5.73-22.23L195.55,145l5.64,22.17c-3.56,0.9-7.21,1.67-10.83,2.69l-5.64-22.04
					l-13.52,3.49l5.73,22.23c-2.92,0.83-27.3,7.08-27.3,7.08l3.72,14.48c0,0,9.93-2.79,9.84-2.56c5.51-1.44,8.11,1.31,9.32,3.91
					l15.76,60.94c0.19,1.76-0.13,4.77-3.91,5.8c0.22,0.13-9.84,2.53-9.84,2.53l1.47,16.88c0,0,24.16-6.18,27.33-6.98l5.8,22.49
					l13.52-3.49l-5.8-22.65c3.72-0.87,7.34-1.76,10.86-2.69l5.77,22.52l13.52-3.49l-5.8-22.46c20.83-5.06,35.53-18.2,32.52-38.29
					c-1.92-12.11-15.15-22.04-26.14-23.16C254.34,198.41,257.77,189.66,253.57,178.22L253.57,178.22z M247.07,231.25
					c2.69,19.9-24.96,22.33-34.09,24.73l-7.95-29.76C214.2,223.81,242.52,213.72,247.07,231.25z M230.41,190.72
					c2.85,17.69-20.79,19.74-28.42,21.69l-7.24-27.01C202.41,183.51,224.61,174.35,230.41,190.72z"/>
				<path class="st12" d="M214.2,94.38l-1.14,61.64c0,0-2.01,87.42,20.45,113.68c56.48,66.05,97.2,6.48,80.84,27.77
					c-23.08,30.03-59.35,49.38-100.15,49.38c-69.72,0-126.23-56.52-126.23-126.23S144.48,94.38,214.2,94.38z"/>
			</g>
			<g>
				<path class="st0" d="M322.65,156.01h-216.9c31.39-90.08,108.45-97,108.45-97l0,0C214.2,59.01,293.39,67.57,322.65,156.01z"/>
				<path class="st0" d="M214.2,59.01L214.2,59.01c0,0-77.06,6.92-108.45,97l108.45,0"/>
			</g>
			<g>
				<path class="st7" d="M322.65,156.01h-216.9c31.39-90.08,108.45-97,108.45-97l0,0C214.2,59.01,293.39,67.57,322.65,156.01z"/>
				<path class="st6" d="M214.2,59.01L214.2,59.01c0,0-77.06,6.92-108.45,97l108.45,0"/>
			</g>
			<g>
				<g>
					<path class="st0" d="M344.47,74.09c0,0,4.91,3.05,5.06,11.41v46.65c0,1.45,1.16,2.63,2.59,2.63s2.59-1.18,2.59-2.63V85.51
						c-0.1-4.24-0.93-6.23-0.93-6.23"/>
				</g>
				<g>
					<path class="st5" d="M344.47,74.09c0.79,0.63,1.67,1.46,2.47,2.57c2.51,3.45,2.64,7.22,2.59,8.84v46.65
						c0,1.45,1.16,2.63,2.59,2.63s2.59-1.18,2.59-2.63V85.51c0-2.45,0-3.01-0.93-6.23c-1.41-4.78-4.69-8.29-6.55-9.77"/>
				</g>
			</g>
			<g>
				<path class="st13" d="M345.19,147.08h13.76v-11.86c0-3.8-3.08-6.88-6.88-6.88l0,0c-3.8,0-6.88,3.08-6.88,6.88V147.08z"/>
				<path class="st5" d="M345.19,147.08h13.76v-11.86c0-3.8-3.08-6.88-6.88-6.88l0,0c-3.8,0-6.88,3.08-6.88,6.88V147.08z"/>
				<path class="st14" d="M352.07,147.08h6.88v-11.86c0-3.8-2.9-5.94-4.25-6.36l0,0c0,0-2.63-1.13-2.59,5.92L352.07,147.08z"/>
			</g>
			<path class="st0" d="M374.47,198.16c0-29.59-10.09-53.57-22.54-53.57s-22.54,23.99-22.54,53.57
				C329.39,208.31,374.47,208.31,374.47,198.16z"/>
			<path class="st5" d="M374.47,198.16c0-29.59-10.09-53.57-22.54-53.57s-22.54,23.99-22.54,53.57
				C329.39,208.31,374.47,208.31,374.47,198.16z"/>
			<path class="st14" d="M374.34,199.09c0.68-25.58-8.5-55.14-22.27-54.5c-1.74,0.08-20.26,51.65,7.2,60.81
				C373.59,204.06,374.34,199.09,374.34,199.09z"/>
		</g>
	</g>
	<g>
		<path class="st15" d="M207.07,369.92c0,0,30.71,31.8,50.38,38.93l-4.35-18.23l16.33-2c0,0-37.35-22.79-46.63-32.08L207.07,369.92z
			"/>
		<path class="st15" d="M200.53,356.17c0,0-26.69,20.44-39.38,41.96l15.93,0.27l4.07,15.95l32.31-43.58L200.53,356.17z"/>
		<path class="st16" d="M341.39,294.93c0,0,0.04-0.01,0.13-0.01c0.91-0.02,6.45,0.36,11.77,11.78c5.81,12.48,5.52,26,5.06,33.77
			c-0.46,7.77,2.58,29.51,5.73,36.16l-30.17-2.39c0,0-11.27-20.56-12.54-28.87c-1.27-8.32,0.41-39.4,0.74-41.25
			c0.33-1.85,3.46-6.35,6.09-7.47C330.82,295.54,339.81,294.56,341.39,294.93z"/>
		<path class="st17" d="M339.54,381.49c0,0,19.63,0.15,20.65-18.8c0.96-17.91,0.91-42.6-15.54-44.33l-25.22,2.8
			c0,0-7.74,23.84-5.05,33.37c2.69,9.53,4.34,13.63,6.58,17.07C323.2,375.02,326.84,380.52,339.54,381.49z"/>
		<path class="st16" d="M344.12,363.66c0,0,5.08,0.62,6.06-4.55c0.98-5.18,0.46-16.48-2.01-22.5l-17.58,0.36
			c0,0-0.2,14.46-0.25,16.74c-0.05,2.28,3.21,7.18,3.21,7.18S340.43,363.83,344.12,363.66z"/>
		<path class="st18" d="M344.65,318.35c0,0-4.53,0.24-6.85,5.85c-2.29,5.53-7.72,38.96,6.31,39.47c0,0-11.5-0.01-21.89-1.01
			l0.93-43.61C323.16,319.04,343.16,317.13,344.65,318.35z"/>
		<path class="st19" d="M341.39,294.93c0,0-5.49-0.47-9.89,2.48c-4.4,2.94-4.2,20.54-4.09,29c0.11,8.46-2.36,29.04-2.22,36.14
			c0.14,7.11,0.49,17.6,14.34,18.94c0,0-82.06-3.25-113.46-9.05c0,0-7.26-16.24-7.46-33.24c-0.14-12.28,5.58-27.78,8.57-32.36
			C227.19,306.84,336.53,292.45,341.39,294.93z"/>
		<path class="st3" d="M224.68,362.35C224.68,362.35,228.35,358.54,224.68,362.35c-4.3,4.46,108.76,18.19,108.76,18.19l0,0l0,0
			c0,0-75.96-2.3-107.36-8.1L224.68,362.35L224.68,362.35C224.68,362.35,219.81,359.87,224.68,362.35z"/>
		<path class="st19" d="M86.6,295.31c36.28,3.97,72.57,7.93,108.85,11.9l2.33,23.14l-2.82,40.53l-112.16,0.96
			c-10.89-0.18-11.33-0.43-13.09-4.46c-9.65-22.02-4.99-55.86,6.63-70C79.61,293.38,83.19,295.57,86.6,295.31z"/>
		<path class="st20" d="M79.66,294.94c3.24,56.82,90.65,66.99,112.69,68.75l2.6,7.19l0,0l-112.16,0.96
			c-10.89-0.18-11.33-0.43-13.09-4.46c-9.65-22.02-4.99-55.86,6.63-70C79.61,293.38,76.26,295.2,79.66,294.94z"/>
		<path class="st15" d="M227.19,306.84c0,0-5.24-1.56-13.27-1.74c-8.02-0.19-18.48,2.11-18.48,2.11s-2.5,15.67-2.97,27.33
			c-0.47,11.66,0.47,28.93,2.48,36.34c0,0,14.08,4.05,31.13,1.56C226.08,372.44,217.39,335.88,227.19,306.84z"/>
		<path class="st21" d="M195.55,308.29c7.45-5.91,31.64-1.44,31.64-1.44c-7.2,20.09-4.27,36.45-1.11,65.6
			C227.19,382.7,192.29,310.88,195.55,308.29z"/>
	</g>
</g>
<g>
	<path class="st11" d="M493.04,150.25c-4.56,0-9.1-0.14-13.62-0.42c-4.52-0.28-9.22-0.94-14.1-1.98V67.21
		c3.84-0.72,8.04-1.26,12.6-1.62c4.56-0.36,8.8-0.54,12.72-0.54c5.28,0,10.14,0.38,14.58,1.14c4.44,0.76,8.26,2.06,11.46,3.9
		c3.2,1.84,5.7,4.26,7.5,7.26s2.7,6.7,2.7,11.1c0,6.64-3.2,11.88-9.6,15.72c5.28,2,8.88,4.72,10.8,8.16
		c1.92,3.44,2.88,7.32,2.88,11.64c0,8.72-3.18,15.28-9.54,19.68C515.06,148.05,505.6,150.25,493.04,150.25z M483.56,98.65h9.12
		c5.76,0,9.88-0.74,12.36-2.22c2.48-1.48,3.72-3.86,3.72-7.14c0-3.36-1.28-5.72-3.84-7.08c-2.56-1.36-6.32-2.04-11.28-2.04
		c-1.6,0-3.32,0.02-5.16,0.06c-1.84,0.04-3.48,0.14-4.92,0.3V98.65z M483.56,112.93v21.48c1.36,0.16,2.84,0.28,4.44,0.36
		c1.6,0.08,3.36,0.12,5.28,0.12c5.6,0,10.12-0.8,13.56-2.4c3.44-1.6,5.16-4.56,5.16-8.88c0-3.84-1.44-6.58-4.32-8.22
		c-2.88-1.64-7-2.46-12.36-2.46H483.56z"/>
	<path class="st11" d="M564.32,67.81c0,3.28-1.06,5.86-3.18,7.74c-2.12,1.88-4.62,2.82-7.5,2.82s-5.38-0.94-7.5-2.82
		c-2.12-1.88-3.18-4.46-3.18-7.74c0-3.28,1.06-5.86,3.18-7.74c2.12-1.88,4.62-2.82,7.5-2.82s5.38,0.94,7.5,2.82
		C563.26,61.95,564.32,64.53,564.32,67.81z M562.64,149.17h-17.88V86.05h17.88V149.17z"/>
	<path class="st11" d="M578.84,70.33l17.88-2.88v18.6h21.48v14.88h-21.48v22.2c0,3.76,0.66,6.76,1.98,9
		c1.32,2.24,3.98,3.36,7.98,3.36c1.92,0,3.9-0.18,5.94-0.54c2.04-0.36,3.9-0.86,5.58-1.5l2.52,13.92c-2.16,0.88-4.56,1.64-7.2,2.28
		c-2.64,0.64-5.88,0.96-9.72,0.96c-4.88,0-8.92-0.66-12.12-1.98c-3.2-1.32-5.76-3.16-7.68-5.52c-1.92-2.36-3.26-5.22-4.02-8.58
		c-0.76-3.36-1.14-7.08-1.14-11.16V70.33z"/>
	<path class="st11" d="M627.32,117.61c0-4.56,0.74-8.86,2.22-12.9c1.48-4.04,3.62-7.56,6.42-10.56c2.8-3,6.2-5.38,10.2-7.14
		c4-1.76,8.56-2.64,13.68-2.64c3.36,0,6.44,0.3,9.24,0.9c2.8,0.6,5.52,1.46,8.16,2.58l-3.72,14.28c-1.68-0.64-3.52-1.2-5.52-1.68
		c-2-0.48-4.24-0.72-6.72-0.72c-5.28,0-9.22,1.64-11.82,4.92c-2.6,3.28-3.9,7.6-3.9,12.96c0,5.68,1.22,10.08,3.66,13.2
		c2.44,3.12,6.7,4.68,12.78,4.68c2.16,0,4.48-0.2,6.96-0.6c2.48-0.4,4.76-1.04,6.84-1.92l2.52,14.64c-2.08,0.88-4.68,1.64-7.8,2.28
		c-3.12,0.64-6.56,0.96-10.32,0.96c-5.76,0-10.72-0.86-14.88-2.58c-4.16-1.72-7.58-4.06-10.26-7.02c-2.68-2.96-4.64-6.46-5.88-10.5
		C627.94,126.71,627.32,122.33,627.32,117.61z"/>
	<path class="st11" d="M746.36,117.49c0,4.96-0.72,9.5-2.16,13.62c-1.44,4.12-3.52,7.64-6.24,10.56c-2.72,2.92-5.98,5.18-9.78,6.78
		c-3.8,1.6-8.06,2.4-12.78,2.4c-4.64,0-8.86-0.8-12.66-2.4c-3.8-1.6-7.06-3.86-9.78-6.78c-2.72-2.92-4.84-6.44-6.36-10.56
		c-1.52-4.12-2.28-8.66-2.28-13.62c0-4.96,0.78-9.48,2.34-13.56c1.56-4.08,3.72-7.56,6.48-10.44c2.76-2.88,6.04-5.12,9.84-6.72
		c3.8-1.6,7.94-2.4,12.42-2.4c4.56,0,8.74,0.8,12.54,2.4c3.8,1.6,7.06,3.84,9.78,6.72c2.72,2.88,4.84,6.36,6.36,10.44
		C745.6,108.01,746.36,112.53,746.36,117.49z M728.12,117.49c0-5.52-1.1-9.86-3.3-13.02c-2.2-3.16-5.34-4.74-9.42-4.74
		c-4.08,0-7.24,1.58-9.48,4.74c-2.24,3.16-3.36,7.5-3.36,13.02s1.12,9.9,3.36,13.14c2.24,3.24,5.4,4.86,9.48,4.86
		c4.08,0,7.22-1.62,9.42-4.86C727.02,127.39,728.12,123.01,728.12,117.49z"/>
	<path class="st11" d="M779.72,67.81c0,3.28-1.06,5.86-3.18,7.74c-2.12,1.88-4.62,2.82-7.5,2.82s-5.38-0.94-7.5-2.82
		c-2.12-1.88-3.18-4.46-3.18-7.74c0-3.28,1.06-5.86,3.18-7.74c2.12-1.88,4.62-2.82,7.5-2.82s5.38,0.94,7.5,2.82
		C778.66,61.95,779.72,64.53,779.72,67.81z M778.04,149.17h-17.88V86.05h17.88V149.17z"/>
	<path class="st11" d="M794.84,88.21c3.04-0.88,6.96-1.7,11.76-2.46c4.8-0.76,9.84-1.14,15.12-1.14c5.36,0,9.82,0.7,13.38,2.1
		c3.56,1.4,6.38,3.38,8.46,5.94c2.08,2.56,3.56,5.6,4.44,9.12c0.88,3.52,1.32,7.44,1.32,11.76v35.64h-17.88v-33.48
		c0-5.76-0.76-9.84-2.28-12.24c-1.52-2.4-4.36-3.6-8.52-3.6c-1.28,0-2.64,0.06-4.08,0.18c-1.44,0.12-2.72,0.26-3.84,0.42v48.72
		h-17.88V88.21z"/>
	<path class="st9" d="M503.24,260.85c-13.52,0-23.82-3.76-30.9-11.28c-7.08-7.52-10.62-18.2-10.62-32.04
		c0-6.88,1.08-13.02,3.24-18.42s5.12-9.96,8.88-13.68c3.76-3.72,8.24-6.54,13.44-8.46c5.2-1.92,10.84-2.88,16.92-2.88
		c3.52,0,6.72,0.26,9.6,0.78c2.88,0.52,5.4,1.12,7.56,1.8c2.16,0.68,3.96,1.38,5.4,2.1c1.44,0.72,2.48,1.28,3.12,1.68l-5.4,15.12
		c-2.56-1.36-5.54-2.52-8.94-3.48c-3.4-0.96-7.26-1.44-11.58-1.44c-2.88,0-5.7,0.48-8.46,1.44c-2.76,0.96-5.2,2.5-7.32,4.62
		c-2.12,2.12-3.82,4.86-5.1,8.22c-1.28,3.36-1.92,7.44-1.92,12.24c0,3.84,0.42,7.42,1.26,10.74c0.84,3.32,2.2,6.18,4.08,8.58
		c1.88,2.4,4.34,4.3,7.38,5.7c3.04,1.4,6.72,2.1,11.04,2.1c2.72,0,5.16-0.16,7.32-0.48c2.16-0.32,4.08-0.7,5.76-1.14
		c1.68-0.44,3.16-0.94,4.44-1.5c1.28-0.56,2.44-1.08,3.48-1.56l5.16,15c-2.64,1.6-6.36,3.04-11.16,4.32
		C515.12,260.21,509.56,260.85,503.24,260.85z"/>
	<path class="st9" d="M565.76,194.37c5.28,0,9.68,0.6,13.2,1.8c3.52,1.2,6.34,2.92,8.46,5.16c2.12,2.24,3.62,4.96,4.5,8.16
		c0.88,3.2,1.32,6.76,1.32,10.68v37.2c-2.56,0.56-6.12,1.22-10.68,1.98c-4.56,0.76-10.08,1.14-16.56,1.14
		c-4.08,0-7.78-0.36-11.1-1.08c-3.32-0.72-6.18-1.9-8.58-3.54c-2.4-1.64-4.24-3.78-5.52-6.42c-1.28-2.64-1.92-5.88-1.92-9.72
		c0-3.68,0.74-6.8,2.22-9.36c1.48-2.56,3.46-4.6,5.94-6.12c2.48-1.52,5.32-2.62,8.52-3.3c3.2-0.68,6.52-1.02,9.96-1.02
		c2.32,0,4.38,0.1,6.18,0.3c1.8,0.2,3.26,0.46,4.38,0.78v-1.68c0-3.04-0.92-5.48-2.76-7.32c-1.84-1.84-5.04-2.76-9.6-2.76
		c-3.04,0-6.04,0.22-9,0.66c-2.96,0.44-5.52,1.06-7.68,1.86l-2.28-14.4c1.04-0.32,2.34-0.66,3.9-1.02c1.56-0.36,3.26-0.68,5.1-0.96
		c1.84-0.28,3.78-0.52,5.82-0.72C561.62,194.47,563.68,194.37,565.76,194.37z M567.2,246.69c1.76,0,3.44-0.04,5.04-0.12
		c1.6-0.08,2.88-0.2,3.84-0.36v-13.56c-0.72-0.16-1.8-0.32-3.24-0.48c-1.44-0.16-2.76-0.24-3.96-0.24c-1.68,0-3.26,0.1-4.74,0.3
		c-1.48,0.2-2.78,0.58-3.9,1.14c-1.12,0.56-2,1.32-2.64,2.28c-0.64,0.96-0.96,2.16-0.96,3.6c0,2.8,0.94,4.74,2.82,5.82
		C561.34,246.15,563.92,246.69,567.2,246.69z"/>
	<path class="st9" d="M627.56,246.33c3.28,0,5.6-0.32,6.96-0.96c1.36-0.64,2.04-1.88,2.04-3.72c0-1.44-0.88-2.7-2.64-3.78
		c-1.76-1.08-4.44-2.3-8.04-3.66c-2.8-1.04-5.34-2.12-7.62-3.24c-2.28-1.12-4.22-2.46-5.82-4.02c-1.6-1.56-2.84-3.42-3.72-5.58
		c-0.88-2.16-1.32-4.76-1.32-7.8c0-5.92,2.2-10.6,6.6-14.04c4.4-3.44,10.44-5.16,18.12-5.16c3.84,0,7.52,0.34,11.04,1.02
		c3.52,0.68,6.32,1.42,8.4,2.22l-3.12,13.92c-2.08-0.72-4.34-1.36-6.78-1.92c-2.44-0.56-5.18-0.84-8.22-0.84
		c-5.6,0-8.4,1.56-8.4,4.68c0,0.72,0.12,1.36,0.36,1.92c0.24,0.56,0.72,1.1,1.44,1.62c0.72,0.52,1.7,1.08,2.94,1.69
		c1.24,0.61,2.82,1.27,4.74,2c3.92,1.45,7.16,2.89,9.72,4.3c2.56,1.41,4.58,2.94,6.06,4.57c1.48,1.64,2.52,3.45,3.12,5.45
		c0.6,1.99,0.9,4.31,0.9,6.94c0,6.23-2.34,10.94-7.02,14.13c-4.68,3.19-11.3,4.79-19.86,4.79c-5.6,0-10.26-0.48-13.98-1.44
		s-6.3-1.76-7.74-2.4l3-14.52c3.04,1.2,6.16,2.14,9.36,2.82C621.28,245.99,624.44,246.33,627.56,246.33z"/>
	<path class="st9" d="M667.64,259.17v-90.24l17.88-2.88v30.24c1.2-0.4,2.74-0.78,4.62-1.14c1.88-0.36,3.7-0.54,5.46-0.54
		c5.12,0,9.38,0.7,12.78,2.1c3.4,1.4,6.12,3.38,8.16,5.94c2.04,2.56,3.48,5.6,4.32,9.12c0.84,3.52,1.26,7.44,1.26,11.76v35.64
		h-17.88v-33.48c0-5.76-0.74-9.84-2.22-12.24c-1.48-2.4-4.22-3.6-8.22-3.6c-1.6,0-3.1,0.14-4.5,0.42c-1.4,0.28-2.66,0.58-3.78,0.9
		v48H667.64z"/>
	<path class="st11" d="M519.56,369.17c-0.16-3.12-0.34-6.18-0.54-9.18c-0.2-3-0.42-5.98-0.66-8.94h-31.2
		c-1.6,2.96-3.28,5.94-5.04,8.94c-1.76,3-3.44,6.06-5.04,9.18h-19.56c5.2-8.96,10.06-17.24,14.58-24.84
		c4.52-7.6,8.88-14.76,13.08-21.48c4.2-6.72,8.3-13.1,12.3-19.14c4-6.04,8.08-11.94,12.24-17.7h16.68
		c1.28,5.76,2.5,12.14,3.66,19.14c1.16,7,2.24,14.16,3.24,21.48c1,7.32,1.92,14.64,2.76,21.96s1.62,14.18,2.34,20.58H519.56z
		 M514.04,304.25c-3.36,5.36-6.66,10.68-9.9,15.96s-6.38,10.68-9.42,16.2h22.44c-0.4-4.88-0.82-10.08-1.26-15.6
		C515.46,315.29,514.84,309.77,514.04,304.25z"/>
	<path class="st11" d="M551,343.97c0-5.44,0.88-10.56,2.64-15.36c1.76-4.8,4.28-9,7.56-12.6c3.28-3.6,7.26-6.44,11.94-8.52
		c4.68-2.08,9.9-3.12,15.66-3.12c3.6,0,6.82,0.34,9.66,1.02c2.84,0.68,5.42,1.58,7.74,2.7l-6.12,13.92
		c-1.6-0.64-3.26-1.22-4.98-1.74c-1.72-0.52-3.82-0.78-6.3-0.78c-6,0-10.72,2.02-14.16,6.06c-3.44,4.04-5.16,9.54-5.16,16.5
		c0,4.08,0.88,7.38,2.64,9.9c1.76,2.52,5,3.78,9.72,3.78c2.32,0,4.56-0.24,6.72-0.72c2.16-0.48,4.08-1.08,5.76-1.8l1.32,14.28
		c-2.24,0.88-4.7,1.66-7.38,2.34c-2.68,0.68-5.94,1.02-9.78,1.02c-4.96,0-9.16-0.72-12.6-2.16c-3.44-1.44-6.28-3.38-8.52-5.82
		c-2.24-2.44-3.86-5.3-4.86-8.58C551.5,351.01,551,347.57,551,343.97z"/>
	<path class="st11" d="M661.77,341.93c-1.12,4.56-1.44,9.14-0.96,13.74c0.48,4.6,1.4,8.7,2.76,12.3l-15.96,2.28
		c-0.48-0.96-0.92-1.88-1.32-2.76c-0.4-0.88-0.8-1.88-1.2-3c-2.24,1.84-4.72,3.36-7.44,4.56c-2.72,1.2-5.76,1.8-9.12,1.8
		c-4,0-7.42-0.7-10.26-2.1c-2.84-1.4-5.16-3.28-6.96-5.64c-1.8-2.36-3.1-5.12-3.9-8.28c-0.8-3.16-1.2-6.54-1.2-10.14
		c0-5.52,0.98-10.72,2.94-15.6c1.96-4.88,4.68-9.14,8.16-12.78c3.48-3.64,7.58-6.5,12.3-8.58c4.72-2.08,9.84-3.12,15.36-3.12
		c0.72,0,1.98,0.04,3.78,0.12c1.8,0.08,3.86,0.26,6.18,0.54c2.32,0.28,4.76,0.74,7.32,1.38c2.56,0.64,5,1.52,7.32,2.64
		L661.77,341.93z M649.29,319.85c-1.04-0.16-1.98-0.28-2.82-0.36c-0.84-0.08-1.86-0.12-3.06-0.12c-2.72,0-5.26,0.68-7.62,2.04
		c-2.36,1.36-4.42,3.14-6.18,5.34c-1.76,2.2-3.14,4.74-4.14,7.62c-1,2.88-1.5,5.88-1.5,9c0,3.84,0.64,6.88,1.92,9.12
		c1.28,2.24,3.64,3.36,7.08,3.36c1.84,0,3.5-0.36,4.98-1.08c1.48-0.72,3.06-1.92,4.74-3.6c0.16-2,0.42-4.1,0.78-6.3
		c0.36-2.2,0.74-4.22,1.14-6.06L649.29,319.85z"/>
	<path class="st11" d="M699.2,370.85c-4,0-7.42-0.68-10.26-2.04c-2.84-1.36-5.16-3.22-6.96-5.58c-1.8-2.36-3.12-5.12-3.96-8.28
		c-0.84-3.16-1.26-6.54-1.26-10.14c0-5.44,0.98-10.58,2.94-15.42c1.96-4.84,4.66-9.06,8.1-12.66c3.44-3.6,7.52-6.44,12.24-8.52
		c4.72-2.08,9.88-3.12,15.48-3.12c1.44,0,2.78,0.08,4.02,0.24c1.24,0.16,2.5,0.4,3.78,0.72l6.48-27.12l18.6-2.88l-15.84,65.88
		c-1.12,4.56-1.44,9.14-0.96,13.74c0.48,4.6,1.4,8.7,2.76,12.3l-15.96,2.28c-0.48-0.96-0.92-1.88-1.32-2.76
		c-0.4-0.88-0.8-1.88-1.2-3c-2.24,1.84-4.74,3.36-7.5,4.56S702.56,370.85,699.2,370.85z M719.84,320.33
		c-0.48-0.08-0.9-0.16-1.26-0.24c-0.36-0.08-0.72-0.14-1.08-0.18c-0.36-0.04-0.82-0.06-1.38-0.06c-0.56,0-1.28,0-2.16,0
		c-2.8,0-5.4,0.66-7.8,1.98c-2.4,1.32-4.46,3.1-6.18,5.34c-1.72,2.24-3.06,4.78-4.02,7.62c-0.96,2.84-1.44,5.74-1.44,8.7
		c0,3.84,0.66,6.86,1.98,9.06c1.32,2.2,3.7,3.3,7.14,3.3c1.84,0,3.52-0.36,5.04-1.08c1.52-0.72,3.12-1.92,4.8-3.6
		c0.16-2,0.42-4.1,0.78-6.3c0.36-2.2,0.74-4.22,1.14-6.06L719.84,320.33z"/>
	<path class="st11" d="M747.57,344.45c0-5.12,0.9-10.08,2.7-14.88c1.8-4.8,4.34-9.06,7.62-12.78c3.28-3.72,7.26-6.72,11.94-9
		c4.68-2.28,9.86-3.42,15.54-3.42c2.8,0,5.4,0.4,7.8,1.2c2.4,0.8,4.5,1.96,6.3,3.48c1.8,1.52,3.2,3.38,4.2,5.58
		c1,2.2,1.5,4.7,1.5,7.5c0,4.48-1,8.28-3,11.4c-2,3.12-4.78,5.66-8.34,7.62c-3.56,1.96-7.78,3.38-12.66,4.26
		c-4.88,0.88-10.2,1.32-15.96,1.32c0.56,3.36,1.78,5.74,3.66,7.14c1.88,1.4,4.86,2.1,8.94,2.1c2.56,0,5.16-0.22,7.8-0.66
		c2.64-0.44,5.12-1.1,7.44-1.98l1.32,14.04c-2.24,0.88-5.1,1.68-8.58,2.4c-3.48,0.72-7.26,1.08-11.34,1.08
		c-4.96,0-9.14-0.7-12.54-2.1c-3.4-1.4-6.16-3.3-8.28-5.7c-2.12-2.4-3.66-5.2-4.62-8.4C748.05,351.45,747.57,348.05,747.57,344.45z
		 M782.49,318.53c-4.08,0-7.66,1.46-10.74,4.38c-3.08,2.92-5.1,6.78-6.06,11.58c4.96-0.16,8.96-0.58,12-1.26
		c3.04-0.68,5.4-1.5,7.08-2.46c1.68-0.96,2.8-2,3.36-3.12c0.56-1.12,0.84-2.24,0.84-3.36C788.97,320.45,786.81,318.53,782.49,318.53
		z"/>
	<path class="st11" d="M822.08,308.93c1.36-0.4,2.82-0.86,4.38-1.38c1.56-0.52,3.32-1,5.28-1.44c1.96-0.44,4.16-0.8,6.6-1.08
		c2.44-0.28,5.26-0.42,8.46-0.42c3.84,0,7.02,0.48,9.54,1.44c2.52,0.96,4.82,2.4,6.9,4.32c2.96-1.68,5.9-3.06,8.82-4.14
		c2.92-1.08,6.34-1.62,10.26-1.62c3.76,0,6.98,0.5,9.66,1.5c2.68,1,4.9,2.44,6.66,4.32c1.76,1.88,3.04,4.12,3.84,6.72
		c0.8,2.6,1.2,5.46,1.2,8.58c0,1.44-0.1,2.96-0.3,4.56c-0.2,1.6-0.5,3.2-0.9,4.8l-8.16,34.08h-17.88l7.92-33.36
		c0.24-1.12,0.5-2.38,0.78-3.78c0.28-1.4,0.42-2.78,0.42-4.14c0-2.24-0.52-4.18-1.56-5.82c-1.04-1.64-3.08-2.46-6.12-2.46
		c-1.68,0-3.28,0.3-4.8,0.9c-1.52,0.6-2.88,1.22-4.08,1.86c0.16,0.64,0.24,1.24,0.24,1.8c0,0.56,0,1.08,0,1.56
		c0,1.44-0.1,2.96-0.3,4.56c-0.2,1.6-0.5,3.2-0.9,4.8l-8.16,34.08H842l7.92-33.36c0.24-1.12,0.5-2.38,0.78-3.78
		c0.28-1.4,0.42-2.78,0.42-4.14c0-2.24-0.52-4.18-1.56-5.82c-1.04-1.64-3.08-2.46-6.12-2.46c-1.28,0-2.36,0.06-3.24,0.18
		c-0.88,0.12-1.92,0.3-3.12,0.54l-11.64,48.84h-17.88L822.08,308.93z"/>
	<path class="st11" d="M975.21,306.05c-2.24,6.08-4.5,11.76-6.78,17.04c-2.28,5.28-4.66,10.3-7.14,15.06
		c-2.48,4.76-5.04,9.3-7.68,13.62c-2.64,4.32-5.44,8.6-8.4,12.84c-2.16,3.12-4.4,6.28-6.72,9.48c-2.32,3.2-4.9,6.08-7.74,8.64
		c-2.84,2.56-6,4.64-9.48,6.24c-3.48,1.6-7.5,2.4-12.06,2.4c-2.8,0-5.2-0.26-7.2-0.78c-2-0.52-3.88-1.22-5.64-2.1l5.4-14.04
		c1.6,0.64,3.04,1.14,4.32,1.5c1.28,0.36,2.84,0.54,4.68,0.54c2.8,0,5.46-0.9,7.98-2.7c2.52-1.8,4.62-4.22,6.3-7.26
		c-2.08-8-3.98-16.96-5.7-26.88c-1.72-9.92-2.9-21.12-3.54-33.6h18.36c0.08,3.12,0.24,6.56,0.48,10.32
		c0.24,3.76,0.52,7.54,0.84,11.34c0.32,3.8,0.68,7.5,1.08,11.1c0.4,3.6,0.84,6.84,1.32,9.72c3.84-5.76,7.22-12.16,10.14-19.2
		c2.92-7.04,5.66-14.8,8.22-23.28H975.21z"/>
</g>
</svg>
