<svg id="Capa_1" xmlns="http://www.w3.org/2000/svg" xmlns:xlink="http://www.w3.org/1999/xlink" viewBox="0 0 977.2 415.71" style="enable-background:new 0 0 977.2 415.71"><style>.st0{stroke:#000;stroke-width:3;stroke-miterlimit:10}.st1{fill:#3c3c3b;stroke:#000;stroke-width:2.5;stroke-miterlimit:10}.st2{fill:#fcbe0c;stroke:#000;stroke-width:.3;stroke-miterlimit:10}.st3{opacity:.1}.st4{fill:#3c3c3b;stroke:#000;stroke-width:3;stroke-miterlimit:10}.st5{fill:#fcc23b}.st6{fill:#454545}.st7{fill:#4e4d4d}.st8{fill:#4e4d4d;stroke:#000;stroke-miterlimit:10}.st9{fill:#3ab28a}.st10{stroke:#000;stroke-width:3;stroke-linecap:round;stroke-linejoin:round;stroke-miterlimit:10}.st11{fill:#fff}.st12{opacity:.05;fill:#010202}.st13{fill:#fcc23b;stroke:#000;stroke-width:3;stroke-miterlimit:10}.st14{opacity:.1;fill:#fff}.st15{fill:#d43732;stroke:#000;stroke-width:1.2;stroke-miterlimit:10}.st16{fill:#706f6f;stroke:#000;stroke-width:1.2;stroke-miterlimit:10}.st17{fill:#9d9d9c;stroke:#000;stroke-width:1.2;stroke-miterlimit:10}.st18{fill:#b2b2b2;stroke:#000;stroke-width:1.2;stroke-miterlimit:10}.st19{fill:#c6c6c6;stroke:#000;stroke-width:1.2;stroke-miterlimit:10}.st20{opacity:.1;stroke:#000;stroke-width:1.2;stroke-miterlimit:10}.st21{opacity:.1;fill:#f6f6f6}</style><g><path class="st0" d="M493.04 150.25c12.56.0 22.02-2.2 28.38-6.6s9.54-10.96 9.54-19.68c0-4.32-.96-8.2-2.88-11.64s-5.52-6.16-10.8-8.16c6.4-3.84 9.6-9.08 9.6-15.72.0-4.4-.9-8.1-2.7-11.1s-4.3-5.42-7.5-7.26-7.02-3.14-11.46-3.9-9.3-1.14-14.58-1.14c-3.92.0-8.16.18-12.72.54s-8.76.9-12.6 1.62v80.64c4.88 1.04 9.58 1.7 14.1 1.98C483.94 150.11 488.48 150.25 493.04 150.25zM483.56 80.53c1.44-.16 3.08-.26 4.92-.3 1.84-.04 3.56-.06 5.16-.06 4.96.0 8.72.68 11.28 2.04 2.56 1.36 3.84 3.72 3.84 7.08.0 3.28-1.24 5.66-3.72 7.14s-6.6 2.22-12.36 2.22h-9.12V80.53zm0 32.4h11.76c5.36.0 9.48.82 12.36 2.46s4.32 4.38 4.32 8.22c0 4.32-1.72 7.28-5.16 8.88-3.44 1.6-7.96 2.4-13.56 2.4-1.92.0-3.68-.04-5.28-.12-1.6-.08-3.08-.2-4.44-.36V112.93z"/><path class="st0" d="M546.14 75.55c2.12 1.88 4.62 2.82 7.5 2.82s5.38-.94 7.5-2.82 3.18-4.46 3.18-7.74-1.06-5.86-3.18-7.74-4.62-2.82-7.5-2.82-5.38.94-7.5 2.82-3.18 4.46-3.18 7.74S544.02 73.67 546.14 75.55z"/><rect x="544.76" y="86.05" class="st0" width="17.88" height="63.12"/><path class="st0" d="M584 143.11c1.92 2.36 4.48 4.2 7.68 5.52 3.2 1.32 7.24 1.98 12.12 1.98 3.84.0 7.08-.32 9.72-.96 2.64-.64 5.04-1.4 7.2-2.28l-2.52-13.92c-1.68.64-3.54 1.14-5.58 1.5-2.04.36-4.02.54-5.94.54-4 0-6.66-1.12-7.98-3.36s-1.98-5.24-1.98-9v-22.2h21.48V86.05h-21.48v-18.6l-17.88 2.88v53.04c0 4.08.38 7.8 1.14 11.16C580.74 137.89 582.08 140.75 584 143.11z"/><path class="st0" d="M635.06 141.25c2.68 2.96 6.1 5.3 10.26 7.02s9.12 2.58 14.88 2.58c3.76.0 7.2-.32 10.32-.96 3.12-.64 5.72-1.4 7.8-2.28l-2.52-14.64c-2.08.88-4.36 1.52-6.84 1.92-2.48.4-4.8.6-6.96.6-6.08.0-10.34-1.56-12.78-4.68-2.44-3.12-3.66-7.52-3.66-13.2.0-5.36 1.3-9.68 3.9-12.96s6.54-4.92 11.82-4.92c2.48.0 4.72.24 6.72.72s3.84 1.04 5.52 1.68l3.72-14.28c-2.64-1.12-5.36-1.98-8.16-2.58s-5.88-.9-9.24-.9c-5.12.0-9.68.88-13.68 2.64s-7.4 4.14-10.2 7.14c-2.8 3-4.94 6.52-6.42 10.56-1.48 4.04-2.22 8.34-2.22 12.9.0 4.72.62 9.1 1.86 13.14C630.42 134.79 632.38 138.29 635.06 141.25z"/><path class="st0" d="M692.96 141.67c2.72 2.92 5.98 5.18 9.78 6.78s8.02 2.4 12.66 2.4c4.72.0 8.98-.8 12.78-2.4s7.06-3.86 9.78-6.78 4.8-6.44 6.24-10.56 2.16-8.66 2.16-13.62c0-4.96-.76-9.48-2.28-13.56s-3.64-7.56-6.36-10.44-5.98-5.12-9.78-6.72-7.98-2.4-12.54-2.4c-4.48.0-8.62.8-12.42 2.4-3.8 1.6-7.08 3.84-9.84 6.72s-4.92 6.36-6.48 10.44c-1.56 4.08-2.34 8.6-2.34 13.56.0 4.96.76 9.5 2.28 13.62C688.12 135.23 690.24 138.75 692.96 141.67zM705.92 104.47c2.24-3.16 5.4-4.74 9.48-4.74s7.22 1.58 9.42 4.74c2.2 3.16 3.3 7.5 3.3 13.02s-1.1 9.9-3.3 13.14c-2.2 3.24-5.34 4.86-9.42 4.86-4.08.0-7.24-1.62-9.48-4.86-2.24-3.24-3.36-7.62-3.36-13.14S703.68 107.63 705.92 104.47z"/><rect x="760.16" y="86.05" class="st0" width="17.88" height="63.12"/><path class="st0" d="M761.54 75.55c2.12 1.88 4.62 2.82 7.5 2.82s5.38-.94 7.5-2.82 3.18-4.46 3.18-7.74-1.06-5.86-3.18-7.74-4.62-2.82-7.5-2.82-5.38.94-7.5 2.82-3.18 4.46-3.18 7.74S759.42 73.67 761.54 75.55z"/><path class="st0" d="M812.72 100.45c1.12-.16 2.4-.3 3.84-.42s2.8-.18 4.08-.18c4.16.0 7 1.2 8.52 3.6 1.52 2.4 2.28 6.48 2.28 12.24v33.48h17.88v-35.64c0-4.32-.44-8.24-1.32-11.76-.88-3.52-2.36-6.56-4.44-9.12s-4.9-4.54-8.46-5.94c-3.56-1.4-8.02-2.1-13.38-2.1-5.28.0-10.32.38-15.12 1.14s-8.72 1.58-11.76 2.46v60.96h17.88V100.45z"/><path class="st0" d="M503.24 260.85c6.32.0 11.88-.64 16.68-1.92 4.8-1.28 8.52-2.72 11.16-4.32l-5.16-15c-1.04.48-2.2 1-3.48 1.56s-2.76 1.06-4.44 1.5c-1.68.44-3.6.82-5.76 1.14-2.16.32-4.6.48-7.32.48-4.32.0-8-.7-11.04-2.1s-5.5-3.3-7.38-5.7c-1.88-2.4-3.24-5.26-4.08-8.58-.84-3.32-1.26-6.9-1.26-10.74.0-4.8.64-8.88 1.92-12.24 1.28-3.36 2.98-6.1 5.1-8.22s4.56-3.66 7.32-4.62 5.58-1.44 8.46-1.44c4.32.0 8.18.48 11.58 1.44 3.4.96 6.38 2.12 8.94 3.48l5.4-15.12c-.64-.4-1.68-.96-3.12-1.68s-3.24-1.42-5.4-2.1-4.68-1.28-7.56-1.8-6.08-.78-9.6-.78c-6.08.0-11.72.96-16.92 2.88s-9.68 4.74-13.44 8.46-6.72 8.28-8.88 13.68-3.24 11.54-3.24 18.42c0 13.84 3.54 24.52 10.62 32.04C479.42 257.09 489.72 260.85 503.24 260.85z"/><path class="st0" d="M566 260.49c6.48.0 12-.38 16.56-1.14s8.12-1.42 10.68-1.98v-37.2c0-3.92-.44-7.48-1.32-10.68-.88-3.2-2.38-5.92-4.5-8.16s-4.94-3.96-8.46-5.16-7.92-1.8-13.2-1.8c-2.08.0-4.14.1-6.18.3-2.04.2-3.98.44-5.82.72s-3.54.6-5.1.96c-1.56.36-2.86.7-3.9 1.02l2.28 14.4c2.16-.8 4.72-1.42 7.68-1.86 2.96-.44 5.96-.66 9-.66 4.56.0 7.76.92 9.6 2.76s2.76 4.28 2.76 7.32v1.68c-1.12-.32-2.58-.58-4.38-.78s-3.86-.3-6.18-.3c-3.44.0-6.76.34-9.96 1.02s-6.04 1.78-8.52 3.3-4.46 3.56-5.94 6.12-2.22 5.68-2.22 9.36c0 3.84.64 7.08 1.92 9.72s3.12 4.78 5.52 6.42 5.26 2.82 8.58 3.54C558.22 260.13 561.92 260.49 566 260.49zM557.6 235.65c.64-.96 1.52-1.72 2.64-2.28s2.42-.94 3.9-1.14 3.06-.3 4.74-.3c1.2.0 2.52.08 3.96.24s2.52.32 3.24.48v13.56c-.96.16-2.24.28-3.84.36s-3.28.12-5.04.12c-3.28.0-5.86-.54-7.74-1.62s-2.82-3.02-2.82-5.82C556.64 237.81 556.96 236.61 557.6 235.65z"/><path class="st0" d="M634.52 245.37c-1.36.64-3.68.96-6.96.96-3.12.0-6.28-.34-9.48-1.02s-6.32-1.62-9.36-2.82l-3 14.52c1.44.64 4.02 1.44 7.74 2.4s8.38 1.44 13.98 1.44c8.56.0 15.18-1.6 19.86-4.79 4.68-3.19 7.02-7.9 7.02-14.13.0-2.63-.3-4.95-.9-6.94-.6-2-1.64-3.81-3.12-5.45-1.48-1.63-3.5-3.16-6.06-4.57s-5.8-2.84-9.72-4.3c-1.92-.72-3.5-1.39-4.74-2-1.24-.6-2.22-1.17-2.94-1.69s-1.2-1.06-1.44-1.62-.36-1.2-.36-1.92c0-3.12 2.8-4.68 8.4-4.68 3.04.0 5.78.28 8.22.84s4.7 1.2 6.78 1.92l3.12-13.92c-2.08-.8-4.88-1.54-8.4-2.22s-7.2-1.02-11.04-1.02c-7.68.0-13.72 1.72-18.12 5.16s-6.6 8.12-6.6 14.04c0 3.04.44 5.64 1.32 7.8.88 2.16 2.12 4.02 3.72 5.58s3.54 2.9 5.82 4.02c2.28 1.12 4.82 2.2 7.62 3.24 3.6 1.36 6.28 2.58 8.04 3.66 1.76 1.08 2.64 2.34 2.64 3.78C636.56 243.49 635.88 244.73 634.52 245.37z"/><path class="st0" d="M722.12 259.17v-35.64c0-4.32-.42-8.24-1.26-11.76-.84-3.52-2.28-6.56-4.32-9.12-2.04-2.56-4.76-4.54-8.16-5.94s-7.66-2.1-12.78-2.1c-1.76.0-3.58.18-5.46.54-1.88.36-3.42.74-4.62 1.14v-30.24l-17.88 2.88v90.24h17.88v-48c1.12-.32 2.38-.62 3.78-.9s2.9-.42 4.5-.42c4 0 6.74 1.2 8.22 3.6s2.22 6.48 2.22 12.24v33.48h17.88z"/><path class="st0" d="M533.3 326.63c-1-7.32-2.08-14.48-3.24-21.48s-2.38-13.38-3.66-19.14h-16.68c-4.16 5.76-8.24 11.66-12.24 17.7-4 6.04-8.1 12.42-12.3 19.14-4.2 6.72-8.56 13.88-13.08 21.48s-9.38 15.88-14.58 24.84h19.56c1.6-3.12 3.28-6.18 5.04-9.18 1.76-3 3.44-5.98 5.04-8.94h31.2c.24 2.96.46 5.94.66 8.94.2 3 .38 6.06.54 9.18h18.84c-.72-6.4-1.5-13.26-2.34-20.58S534.3 333.95 533.3 326.63zM494.72 336.41c3.04-5.52 6.18-10.92 9.42-16.2s6.54-10.6 9.9-15.96c.8 5.52 1.42 11.04 1.86 16.56s.86 10.72 1.26 15.6H494.72z"/><path class="st0" d="M588.8 304.37c-5.76.0-10.98 1.04-15.66 3.12s-8.66 4.92-11.94 8.52c-3.28 3.6-5.8 7.8-7.56 12.6s-2.64 9.92-2.64 15.36c0 3.6.5 7.04 1.5 10.32s2.62 6.14 4.86 8.58 5.08 4.38 8.52 5.82c3.44 1.44 7.64 2.16 12.6 2.16 3.84.0 7.1-.34 9.78-1.02s5.14-1.46 7.38-2.34l-1.32-14.28c-1.68.72-3.6 1.32-5.76 1.8s-4.4.72-6.72.72c-4.72.0-7.96-1.26-9.72-3.78s-2.64-5.82-2.64-9.9c0-6.96 1.72-12.46 5.16-16.5 3.44-4.04 8.16-6.06 14.16-6.06 2.48.0 4.58.26 6.3.78 1.72.52 3.38 1.1 4.98 1.74l6.12-13.92c-2.32-1.12-4.9-2.02-7.74-2.7C595.62 304.71 592.41 304.37 588.8 304.37z"/><path class="st0" d="M669.57 309.29c-2.32-1.12-4.76-2-7.32-2.64-2.56-.64-5-1.1-7.32-1.38s-4.38-.46-6.18-.54c-1.8-.08-3.06-.12-3.78-.12-5.52.0-10.64 1.04-15.36 3.12s-8.82 4.94-12.3 8.58c-3.48 3.64-6.2 7.9-8.16 12.78-1.96 4.88-2.94 10.08-2.94 15.6.0 3.6.4 6.98 1.2 10.14.8 3.16 2.1 5.92 3.9 8.28 1.8 2.36 4.12 4.24 6.96 5.64s6.26 2.1 10.26 2.1c3.36.0 6.4-.6 9.12-1.8s5.2-2.72 7.44-4.56c.4 1.12.8 2.12 1.2 3 .4.88.84 1.8 1.32 2.76l15.96-2.28c-1.36-3.6-2.28-7.7-2.76-12.3s-.16-9.18.96-13.74L669.57 309.29zm-24.96 29.52c-.4 1.84-.78 3.86-1.14 6.06s-.62 4.3-.78 6.3c-1.68 1.68-3.26 2.88-4.74 3.6s-3.14 1.08-4.98 1.08c-3.44.0-5.8-1.12-7.08-3.36-1.28-2.24-1.92-5.28-1.92-9.12.0-3.12.5-6.12 1.5-9s2.38-5.42 4.14-7.62 3.82-3.98 6.18-5.34c2.36-1.36 4.9-2.04 7.62-2.04 1.2.0 2.22.04 3.06.12.84.08 1.78.2 2.82.36L644.61 338.81z"/><path class="st0" d="M732.56 341.93l15.84-65.88-18.6 2.88-6.48 27.12c-1.28-.32-2.54-.56-3.78-.72s-2.58-.24-4.02-.24c-5.6.0-10.76 1.04-15.48 3.12s-8.8 4.92-12.24 8.52c-3.44 3.6-6.14 7.82-8.1 12.66-1.96 4.84-2.94 9.98-2.94 15.42.0 3.6.42 6.98 1.26 10.14.84 3.16 2.16 5.92 3.96 8.28 1.8 2.36 4.12 4.22 6.96 5.58 2.84 1.36 6.26 2.04 10.26 2.04 3.36.0 6.42-.6 9.18-1.8s5.26-2.72 7.5-4.56c.4 1.12.8 2.12 1.2 3 .4.88.84 1.8 1.32 2.76l15.96-2.28c-1.36-3.6-2.28-7.7-2.76-12.3C731.12 351.07 731.44 346.49 732.56 341.93zm-17.16-3.12c-.4 1.84-.78 3.86-1.14 6.06s-.62 4.3-.78 6.3c-1.68 1.68-3.28 2.88-4.8 3.6s-3.2 1.08-5.04 1.08c-3.44.0-5.82-1.1-7.14-3.3-1.32-2.2-1.98-5.22-1.98-9.06.0-2.96.48-5.86 1.44-8.7s2.3-5.38 4.02-7.62 3.78-4.02 6.18-5.34 5-1.98 7.8-1.98c.88.0 1.6.0 2.16.0s1.02.02 1.38.06.72.1 1.08.18.78.16 1.26.24L715.4 338.81z"/><path class="st0" d="M799.47 309.05c-1.8-1.52-3.9-2.68-6.3-3.48s-5-1.2-7.8-1.2c-5.68.0-10.86 1.14-15.54 3.42-4.68 2.28-8.66 5.28-11.94 9-3.28 3.72-5.82 7.98-7.62 12.78-1.8 4.8-2.7 9.76-2.7 14.88.0 3.6.48 7 1.44 10.2s2.5 6 4.62 8.4 4.88 4.3 8.28 5.7 7.58 2.1 12.54 2.1c4.08.0 7.86-.36 11.34-1.08 3.48-.72 6.34-1.52 8.58-2.4l-1.32-14.04c-2.32.88-4.8 1.54-7.44 1.98-2.64.44-5.24.66-7.8.66-4.08.0-7.06-.7-8.94-2.1-1.88-1.4-3.1-3.78-3.66-7.14 5.76.0 11.08-.44 15.96-1.32s9.1-2.3 12.66-4.26 6.34-4.5 8.34-7.62 3-6.92 3-11.4c0-2.8-.5-5.3-1.5-7.5C802.66 312.43 801.27 310.57 799.47 309.05zm-11.35 18.6c-.56 1.12-1.68 2.16-3.36 3.12-1.68.96-4.04 1.78-7.08 2.46-3.04.68-7.04 1.1-12 1.26.96-4.8 2.98-8.66 6.06-11.58 3.08-2.92 6.66-4.38 10.74-4.38 4.32.0 6.48 1.92 6.48 5.76C788.97 325.41 788.68 326.53 788.12 327.65z"/><path class="st0" d="M903.38 330.29c.2-1.6.3-3.12.3-4.56.0-3.12-.4-5.98-1.2-8.58-.8-2.6-2.08-4.84-3.84-6.72-1.76-1.88-3.98-3.32-6.66-4.32s-5.9-1.5-9.66-1.5c-3.92.0-7.34.54-10.26 1.62s-5.86 2.46-8.82 4.14c-2.08-1.92-4.38-3.36-6.9-4.32s-5.7-1.44-9.54-1.44c-3.2.0-6.02.14-8.46.42-2.44.28-4.64.64-6.6 1.08s-3.72.92-5.28 1.44-3.02.98-4.38 1.38l-14.52 60.24h17.88l11.64-48.84c1.2-.24 2.24-.42 3.12-.54s1.96-.18 3.24-.18c3.04.0 5.08.82 6.12 2.46s1.56 3.58 1.56 5.82c0 1.36-.14 2.74-.42 4.14s-.54 2.66-.78 3.78L842 369.17h17.88l8.16-34.08c.4-1.6.7-3.2.9-4.8.2-1.6.3-3.12.3-4.56.0-.48.0-1 0-1.56s-.08-1.16-.24-1.8c1.2-.64 2.56-1.26 4.08-1.86 1.52-.6 3.12-.9 4.8-.9 3.04.0 5.08.82 6.12 2.46s1.56 3.58 1.56 5.82c0 1.36-.14 2.74-.42 4.14s-.54 2.66-.78 3.78l-7.92 33.36h17.88l8.16-34.08C902.88 333.49 903.18 331.89 903.38 330.29z"/><path class="st0" d="M956.25 306.05c-2.56 8.48-5.3 16.24-8.22 23.28-2.92 7.04-6.3 13.44-10.14 19.2-.48-2.88-.92-6.12-1.32-9.72-.4-3.6-.76-7.3-1.08-11.1s-.6-7.58-.84-11.34-.4-7.2-.48-10.32h-18.36c.64 12.48 1.82 23.68 3.54 33.6 1.72 9.92 3.62 18.88 5.7 26.88-1.68 3.04-3.78 5.46-6.3 7.26s-5.18 2.7-7.98 2.7c-1.84.0-3.4-.18-4.68-.54s-2.72-.86-4.32-1.5l-5.4 14.04c1.76.88 3.64 1.58 5.64 2.1 2 .52 4.4.78 7.2.78 4.56.0 8.58-.8 12.06-2.4 3.48-1.6 6.64-3.68 9.48-6.24s5.42-5.44 7.74-8.64 4.56-6.36 6.72-9.48c2.96-4.24 5.76-8.52 8.4-12.84s5.2-8.86 7.68-13.62c2.48-4.76 4.86-9.78 7.14-15.06 2.28-5.28 4.54-10.96 6.78-17.04H956.25z"/></g><g><g><path class="st1" d="M331.56 317.88c-.47-.85-1.14-2.16-1.82-3.86-1.26-3.11-2.51-7.43-2.85-12.36-.35-4.95.24-10.42 2.54-16.11 2.32-5.7 6.43-11.46 13.08-18.02 3.47 3.42 5.92 6.75 7.65 10.1 1.69 3.32 2.71 6.7 2.93 9.88.47 5.88-1.25 11.4-3.98 15.97 3.26-3.07 6.39-6.27 9.37-9.61 4.41-4.92 8.49-10.12 12.24-15.56-.73-.64-1.81-1.64-3.05-3.02-2.24-2.48-4.95-6.13-6.95-10.54-1-2.21-1.99-4.69-2.58-7.28-.31-1.3-.53-2.63-.68-4.01-.21-1.41-.33-2.85-.33-4.32.07-5.91 1.38-12.44 4.88-20.76 4.5 1.75 8.17 3.84 11.13 6.23 2.89 2.37 4.96 5.01 6.47 7.86.75 1.42 1.36 2.88 1.83 4.38.39 1.46.65 2.95.79 4.44.24 2.44.19 4.91-.19 7.24 1.66-3.58 3.19-7.22 4.58-10.91l2.15-6.45c.39-1.07.68-2.16.95-3.27l.84-3.3c.71-2.43 1.2-4.91 1.65-7.4-.92-.29-2.32-.78-4.02-1.55-3.04-1.38-6.98-3.63-10.57-6.85-1.78-1.6-3.72-3.5-5.32-5.63-.81-1.07-1.57-2.2-2.25-3.41-.35-.6-.64-1.22-.98-1.86-.36-.65-.69-1.32-1.01-2.01-.63-1.38-1.17-2.84-1.59-4.4-.21-.78-.4-1.58-.55-2.41-.21-.84-.43-1.71-.6-2.61-.35-1.8-.57-3.71-.65-5.77.0-1.02-.13-2.11-.2-3.22-.07-1.12-.1-2.28-.09-3.48 4.83-.02 9 .59 12.63 1.74 1.81.57 3.49 1.28 5.03 2.1 1.5.82 2.81 1.76 4.03 2.79 2.43 2.07 4.37 4.52 5.91 7.15 1.23 2.21 2.01 4.55 2.62 6.89.1-3.53.22-7.06-.08-10.59-.33-7.55-1.22-15.06-2.56-22.5-.97.06-2.43.1-4.26-.02-3.34-.21-7.83-.93-12.38-2.79-4.42-1.87-9.46-4.8-13.44-9.63-1.89-2.42-4.08-5.29-5.76-8.81-.89-1.76-1.59-3.69-2.4-5.79-.86-2.09-1.64-4.37-2.34-6.86 9.3-2.51 16.89-1.86 22.9.77 2.91 1.34 5.45 3.16 7.65 5.26 1.1 1.05 2.12 2.17 3.06 3.32.47.58.92 1.17 1.35 1.77.06.09.1.18.16.26-.64-2.1-1.31-4.18-2.01-6.26-.91-.54-2.13-1.31-3.56-2.33-1.51-1.07-3.16-2.41-4.95-3.99-1.86-1.56-3.77-3.37-5.56-5.48-1.82-2.09-3.41-4.51-4.94-7.19-1.59-2.66-2.91-5.66-3.84-9.06-.47-1.7-.83-3.51-1.08-5.42-.34-1.88-.58-3.87-.68-5.99-.2-4.23.12-8.97 1.07-14.32 4.95 1.9 9.18 4.25 12.76 6.87 1.79 1.31 3.42 2.69 4.89 4.11 1.4 1.47 2.63 2.99 3.73 4.54 2.2 3.09 3.85 6.27 5.06 9.39 1.15 3.15 1.68 6.34 2 9.28.29 2.95.27 5.71.08 8.18-.27 2.49-.79 4.73-1.28 6.55-.49 1.77-.99 3.17-1.38 4.16 3.94 11.68 6.93 23.72 8.64 35.94.06-.96.13-1.93.25-2.92.26-2.9.61-5.88 1.47-8.92.8-3.02 2.16-6.13 3.69-9.06 3.23-5.9 8.61-11.63 17.34-15.99 1.18 3.14 2.15 6.14 2.92 9 .39 1.43.73 2.82 1.03 4.17.24 1.38.4 2.73.54 4.04.27 2.62.38 5.08.35 7.38-.03 2.3-.16 4.42-.61 6.46-1.62 8.1-4.86 13.53-8.92 17.21-3.93 3.65-8.11 5.47-11.3 6.43-2.56.77-4.46.99-5.12 1.04.11 3.65-.08 7.31-.14 10.96.03 2.31-.35 4.6-.54 6.9-.27 2.29-.38 4.61-.77 6.88-.78 4.2-1.39 8.44-2.5 12.58.37-.79.76-1.58 1.18-2.38 1.32-2.6 2.71-5.28 4.62-7.83 1.97-2.55 3.96-5.06 6.54-7.35 2.55-2.29 5.65-4.37 9.22-6.08 3.5-1.71 7.61-3.04 12.42-3.76.1 1.76.19 3.48.19 5.14-.08 1.67-.19 3.28-.34 4.84-.32 3.12-.68 6.03-1.31 8.71-.71 2.68-1.51 5.14-2.39 7.38-.87 2.24-1.81 4.27-2.99 6.07-2.28 3.6-4.64 6.42-7.17 8.53-2.61 2.09-5.22 3.53-7.71 4.49-2.5.96-4.84 1.47-7.05 1.66-2.22.19-4.21.1-5.89-.09-2.68-.31-4.53-.86-5.16-1.06-2.93 7.22-6.37 14.24-10.44 20.89-2.52 4.06-5.23 8-8.11 11.82.66-.61 1.33-1.21 2.05-1.8 2.31-1.82 4.64-3.72 7.4-5.3 2.79-1.56 5.64-3.05 8.95-4.1 1.64-.53 3.38-.96 5.2-1.27 1.8-.32 3.65-.57 5.62-.64 3.93-.16 8.26.25 12.98 1.52-2.48 6.74-5.69 12.16-8.91 16.59-3.4 4.3-6.74 7.7-10.22 10.04-1.71 1.2-3.37 2.21-5 3.02-1.67.77-3.3 1.38-4.86 1.83-3.12.92-6.01 1.25-8.71 1.11-5.35-.23-9.58-1.92-12.5-3.52-2.41-1.32-3.92-2.55-4.4-2.96-5.07 5.26-10.48 10.2-16.19 14.75-7.22 5.75-14.84 10.99-23.01 15.36-.73.39-1.58.2-1.87-.41-.29-.6.03-1.37.74-1.74C321.4 324.79 326.57 321.46 331.56 317.88z"/><path class="st1" d="M97.01 319.67c.47-.85 1.14-2.16 1.82-3.86 1.26-3.11 2.51-7.43 2.85-12.36.35-4.95-.24-10.42-2.54-16.11-2.32-5.7-6.43-11.46-13.08-18.02-3.47 3.42-5.92 6.75-7.65 10.1-1.69 3.32-2.71 6.7-2.93 9.88-.47 5.88 1.25 11.4 3.98 15.97-3.26-3.07-6.39-6.27-9.37-9.61-4.41-4.92-8.49-10.12-12.24-15.56.73-.64 1.81-1.64 3.05-3.02 2.24-2.48 4.95-6.13 6.95-10.54 1-2.21 1.99-4.69 2.58-7.28.31-1.3.53-2.63.68-4.01.21-1.41.33-2.85.33-4.32-.07-5.91-1.38-12.44-4.88-20.76-4.5 1.75-8.17 3.84-11.13 6.23-2.89 2.37-4.96 5.01-6.47 7.86-.75 1.42-1.36 2.88-1.83 4.38-.39 1.46-.65 2.95-.79 4.44-.24 2.44-.19 4.91.19 7.24-1.66-3.58-3.19-7.22-4.58-10.91l-2.15-6.45c-.39-1.07-.68-2.16-.95-3.27l-.84-3.3c-.71-2.43-1.2-4.91-1.65-7.4.92-.29 2.32-.78 4.02-1.55 3.04-1.38 6.98-3.63 10.57-6.85 1.78-1.6 3.72-3.5 5.32-5.63.81-1.07 1.57-2.2 2.25-3.41.35-.6.64-1.22.98-1.86.36-.65.69-1.32 1.01-2.01.63-1.38 1.17-2.84 1.59-4.4.21-.78.4-1.58.55-2.41.21-.84.43-1.71.6-2.61.35-1.8.57-3.71.65-5.77.0-1.02.13-2.11.2-3.22.07-1.12.1-2.28.09-3.48-4.83-.02-9 .59-12.63 1.74-1.81.57-3.49 1.28-5.03 2.1-1.5.82-2.81 1.76-4.03 2.79-2.43 2.07-4.37 4.52-5.91 7.15-1.23 2.21-2.01 4.55-2.62 6.89-.1-3.53-.22-7.06.08-10.59.33-7.55 1.22-15.06 2.56-22.5.97.06 2.43.1 4.26-.02 3.34-.21 7.83-.93 12.38-2.79 4.42-1.87 9.46-4.8 13.44-9.63 1.89-2.42 4.08-5.29 5.76-8.81.89-1.76 1.59-3.69 2.4-5.79.86-2.09 1.64-4.37 2.34-6.86-9.3-2.51-16.89-1.86-22.9.77-2.91 1.34-5.45 3.16-7.65 5.26-1.1 1.05-2.12 2.17-3.06 3.32-.47.58-.92 1.17-1.35 1.77-.06.09-.1.18-.16.26.64-2.1 1.31-4.18 2.01-6.26.91-.54 2.13-1.31 3.56-2.33 1.51-1.07 3.16-2.41 4.95-3.99 1.86-1.56 3.77-3.37 5.56-5.48 1.82-2.09 3.41-4.51 4.94-7.19 1.59-2.66 2.91-5.66 3.84-9.06.47-1.7.83-3.51 1.08-5.42.34-1.88.58-3.87.68-5.99.2-4.23-.12-8.97-1.07-14.32-4.95 1.9-9.18 4.25-12.76 6.87-1.79 1.31-3.42 2.69-4.89 4.11-1.4 1.47-2.63 2.99-3.73 4.54-2.2 3.09-3.85 6.27-5.06 9.39-1.15 3.15-1.68 6.34-2 9.28-.29 2.95-.27 5.71-.08 8.18.27 2.49.79 4.73 1.28 6.55.49 1.77.99 3.17 1.38 4.16-3.94 11.68-6.93 23.72-8.64 35.94-.06-.96-.13-1.93-.25-2.92-.26-2.9-.61-5.88-1.47-8.92-.8-3.02-2.16-6.13-3.69-9.06-3.23-5.9-8.61-11.63-17.34-15.99-1.18 3.14-2.15 6.14-2.92 9-.39 1.43-.73 2.82-1.03 4.17-.24 1.38-.4 2.73-.54 4.04-.27 2.62-.38 5.08-.35 7.38.03 2.3.16 4.42.61 6.46 1.62 8.1 4.86 13.53 8.92 17.21 3.93 3.65 8.11 5.47 11.3 6.43 2.56.77 4.46.99 5.12 1.04-.11 3.65.08 7.31.14 10.96-.03 2.31.35 4.6.54 6.9.27 2.29.38 4.61.77 6.88.78 4.2 1.39 8.44 2.5 12.58-.37-.79-.76-1.58-1.18-2.38-1.32-2.6-2.71-5.28-4.62-7.83-1.97-2.55-3.96-5.06-6.54-7.35-2.55-2.29-5.65-4.37-9.22-6.08-3.5-1.71-7.61-3.04-12.42-3.76-.1 1.76-.19 3.48-.19 5.14.08 1.67.19 3.28.34 4.84.32 3.12.68 6.03 1.31 8.71.71 2.68 1.51 5.14 2.39 7.38.87 2.24 1.81 4.27 2.99 6.07 2.28 3.6 4.64 6.42 7.17 8.53 2.61 2.09 5.22 3.53 7.71 4.49 2.5.96 4.84 1.47 7.05 1.66 2.22.19 4.21.1 5.89-.09 2.68-.31 4.53-.86 5.16-1.06 2.93 7.22 6.37 14.24 10.44 20.89 2.52 4.06 5.23 8 8.11 11.82-.66-.61-1.33-1.21-2.05-1.8-2.31-1.82-4.64-3.72-7.4-5.3-2.79-1.56-5.64-3.05-8.95-4.1-1.64-.53-3.38-.96-5.2-1.27-1.8-.32-3.65-.57-5.62-.64-3.93-.16-8.26.25-12.98 1.52 2.48 6.74 5.69 12.16 8.91 16.59 3.4 4.3 6.74 7.7 10.22 10.04 1.71 1.2 3.37 2.21 5 3.02 1.67.77 3.3 1.38 4.86 1.83 3.12.92 6.01 1.25 8.71 1.11 5.35-.23 9.58-1.92 12.5-3.52 2.41-1.32 3.92-2.55 4.4-2.96 5.07 5.26 10.48 10.2 16.19 14.75 7.22 5.75 14.84 10.99 23.01 15.36.73.39 1.58.2 1.87-.41.29-.6-.03-1.37-.74-1.74C107.18 326.57 102.01 323.25 97.01 319.67z"/></g><path class="st2" d="M36.6 173.38"/><g><path class="st2" d="M97.01 319.67c.47-.85 1.14-2.16 1.82-3.86 1.26-3.11 2.51-7.43 2.85-12.36.35-4.95-.24-10.42-2.54-16.11-2.32-5.7-6.43-11.46-13.08-18.02-3.47 3.42-5.92 6.75-7.65 10.1-1.69 3.32-2.71 6.7-2.93 9.88-.47 5.88 1.25 11.4 3.98 15.97-3.26-3.07-6.39-6.27-9.37-9.61-4.41-4.92-8.49-10.12-12.24-15.56.73-.64 1.81-1.64 3.05-3.02 2.24-2.48 4.95-6.13 6.95-10.54 1-2.21 1.99-4.69 2.58-7.28.31-1.3.53-2.63.68-4.01.21-1.41.33-2.85.33-4.32-.07-5.91-1.38-12.44-4.88-20.76-4.5 1.75-8.17 3.84-11.13 6.23-2.89 2.37-4.96 5.01-6.47 7.86-.75 1.42-1.36 2.88-1.83 4.38-.39 1.46-.65 2.95-.79 4.44-.24 2.44-.19 4.91.19 7.24-1.66-3.58-3.19-7.22-4.58-10.91l-2.15-6.45c-.39-1.07-.68-2.16-.95-3.27l-.84-3.3c-.71-2.43-1.2-4.91-1.65-7.4.92-.29 2.32-.78 4.02-1.55 3.04-1.38 6.98-3.63 10.57-6.85 1.78-1.6 3.72-3.5 5.32-5.63.81-1.07 1.57-2.2 2.25-3.41.35-.6.64-1.22.98-1.86.36-.65.69-1.32 1.01-2.01.63-1.38 1.17-2.84 1.59-4.4.21-.78.4-1.58.55-2.41.21-.84.43-1.71.6-2.61.35-1.8.57-3.71.65-5.77.0-1.02.13-2.11.2-3.22.07-1.12.1-2.28.09-3.48-4.83-.02-9 .59-12.63 1.74-1.81.57-3.49 1.28-5.03 2.1-1.5.82-2.81 1.76-4.03 2.79-2.43 2.07-4.37 4.52-5.91 7.15-1.23 2.21-2.01 4.55-2.62 6.89-.1-3.53-.22-7.06.08-10.59.33-7.55 1.22-15.06 2.56-22.5.97.06 2.43.1 4.26-.02 3.34-.21 7.83-.93 12.38-2.79 4.42-1.87 9.46-4.8 13.44-9.63 1.89-2.42 4.08-5.29 5.76-8.81.89-1.76 1.59-3.69 2.4-5.79.86-2.09 1.64-4.37 2.34-6.86-9.3-2.51-16.89-1.86-22.9.77-2.91 1.34-5.45 3.16-7.65 5.26-1.1 1.05-2.12 2.17-3.06 3.32-.47.58-.92 1.17-1.35 1.77-.06.09-.1.18-.16.26.64-2.1 1.31-4.18 2.01-6.26.91-.54 2.13-1.31 3.56-2.33 1.51-1.07 3.16-2.41 4.95-3.99 1.86-1.56 3.77-3.37 5.56-5.48 1.82-2.09 3.41-4.51 4.94-7.19 1.59-2.66 2.91-5.66 3.84-9.06.47-1.7.83-3.51 1.08-5.42.34-1.88.58-3.87.68-5.99.2-4.23-.12-8.97-1.07-14.32-4.95 1.9-9.18 4.25-12.76 6.87-1.79 1.31-3.42 2.69-4.89 4.11-1.4 1.47-2.63 2.99-3.73 4.54-2.2 3.09-3.85 6.27-5.06 9.39-1.15 3.15-1.68 6.34-2 9.28-.29 2.95-.27 5.71-.08 8.18.27 2.49.79 4.73 1.28 6.55.49 1.77.99 3.17 1.38 4.16-3.94 11.68-6.93 23.72-8.64 35.94-.06-.96-.13-1.93-.25-2.92-.26-2.9-.61-5.88-1.47-8.92-.8-3.02-2.16-6.13-3.69-9.06-3.23-5.9-8.61-11.63-17.34-15.99-1.18 3.14-2.15 6.14-2.92 9-.39 1.43-.73 2.82-1.03 4.17-.24 1.38-.4 2.73-.54 4.04-.27 2.62-.38 5.08-.35 7.38.03 2.3.16 4.42.61 6.46 1.62 8.1 4.86 13.53 8.92 17.21 3.93 3.65 8.11 5.47 11.3 6.43 2.56.77 4.46.99 5.12 1.04-.11 3.65.08 7.31.14 10.96-.03 2.31.35 4.6.54 6.9.27 2.29.38 4.61.77 6.88.78 4.2 1.39 8.44 2.5 12.58-.37-.79-.76-1.58-1.18-2.38-1.32-2.6-2.71-5.28-4.62-7.83-1.97-2.55-3.96-5.06-6.54-7.35-2.55-2.29-5.65-4.37-9.22-6.08-3.5-1.71-7.61-3.04-12.42-3.76-.1 1.76-.19 3.48-.19 5.14.08 1.67.19 3.28.34 4.84.32 3.12.68 6.03 1.31 8.71.71 2.68 1.51 5.14 2.39 7.38.87 2.24 1.81 4.27 2.99 6.07 2.28 3.6 4.64 6.42 7.17 8.53 2.61 2.09 5.22 3.53 7.71 4.49 2.5.96 4.84 1.47 7.05 1.66 2.22.19 4.21.1 5.89-.09 2.68-.31 4.53-.86 5.16-1.06 2.93 7.22 6.37 14.24 10.44 20.89 2.52 4.06 5.23 8 8.11 11.82-.66-.61-1.33-1.21-2.05-1.8-2.31-1.82-4.64-3.72-7.4-5.3-2.79-1.56-5.64-3.05-8.95-4.1-1.64-.53-3.38-.96-5.2-1.27-1.8-.32-3.65-.57-5.62-.64-3.93-.16-8.26.25-12.98 1.52 2.48 6.74 5.69 12.16 8.91 16.59 3.4 4.3 6.74 7.7 10.22 10.04 1.71 1.2 3.37 2.21 5 3.02 1.67.77 3.3 1.38 4.86 1.83 3.12.92 6.01 1.25 8.71 1.11 5.35-.23 9.58-1.92 12.5-3.52 2.41-1.32 3.92-2.55 4.4-2.96 5.07 5.26 10.48 10.2 16.19 14.75 7.22 5.75 14.84 10.99 23.01 15.36.73.39 1.58.2 1.87-.41.29-.6-.03-1.37-.74-1.74C107.18 326.57 102.01 323.25 97.01 319.67z"/><path class="st3" d="M86.08 269.32c-4.35 30.6 15.3 27.03 15.3 27.03 1.99 5.86-18.97 18.65-25.05 1.02-4.86-14.11 9.75-28.05 9.75-28.05z"/><path class="st3" d="M31.46 198.66c-20.45-6.62-21.11-55.72-21.11-55.72s8.74 4.36.0.0c-1.18 3.14-2.15 6.14-2.92 9-.39 1.43-.73 2.82-1.03 4.17-.24 1.38-.4 2.73-.54 4.04-.27 2.62-.38 5.08-.35 7.38.03 2.3.16 4.42.61 6.46 1.62 8.1 4.86 13.53 8.92 17.21 3.93 3.65 8.11 5.47 11.3 6.43C28.9 198.39 30.8 198.61 31.46 198.66"/><path class="st3" d="M41.26 254.26s-19.33 6.39-31.31-11.33c-10.07-13.68-8.52-34.34-8.52-34.34 17.42 41.69 39.83 45.67 39.83 45.67z"/><path class="st3" d="M72.23 301.49s-7.73 7.11-19.33 6.47c-26.4-3.04-35-32.6-35-32.6 22.79 24.04 54.33 26.13 54.33 26.13S68.97 358.73 72.23 301.49z"/><path class="st3" d="M77.18 139.49c-10.24.05-35.06 12.07-40.58 33.89l5.46-22.51c11.14-19.85 35.12-11.38 35.12-11.38z"/><path class="st3" d="M36.38 228.98s-2.62-10.25-2.47-21.63c.08-6.43 9.71-22.87 30.28-21.56.0.0-24.82 3.22-27.81 43.19z"/><path class="st3" d="M46.87 260.94c1.28 6.22 10.99 19.15 10.99 19.15 1.99.48-6.14-26.14 8.72-49.93C66.57 230.17 42.16 238.15 46.87 260.94z"/></g><g><path class="st2" d="M331.56 317.88c-.47-.85-1.14-2.16-1.82-3.86-1.26-3.11-2.51-7.43-2.85-12.36-.35-4.95.24-10.42 2.54-16.11 2.32-5.7 6.43-11.46 13.08-18.02 3.47 3.42 5.92 6.75 7.65 10.1 1.69 3.32 2.71 6.7 2.93 9.88.47 5.88-1.25 11.4-3.98 15.97 3.26-3.07 6.39-6.27 9.37-9.61 4.41-4.92 8.49-10.12 12.24-15.56-.73-.64-1.81-1.64-3.05-3.02-2.24-2.48-4.95-6.13-6.95-10.54-1-2.21-1.99-4.69-2.58-7.28-.31-1.3-.53-2.63-.68-4.01-.21-1.41-.33-2.85-.33-4.32.07-5.91 1.38-12.44 4.88-20.76 4.5 1.75 8.17 3.84 11.13 6.23 2.89 2.37 4.96 5.01 6.47 7.86.75 1.42 1.36 2.88 1.83 4.38.39 1.46.65 2.95.79 4.44.24 2.44.19 4.91-.19 7.24 1.66-3.58 3.19-7.22 4.58-10.91l2.15-6.45c.39-1.07.68-2.16.95-3.27l.84-3.3c.71-2.43 1.2-4.91 1.65-7.4-.92-.29-2.32-.78-4.02-1.55-3.04-1.38-6.98-3.63-10.57-6.85-1.78-1.6-3.72-3.5-5.32-5.63-.81-1.07-1.57-2.2-2.25-3.41-.35-.6-.64-1.22-.98-1.86-.36-.65-.69-1.32-1.01-2.01-.63-1.38-1.17-2.84-1.59-4.4-.21-.78-.4-1.58-.55-2.41-.21-.84-.43-1.71-.6-2.61-.35-1.8-.57-3.71-.65-5.77.0-1.02-.13-2.11-.2-3.22-.07-1.12-.1-2.28-.09-3.48 4.83-.02 9 .59 12.63 1.74 1.81.57 3.49 1.28 5.03 2.1 1.5.82 2.81 1.76 4.03 2.79 2.43 2.07 4.37 4.52 5.91 7.15 1.23 2.21 2.01 4.55 2.62 6.89.1-3.53.22-7.06-.08-10.59-.33-7.55-1.22-15.06-2.56-22.5-.97.06-2.43.1-4.26-.02-3.34-.21-7.83-.93-12.38-2.79-4.42-1.87-9.46-4.8-13.44-9.63-1.89-2.42-4.08-5.29-5.76-8.81-.89-1.76-1.59-3.69-2.4-5.79-.86-2.09-1.64-4.37-2.34-6.86 9.3-2.51 16.89-1.86 22.9.77 2.91 1.34 5.45 3.16 7.65 5.26 1.1 1.05 2.12 2.17 3.06 3.32.47.58.92 1.17 1.35 1.77.06.09.1.18.16.26-.64-2.1-1.31-4.18-2.01-6.26-.91-.54-2.13-1.31-3.56-2.33-1.51-1.07-3.16-2.41-4.95-3.99-1.86-1.56-3.77-3.37-5.56-5.48-1.82-2.09-3.41-4.51-4.94-7.19-1.59-2.66-2.91-5.66-3.84-9.06-.47-1.7-.83-3.51-1.08-5.42-.34-1.88-.58-3.87-.68-5.99-.2-4.23.12-8.97 1.07-14.32 4.95 1.9 9.18 4.25 12.76 6.87 1.79 1.31 3.42 2.69 4.89 4.11 1.4 1.47 2.63 2.99 3.73 4.54 2.2 3.09 3.85 6.27 5.06 9.39 1.15 3.15 1.68 6.34 2 9.28.29 2.95.27 5.71.08 8.18-.27 2.49-.79 4.73-1.28 6.55-.49 1.77-.99 3.17-1.38 4.16 3.94 11.68 6.93 23.72 8.64 35.94.06-.96.13-1.93.25-2.92.26-2.9.61-5.88 1.47-8.92.8-3.02 2.16-6.13 3.69-9.06 3.23-5.9 8.61-11.63 17.34-15.99 1.18 3.14 2.15 6.14 2.92 9 .39 1.43.73 2.82 1.03 4.17.24 1.38.4 2.73.54 4.04.27 2.62.38 5.08.35 7.38-.03 2.3-.16 4.42-.61 6.46-1.62 8.1-4.86 13.53-8.92 17.21-3.93 3.65-8.11 5.47-11.3 6.43-2.56.77-4.46.99-5.12 1.04.11 3.65-.08 7.31-.14 10.96.03 2.31-.35 4.6-.54 6.9-.27 2.29-.38 4.61-.77 6.88-.78 4.2-1.39 8.44-2.5 12.58.37-.79.76-1.58 1.18-2.38 1.32-2.6 2.71-5.28 4.62-7.83 1.97-2.55 3.96-5.06 6.54-7.35 2.55-2.29 5.65-4.37 9.22-6.08 3.5-1.71 7.61-3.04 12.42-3.76.1 1.76.19 3.48.19 5.14-.08 1.67-.19 3.28-.34 4.84-.32 3.12-.68 6.03-1.31 8.71-.71 2.68-1.51 5.14-2.39 7.38-.87 2.24-1.81 4.27-2.99 6.07-2.28 3.6-4.64 6.42-7.17 8.53-2.61 2.09-5.22 3.53-7.71 4.49-2.5.96-4.84 1.47-7.05 1.66-2.22.19-4.21.1-5.89-.09-2.68-.31-4.53-.86-5.16-1.06-2.93 7.22-6.37 14.24-10.44 20.89-2.52 4.06-5.23 8-8.11 11.82.66-.61 1.33-1.21 2.05-1.8 2.31-1.82 4.64-3.72 7.4-5.3 2.79-1.56 5.64-3.05 8.95-4.1 1.64-.53 3.38-.96 5.2-1.27 1.8-.32 3.65-.57 5.62-.64 3.93-.16 8.26.25 12.98 1.52-2.48 6.74-5.69 12.16-8.91 16.59-3.4 4.3-6.74 7.7-10.22 10.04-1.71 1.2-3.37 2.21-5 3.02-1.67.77-3.3 1.38-4.86 1.83-3.12.92-6.01 1.25-8.71 1.11-5.35-.23-9.58-1.92-12.5-3.52-2.41-1.32-3.92-2.55-4.4-2.96-5.07 5.26-10.48 10.2-16.19 14.75-7.22 5.75-14.84 10.99-23.01 15.36-.73.39-1.58.2-1.87-.41-.29-.6.03-1.37.74-1.74C321.4 324.79 326.57 321.46 331.56 317.88z"/><path class="st3" d="M342.5 267.54c-15.44 14.73-15.3 27.03-15.3 27.03 20.87 28.07 25.05 1.02 25.05 1.02C326.38 299.77 342.5 267.54 342.5 267.54z"/><path class="st3" d="M418.23 141.16c-12.87 10.29-19.38 44.15-21.11 55.72l-1.58-18.19C396.09 149.13 418.23 141.16 418.23 141.16z"/><path class="st3" d="M387.31 252.47l5.85-18.27c10.65-25.39 33.98-27.4 33.98-27.4-21.64 9.84-39.83 45.67-39.83 45.67z"/><path class="st3" d="M368.57 305.38s-4.63.0-12.22-5.67c17.18-24.99 35.6-26.92 35.6-26.92-24.26 24.15-23.38 32.59-23.38 32.59z"/><path class="st3" d="M352.07 138.27s19.18 25.54 39.91 33.33c0 0-13.24.1-20.72-4.78C363.77 161.93 352.07 138.27 352.07 138.27z"/><path class="st3" d="M392.2 227.2s-19.05-6.59-24.54-22.23c-2.13-6.06-4.46-15.24 6.14-19.87C373.79 185.09 367.96 195.46 392.2 227.2z"/><path class="st3" d="M370.72 278.31c-9.78-8.91-19.78-24.94-8.72-49.93C363.3 225.46 361.23 264.11 370.72 278.31z"/></g><g><path class="st4" d="M358.73 147.08h.22v-11.86c0-.43-.05-.84-.13-1.25-.02-.12-.05-.24-.08-.36-.07-.29-.16-.58-.27-.85-.04-.11-.08-.23-.13-.34-.15-.34-.33-.68-.54-.99-.01-.02-.02-.04-.04-.06-.22-.33-.48-.63-.76-.92-.08-.08-.17-.16-.25-.24-.21-.2-.44-.38-.67-.56-.1-.07-.2-.14-.3-.21-.3-.19-.61-.37-.94-.51-.04-.02-.08-.04-.12-.06-.01.0-.02-.01-.02-.01h0v-23.3l19.76-11.18-19.84-11.37c-.06-.6-.18-1.22-.39-2.05-.23-1.12-.46-1.68-.46-1.68-.02-.06-.04-.12-.06-.18-.04-.13-.09-.27-.14-.4-.19-.58-.41-1.14-.65-1.67-.02-.05-.05-.1-.07-.15-.26-.57-.54-1.11-.83-1.62-.07-.12-.14-.24-.21-.36-.29-.49-.59-.95-.9-1.39-.08-.11-.14-.22-.22-.32-.4-.54-.8-1.02-1.2-1.47-.09-.1-.17-.19-.26-.28-.74-.81-1.45-1.47-2.01-1.92l-.01.02c-3.68-3.04-8.28-4.72-13.08-4.72h-11.28L212.79 1.74 59.85 94.86l58.52 32.98c-4.69 8.35-8.97 17.69-12.62 28.17-11.28 18.9-17.78 40.99-17.78 64.6.0 69.72 56.52 126.23 126.23 126.23s126.23-56.52 126.23-126.23c0-5.43-.38-10.76-1.05-16 3.73.78 8.13 1.17 12.54 1.17s0 0 0 0c1.69.0 3.38-.06 5.04-.18.78-.05 1.55-.12 2.31-.2 1.38-.14 2.71-.33 3.99-.56.46-.08.91-.17 1.35-.26.77-.16 1.51-.34 2.21-.54 2.01-.56 3.72-1.25 5.02-2.08.4-.26.76-.53 1.07-.81.26-.24.5-.48.69-.74.33-.42.59-.85.72-1.32.09-.3.13-.6.13-.92C374.47 174.21 367.85 153.94 358.73 147.08zm-24.59-77c3.76.0 7.38 1.38 10.18 3.88 1.68 1.5 2.98 3.33 3.85 5.35l-16.11-9.23H334.14zM331.7 174.5c-2.53-6.44-5.55-12.62-9.06-18.49-3.17-9.58-6.93-18.23-11.11-26.03l37.99-21.49v20.35c-2.54 1.01-4.34 3.48-4.34 6.38v11.8C339.27 151.42 334.41 161.47 331.7 174.5z"/><g><g><path class="st5" d="M352.07 88.02c1.45.0 2.63-1.18 2.63-2.63.0-5.86-2.51-11.45-6.88-15.35-3.77-3.37-8.63-5.22-13.69-5.22h-34.47c-1.45.0-2.63 1.18-2.63 2.63.0 1.45 1.18 2.63 2.63 2.63h34.47c3.76.0 7.38 1.38 10.18 3.88 3.25 2.9 5.12 7.06 5.12 11.42C349.44 86.84 350.62 88.02 352.07 88.02z"/></g><polygon class="st6" points="212.79,1.74 374.47,94.38 217.03,183.45 59.85,94.86"/><polygon class="st0" points="212.79,1.74 374.47,94.38 217.03,183.45 59.85,94.86"/><polygon class="st7" points="212.79,1.74 374.47,94.38 217.03,183.45 59.85,94.86"/><polyline class="st6" points="217.03,183.45 59.85,94.86 212.79,1.74"/><path class="st8" d="M374.47 94.38"/><path class="st6" d="M212.78 2.12l56.91 32.62c-100.15-2.84-51.08 117.37-51.55 116.31l-87.15-70.47L212.78 2.12z"/><g><circle class="st9" cx="214.2" cy="220.61" r="126.23"/><path id="symbol_00000011742559761217356130000017566101654983623862_" class="st10" d="M253.57 178.22c-6.34-14.39-20.92-17.46-38.77-14.48l-5.73-22.23L195.55 145l5.64 22.17c-3.56.9-7.21 1.67-10.83 2.69l-5.64-22.04-13.52 3.49 5.73 22.23c-2.92.83-27.3 7.08-27.3 7.08l3.72 14.48s9.93-2.79 9.84-2.56c5.51-1.44 8.11 1.31 9.32 3.91l15.76 60.94c.19 1.76-.13 4.77-3.91 5.8.22.13-9.84 2.53-9.84 2.53l1.47 16.88s24.16-6.18 27.33-6.98l5.8 22.49 13.52-3.49-5.8-22.65c3.72-.87 7.34-1.76 10.86-2.69l5.77 22.52 13.52-3.49-5.8-22.46c20.83-5.06 35.53-18.2 32.52-38.29-1.92-12.11-15.15-22.04-26.14-23.16C254.34 198.41 257.77 189.66 253.57 178.22zm-6.5 53.03c2.69 19.9-24.96 22.33-34.09 24.73l-7.95-29.76C214.2 223.81 242.52 213.72 247.07 231.25zm-16.66-40.53c2.85 17.69-20.79 19.74-28.42 21.69l-7.24-27.01C202.41 183.51 224.61 174.35 230.41 190.72z"/><path id="symbol_00000093170818560266661120000012193105817062177215_" class="st11" d="M253.57 178.22c-6.34-14.39-20.92-17.46-38.77-14.48l-5.73-22.23L195.55 145l5.64 22.17c-3.56.9-7.21 1.67-10.83 2.69l-5.64-22.04-13.52 3.49 5.73 22.23c-2.92.83-27.3 7.08-27.3 7.08l3.72 14.48s9.93-2.79 9.84-2.56c5.51-1.44 8.11 1.31 9.32 3.91l15.76 60.94c.19 1.76-.13 4.77-3.91 5.8.22.13-9.84 2.53-9.84 2.53l1.47 16.88s24.16-6.18 27.33-6.98l5.8 22.49 13.52-3.49-5.8-22.65c3.72-.87 7.34-1.76 10.86-2.69l5.77 22.52 13.52-3.49-5.8-22.46c20.83-5.06 35.53-18.2 32.52-38.29-1.92-12.11-15.15-22.04-26.14-23.16C254.34 198.41 257.77 189.66 253.57 178.22zm-6.5 53.03c2.69 19.9-24.96 22.33-34.09 24.73l-7.95-29.76C214.2 223.81 242.52 213.72 247.07 231.25zm-16.66-40.53c2.85 17.69-20.79 19.74-28.42 21.69l-7.24-27.01C202.41 183.51 224.61 174.35 230.41 190.72z"/><path class="st12" d="M214.2 94.38l-1.14 61.64s-2.01 87.42 20.45 113.68c56.48 66.05 97.2 6.48 80.84 27.77-23.08 30.03-59.35 49.38-100.15 49.38-69.72.0-126.23-56.52-126.23-126.23S144.48 94.38 214.2 94.38z"/></g><g><path class="st0" d="M322.65 156.01h-216.9c31.39-90.08 108.45-97 108.45-97C214.2 59.01 293.39 67.57 322.65 156.01z"/><path class="st0" d="M214.2 59.01s-77.06 6.92-108.45 97H214.2"/></g><g><path class="st7" d="M322.65 156.01h-216.9c31.39-90.08 108.45-97 108.45-97C214.2 59.01 293.39 67.57 322.65 156.01z"/><path class="st6" d="M214.2 59.01s-77.06 6.92-108.45 97H214.2"/></g><g><g><path class="st0" d="M344.47 74.09s4.91 3.05 5.06 11.41v46.65c0 1.45 1.16 2.63 2.59 2.63s2.59-1.18 2.59-2.63V85.51c-.1-4.24-.93-6.23-.93-6.23"/></g><g><path class="st5" d="M344.47 74.09c.79.63 1.67 1.46 2.47 2.57 2.51 3.45 2.64 7.22 2.59 8.84v46.65c0 1.45 1.16 2.63 2.59 2.63s2.59-1.18 2.59-2.63V85.51c0-2.45.0-3.01-.93-6.23-1.41-4.78-4.69-8.29-6.55-9.77"/></g></g><g><path class="st13" d="M345.19 147.08h13.76v-11.86c0-3.8-3.08-6.88-6.88-6.88-3.8.0-6.88 3.08-6.88 6.88v11.86z"/><path class="st5" d="M345.19 147.08h13.76v-11.86c0-3.8-3.08-6.88-6.88-6.88-3.8.0-6.88 3.08-6.88 6.88v11.86z"/><path class="st14" d="M352.07 147.08h6.88v-11.86c0-3.8-2.9-5.94-4.25-6.36s-2.63-1.13-2.59 5.92L352.07 147.08z"/></g><path class="st0" d="M374.47 198.16c0-29.59-10.09-53.57-22.54-53.57s-22.54 23.99-22.54 53.57c0 10.15 45.08 10.15 45.08.0z"/><path class="st5" d="M374.47 198.16c0-29.59-10.09-53.57-22.54-53.57s-22.54 23.99-22.54 53.57c0 10.15 45.08 10.15 45.08.0z"/><path class="st14" d="M374.34 199.09c.68-25.58-8.5-55.14-22.27-54.5-1.74.08-20.26 51.65 7.2 60.81 14.32-1.34 15.07-6.31 15.07-6.31z"/></g></g><g><path class="st15" d="M207.07 369.92s30.71 31.8 50.38 38.93l-4.35-18.23 16.33-2s-37.35-22.79-46.63-32.08l-15.73 13.38z"/><path class="st15" d="M200.53 356.17s-26.69 20.44-39.38 41.96l15.93.27 4.07 15.95 32.31-43.58-12.93-14.6z"/><path class="st16" d="M341.39 294.93s.04-.01.13-.01c.91-.02 6.45.36 11.77 11.78 5.81 12.48 5.52 26 5.06 33.77s2.58 29.51 5.73 36.16l-30.17-2.39s-11.27-20.56-12.54-28.87c-1.27-8.32.41-39.4.74-41.25s3.46-6.35 6.09-7.47C330.82 295.54 339.81 294.56 341.39 294.93z"/><path class="st17" d="M339.54 381.49s19.63.15 20.65-18.8c.96-17.91.91-42.6-15.54-44.33l-25.22 2.8s-7.74 23.84-5.05 33.37c2.69 9.53 4.34 13.63 6.58 17.07C323.2 375.02 326.84 380.52 339.54 381.49z"/><path class="st16" d="M344.12 363.66s5.08.62 6.06-4.55c.98-5.18.46-16.48-2.01-22.5l-17.58.36s-.2 14.46-.25 16.74c-.05 2.28 3.21 7.18 3.21 7.18S340.43 363.83 344.12 363.66z"/><path class="st18" d="M344.65 318.35s-4.53.24-6.85 5.85c-2.29 5.53-7.72 38.96 6.31 39.47.0.0-11.5-.01-21.89-1.01l.93-43.61C323.16 319.04 343.16 317.13 344.65 318.35z"/><path class="st19" d="M341.39 294.93s-5.49-.47-9.89 2.48c-4.4 2.94-4.2 20.54-4.09 29s-2.36 29.04-2.22 36.14c.14 7.11.49 17.6 14.34 18.94.0.0-82.06-3.25-113.46-9.05.0.0-7.26-16.24-7.46-33.24-.14-12.28 5.58-27.78 8.57-32.36C227.19 306.84 336.53 292.45 341.39 294.93z"/><path class="st3" d="M224.68 362.35s3.66999999999999-3.81.0.0c-4.3 4.46 108.76 18.19 108.76 18.19s-75.96-2.3-107.36-8.1L224.68 362.35s-4.87-2.48000000000002.0.0z"/><path class="st19" d="M86.6 295.31c36.28 3.97 72.57 7.93 108.85 11.9l2.33 23.14-2.82 40.53-112.16.96c-10.89-.18-11.33-.43-13.09-4.46-9.65-22.02-4.99-55.86 6.63-70C79.61 293.38 83.19 295.57 86.6 295.31z"/><path class="st20" d="M79.66 294.94c3.24 56.82 90.65 66.99 112.69 68.75l2.6 7.19-112.16.96c-10.89-.18-11.33-.43-13.09-4.46-9.65-22.02-4.99-55.86 6.63-70C79.61 293.38 76.26 295.2 79.66 294.94z"/><path class="st15" d="M227.19 306.84s-5.24-1.56-13.27-1.74c-8.02-.19-18.48 2.11-18.48 2.11s-2.5 15.67-2.97 27.33c-.47 11.66.47 28.93 2.48 36.34.0.0 14.08 4.05 31.13 1.56C226.08 372.44 217.39 335.88 227.19 306.84z"/><path class="st21" d="M195.55 308.29c7.45-5.91 31.64-1.44 31.64-1.44-7.2 20.09-4.27 36.45-1.11 65.6C227.19 382.7 192.29 310.88 195.55 308.29z"/></g></g><g><path class="st11" d="M493.04 150.25c-4.56.0-9.1-.14-13.62-.42s-9.22-.94-14.1-1.98V67.21c3.84-.72 8.04-1.26 12.6-1.62s8.8-.54 12.72-.54c5.28.0 10.14.38 14.58 1.14s8.26 2.06 11.46 3.9 5.7 4.26 7.5 7.26 2.7 6.7 2.7 11.1c0 6.64-3.2 11.88-9.6 15.72 5.28 2 8.88 4.72 10.8 8.16s2.88 7.32 2.88 11.64c0 8.72-3.18 15.28-9.54 19.68C515.06 148.05 505.6 150.25 493.04 150.25zM483.56 98.65h9.12c5.76.0 9.88-.74 12.36-2.22s3.72-3.86 3.72-7.14c0-3.36-1.28-5.72-3.84-7.08s-6.32-2.04-11.28-2.04c-1.6.0-3.32.02-5.16.06-1.84.04-3.48.14-4.92.3V98.65zm0 14.28v21.48c1.36.16 2.84.28 4.44.36s3.36.12 5.28.12c5.6.0 10.12-.8 13.56-2.4s5.16-4.56 5.16-8.88c0-3.84-1.44-6.58-4.32-8.22s-7-2.46-12.36-2.46H483.56z"/><path class="st11" d="M564.32 67.81c0 3.28-1.06 5.86-3.18 7.74s-4.62 2.82-7.5 2.82-5.38-.94-7.5-2.82-3.18-4.46-3.18-7.74 1.06-5.86 3.18-7.74 4.62-2.82 7.5-2.82 5.38.94 7.5 2.82C563.26 61.95 564.32 64.53 564.32 67.81zM562.64 149.17h-17.88V86.05h17.88v63.12z"/><path class="st11" d="M578.84 70.33l17.88-2.88v18.6h21.48v14.88h-21.48v22.2c0 3.76.66 6.76 1.98 9 1.32 2.24 3.98 3.36 7.98 3.36 1.92.0 3.9-.18 5.94-.54 2.04-.36 3.9-.86 5.58-1.5l2.52 13.92c-2.16.88-4.56 1.64-7.2 2.28-2.64.64-5.88.96-9.72.96-4.88.0-8.92-.66-12.12-1.98s-5.76-3.16-7.68-5.52-3.26-5.22-4.02-8.58-1.14-7.08-1.14-11.16V70.33z"/><path class="st11" d="M627.32 117.61c0-4.56.74-8.86 2.22-12.9s3.62-7.56 6.42-10.56 6.2-5.38 10.2-7.14 8.56-2.64 13.68-2.64c3.36.0 6.44.3 9.24.9 2.8.6 5.52 1.46 8.16 2.58l-3.72 14.28c-1.68-.64-3.52-1.2-5.52-1.68s-4.24-.72-6.72-.72c-5.28.0-9.22 1.64-11.82 4.92s-3.9 7.6-3.9 12.96c0 5.68 1.22 10.08 3.66 13.2 2.44 3.12 6.7 4.68 12.78 4.68 2.16.0 4.48-.2 6.96-.6s4.76-1.04 6.84-1.92l2.52 14.64c-2.08.88-4.68 1.64-7.8 2.28-3.12.64-6.56.96-10.32.96-5.76.0-10.72-.86-14.88-2.58s-7.58-4.06-10.26-7.02-4.64-6.46-5.88-10.5C627.94 126.71 627.32 122.33 627.32 117.61z"/><path class="st11" d="M746.36 117.49c0 4.96-.72 9.5-2.16 13.62-1.44 4.12-3.52 7.64-6.24 10.56-2.72 2.92-5.98 5.18-9.78 6.78s-8.06 2.4-12.78 2.4c-4.64.0-8.86-.8-12.66-2.4s-7.06-3.86-9.78-6.78-4.84-6.44-6.36-10.56-2.28-8.66-2.28-13.62c0-4.96.78-9.48 2.34-13.56 1.56-4.08 3.72-7.56 6.48-10.44s6.04-5.12 9.84-6.72c3.8-1.6 7.94-2.4 12.42-2.4 4.56.0 8.74.8 12.54 2.4 3.8 1.6 7.06 3.84 9.78 6.72s4.84 6.36 6.36 10.44C745.6 108.01 746.36 112.53 746.36 117.49zm-18.24.0c0-5.52-1.1-9.86-3.3-13.02-2.2-3.16-5.34-4.74-9.42-4.74-4.08.0-7.24 1.58-9.48 4.74s-3.36 7.5-3.36 13.02 1.12 9.9 3.36 13.14 5.4 4.86 9.48 4.86 7.22-1.62 9.42-4.86C727.02 127.39 728.12 123.01 728.12 117.49z"/><path class="st11" d="M779.72 67.81c0 3.28-1.06 5.86-3.18 7.74s-4.62 2.82-7.5 2.82-5.38-.94-7.5-2.82-3.18-4.46-3.18-7.74 1.06-5.86 3.18-7.74 4.62-2.82 7.5-2.82 5.38.94 7.5 2.82C778.66 61.95 779.72 64.53 779.72 67.81zM778.04 149.17h-17.88V86.05h17.88v63.12z"/><path class="st11" d="M794.84 88.21c3.04-.88 6.96-1.7 11.76-2.46 4.8-.76 9.84-1.14 15.12-1.14 5.36.0 9.82.7 13.38 2.1 3.56 1.4 6.38 3.38 8.46 5.94s3.56 5.6 4.44 9.12c.88 3.52 1.32 7.44 1.32 11.76v35.64h-17.88v-33.48c0-5.76-.76-9.84-2.28-12.24-1.52-2.4-4.36-3.6-8.52-3.6-1.28.0-2.64.06-4.08.18s-2.72.26-3.84.42v48.72h-17.88V88.21z"/><path class="st9" d="M503.24 260.85c-13.52.0-23.82-3.76-30.9-11.28s-10.62-18.2-10.62-32.04c0-6.88 1.08-13.02 3.24-18.42s5.12-9.96 8.88-13.68 8.24-6.54 13.44-8.46c5.2-1.92 10.84-2.88 16.92-2.88 3.52.0 6.72.26 9.6.78s5.4 1.12 7.56 1.8 3.96 1.38 5.4 2.1c1.44.72 2.48 1.28 3.12 1.68l-5.4 15.12c-2.56-1.36-5.54-2.52-8.94-3.48-3.4-.96-7.26-1.44-11.58-1.44-2.88.0-5.7.48-8.46 1.44s-5.2 2.5-7.32 4.62-3.82 4.86-5.1 8.22c-1.28 3.36-1.92 7.44-1.92 12.24.0 3.84.42 7.42 1.26 10.74.84 3.32 2.2 6.18 4.08 8.58s4.34 4.3 7.38 5.7c3.04 1.4 6.72 2.1 11.04 2.1 2.72.0 5.16-.16 7.32-.48 2.16-.32 4.08-.7 5.76-1.14s3.16-.94 4.44-1.5c1.28-.56 2.44-1.08 3.48-1.56l5.16 15c-2.64 1.6-6.36 3.04-11.16 4.32C515.12 260.21 509.56 260.85 503.24 260.85z"/><path class="st9" d="M565.76 194.37c5.28.0 9.68.6 13.2 1.8 3.52 1.2 6.34 2.92 8.46 5.16s3.62 4.96 4.5 8.16 1.32 6.76 1.32 10.68v37.2c-2.56.56-6.12 1.22-10.68 1.98s-10.08 1.14-16.56 1.14c-4.08.0-7.78-.36-11.1-1.08-3.32-.72-6.18-1.9-8.58-3.54-2.4-1.64-4.24-3.78-5.52-6.42s-1.92-5.88-1.92-9.72c0-3.68.74-6.8 2.22-9.36 1.48-2.56 3.46-4.6 5.94-6.12s5.32-2.62 8.52-3.3c3.2-.68 6.52-1.02 9.96-1.02 2.32.0 4.38.1 6.18.3 1.8.2 3.26.46 4.38.78v-1.68c0-3.04-.92-5.48-2.76-7.32s-5.04-2.76-9.6-2.76c-3.04.0-6.04.22-9 .66s-5.52 1.06-7.68 1.86l-2.28-14.4c1.04-.32 2.34-.66 3.9-1.02s3.26-.68 5.1-.96 3.78-.52 5.82-.72C561.62 194.47 563.68 194.37 565.76 194.37zM567.2 246.69c1.76.0 3.44-.04 5.04-.12 1.6-.08 2.88-.2 3.84-.36v-13.56c-.72-.16-1.8-.32-3.24-.48s-2.76-.24-3.96-.24c-1.68.0-3.26.1-4.74.3-1.48.2-2.78.58-3.9 1.14-1.12.56-2 1.32-2.64 2.28s-.96 2.16-.96 3.6c0 2.8.94 4.74 2.82 5.82C561.34 246.15 563.92 246.69 567.2 246.69z"/><path class="st9" d="M627.56 246.33c3.28.0 5.6-.32 6.96-.96 1.36-.64 2.04-1.88 2.04-3.72.0-1.44-.88-2.7-2.64-3.78s-4.44-2.3-8.04-3.66c-2.8-1.04-5.34-2.12-7.62-3.24s-4.22-2.46-5.82-4.02-2.84-3.42-3.72-5.58c-.88-2.16-1.32-4.76-1.32-7.8.0-5.92 2.2-10.6 6.6-14.04s10.44-5.16 18.12-5.16c3.84.0 7.52.34 11.04 1.02s6.32 1.42 8.4 2.22l-3.12 13.92c-2.08-.72-4.34-1.36-6.78-1.92-2.44-.56-5.18-.84-8.22-.84-5.6.0-8.4 1.56-8.4 4.68.0.72.12 1.36.36 1.92.24.56.72 1.1 1.44 1.62s1.7 1.08 2.94 1.69c1.24.61 2.82 1.27 4.74 2 3.92 1.45 7.16 2.89 9.72 4.3 2.56 1.41 4.58 2.94 6.06 4.57 1.48 1.64 2.52 3.45 3.12 5.45.6 1.99.9 4.31.9 6.94.0 6.23-2.34 10.94-7.02 14.13s-11.3 4.79-19.86 4.79c-5.6.0-10.26-.48-13.98-1.44s-6.3-1.76-7.74-2.4l3-14.52c3.04 1.2 6.16 2.14 9.36 2.82C621.28 245.99 624.44 246.33 627.56 246.33z"/><path class="st9" d="M667.64 259.17v-90.24l17.88-2.88v30.24c1.2-.4 2.74-.78 4.62-1.14 1.88-.36 3.7-.54 5.46-.54 5.12.0 9.38.7 12.78 2.1s6.12 3.38 8.16 5.94 3.48 5.6 4.32 9.12 1.26 7.44 1.26 11.76v35.64h-17.88v-33.48c0-5.76-.74-9.84-2.22-12.24s-4.22-3.6-8.22-3.6c-1.6.0-3.1.14-4.5.42s-2.66.58-3.78.9v48H667.64z"/><path class="st11" d="M519.56 369.17c-.16-3.12-.34-6.18-.54-9.18-.2-3-.42-5.98-.66-8.94h-31.2c-1.6 2.96-3.28 5.94-5.04 8.94-1.76 3-3.44 6.06-5.04 9.18h-19.56c5.2-8.96 10.06-17.24 14.58-24.84 4.52-7.6 8.88-14.76 13.08-21.48s8.3-13.1 12.3-19.14c4-6.04 8.08-11.94 12.24-17.7h16.68c1.28 5.76 2.5 12.14 3.66 19.14s2.24 14.16 3.24 21.48 1.92 14.64 2.76 21.96 1.62 14.18 2.34 20.58H519.56zM514.04 304.25c-3.36 5.36-6.66 10.68-9.9 15.96s-6.38 10.68-9.42 16.2h22.44c-.4-4.88-.82-10.08-1.26-15.6C515.46 315.29 514.84 309.77 514.04 304.25z"/><path class="st11" d="M551 343.97c0-5.44.88-10.56 2.64-15.36s4.28-9 7.56-12.6 7.26-6.44 11.94-8.52c4.68-2.08 9.9-3.12 15.66-3.12 3.6.0 6.82.34 9.66 1.02 2.84.68 5.42 1.58 7.74 2.7l-6.12 13.92c-1.6-.64-3.26-1.22-4.98-1.74s-3.82-.78-6.3-.78c-6 0-10.72 2.02-14.16 6.06-3.44 4.04-5.16 9.54-5.16 16.5.0 4.08.88 7.38 2.64 9.9s5 3.78 9.72 3.78c2.32.0 4.56-.24 6.72-.72 2.16-.48 4.08-1.08 5.76-1.8l1.32 14.28c-2.24.88-4.7 1.66-7.38 2.34-2.68.68-5.94 1.02-9.78 1.02-4.96.0-9.16-.72-12.6-2.16s-6.28-3.38-8.52-5.82-3.86-5.3-4.86-8.58C551.5 351.01 551 347.57 551 343.97z"/><path class="st11" d="M661.77 341.93c-1.12 4.56-1.44 9.14-.96 13.74s1.4 8.7 2.76 12.3l-15.96 2.28c-.48-.96-.92-1.88-1.32-2.76-.4-.88-.8-1.88-1.2-3-2.24 1.84-4.72 3.36-7.44 4.56s-5.76 1.8-9.12 1.8c-4 0-7.42-.7-10.26-2.1-2.84-1.4-5.16-3.28-6.96-5.64-1.8-2.36-3.1-5.12-3.9-8.28-.8-3.16-1.2-6.54-1.2-10.14.0-5.52.98-10.72 2.94-15.6s4.68-9.14 8.16-12.78 7.58-6.5 12.3-8.58c4.72-2.08 9.84-3.12 15.36-3.12.72.0 1.98.04 3.78.12s3.86.26 6.18.54c2.32.28 4.76.74 7.32 1.38 2.56.64 5 1.52 7.32 2.64L661.77 341.93zm-12.48-22.08c-1.04-.16-1.98-.28-2.82-.36-.84-.08-1.86-.12-3.06-.12-2.72.0-5.26.68-7.62 2.04s-4.42 3.14-6.18 5.34-3.14 4.74-4.14 7.62-1.5 5.88-1.5 9c0 3.84.64 6.88 1.92 9.12s3.64 3.36 7.08 3.36c1.84.0 3.5-.36 4.98-1.08 1.48-.72 3.06-1.92 4.74-3.6.16-2 .42-4.1.78-6.3s.74-4.22 1.14-6.06L649.29 319.85z"/><path class="st11" d="M699.2 370.85c-4 0-7.42-.68-10.26-2.04s-5.16-3.22-6.96-5.58c-1.8-2.36-3.12-5.12-3.96-8.28-.84-3.16-1.26-6.54-1.26-10.14.0-5.44.98-10.58 2.94-15.42 1.96-4.84 4.66-9.06 8.1-12.66s7.52-6.44 12.24-8.52 9.88-3.12 15.48-3.12c1.44.0 2.78.08 4.02.24s2.5.4 3.78.72l6.48-27.12 18.6-2.88-15.84 65.88c-1.12 4.56-1.44 9.14-.96 13.74s1.4 8.7 2.76 12.3l-15.96 2.28c-.48-.96-.92-1.88-1.32-2.76-.4-.88-.8-1.88-1.2-3-2.24 1.84-4.74 3.36-7.5 4.56S702.56 370.85 699.2 370.85zm20.64-50.52c-.48-.08-.9-.16-1.26-.24s-.72-.14-1.08-.18-.82-.06-1.38-.06-1.28.0-2.16.0c-2.8.0-5.4.66-7.8 1.98s-4.46 3.1-6.18 5.34c-1.72 2.24-3.06 4.78-4.02 7.62-.96 2.84-1.44 5.74-1.44 8.7.0 3.84.66 6.86 1.98 9.06s3.7 3.3 7.14 3.3c1.84.0 3.52-.36 5.04-1.08 1.52-.72 3.12-1.92 4.8-3.6.16-2 .42-4.1.78-6.3s.74-4.22 1.14-6.06L719.84 320.33z"/><path class="st11" d="M747.57 344.45c0-5.12.9-10.08 2.7-14.88 1.8-4.8 4.34-9.06 7.62-12.78 3.28-3.72 7.26-6.72 11.94-9 4.68-2.28 9.86-3.42 15.54-3.42 2.8.0 5.4.4 7.8 1.2s4.5 1.96 6.3 3.48c1.8 1.52 3.2 3.38 4.2 5.58s1.5 4.7 1.5 7.5c0 4.48-1 8.28-3 11.4s-4.78 5.66-8.34 7.62c-3.56 1.96-7.78 3.38-12.66 4.26s-10.2 1.32-15.96 1.32c.56 3.36 1.78 5.74 3.66 7.14s4.86 2.1 8.94 2.1c2.56.0 5.16-.22 7.8-.66s5.12-1.1 7.44-1.98l1.32 14.04c-2.24.88-5.1 1.68-8.58 2.4-3.48.72-7.26 1.08-11.34 1.08-4.96.0-9.14-.7-12.54-2.1-3.4-1.4-6.16-3.3-8.28-5.7s-3.66-5.2-4.62-8.4C748.05 351.45 747.57 348.05 747.57 344.45zm34.92-25.92c-4.08.0-7.66 1.46-10.74 4.38s-5.1 6.78-6.06 11.58c4.96-.16 8.96-.58 12-1.26s5.4-1.5 7.08-2.46c1.68-.96 2.8-2 3.36-3.12.56-1.12.84-2.24.84-3.36C788.97 320.45 786.81 318.53 782.49 318.53z"/><path class="st11" d="M822.08 308.93c1.36-.4 2.82-.86 4.38-1.38s3.32-1 5.28-1.44c1.96-.44 4.16-.8 6.6-1.08s5.26-.42 8.46-.42c3.84.0 7.02.48 9.54 1.44s4.82 2.4 6.9 4.32c2.96-1.68 5.9-3.06 8.82-4.14 2.92-1.08 6.34-1.62 10.26-1.62 3.76.0 6.98.5 9.66 1.5s4.9 2.44 6.66 4.32 3.04 4.12 3.84 6.72c.8 2.6 1.2 5.46 1.2 8.58.0 1.44-.1 2.96-.3 4.56-.2 1.6-.5 3.2-.9 4.8l-8.16 34.08h-17.88l7.92-33.36c.24-1.12.5-2.38.78-3.78s.42-2.78.42-4.14c0-2.24-.52-4.18-1.56-5.82s-3.08-2.46-6.12-2.46c-1.68.0-3.28.3-4.8.9-1.52.6-2.88 1.22-4.08 1.86.16.64.24 1.24.24 1.8s0 1.08.0 1.56c0 1.44-.1 2.96-.3 4.56-.2 1.6-.5 3.2-.9 4.8l-8.16 34.08H842l7.92-33.36c.24-1.12.5-2.38.78-3.78s.42-2.78.42-4.14c0-2.24-.52-4.18-1.56-5.82s-3.08-2.46-6.12-2.46c-1.28.0-2.36.06-3.24.18s-1.92.3-3.12.54l-11.64 48.84h-17.88L822.08 308.93z"/><path class="st11" d="M975.21 306.05c-2.24 6.08-4.5 11.76-6.78 17.04-2.28 5.28-4.66 10.3-7.14 15.06s-5.04 9.3-7.68 13.62-5.44 8.6-8.4 12.84c-2.16 3.12-4.4 6.28-6.72 9.48-2.32 3.2-4.9 6.08-7.74 8.64s-6 4.64-9.48 6.24-7.5 2.4-12.06 2.4c-2.8.0-5.2-.26-7.2-.78s-3.88-1.22-5.64-2.1l5.4-14.04c1.6.64 3.04 1.14 4.32 1.5 1.28.36 2.84.54 4.68.54 2.8.0 5.46-.9 7.98-2.7s4.62-4.22 6.3-7.26c-2.08-8-3.98-16.96-5.7-26.88s-2.9-21.12-3.54-33.6h18.36c.08 3.12.24 6.56.48 10.32s.52 7.54.84 11.34c.32 3.8.68 7.5 1.08 11.1.4 3.6.84 6.84 1.32 9.72 3.84-5.76 7.22-12.16 10.14-19.2 2.92-7.04 5.66-14.8 8.22-23.28H975.21z"/></g></svg>