<?xml version="1.0" encoding="utf-8"?>
<!-- Generator: Adobe Illustrator 27.3.1, SVG Export Plug-In . SVG Version: 6.00 Build 0)  -->
<svg version="1.1" id="Capa_1" xmlns="http://www.w3.org/2000/svg" xmlns:xlink="http://www.w3.org/1999/xlink" x="0px" y="0px"
	 viewBox="0 0 500 500" style="enable-background:new 0 0 500 500;" xml:space="preserve">
<style type="text/css">
	.st0{fill:#3C3C3B;stroke:#000000;stroke-width:2.5;stroke-miterlimit:10;}
	.st1{fill:#FCBE0C;stroke:#000000;stroke-width:0.3;stroke-miterlimit:10;}
	.st2{opacity:0.1;}
	.st3{fill:#3C3C3B;stroke:#000000;stroke-width:3;stroke-miterlimit:10;}
	.st4{fill:#FCC23B;}
	.st5{fill:#454545;}
	.st6{stroke:#000000;stroke-width:3;stroke-miterlimit:10;}
	.st7{fill:#4E4D4D;}
	.st8{fill:#4E4D4D;stroke:#000000;stroke-miterlimit:10;}
	.st9{fill:#3AB28A;}
	.st10{stroke:#000000;stroke-width:3;stroke-linecap:round;stroke-linejoin:round;stroke-miterlimit:10;}
	.st11{fill:#FFFFFF;}
	.st12{opacity:0.05;fill:#010202;}
	.st13{fill:#FCC23B;stroke:#000000;stroke-width:3;stroke-miterlimit:10;}
	.st14{opacity:0.1;fill:#FFFFFF;}
	.st15{fill:#D43732;stroke:#000000;stroke-width:1.2;stroke-miterlimit:10;}
	.st16{fill:#706F6F;stroke:#000000;stroke-width:1.2;stroke-miterlimit:10;}
	.st17{fill:#9D9D9C;stroke:#000000;stroke-width:1.2;stroke-miterlimit:10;}
	.st18{fill:#B2B2B2;stroke:#000000;stroke-width:1.2;stroke-miterlimit:10;}
	.st19{fill:#C6C6C6;stroke:#000000;stroke-width:1.2;stroke-miterlimit:10;}
	.st20{opacity:0.1;stroke:#000000;stroke-width:1.2;stroke-miterlimit:10;}
	.st21{opacity:0.1;fill:#F6F6F6;}
</style>
<g>
	<path class="st0" d="M385.6,377.92c-0.54-0.98-1.32-2.5-2.11-4.47c-1.45-3.6-2.9-8.59-3.3-14.3c-0.41-5.73,0.28-12.06,2.93-18.64
		c2.69-6.6,7.44-13.26,15.13-20.85c4.01,3.96,6.86,7.81,8.86,11.68c1.96,3.84,3.13,7.76,3.39,11.43c0.55,6.8-1.45,13.19-4.6,18.48
		c3.77-3.56,7.39-7.26,10.85-11.12c5.1-5.69,9.83-11.72,14.17-18.01c-0.85-0.74-2.1-1.9-3.53-3.49c-2.59-2.87-5.73-7.09-8.05-12.2
		c-1.16-2.56-2.3-5.43-2.99-8.42c-0.36-1.51-0.61-3.04-0.78-4.64c-0.24-1.63-0.38-3.3-0.38-5c0.08-6.84,1.59-14.4,5.65-24.03
		c5.21,2.03,9.45,4.44,12.88,7.21c3.35,2.74,5.74,5.8,7.49,9.09c0.87,1.64,1.57,3.34,2.12,5.06c0.45,1.69,0.75,3.41,0.92,5.13
		c0.27,2.82,0.22,5.68-0.22,8.38c1.92-4.14,3.69-8.35,5.3-12.62l2.49-7.47c0.45-1.23,0.79-2.5,1.1-3.78l0.97-3.82
		c0.82-2.82,1.39-5.69,1.91-8.57c-1.07-0.34-2.69-0.9-4.65-1.8c-3.52-1.59-8.08-4.2-12.23-7.92c-2.06-1.86-4.3-4.05-6.15-6.51
		c-0.94-1.24-1.82-2.55-2.6-3.94c-0.4-0.7-0.75-1.41-1.13-2.16c-0.41-0.75-0.8-1.53-1.16-2.32c-0.73-1.6-1.35-3.29-1.84-5.09
		c-0.25-0.9-0.46-1.83-0.64-2.79c-0.24-0.97-0.5-1.98-0.69-3.02c-0.4-2.08-0.66-4.29-0.75-6.68c0-1.19-0.15-2.44-0.23-3.73
		c-0.08-1.29-0.11-2.63-0.11-4.03c5.58-0.02,10.42,0.68,14.61,2.01c2.1,0.66,4.03,1.48,5.82,2.43c1.73,0.95,3.26,2.04,4.67,3.23
		c2.81,2.39,5.06,5.23,6.84,8.28c1.42,2.55,2.33,5.26,3.04,7.98c0.12-4.08,0.25-8.17-0.09-12.25c-0.38-8.74-1.42-17.43-2.96-26.04
		c-1.12,0.07-2.82,0.12-4.93-0.02c-3.86-0.24-9.06-1.07-14.33-3.22c-5.12-2.17-10.94-5.56-15.55-11.14
		c-2.18-2.81-4.72-6.12-6.67-10.2c-1.03-2.03-1.84-4.27-2.78-6.7c-0.99-2.42-1.9-5.06-2.7-7.94c10.77-2.91,19.55-2.15,26.51,0.9
		c3.37,1.55,6.3,3.66,8.86,6.08c1.28,1.21,2.46,2.51,3.54,3.85c0.54,0.67,1.07,1.35,1.56,2.05c0.06,0.1,0.12,0.2,0.18,0.3
		c-0.74-2.43-1.52-4.84-2.33-7.25c-1.05-0.62-2.47-1.52-4.12-2.69c-1.75-1.24-3.66-2.79-5.73-4.62c-2.15-1.8-4.36-3.91-6.43-6.34
		c-2.11-2.42-3.95-5.22-5.71-8.32c-1.84-3.08-3.37-6.55-4.45-10.49c-0.54-1.97-0.96-4.06-1.25-6.28c-0.4-2.18-0.67-4.48-0.78-6.93
		c-0.23-4.9,0.14-10.38,1.24-16.58c5.73,2.2,10.63,4.92,14.77,7.95c2.07,1.52,3.96,3.11,5.66,4.75c1.61,1.7,3.04,3.46,4.32,5.25
		c2.55,3.57,4.46,7.25,5.86,10.86c1.33,3.65,1.94,7.34,2.31,10.74c0.34,3.42,0.32,6.61,0.09,9.46c-0.31,2.89-0.92,5.47-1.48,7.58
		c-0.56,2.05-1.15,3.67-1.6,4.81c4.56,13.52,8.02,27.45,10,41.59c0.06-1.11,0.15-2.23,0.29-3.38c0.3-3.35,0.71-6.81,1.7-10.32
		c0.93-3.5,2.5-7.09,4.27-10.49c3.73-6.83,9.96-13.46,20.07-18.5c1.36,3.63,2.49,7.11,3.38,10.41c0.45,1.65,0.84,3.26,1.19,4.82
		c0.28,1.59,0.47,3.17,0.63,4.68c0.32,3.03,0.44,5.88,0.41,8.54c-0.04,2.66-0.19,5.12-0.71,7.48c-1.87,9.37-5.63,15.66-10.33,19.92
		c-4.54,4.22-9.38,6.32-13.08,7.44c-2.96,0.89-5.16,1.14-5.93,1.21c0.12,4.22-0.1,8.45-0.16,12.68c0.03,2.68-0.41,5.33-0.63,7.99
		c-0.31,2.65-0.44,5.33-0.9,7.96c-0.9,4.87-1.61,9.77-2.89,14.56c0.43-0.92,0.88-1.83,1.37-2.76c1.53-3.01,3.14-6.11,5.35-9.06
		c2.28-2.95,4.58-5.86,7.56-8.51c2.96-2.65,6.53-5.06,10.67-7.04c4.05-1.97,8.8-3.52,14.37-4.35c0.12,2.04,0.21,4.02,0.21,5.95
		c-0.09,1.93-0.22,3.8-0.4,5.61c-0.37,3.61-0.79,6.98-1.52,10.08c-0.82,3.1-1.75,5.94-2.77,8.54c-1.01,2.6-2.09,4.95-3.46,7.03
		c-2.63,4.17-5.37,7.43-8.3,9.87c-3.02,2.42-6.04,4.08-8.92,5.2c-2.89,1.11-5.6,1.7-8.16,1.92c-2.57,0.22-4.88,0.12-6.81-0.1
		c-3.11-0.36-5.24-0.99-5.97-1.23c-3.39,8.36-7.37,16.48-12.08,24.18c-2.92,4.7-6.06,9.26-9.39,13.68c0.76-0.7,1.54-1.4,2.37-2.08
		c2.67-2.1,5.37-4.3,8.56-6.14c3.23-1.81,6.53-3.53,10.35-4.74c1.9-0.61,3.91-1.11,6.02-1.47c2.09-0.38,4.22-0.66,6.5-0.74
		c4.55-0.18,9.56,0.29,15.02,1.75c-2.87,7.8-6.59,14.07-10.32,19.2c-3.94,4.98-7.8,8.91-11.83,11.62c-1.98,1.39-3.89,2.56-5.79,3.5
		c-1.94,0.9-3.81,1.59-5.62,2.12c-3.62,1.06-6.95,1.44-10.08,1.28c-6.19-0.26-11.08-2.23-14.47-4.07c-2.78-1.53-4.54-2.95-5.09-3.42
		c-5.87,6.09-12.12,11.8-18.73,17.07c-8.36,6.65-17.18,12.72-26.63,17.78c-0.85,0.45-1.83,0.23-2.16-0.47
		c-0.33-0.7,0.03-1.59,0.85-2.02C373.84,385.91,379.82,382.06,385.6,377.92z"/>
	<path class="st0" d="M114.14,379.98c0.54-0.98,1.32-2.5,2.1-4.47c1.45-3.6,2.9-8.59,3.3-14.3c0.41-5.73-0.28-12.06-2.93-18.64
		c-2.69-6.6-7.44-13.26-15.13-20.85c-4.01,3.96-6.86,7.81-8.86,11.68c-1.96,3.84-3.13,7.76-3.39,11.43
		c-0.55,6.8,1.45,13.19,4.6,18.48c-3.77-3.56-7.39-7.26-10.85-11.12c-5.1-5.69-9.83-11.72-14.17-18.01c0.85-0.74,2.1-1.9,3.53-3.49
		c2.59-2.87,5.73-7.09,8.05-12.2c1.16-2.56,2.3-5.43,2.99-8.42c0.36-1.51,0.61-3.04,0.78-4.64c0.24-1.63,0.38-3.29,0.38-5
		c-0.08-6.84-1.59-14.4-5.65-24.03c-5.21,2.03-9.45,4.44-12.88,7.21c-3.35,2.74-5.74,5.8-7.49,9.09c-0.87,1.64-1.57,3.34-2.12,5.06
		c-0.45,1.69-0.75,3.41-0.92,5.13c-0.27,2.82-0.22,5.68,0.22,8.38c-1.92-4.14-3.69-8.35-5.3-12.62l-2.49-7.47
		c-0.45-1.23-0.79-2.5-1.1-3.78l-0.97-3.82c-0.82-2.82-1.39-5.69-1.91-8.57c1.07-0.34,2.69-0.9,4.65-1.8
		c3.52-1.59,8.08-4.2,12.23-7.92c2.06-1.86,4.3-4.05,6.15-6.51c0.94-1.24,1.82-2.55,2.6-3.94c0.4-0.7,0.75-1.41,1.13-2.16
		c0.41-0.75,0.8-1.53,1.16-2.32c0.73-1.6,1.35-3.29,1.84-5.09c0.25-0.9,0.46-1.83,0.64-2.79c0.24-0.97,0.5-1.98,0.69-3.02
		c0.4-2.08,0.66-4.29,0.75-6.68c0-1.19,0.15-2.44,0.23-3.73c0.08-1.29,0.11-2.63,0.11-4.03c-5.58-0.02-10.42,0.68-14.61,2.01
		c-2.1,0.66-4.03,1.48-5.82,2.43c-1.73,0.95-3.26,2.04-4.67,3.23c-2.81,2.39-5.06,5.23-6.84,8.28c-1.42,2.55-2.33,5.26-3.04,7.98
		c-0.12-4.08-0.25-8.17,0.09-12.25c0.38-8.74,1.42-17.43,2.96-26.04c1.12,0.07,2.82,0.12,4.93-0.02c3.86-0.24,9.06-1.07,14.33-3.22
		c5.12-2.17,10.94-5.56,15.55-11.14c2.18-2.81,4.72-6.12,6.67-10.2c1.03-2.03,1.84-4.27,2.78-6.7c0.99-2.42,1.9-5.06,2.7-7.94
		c-10.77-2.91-19.55-2.15-26.51,0.9c-3.37,1.55-6.3,3.66-8.86,6.08c-1.28,1.21-2.46,2.51-3.54,3.85c-0.54,0.67-1.07,1.35-1.56,2.05
		c-0.06,0.1-0.12,0.2-0.18,0.3c0.74-2.43,1.52-4.84,2.33-7.25c1.05-0.62,2.47-1.52,4.12-2.69c1.75-1.24,3.66-2.79,5.73-4.62
		c2.15-1.8,4.36-3.91,6.43-6.34c2.11-2.42,3.95-5.22,5.71-8.32c1.84-3.08,3.37-6.55,4.45-10.49c0.54-1.97,0.96-4.06,1.25-6.28
		c0.4-2.18,0.67-4.48,0.78-6.93c0.23-4.9-0.14-10.38-1.24-16.58c-5.73,2.2-10.63,4.92-14.77,7.95c-2.07,1.52-3.96,3.11-5.66,4.75
		c-1.61,1.7-3.04,3.46-4.32,5.25c-2.55,3.57-4.46,7.25-5.86,10.86c-1.33,3.65-1.94,7.34-2.31,10.74c-0.34,3.42-0.32,6.61-0.09,9.46
		c0.31,2.89,0.92,5.47,1.48,7.58c0.56,2.05,1.15,3.67,1.6,4.81c-4.56,13.52-8.02,27.45-10,41.59c-0.06-1.11-0.15-2.23-0.29-3.38
		c-0.3-3.35-0.71-6.81-1.7-10.32c-0.93-3.5-2.5-7.09-4.27-10.49c-3.73-6.83-9.96-13.46-20.07-18.5c-1.36,3.63-2.49,7.11-3.38,10.41
		c-0.45,1.65-0.84,3.26-1.19,4.82c-0.28,1.59-0.47,3.17-0.63,4.68c-0.32,3.03-0.44,5.88-0.41,8.54c0.04,2.66,0.19,5.11,0.71,7.48
		c1.87,9.37,5.63,15.66,10.33,19.92c4.54,4.22,9.38,6.32,13.08,7.44c2.96,0.89,5.16,1.14,5.93,1.21c-0.12,4.22,0.1,8.45,0.16,12.68
		c-0.03,2.68,0.41,5.33,0.63,7.99c0.31,2.65,0.44,5.33,0.9,7.96c0.9,4.87,1.61,9.77,2.89,14.56c-0.43-0.92-0.88-1.83-1.37-2.76
		c-1.53-3.01-3.14-6.11-5.35-9.06c-2.28-2.95-4.58-5.86-7.56-8.51c-2.96-2.65-6.53-5.06-10.67-7.04c-4.05-1.97-8.8-3.52-14.37-4.35
		c-0.12,2.04-0.21,4.02-0.21,5.95c0.09,1.93,0.22,3.8,0.4,5.61c0.37,3.61,0.79,6.98,1.52,10.08c0.82,3.1,1.75,5.94,2.77,8.54
		c1.01,2.6,2.09,4.95,3.46,7.03c2.63,4.17,5.37,7.43,8.3,9.87c3.02,2.42,6.04,4.08,8.92,5.2c2.89,1.11,5.6,1.7,8.16,1.92
		c2.57,0.22,4.88,0.12,6.81-0.1c3.11-0.36,5.24-0.99,5.97-1.23c3.39,8.36,7.37,16.48,12.08,24.18c2.92,4.7,6.06,9.26,9.39,13.68
		c-0.76-0.7-1.54-1.4-2.37-2.08c-2.67-2.1-5.37-4.3-8.56-6.14c-3.23-1.81-6.53-3.53-10.35-4.74c-1.9-0.61-3.91-1.11-6.02-1.47
		c-2.09-0.38-4.22-0.65-6.5-0.74c-4.55-0.18-9.56,0.29-15.02,1.75c2.87,7.8,6.59,14.07,10.32,19.2c3.94,4.98,7.8,8.91,11.83,11.62
		c1.98,1.39,3.89,2.56,5.79,3.5c1.94,0.9,3.81,1.59,5.62,2.12c3.62,1.06,6.95,1.44,10.08,1.28c6.19-0.26,11.08-2.23,14.47-4.07
		c2.78-1.53,4.54-2.95,5.09-3.42c5.87,6.09,12.12,11.8,18.73,17.07c8.36,6.65,17.18,12.72,26.63,17.78
		c0.85,0.45,1.83,0.23,2.16-0.47c0.33-0.7-0.03-1.59-0.85-2.02C125.9,387.97,119.92,384.13,114.14,379.98z"/>
</g>
<path class="st1" d="M44.22,210.68"/>
<g>
	<path class="st1" d="M114.14,379.98c0.54-0.98,1.32-2.5,2.1-4.47c1.45-3.6,2.9-8.59,3.3-14.3c0.41-5.73-0.28-12.06-2.93-18.64
		c-2.69-6.6-7.44-13.26-15.13-20.85c-4.01,3.96-6.86,7.81-8.86,11.68c-1.96,3.84-3.13,7.76-3.39,11.43
		c-0.55,6.8,1.45,13.19,4.6,18.48c-3.77-3.56-7.39-7.26-10.85-11.12c-5.1-5.69-9.83-11.72-14.17-18.01c0.85-0.74,2.1-1.9,3.53-3.49
		c2.59-2.87,5.73-7.09,8.05-12.2c1.16-2.56,2.3-5.43,2.99-8.42c0.36-1.51,0.61-3.04,0.78-4.64c0.24-1.63,0.38-3.29,0.38-5
		c-0.08-6.84-1.59-14.4-5.65-24.03c-5.21,2.03-9.45,4.44-12.88,7.21c-3.35,2.74-5.74,5.8-7.49,9.09c-0.87,1.64-1.57,3.34-2.12,5.06
		c-0.45,1.69-0.75,3.41-0.92,5.13c-0.27,2.82-0.22,5.68,0.22,8.38c-1.92-4.14-3.69-8.35-5.3-12.62l-2.49-7.47
		c-0.45-1.23-0.79-2.5-1.1-3.78l-0.97-3.82c-0.82-2.82-1.39-5.69-1.91-8.57c1.07-0.34,2.69-0.9,4.65-1.8
		c3.52-1.59,8.08-4.2,12.23-7.92c2.06-1.86,4.3-4.05,6.15-6.51c0.94-1.24,1.82-2.55,2.6-3.94c0.4-0.7,0.75-1.41,1.13-2.16
		c0.41-0.75,0.8-1.53,1.16-2.32c0.73-1.6,1.35-3.29,1.84-5.09c0.25-0.9,0.46-1.83,0.64-2.79c0.24-0.97,0.5-1.98,0.69-3.02
		c0.4-2.08,0.66-4.29,0.75-6.68c0-1.19,0.15-2.44,0.23-3.73c0.08-1.29,0.11-2.63,0.11-4.03c-5.58-0.02-10.42,0.68-14.61,2.01
		c-2.1,0.66-4.03,1.48-5.82,2.43c-1.73,0.95-3.26,2.04-4.67,3.23c-2.81,2.39-5.06,5.23-6.84,8.28c-1.42,2.55-2.33,5.26-3.04,7.98
		c-0.12-4.08-0.25-8.17,0.09-12.25c0.38-8.74,1.42-17.43,2.96-26.04c1.12,0.07,2.82,0.12,4.93-0.02c3.86-0.24,9.06-1.07,14.33-3.22
		c5.12-2.17,10.94-5.56,15.55-11.14c2.18-2.81,4.72-6.12,6.67-10.2c1.03-2.03,1.84-4.27,2.78-6.7c0.99-2.42,1.9-5.06,2.7-7.94
		c-10.77-2.91-19.55-2.15-26.51,0.9c-3.37,1.55-6.3,3.66-8.86,6.08c-1.28,1.21-2.46,2.51-3.54,3.85c-0.54,0.67-1.07,1.35-1.56,2.05
		c-0.06,0.1-0.12,0.2-0.18,0.3c0.74-2.43,1.52-4.84,2.33-7.25c1.05-0.62,2.47-1.52,4.12-2.69c1.75-1.24,3.66-2.79,5.73-4.62
		c2.15-1.8,4.36-3.91,6.43-6.34c2.11-2.42,3.95-5.22,5.71-8.32c1.84-3.08,3.37-6.55,4.45-10.49c0.54-1.97,0.96-4.06,1.25-6.28
		c0.4-2.18,0.67-4.48,0.78-6.93c0.23-4.9-0.14-10.38-1.24-16.58c-5.73,2.2-10.63,4.92-14.77,7.95c-2.07,1.52-3.96,3.11-5.66,4.75
		c-1.61,1.7-3.04,3.46-4.32,5.25c-2.55,3.57-4.46,7.25-5.86,10.86c-1.33,3.65-1.94,7.34-2.31,10.74c-0.34,3.42-0.32,6.61-0.09,9.46
		c0.31,2.89,0.92,5.47,1.48,7.58c0.56,2.05,1.15,3.67,1.6,4.81c-4.56,13.52-8.02,27.45-10,41.59c-0.06-1.11-0.15-2.23-0.29-3.38
		c-0.3-3.35-0.71-6.81-1.7-10.32c-0.93-3.5-2.5-7.09-4.27-10.49c-3.73-6.83-9.96-13.46-20.07-18.5c-1.36,3.63-2.49,7.11-3.38,10.41
		c-0.45,1.65-0.84,3.26-1.19,4.82c-0.28,1.59-0.47,3.17-0.63,4.68c-0.32,3.03-0.44,5.88-0.41,8.54c0.04,2.66,0.19,5.11,0.71,7.48
		c1.87,9.37,5.63,15.66,10.33,19.92c4.54,4.22,9.38,6.32,13.08,7.44c2.96,0.89,5.16,1.14,5.93,1.21c-0.12,4.22,0.1,8.45,0.16,12.68
		c-0.03,2.68,0.41,5.33,0.63,7.99c0.31,2.65,0.44,5.33,0.9,7.96c0.9,4.87,1.61,9.77,2.89,14.56c-0.43-0.92-0.88-1.83-1.37-2.76
		c-1.53-3.01-3.14-6.11-5.35-9.06c-2.28-2.95-4.58-5.86-7.56-8.51c-2.96-2.65-6.53-5.06-10.67-7.04c-4.05-1.97-8.8-3.52-14.37-4.35
		c-0.12,2.04-0.21,4.02-0.21,5.95c0.09,1.93,0.22,3.8,0.4,5.61c0.37,3.61,0.79,6.98,1.52,10.08c0.82,3.1,1.75,5.94,2.77,8.54
		c1.01,2.6,2.09,4.95,3.46,7.03c2.63,4.17,5.37,7.43,8.3,9.87c3.02,2.42,6.04,4.08,8.92,5.2c2.89,1.11,5.6,1.7,8.16,1.92
		c2.57,0.22,4.88,0.12,6.81-0.1c3.11-0.36,5.24-0.99,5.97-1.23c3.39,8.36,7.37,16.48,12.08,24.18c2.92,4.7,6.06,9.26,9.39,13.68
		c-0.76-0.7-1.54-1.4-2.37-2.08c-2.67-2.1-5.37-4.3-8.56-6.14c-3.23-1.81-6.53-3.53-10.35-4.74c-1.9-0.61-3.91-1.11-6.02-1.47
		c-2.09-0.38-4.22-0.65-6.5-0.74c-4.55-0.18-9.56,0.29-15.02,1.75c2.87,7.8,6.59,14.07,10.32,19.2c3.94,4.98,7.8,8.91,11.83,11.62
		c1.98,1.39,3.89,2.56,5.79,3.5c1.94,0.9,3.81,1.59,5.62,2.12c3.62,1.06,6.95,1.44,10.08,1.28c6.19-0.26,11.08-2.23,14.47-4.07
		c2.78-1.53,4.54-2.95,5.09-3.42c5.87,6.09,12.12,11.8,18.73,17.07c8.36,6.65,17.18,12.72,26.63,17.78
		c0.85,0.45,1.83,0.23,2.16-0.47c0.33-0.7-0.03-1.59-0.85-2.02C125.9,387.97,119.92,384.13,114.14,379.98z"/>
	<path class="st2" d="M101.48,321.72C96.45,357.13,119.2,353,119.2,353c2.3,6.78-21.95,21.59-28.99,1.18
		C84.57,337.85,101.48,321.72,101.48,321.72z"/>
	<path class="st2" d="M38.28,239.94c-23.66-7.67-24.43-64.49-24.43-64.49l0,0c0,0,10.11,5.05,0,0c-1.36,3.63-2.49,7.11-3.38,10.41
		c-0.45,1.65-0.84,3.26-1.19,4.82c-0.28,1.59-0.47,3.17-0.63,4.68c-0.32,3.03-0.44,5.88-0.41,8.54c0.04,2.66,0.19,5.11,0.71,7.48
		c1.87,9.37,5.63,15.66,10.33,19.92c4.54,4.22,9.38,6.32,13.08,7.44C35.31,239.62,37.51,239.87,38.28,239.94"/>
	<path class="st2" d="M49.62,304.28c0,0-22.37,7.4-36.24-13.11c-11.66-15.83-9.86-39.75-9.86-39.75
		C23.68,299.68,49.62,304.28,49.62,304.28L49.62,304.28z"/>
	<path class="st2" d="M85.45,358.94c0,0-8.95,8.23-22.37,7.49c-30.55-3.52-40.51-37.73-40.51-37.73
		C48.96,356.53,85.45,358.94,85.45,358.94S81.69,425.19,85.45,358.94z"/>
	<path class="st2" d="M91.19,171.46c-11.85,0.05-40.57,13.97-46.97,39.23l6.32-26.05C63.44,161.66,91.19,171.46,91.19,171.46z"/>
	<path class="st2" d="M43.97,275.03c0,0-3.03-11.86-2.86-25.03c0.1-7.44,11.23-26.47,35.05-24.95
		C76.15,225.05,47.43,228.77,43.97,275.03z"/>
	<path class="st2" d="M56.11,312.02c1.49,7.2,12.72,22.16,12.72,22.16c2.31,0.56-7.1-30.25,10.09-57.78
		C78.91,276.4,50.66,285.64,56.11,312.02z"/>
</g>
<g>
	<path class="st1" d="M385.6,377.92c-0.54-0.98-1.32-2.5-2.11-4.47c-1.45-3.6-2.9-8.59-3.3-14.3c-0.41-5.73,0.28-12.06,2.93-18.64
		c2.69-6.6,7.44-13.26,15.13-20.85c4.01,3.96,6.86,7.81,8.86,11.68c1.96,3.84,3.13,7.76,3.39,11.43c0.55,6.8-1.45,13.19-4.6,18.48
		c3.77-3.56,7.39-7.26,10.85-11.12c5.1-5.69,9.83-11.72,14.17-18.01c-0.85-0.74-2.1-1.9-3.53-3.49c-2.59-2.87-5.73-7.09-8.05-12.2
		c-1.16-2.56-2.3-5.43-2.99-8.42c-0.36-1.51-0.61-3.04-0.78-4.64c-0.24-1.63-0.38-3.29-0.38-5c0.08-6.84,1.59-14.4,5.65-24.03
		c5.21,2.03,9.45,4.44,12.88,7.21c3.35,2.74,5.74,5.8,7.49,9.09c0.87,1.64,1.57,3.34,2.12,5.06c0.45,1.69,0.75,3.41,0.92,5.13
		c0.27,2.82,0.22,5.68-0.22,8.38c1.92-4.14,3.69-8.35,5.3-12.62l2.49-7.47c0.45-1.23,0.79-2.5,1.1-3.78l0.97-3.82
		c0.82-2.82,1.39-5.69,1.91-8.57c-1.07-0.34-2.69-0.9-4.65-1.8c-3.52-1.59-8.08-4.2-12.23-7.92c-2.06-1.86-4.3-4.05-6.15-6.51
		c-0.94-1.24-1.82-2.55-2.6-3.94c-0.4-0.7-0.75-1.41-1.13-2.16c-0.41-0.75-0.8-1.53-1.16-2.32c-0.73-1.6-1.35-3.29-1.84-5.09
		c-0.25-0.9-0.46-1.83-0.64-2.79c-0.24-0.97-0.5-1.98-0.69-3.02c-0.4-2.08-0.66-4.29-0.75-6.68c0-1.19-0.15-2.44-0.23-3.73
		c-0.08-1.29-0.11-2.63-0.11-4.03c5.58-0.02,10.42,0.68,14.61,2.01c2.1,0.66,4.03,1.48,5.82,2.43c1.73,0.95,3.26,2.04,4.67,3.23
		c2.81,2.39,5.06,5.23,6.84,8.28c1.42,2.55,2.33,5.26,3.04,7.98c0.12-4.08,0.25-8.17-0.09-12.25c-0.38-8.74-1.42-17.43-2.96-26.04
		c-1.12,0.07-2.82,0.12-4.93-0.02c-3.86-0.24-9.06-1.07-14.33-3.22c-5.12-2.17-10.94-5.56-15.55-11.14
		c-2.18-2.81-4.72-6.12-6.67-10.2c-1.03-2.03-1.84-4.27-2.78-6.7c-0.99-2.42-1.9-5.06-2.7-7.94c10.77-2.91,19.55-2.15,26.51,0.9
		c3.37,1.55,6.3,3.66,8.86,6.08c1.28,1.21,2.46,2.51,3.54,3.85c0.54,0.67,1.07,1.35,1.56,2.05c0.06,0.1,0.12,0.2,0.18,0.3
		c-0.74-2.43-1.52-4.84-2.33-7.25c-1.05-0.62-2.47-1.52-4.12-2.69c-1.75-1.24-3.66-2.79-5.73-4.62c-2.15-1.8-4.36-3.91-6.43-6.34
		c-2.11-2.42-3.95-5.22-5.71-8.32c-1.84-3.08-3.37-6.55-4.45-10.49c-0.54-1.97-0.96-4.06-1.25-6.28c-0.4-2.18-0.67-4.48-0.78-6.93
		c-0.23-4.9,0.14-10.38,1.24-16.58c5.73,2.2,10.63,4.92,14.77,7.95c2.07,1.52,3.96,3.11,5.66,4.75c1.61,1.7,3.04,3.46,4.32,5.25
		c2.55,3.57,4.46,7.25,5.86,10.86c1.33,3.65,1.94,7.34,2.31,10.74c0.34,3.42,0.32,6.61,0.09,9.46c-0.31,2.89-0.92,5.47-1.48,7.58
		c-0.56,2.05-1.15,3.67-1.6,4.81c4.56,13.52,8.02,27.45,10,41.59c0.06-1.11,0.15-2.23,0.29-3.38c0.3-3.35,0.71-6.81,1.7-10.32
		c0.93-3.5,2.5-7.09,4.27-10.49c3.73-6.83,9.96-13.46,20.07-18.5c1.36,3.63,2.49,7.11,3.38,10.41c0.45,1.65,0.84,3.26,1.19,4.82
		c0.28,1.59,0.47,3.17,0.63,4.68c0.32,3.03,0.44,5.88,0.41,8.54c-0.04,2.66-0.19,5.11-0.71,7.48c-1.87,9.37-5.63,15.66-10.33,19.92
		c-4.54,4.22-9.38,6.32-13.08,7.44c-2.96,0.89-5.16,1.14-5.93,1.21c0.12,4.22-0.1,8.45-0.16,12.68c0.03,2.68-0.41,5.33-0.63,7.99
		c-0.31,2.65-0.44,5.33-0.9,7.96c-0.9,4.87-1.61,9.77-2.89,14.56c0.43-0.92,0.88-1.83,1.37-2.76c1.53-3.01,3.14-6.11,5.35-9.06
		c2.28-2.95,4.58-5.86,7.56-8.51c2.96-2.65,6.53-5.06,10.67-7.04c4.05-1.97,8.8-3.52,14.37-4.35c0.12,2.04,0.21,4.02,0.21,5.95
		c-0.09,1.93-0.22,3.8-0.4,5.61c-0.37,3.61-0.79,6.98-1.52,10.08c-0.82,3.1-1.75,5.94-2.77,8.54c-1.01,2.6-2.09,4.95-3.46,7.03
		c-2.63,4.17-5.37,7.43-8.3,9.87c-3.02,2.42-6.04,4.08-8.92,5.2c-2.89,1.11-5.6,1.7-8.16,1.92c-2.57,0.22-4.88,0.12-6.81-0.1
		c-3.11-0.36-5.24-0.99-5.97-1.23c-3.39,8.36-7.37,16.48-12.08,24.18c-2.92,4.7-6.06,9.26-9.39,13.68c0.76-0.7,1.54-1.4,2.37-2.08
		c2.67-2.1,5.37-4.3,8.56-6.14c3.23-1.81,6.53-3.53,10.35-4.74c1.9-0.61,3.91-1.11,6.02-1.47c2.09-0.38,4.22-0.65,6.5-0.74
		c4.55-0.18,9.56,0.29,15.02,1.75c-2.87,7.8-6.59,14.07-10.32,19.2c-3.94,4.98-7.8,8.91-11.83,11.62c-1.98,1.39-3.89,2.56-5.79,3.5
		c-1.94,0.9-3.81,1.59-5.62,2.12c-3.62,1.06-6.95,1.44-10.08,1.28c-6.19-0.26-11.08-2.23-14.47-4.07c-2.78-1.53-4.54-2.95-5.09-3.42
		c-5.87,6.09-12.12,11.8-18.73,17.07c-8.36,6.65-17.18,12.72-26.63,17.78c-0.85,0.45-1.83,0.23-2.16-0.47
		c-0.33-0.7,0.03-1.59,0.85-2.02C373.84,385.91,379.82,382.06,385.6,377.92z"/>
	<path class="st2" d="M398.26,319.65c-17.86,17.05-17.71,31.28-17.71,31.28c24.16,32.49,28.99,1.18,28.99,1.18
		C379.6,356.96,398.26,319.65,398.26,319.65z"/>
	<path class="st2" d="M485.89,173.39c-14.89,11.91-22.43,51.1-24.43,64.49l-1.82-21.05C460.28,182.62,485.89,173.39,485.89,173.39z"
		/>
	<path class="st2" d="M450.12,302.22l6.77-21.15c12.33-29.39,39.33-31.71,39.33-31.71C471.17,260.74,450.12,302.22,450.12,302.22
		L450.12,302.22z"/>
	<path class="st2" d="M428.43,363.45c0,0-5.36,0-14.14-6.57c19.88-28.92,41.2-31.16,41.2-31.16
		C427.4,353.68,428.43,363.45,428.43,363.45C428.43,363.45,428.43,363.45,428.43,363.45z"/>
	<path class="st2" d="M409.33,170.04c0,0,22.2,29.55,46.18,38.58c0,0-15.32,0.12-23.98-5.54
		C422.87,197.43,409.33,170.04,409.33,170.04z"/>
	<path class="st2" d="M455.78,272.96c0,0-22.05-7.62-28.4-25.73c-2.46-7.02-5.16-17.64,7.1-23
		C434.47,224.23,427.72,236.23,455.78,272.96z"/>
	<path class="st2" d="M430.92,332.12L430.92,332.12c-11.32-10.31-22.89-28.87-10.09-57.78
		C422.33,270.95,419.94,315.68,430.92,332.12z"/>
</g>
<g>
	<path class="st3" d="M417.04,180.24h0.26v-13.72c0-0.5-0.06-0.98-0.15-1.45c-0.03-0.14-0.06-0.28-0.1-0.42
		c-0.08-0.34-0.18-0.67-0.31-0.99c-0.05-0.13-0.1-0.26-0.16-0.39c-0.18-0.4-0.38-0.78-0.62-1.14c-0.02-0.02-0.03-0.05-0.04-0.07
		c-0.26-0.38-0.56-0.73-0.87-1.06c-0.09-0.1-0.19-0.18-0.29-0.28c-0.25-0.23-0.51-0.45-0.78-0.64c-0.12-0.08-0.23-0.17-0.35-0.24
		c-0.35-0.22-0.71-0.42-1.09-0.59c-0.05-0.02-0.09-0.05-0.13-0.07c-0.01,0-0.02-0.01-0.03-0.01h0v-26.97l22.87-12.94l-22.96-13.16
		c-0.07-0.69-0.21-1.42-0.45-2.38c-0.27-1.3-0.53-1.94-0.53-1.94c-0.02-0.07-0.05-0.14-0.07-0.21c-0.05-0.16-0.11-0.31-0.16-0.46
		c-0.22-0.67-0.47-1.31-0.75-1.94c-0.03-0.06-0.05-0.12-0.08-0.17c-0.3-0.66-0.62-1.28-0.96-1.88c-0.08-0.14-0.16-0.28-0.24-0.42
		c-0.34-0.56-0.69-1.1-1.05-1.6c-0.09-0.12-0.17-0.25-0.26-0.37c-0.46-0.62-0.92-1.18-1.38-1.7c-0.1-0.11-0.2-0.22-0.3-0.33
		c-0.86-0.93-1.67-1.7-2.33-2.22l-0.01,0.02c-4.26-3.52-9.59-5.46-15.13-5.46h-13.05l-127.4-73l-177,107.77l67.73,38.17
		c-5.43,9.66-10.38,20.47-14.61,32.6l0,0l0,0c-13.06,21.88-20.58,47.44-20.58,74.77c0,80.69,65.41,146.09,146.09,146.09
		s146.09-65.41,146.09-146.09c0-6.28-0.44-12.45-1.21-18.52c4.32,0.9,9.41,1.35,14.52,1.35l0,0c0,0,0,0,0,0
		c1.96,0,3.91-0.07,5.83-0.21c0.9-0.06,1.8-0.14,2.68-0.23c1.6-0.17,3.14-0.38,4.61-0.65c0.53-0.1,1.06-0.2,1.57-0.31
		c0.89-0.19,1.74-0.4,2.56-0.62c2.32-0.65,4.31-1.45,5.81-2.41c0.47-0.3,0.88-0.61,1.24-0.94c0.31-0.27,0.57-0.56,0.8-0.85
		c0.38-0.48,0.68-0.99,0.84-1.53c0.1-0.34,0.15-0.7,0.15-1.07C435.25,211.64,427.6,188.18,417.04,180.24z M388.58,91.13
		c4.35,0,8.54,1.59,11.78,4.49c1.94,1.73,3.44,3.86,4.46,6.19l-18.65-10.69H388.58z M385.76,211.97
		c-2.93-7.45-6.43-14.61-10.48-21.4l0,0l0,0c-3.67-11.09-8.02-21.09-12.86-30.12l43.97-24.87v23.55c-2.94,1.17-5.02,4.03-5.02,7.38
		v13.66C394.52,185.26,388.89,196.89,385.76,211.97z"/>
	<g>
		<g>
			<path class="st4" d="M409.33,111.88c1.68,0,3.05-1.37,3.05-3.05c0-6.78-2.9-13.25-7.96-17.76c-4.37-3.9-9.99-6.04-15.85-6.04
				h-39.89c-1.68,0-3.05,1.37-3.05,3.05c0,1.68,1.37,3.05,3.05,3.05h39.89c4.35,0,8.54,1.59,11.78,4.49
				c3.76,3.36,5.92,8.17,5.92,13.21C406.28,110.52,407.65,111.88,409.33,111.88z"/>
		</g>
		<polygon class="st5" points="248.13,12.04 435.25,119.25 253.04,222.33 71.13,119.8 		"/>
		<polygon class="st6" points="248.13,12.04 435.25,119.25 253.04,222.33 71.13,119.8 		"/>
		<polygon class="st7" points="248.13,12.04 435.25,119.25 253.04,222.33 71.13,119.8 		"/>
		<polyline class="st5" points="253.04,222.33 71.13,119.8 248.13,12.04 		"/>
		<path class="st8" d="M435.25,119.25"/>
		<path class="st5" d="M248.13,12.47l65.86,37.75c-115.9-3.29-59.12,135.83-59.66,134.61l-100.87-81.56L248.13,12.47z"/>
		<g>
			<circle class="st9" cx="249.76" cy="265.34" r="146.09"/>
			<path id="symbol_00000011742559761217356130000017566101654983623862_" class="st10" d="M295.33,216.28
				c-7.34-16.65-24.21-20.21-44.87-16.76l-6.64-25.73l-15.65,4.04l6.53,25.66c-4.12,1.04-8.34,1.93-12.53,3.11l-6.53-25.51
				L200,185.14l6.64,25.73c-3.37,0.96-31.59,8.19-31.59,8.19l4.3,16.76c0,0,11.49-3.23,11.38-2.97c6.38-1.67,9.38,1.52,10.79,4.52
				l18.24,70.53c0.22,2.04-0.15,5.52-4.52,6.71c0.26,0.15-11.38,2.93-11.38,2.93l1.71,19.54c0,0,27.96-7.16,31.63-8.08l6.71,26.03
				l15.65-4.04l-6.71-26.22c4.3-1,8.49-2.04,12.57-3.11l6.67,26.07l15.65-4.04l-6.71-25.99c24.1-5.86,41.12-21.06,37.64-44.31
				c-2.22-14.02-17.54-25.51-30.26-26.81C296.22,239.64,300.19,229.52,295.33,216.28L295.33,216.28z M287.81,277.65
				c3.11,23.03-28.89,25.84-39.45,28.63l-9.2-34.45C249.76,269.05,282.54,257.37,287.81,277.65z M268.53,230.74
				c3.3,20.47-24.06,22.84-32.89,25.1l-8.38-31.26C236.12,222.4,261.81,211.8,268.53,230.74z"/>
			<path id="symbol_00000093170818560266661120000012193105817062177215_" class="st11" d="M295.33,216.28
				c-7.34-16.65-24.21-20.21-44.87-16.76l-6.64-25.73l-15.65,4.04l6.53,25.66c-4.12,1.04-8.34,1.93-12.53,3.11l-6.53-25.51
				L200,185.14l6.64,25.73c-3.37,0.96-31.59,8.19-31.59,8.19l4.3,16.76c0,0,11.49-3.23,11.38-2.97c6.38-1.67,9.38,1.52,10.79,4.52
				l18.24,70.53c0.22,2.04-0.15,5.52-4.52,6.71c0.26,0.15-11.38,2.93-11.38,2.93l1.71,19.54c0,0,27.96-7.16,31.63-8.08l6.71,26.03
				l15.65-4.04l-6.71-26.22c4.3-1,8.49-2.04,12.57-3.11l6.67,26.07l15.65-4.04l-6.71-25.99c24.1-5.86,41.12-21.06,37.64-44.31
				c-2.22-14.02-17.54-25.51-30.26-26.81C296.22,239.64,300.19,229.52,295.33,216.28L295.33,216.28z M287.81,277.65
				c3.11,23.03-28.89,25.84-39.45,28.63l-9.2-34.45C249.76,269.05,282.54,257.37,287.81,277.65z M268.53,230.74
				c3.3,20.47-24.06,22.84-32.89,25.1l-8.38-31.26C236.12,222.4,261.81,211.8,268.53,230.74z"/>
			<path class="st12" d="M249.76,119.25l-1.32,71.33c0,0-2.33,101.17,23.66,131.57c65.36,76.45,112.5,7.5,93.56,32.14
				c-26.71,34.75-68.69,57.15-115.91,57.15c-80.69,0-146.09-65.41-146.09-146.09S169.08,119.25,249.76,119.25z"/>
		</g>
		<g>
			<path class="st6" d="M375.28,190.57H124.25C160.58,86.32,249.76,78.31,249.76,78.31l0,0C249.76,78.31,341.42,88.22,375.28,190.57
				z"/>
			<path class="st6" d="M249.76,78.31L249.76,78.31c0,0-89.18,8-125.51,112.26l125.51,0"/>
		</g>
		<g>
			<path class="st7" d="M375.28,190.57H124.25C160.58,86.32,249.76,78.31,249.76,78.31l0,0C249.76,78.31,341.42,88.22,375.28,190.57
				z"/>
			<path class="st5" d="M249.76,78.31L249.76,78.31c0,0-89.18,8-125.51,112.26l125.51,0"/>
		</g>
		<g>
			<g>
				<path class="st6" d="M400.53,95.77c0,0,5.68,3.53,5.86,13.21v53.99c0,1.68,1.34,3.04,3,3.04c1.65,0,3-1.36,3-3.04l0-53.99
					c-0.11-4.91-1.07-7.21-1.07-7.21"/>
			</g>
			<g>
				<path class="st4" d="M400.53,95.77c0.92,0.72,1.93,1.7,2.86,2.98c2.91,4,3.05,8.36,3,10.24v53.99c0,1.68,1.34,3.04,3,3.04
					s3-1.36,3-3.04l0-53.99c0-2.83,0-3.48-1.07-7.21c-1.63-5.54-5.43-9.6-7.58-11.31"/>
			</g>
		</g>
		<g>
			<path class="st13" d="M401.37,180.24h15.92v-13.72c0-4.4-3.56-7.96-7.96-7.96l0,0c-4.4,0-7.96,3.56-7.96,7.96V180.24z"/>
			<path class="st4" d="M401.37,180.24h15.92v-13.72c0-4.4-3.56-7.96-7.96-7.96l0,0c-4.4,0-7.96,3.56-7.96,7.96V180.24z"/>
			<path class="st14" d="M409.33,180.24h7.96v-13.72c0-4.4-3.36-6.88-4.91-7.36l0,0c0,0-3.05-1.31-3,6.85L409.33,180.24z"/>
		</g>
		<path class="st6" d="M435.25,239.36c0-34.24-11.68-62-26.09-62s-26.09,27.76-26.09,62C383.08,251.11,435.26,251.11,435.25,239.36z
			"/>
		<path class="st4" d="M435.25,239.36c0-34.24-11.68-62-26.09-62s-26.09,27.76-26.09,62C383.08,251.11,435.26,251.11,435.25,239.36z
			"/>
		<path class="st14" d="M435.1,240.43c0.79-29.6-9.84-63.81-25.77-63.07c-2.01,0.09-23.45,59.78,8.34,70.37
			C434.23,246.19,435.1,240.43,435.1,240.43z"/>
	</g>
</g>
<g>
	<path class="st15" d="M241.51,438.14c0,0,35.54,36.8,58.31,45.06l-5.04-21.1l18.9-2.32c0,0-43.22-26.38-53.96-37.12L241.51,438.14z
		"/>
	<path class="st15" d="M233.95,422.23c0,0-30.89,23.66-45.58,48.56l18.44,0.31l4.71,18.46l37.4-50.44L233.95,422.23z"/>
	<path class="st16" d="M396.97,351.36c0,0,0.05-0.01,0.15-0.01c1.05-0.02,7.47,0.42,13.62,13.64c6.72,14.44,6.39,30.1,5.86,39.09
		c-0.53,8.99,2.99,34.15,6.64,41.85l-34.92-2.76c0,0-13.05-23.79-14.52-33.42c-1.47-9.62,0.47-45.6,0.85-47.74
		c0.38-2.14,4.01-7.35,7.05-8.65C384.74,352.06,395.14,350.93,396.97,351.36z"/>
	<path class="st17" d="M394.83,451.53c0,0,22.72,0.17,23.89-21.76c1.11-20.72,1.05-49.3-17.98-51.31l-29.19,3.24
		c0,0-8.96,27.59-5.85,38.62c3.11,11.03,5.02,15.78,7.61,19.75C375.91,444.05,380.13,450.41,394.83,451.53z"/>
	<path class="st16" d="M400.13,430.9c0,0,5.88,0.72,7.02-5.27c1.13-5.99,0.53-19.07-2.33-26.04l-20.34,0.41
		c0,0-0.23,16.73-0.29,19.37c-0.06,2.64,3.71,8.31,3.71,8.31S395.85,431.1,400.13,430.9z"/>
	<path class="st18" d="M400.74,378.46c0,0-5.24,0.27-7.93,6.77c-2.65,6.4-8.93,45.08,7.31,45.68c0,0-13.3-0.01-25.33-1.17
		l1.08-50.48C375.88,379.25,399.02,377.05,400.74,378.46z"/>
	<path class="st19" d="M396.97,351.36c0,0-6.35-0.54-11.44,2.87c-5.09,3.41-4.86,23.77-4.73,33.56c0.13,9.79-2.73,33.61-2.57,41.83
		c0.16,8.22,0.57,20.37,16.6,21.92c0,0-94.98-3.76-131.32-10.47c0,0-8.4-18.8-8.63-38.47c-0.17-14.22,6.46-32.15,9.92-37.45
		C264.8,365.14,391.34,348.49,396.97,351.36z"/>
	<path class="st2" d="M261.89,429.38C261.89,429.38,266.15,424.97,261.89,429.38c-4.98,5.16,125.88,21.05,125.88,21.05l0,0l0,0
		c0,0-87.92-2.66-124.26-9.37L261.89,429.38L261.89,429.38C261.89,429.38,256.26,426.51,261.89,429.38z"/>
	<path class="st19" d="M102.09,351.79c41.99,4.59,83.98,9.18,125.97,13.77l2.69,26.78l-3.26,46.9l-129.81,1.11
		c-12.6-0.21-13.11-0.5-15.15-5.16c-11.17-25.48-5.77-64.65,7.68-81.02C94.01,349.56,98.14,352.1,102.09,351.79z"/>
	<path class="st20" d="M94.06,351.37c3.74,65.76,104.91,77.53,130.42,79.57l3,8.32l0,0l-129.81,1.11
		c-12.6-0.21-13.11-0.5-15.15-5.16c-11.17-25.48-5.77-64.65,7.68-81.02C94.01,349.56,90.12,351.67,94.06,351.37z"/>
	<path class="st15" d="M264.8,365.14c0,0-6.07-1.8-15.35-2.02s-21.39,2.44-21.39,2.44s-2.9,18.14-3.44,31.63
		c-0.54,13.49,0.54,33.48,2.87,42.05c0,0,16.3,4.68,36.03,1.81C263.52,441.06,253.46,398.74,264.8,365.14z"/>
	<path class="st21" d="M228.18,366.81c8.62-6.84,36.62-1.67,36.62-1.67c-8.33,23.25-4.95,42.19-1.29,75.92
		C264.8,452.93,224.41,369.81,228.18,366.81z"/>
</g>
</svg>
