<svg id="Capa_1" xmlns="http://www.w3.org/2000/svg" xmlns:xlink="http://www.w3.org/1999/xlink" viewBox="0 0 500 500" style="enable-background:new 0 0 500 500"><style>.st0{fill:#3c3c3b;stroke:#000;stroke-width:2.5;stroke-miterlimit:10}.st1{fill:#fcbe0c;stroke:#000;stroke-width:.3;stroke-miterlimit:10}.st2{opacity:.1}.st3{fill:#3c3c3b;stroke:#000;stroke-width:3;stroke-miterlimit:10}.st4{fill:#fcc23b}.st5{fill:#454545}.st6{stroke:#000;stroke-width:3;stroke-miterlimit:10}.st7{fill:#4e4d4d}.st8{fill:#4e4d4d;stroke:#000;stroke-miterlimit:10}.st9{fill:#3ab28a}.st10{stroke:#000;stroke-width:3;stroke-linecap:round;stroke-linejoin:round;stroke-miterlimit:10}.st11{fill:#fff}.st12{opacity:.05;fill:#010202}.st13{fill:#fcc23b;stroke:#000;stroke-width:3;stroke-miterlimit:10}.st14{opacity:.1;fill:#fff}.st15{fill:#d43732;stroke:#000;stroke-width:1.2;stroke-miterlimit:10}.st16{fill:#706f6f;stroke:#000;stroke-width:1.2;stroke-miterlimit:10}.st17{fill:#9d9d9c;stroke:#000;stroke-width:1.2;stroke-miterlimit:10}.st18{fill:#b2b2b2;stroke:#000;stroke-width:1.2;stroke-miterlimit:10}.st19{fill:#c6c6c6;stroke:#000;stroke-width:1.2;stroke-miterlimit:10}.st20{opacity:.1;stroke:#000;stroke-width:1.2;stroke-miterlimit:10}.st21{opacity:.1;fill:#f6f6f6}</style><g><path class="st0" d="M385.6 377.92c-.54-.98-1.32-2.5-2.11-4.47-1.45-3.6-2.9-8.59-3.3-14.3-.41-5.73.28-12.06 2.93-18.64 2.69-6.6 7.44-13.26 15.13-20.85 4.01 3.96 6.86 7.81 8.86 11.68 1.96 3.84 3.13 7.76 3.39 11.43.55 6.8-1.45 13.19-4.6 18.48 3.77-3.56 7.39-7.26 10.85-11.12 5.1-5.69 9.83-11.72 14.17-18.01-.85-.74-2.1-1.9-3.53-3.49-2.59-2.87-5.73-7.09-8.05-12.2-1.16-2.56-2.3-5.43-2.99-8.42-.36-1.51-.61-3.04-.78-4.64-.24-1.63-.38-3.3-.38-5 .08-6.84 1.59-14.4 5.65-24.03 5.21 2.03 9.45 4.44 12.88 7.21 3.35 2.74 5.74 5.8 7.49 9.09.87 1.64 1.57 3.34 2.12 5.06.45 1.69.75 3.41.92 5.13.27 2.82.22 5.68-.22 8.38 1.92-4.14 3.69-8.35 5.3-12.62l2.49-7.47c.45-1.23.79-2.5 1.1-3.78l.97-3.82c.82-2.82 1.39-5.69 1.91-8.57-1.07-.34-2.69-.9-4.65-1.8-3.52-1.59-8.08-4.2-12.23-7.92-2.06-1.86-4.3-4.05-6.15-6.51-.94-1.24-1.82-2.55-2.6-3.94-.4-.7-.75-1.41-1.13-2.16-.41-.75-.8-1.53-1.16-2.32-.73-1.6-1.35-3.29-1.84-5.09-.25-.9-.46-1.83-.64-2.79-.24-.97-.5-1.98-.69-3.02-.4-2.08-.66-4.29-.75-6.68.0-1.19-.15-2.44-.23-3.73-.08-1.29-.11-2.63-.11-4.03 5.58-.02 10.42.68 14.61 2.01 2.1.66 4.03 1.48 5.82 2.43 1.73.95 3.26 2.04 4.67 3.23 2.81 2.39 5.06 5.23 6.84 8.28 1.42 2.55 2.33 5.26 3.04 7.98.12-4.08.25-8.17-.09-12.25-.38-8.74-1.42-17.43-2.96-26.04-1.12.07-2.82.12-4.93-.02-3.86-.24-9.06-1.07-14.33-3.22-5.12-2.17-10.94-5.56-15.55-11.14-2.18-2.81-4.72-6.12-6.67-10.2-1.03-2.03-1.84-4.27-2.78-6.7-.99-2.42-1.9-5.06-2.7-7.94 10.77-2.91 19.55-2.15 26.51.9 3.37 1.55 6.3 3.66 8.86 6.08 1.28 1.21 2.46 2.51 3.54 3.85.54.67 1.07 1.35 1.56 2.05.06.1.12.2.18.3-.74-2.43-1.52-4.84-2.33-7.25-1.05-.62-2.47-1.52-4.12-2.69-1.75-1.24-3.66-2.79-5.73-4.62-2.15-1.8-4.36-3.91-6.43-6.34-2.11-2.42-3.95-5.22-5.71-8.32-1.84-3.08-3.37-6.55-4.45-10.49-.54-1.97-.96-4.06-1.25-6.28-.4-2.18-.67-4.48-.78-6.93-.23-4.9.14-10.38 1.24-16.58 5.73 2.2 10.63 4.92 14.77 7.95 2.07 1.52 3.96 3.11 5.66 4.75 1.61 1.7 3.04 3.46 4.32 5.25 2.55 3.57 4.46 7.25 5.86 10.86 1.33 3.65 1.94 7.34 2.31 10.74.34 3.42.32 6.61.09 9.46-.31 2.89-.92 5.47-1.48 7.58-.56 2.05-1.15 3.67-1.6 4.81 4.56 13.52 8.02 27.45 10 41.59.06-1.11.15-2.23.29-3.38.3-3.35.71-6.81 1.7-10.32.93-3.5 2.5-7.09 4.27-10.49 3.73-6.83 9.96-13.46 20.07-18.5 1.36 3.63 2.49 7.11 3.38 10.41.45 1.65.84 3.26 1.19 4.82.28 1.59.47 3.17.63 4.68.32 3.03.44 5.88.41 8.54-.04 2.66-.19 5.12-.71 7.48-1.87 9.37-5.63 15.66-10.33 19.92-4.54 4.22-9.38 6.32-13.08 7.44-2.96.89-5.16 1.14-5.93 1.21.12 4.22-.1 8.45-.16 12.68.03 2.68-.41 5.33-.63 7.99-.31 2.65-.44 5.33-.9 7.96-.9 4.87-1.61 9.77-2.89 14.56.43-.92.88-1.83 1.37-2.76 1.53-3.01 3.14-6.11 5.35-9.06 2.28-2.95 4.58-5.86 7.56-8.51 2.96-2.65 6.53-5.06 10.67-7.04 4.05-1.97 8.8-3.52 14.37-4.35.12 2.04.21 4.02.21 5.95-.09 1.93-.22 3.8-.4 5.61-.37 3.61-.79 6.98-1.52 10.08-.82 3.1-1.75 5.94-2.77 8.54-1.01 2.6-2.09 4.95-3.46 7.03-2.63 4.17-5.37 7.43-8.3 9.87-3.02 2.42-6.04 4.08-8.92 5.2-2.89 1.11-5.6 1.7-8.16 1.92-2.57.22-4.88.12-6.81-.1-3.11-.36-5.24-.99-5.97-1.23-3.39 8.36-7.37 16.48-12.08 24.18-2.92 4.7-6.06 9.26-9.39 13.68.76-.7 1.54-1.4 2.37-2.08 2.67-2.1 5.37-4.3 8.56-6.14 3.23-1.81 6.53-3.53 10.35-4.74 1.9-.61 3.91-1.11 6.02-1.47 2.09-.38 4.22-.66 6.5-.74 4.55-.18 9.56.29 15.02 1.75-2.87 7.8-6.59 14.07-10.32 19.2-3.94 4.98-7.8 8.91-11.83 11.62-1.98 1.39-3.89 2.56-5.79 3.5-1.94.9-3.81 1.59-5.62 2.12-3.62 1.06-6.95 1.44-10.08 1.28-6.19-.26-11.08-2.23-14.47-4.07-2.78-1.53-4.54-2.95-5.09-3.42-5.87 6.09-12.12 11.8-18.73 17.07-8.36 6.65-17.18 12.72-26.63 17.78-.85.45-1.83.23-2.16-.47-.33-.7.03-1.59.85-2.02C373.84 385.91 379.82 382.06 385.6 377.92z"/><path class="st0" d="M114.14 379.98c.54-.98 1.32-2.5 2.1-4.47 1.45-3.6 2.9-8.59 3.3-14.3.41-5.73-.28-12.06-2.93-18.64-2.69-6.6-7.44-13.26-15.13-20.85-4.01 3.96-6.86 7.81-8.86 11.68-1.96 3.84-3.13 7.76-3.39 11.43-.55 6.8 1.45 13.19 4.6 18.48-3.77-3.56-7.39-7.26-10.85-11.12-5.1-5.69-9.83-11.72-14.17-18.01.85-.74 2.1-1.9 3.53-3.49 2.59-2.87 5.73-7.09 8.05-12.2 1.16-2.56 2.3-5.43 2.99-8.42.36-1.51.61-3.04.78-4.64.24-1.63.38-3.29.38-5-.08-6.84-1.59-14.4-5.65-24.03-5.21 2.03-9.45 4.44-12.88 7.21-3.35 2.74-5.74 5.8-7.49 9.09-.87 1.64-1.57 3.34-2.12 5.06-.45 1.69-.75 3.41-.92 5.13-.27 2.82-.22 5.68.22 8.38-1.92-4.14-3.69-8.35-5.3-12.62l-2.49-7.47c-.45-1.23-.79-2.5-1.1-3.78l-.97-3.82c-.82-2.82-1.39-5.69-1.91-8.57 1.07-.34 2.69-.9 4.65-1.8 3.52-1.59 8.08-4.2 12.23-7.92 2.06-1.86 4.3-4.05 6.15-6.51.94-1.24 1.82-2.55 2.6-3.94.4-.7.75-1.41 1.13-2.16.41-.75.8-1.53 1.16-2.32.73-1.6 1.35-3.29 1.84-5.09.25-.9.46-1.83.64-2.79.24-.97.5-1.98.69-3.02.4-2.08.66-4.29.75-6.68.0-1.19.15-2.44.23-3.73s.11-2.63.11-4.03c-5.58-.02-10.42.68-14.61 2.01-2.1.66-4.03 1.48-5.82 2.43-1.73.95-3.26 2.04-4.67 3.23-2.81 2.39-5.06 5.23-6.84 8.28-1.42 2.55-2.33 5.26-3.04 7.98-.12-4.08-.25-8.17.09-12.25.38-8.74 1.42-17.43 2.96-26.04 1.12.07 2.82.12 4.93-.02 3.86-.24 9.06-1.07 14.33-3.22 5.12-2.17 10.94-5.56 15.55-11.14 2.18-2.81 4.72-6.12 6.67-10.2 1.03-2.03 1.84-4.27 2.78-6.7.99-2.42 1.9-5.06 2.7-7.94-10.77-2.91-19.55-2.15-26.51.9-3.37 1.55-6.3 3.66-8.86 6.08-1.28 1.21-2.46 2.51-3.54 3.85-.54.67-1.07 1.35-1.56 2.05-.06.1-.12.2-.18.3.74-2.43 1.52-4.84 2.33-7.25 1.05-.62 2.47-1.52 4.12-2.69 1.75-1.24 3.66-2.79 5.73-4.62 2.15-1.8 4.36-3.91 6.43-6.34 2.11-2.42 3.95-5.22 5.71-8.32 1.84-3.08 3.37-6.55 4.45-10.49.54-1.97.96-4.06 1.25-6.28.4-2.18.67-4.48.78-6.93.23-4.9-.14-10.38-1.24-16.58-5.73 2.2-10.63 4.92-14.77 7.95-2.07 1.52-3.96 3.11-5.66 4.75-1.61 1.7-3.04 3.46-4.32 5.25-2.55 3.57-4.46 7.25-5.86 10.86-1.33 3.65-1.94 7.34-2.31 10.74-.34 3.42-.32 6.61-.09 9.46.31 2.89.92 5.47 1.48 7.58.56 2.05 1.15 3.67 1.6 4.81-4.56 13.52-8.02 27.45-10 41.59-.06-1.11-.15-2.23-.29-3.38-.3-3.35-.71-6.81-1.7-10.32-.93-3.5-2.5-7.09-4.27-10.49-3.73-6.83-9.96-13.46-20.07-18.5-1.36 3.63-2.49 7.11-3.38 10.41-.45 1.65-.84 3.26-1.19 4.82-.28 1.59-.47 3.17-.63 4.68-.32 3.03-.44 5.88-.41 8.54.04 2.66.19 5.11.71 7.48 1.87 9.37 5.63 15.66 10.33 19.92 4.54 4.22 9.38 6.32 13.08 7.44 2.96.89 5.16 1.14 5.93 1.21-.12 4.22.1 8.45.16 12.68-.03 2.68.41 5.33.63 7.99.31 2.65.44 5.33.9 7.96.9 4.87 1.61 9.77 2.89 14.56-.43-.92-.88-1.83-1.37-2.76-1.53-3.01-3.14-6.11-5.35-9.06-2.28-2.95-4.58-5.86-7.56-8.51-2.96-2.65-6.53-5.06-10.67-7.04-4.05-1.97-8.8-3.52-14.37-4.35-.12 2.04-.21 4.02-.21 5.95.09 1.93.22 3.8.4 5.61.37 3.61.79 6.98 1.52 10.08.82 3.1 1.75 5.94 2.77 8.54 1.01 2.6 2.09 4.95 3.46 7.03 2.63 4.17 5.37 7.43 8.3 9.87 3.02 2.42 6.04 4.08 8.92 5.2 2.89 1.11 5.6 1.7 8.16 1.92 2.57.22 4.88.12 6.81-.1 3.11-.36 5.24-.99 5.97-1.23 3.39 8.36 7.37 16.48 12.08 24.18 2.92 4.7 6.06 9.26 9.39 13.68-.76-.7-1.54-1.4-2.37-2.08-2.67-2.1-5.37-4.3-8.56-6.14-3.23-1.81-6.53-3.53-10.35-4.74-1.9-.61-3.91-1.11-6.02-1.47-2.09-.38-4.22-.65-6.5-.74-4.55-.18-9.56.29-15.02 1.75 2.87 7.8 6.59 14.07 10.32 19.2 3.94 4.98 7.8 8.91 11.83 11.62 1.98 1.39 3.89 2.56 5.79 3.5 1.94.9 3.81 1.59 5.62 2.12 3.62 1.06 6.95 1.44 10.08 1.28 6.19-.26 11.08-2.23 14.47-4.07 2.78-1.53 4.54-2.95 5.09-3.42 5.87 6.09 12.12 11.8 18.73 17.07 8.36 6.65 17.18 12.72 26.63 17.78.85.45 1.83.23 2.16-.47.33-.7-.03-1.59-.85-2.02C125.9 387.97 119.92 384.13 114.14 379.98z"/></g><path class="st1" d="M44.22 210.68"/><g><path class="st1" d="M114.14 379.98c.54-.98 1.32-2.5 2.1-4.47 1.45-3.6 2.9-8.59 3.3-14.3.41-5.73-.28-12.06-2.93-18.64-2.69-6.6-7.44-13.26-15.13-20.85-4.01 3.96-6.86 7.81-8.86 11.68-1.96 3.84-3.13 7.76-3.39 11.43-.55 6.8 1.45 13.19 4.6 18.48-3.77-3.56-7.39-7.26-10.85-11.12-5.1-5.69-9.83-11.72-14.17-18.01.85-.74 2.1-1.9 3.53-3.49 2.59-2.87 5.73-7.09 8.05-12.2 1.16-2.56 2.3-5.43 2.99-8.42.36-1.51.61-3.04.78-4.64.24-1.63.38-3.29.38-5-.08-6.84-1.59-14.4-5.65-24.03-5.21 2.03-9.45 4.44-12.88 7.21-3.35 2.74-5.74 5.8-7.49 9.09-.87 1.64-1.57 3.34-2.12 5.06-.45 1.69-.75 3.41-.92 5.13-.27 2.82-.22 5.68.22 8.38-1.92-4.14-3.69-8.35-5.3-12.62l-2.49-7.47c-.45-1.23-.79-2.5-1.1-3.78l-.97-3.82c-.82-2.82-1.39-5.69-1.91-8.57 1.07-.34 2.69-.9 4.65-1.8 3.52-1.59 8.08-4.2 12.23-7.92 2.06-1.86 4.3-4.05 6.15-6.51.94-1.24 1.82-2.55 2.6-3.94.4-.7.75-1.41 1.13-2.16.41-.75.8-1.53 1.16-2.32.73-1.6 1.35-3.29 1.84-5.09.25-.9.46-1.83.64-2.79.24-.97.5-1.98.69-3.02.4-2.08.66-4.29.75-6.68.0-1.19.15-2.44.23-3.73s.11-2.63.11-4.03c-5.58-.02-10.42.68-14.61 2.01-2.1.66-4.03 1.48-5.82 2.43-1.73.95-3.26 2.04-4.67 3.23-2.81 2.39-5.06 5.23-6.84 8.28-1.42 2.55-2.33 5.26-3.04 7.98-.12-4.08-.25-8.17.09-12.25.38-8.74 1.42-17.43 2.96-26.04 1.12.07 2.82.12 4.93-.02 3.86-.24 9.06-1.07 14.33-3.22 5.12-2.17 10.94-5.56 15.55-11.14 2.18-2.81 4.72-6.12 6.67-10.2 1.03-2.03 1.84-4.27 2.78-6.7.99-2.42 1.9-5.06 2.7-7.94-10.77-2.91-19.55-2.15-26.51.9-3.37 1.55-6.3 3.66-8.86 6.08-1.28 1.21-2.46 2.51-3.54 3.85-.54.67-1.07 1.35-1.56 2.05-.06.1-.12.2-.18.3.74-2.43 1.52-4.84 2.33-7.25 1.05-.62 2.47-1.52 4.12-2.69 1.75-1.24 3.66-2.79 5.73-4.62 2.15-1.8 4.36-3.91 6.43-6.34 2.11-2.42 3.95-5.22 5.71-8.32 1.84-3.08 3.37-6.55 4.45-10.49.54-1.97.96-4.06 1.25-6.28.4-2.18.67-4.48.78-6.93.23-4.9-.14-10.38-1.24-16.58-5.73 2.2-10.63 4.92-14.77 7.95-2.07 1.52-3.96 3.11-5.66 4.75-1.61 1.7-3.04 3.46-4.32 5.25-2.55 3.57-4.46 7.25-5.86 10.86-1.33 3.65-1.94 7.34-2.31 10.74-.34 3.42-.32 6.61-.09 9.46.31 2.89.92 5.47 1.48 7.58.56 2.05 1.15 3.67 1.6 4.81-4.56 13.52-8.02 27.45-10 41.59-.06-1.11-.15-2.23-.29-3.38-.3-3.35-.71-6.81-1.7-10.32-.93-3.5-2.5-7.09-4.27-10.49-3.73-6.83-9.96-13.46-20.07-18.5-1.36 3.63-2.49 7.11-3.38 10.41-.45 1.65-.84 3.26-1.19 4.82-.28 1.59-.47 3.17-.63 4.68-.32 3.03-.44 5.88-.41 8.54.04 2.66.19 5.11.71 7.48 1.87 9.37 5.63 15.66 10.33 19.92 4.54 4.22 9.38 6.32 13.08 7.44 2.96.89 5.16 1.14 5.93 1.21-.12 4.22.1 8.45.16 12.68-.03 2.68.41 5.33.63 7.99.31 2.65.44 5.33.9 7.96.9 4.87 1.61 9.77 2.89 14.56-.43-.92-.88-1.83-1.37-2.76-1.53-3.01-3.14-6.11-5.35-9.06-2.28-2.95-4.58-5.86-7.56-8.51-2.96-2.65-6.53-5.06-10.67-7.04-4.05-1.97-8.8-3.52-14.37-4.35-.12 2.04-.21 4.02-.21 5.95.09 1.93.22 3.8.4 5.61.37 3.61.79 6.98 1.52 10.08.82 3.1 1.75 5.94 2.77 8.54 1.01 2.6 2.09 4.95 3.46 7.03 2.63 4.17 5.37 7.43 8.3 9.87 3.02 2.42 6.04 4.08 8.92 5.2 2.89 1.11 5.6 1.7 8.16 1.92 2.57.22 4.88.12 6.81-.1 3.11-.36 5.24-.99 5.97-1.23 3.39 8.36 7.37 16.48 12.08 24.18 2.92 4.7 6.06 9.26 9.39 13.68-.76-.7-1.54-1.4-2.37-2.08-2.67-2.1-5.37-4.3-8.56-6.14-3.23-1.81-6.53-3.53-10.35-4.74-1.9-.61-3.91-1.11-6.02-1.47-2.09-.38-4.22-.65-6.5-.74-4.55-.18-9.56.29-15.02 1.75 2.87 7.8 6.59 14.07 10.32 19.2 3.94 4.98 7.8 8.91 11.83 11.62 1.98 1.39 3.89 2.56 5.79 3.5 1.94.9 3.81 1.59 5.62 2.12 3.62 1.06 6.95 1.44 10.08 1.28 6.19-.26 11.08-2.23 14.47-4.07 2.78-1.53 4.54-2.95 5.09-3.42 5.87 6.09 12.12 11.8 18.73 17.07 8.36 6.65 17.18 12.72 26.63 17.78.85.45 1.83.23 2.16-.47.33-.7-.03-1.59-.85-2.02C125.9 387.97 119.92 384.13 114.14 379.98z"/><path class="st2" d="M101.48 321.72C96.45 357.13 119.2 353 119.2 353c2.3 6.78-21.95 21.59-28.99 1.18C84.57 337.85 101.48 321.72 101.48 321.72z"/><path class="st2" d="M38.28 239.94c-23.66-7.67-24.43-64.49-24.43-64.49s10.11 5.05.0.0c-1.36 3.63-2.49 7.11-3.38 10.41-.45 1.65-.84 3.26-1.19 4.82-.28 1.59-.47 3.17-.63 4.68-.32 3.03-.44 5.88-.41 8.54.04 2.66.19 5.11.71 7.48 1.87 9.37 5.63 15.66 10.33 19.92 4.54 4.22 9.38 6.32 13.08 7.44C35.31 239.62 37.51 239.87 38.28 239.94"/><path class="st2" d="M49.62 304.28s-22.37 7.4-36.24-13.11c-11.66-15.83-9.86-39.75-9.86-39.75C23.68 299.68 49.62 304.28 49.62 304.28z"/><path class="st2" d="M85.45 358.94s-8.95 8.23-22.37 7.49c-30.55-3.52-40.51-37.73-40.51-37.73 26.39 27.83 62.88 30.24 62.88 30.24S81.69 425.19 85.45 358.94z"/><path class="st2" d="M91.19 171.46c-11.85.05-40.57 13.97-46.97 39.23l6.32-26.05c12.9-22.98 40.65-13.18 40.65-13.18z"/><path class="st2" d="M43.97 275.03s-3.03-11.86-2.86-25.03c.1-7.44 11.23-26.47 35.05-24.95C76.15 225.05 47.43 228.77 43.97 275.03z"/><path class="st2" d="M56.11 312.02c1.49 7.2 12.72 22.16 12.72 22.16 2.31.56-7.1-30.25 10.09-57.78C78.91 276.4 50.66 285.64 56.11 312.02z"/></g><g><path class="st1" d="M385.6 377.92c-.54-.98-1.32-2.5-2.11-4.47-1.45-3.6-2.9-8.59-3.3-14.3-.41-5.73.28-12.06 2.93-18.64 2.69-6.6 7.44-13.26 15.13-20.85 4.01 3.96 6.86 7.81 8.86 11.68 1.96 3.84 3.13 7.76 3.39 11.43.55 6.8-1.45 13.19-4.6 18.48 3.77-3.56 7.39-7.26 10.85-11.12 5.1-5.69 9.83-11.72 14.17-18.01-.85-.74-2.1-1.9-3.53-3.49-2.59-2.87-5.73-7.09-8.05-12.2-1.16-2.56-2.3-5.43-2.99-8.42-.36-1.51-.61-3.04-.78-4.64-.24-1.63-.38-3.29-.38-5 .08-6.84 1.59-14.4 5.65-24.03 5.21 2.03 9.45 4.44 12.88 7.21 3.35 2.74 5.74 5.8 7.49 9.09.87 1.64 1.57 3.34 2.12 5.06.45 1.69.75 3.41.92 5.13.27 2.82.22 5.68-.22 8.38 1.92-4.14 3.69-8.35 5.3-12.62l2.49-7.47c.45-1.23.79-2.5 1.1-3.78l.97-3.82c.82-2.82 1.39-5.69 1.91-8.57-1.07-.34-2.69-.9-4.65-1.8-3.52-1.59-8.08-4.2-12.23-7.92-2.06-1.86-4.3-4.05-6.15-6.51-.94-1.24-1.82-2.55-2.6-3.94-.4-.7-.75-1.41-1.13-2.16-.41-.75-.8-1.53-1.16-2.32-.73-1.6-1.35-3.29-1.84-5.09-.25-.9-.46-1.83-.64-2.79-.24-.97-.5-1.98-.69-3.02-.4-2.08-.66-4.29-.75-6.68.0-1.19-.15-2.44-.23-3.73-.08-1.29-.11-2.63-.11-4.03 5.58-.02 10.42.68 14.61 2.01 2.1.66 4.03 1.48 5.82 2.43 1.73.95 3.26 2.04 4.67 3.23 2.81 2.39 5.06 5.23 6.84 8.28 1.42 2.55 2.33 5.26 3.04 7.98.12-4.08.25-8.17-.09-12.25-.38-8.74-1.42-17.43-2.96-26.04-1.12.07-2.82.12-4.93-.02-3.86-.24-9.06-1.07-14.33-3.22-5.12-2.17-10.94-5.56-15.55-11.14-2.18-2.81-4.72-6.12-6.67-10.2-1.03-2.03-1.84-4.27-2.78-6.7-.99-2.42-1.9-5.06-2.7-7.94 10.77-2.91 19.55-2.15 26.51.9 3.37 1.55 6.3 3.66 8.86 6.08 1.28 1.21 2.46 2.51 3.54 3.85.54.67 1.07 1.35 1.56 2.05.06.1.12.2.18.3-.74-2.43-1.52-4.84-2.33-7.25-1.05-.62-2.47-1.52-4.12-2.69-1.75-1.24-3.66-2.79-5.73-4.62-2.15-1.8-4.36-3.91-6.43-6.34-2.11-2.42-3.95-5.22-5.71-8.32-1.84-3.08-3.37-6.55-4.45-10.49-.54-1.97-.96-4.06-1.25-6.28-.4-2.18-.67-4.48-.78-6.93-.23-4.9.14-10.38 1.24-16.58 5.73 2.2 10.63 4.92 14.77 7.95 2.07 1.52 3.96 3.11 5.66 4.75 1.61 1.7 3.04 3.46 4.32 5.25 2.55 3.57 4.46 7.25 5.86 10.86 1.33 3.65 1.94 7.34 2.31 10.74.34 3.42.32 6.61.09 9.46-.31 2.89-.92 5.47-1.48 7.58-.56 2.05-1.15 3.67-1.6 4.81 4.56 13.52 8.02 27.45 10 41.59.06-1.11.15-2.23.29-3.38.3-3.35.71-6.81 1.7-10.32.93-3.5 2.5-7.09 4.27-10.49 3.73-6.83 9.96-13.46 20.07-18.5 1.36 3.63 2.49 7.11 3.38 10.41.45 1.65.84 3.26 1.19 4.82.28 1.59.47 3.17.63 4.68.32 3.03.44 5.88.41 8.54-.04 2.66-.19 5.11-.71 7.48-1.87 9.37-5.63 15.66-10.33 19.92-4.54 4.22-9.38 6.32-13.08 7.44-2.96.89-5.16 1.14-5.93 1.21.12 4.22-.1 8.45-.16 12.68.03 2.68-.41 5.33-.63 7.99-.31 2.65-.44 5.33-.9 7.96-.9 4.87-1.61 9.77-2.89 14.56.43-.92.88-1.83 1.37-2.76 1.53-3.01 3.14-6.11 5.35-9.06 2.28-2.95 4.58-5.86 7.56-8.51 2.96-2.65 6.53-5.06 10.67-7.04 4.05-1.97 8.8-3.52 14.37-4.35.12 2.04.21 4.02.21 5.95-.09 1.93-.22 3.8-.4 5.61-.37 3.61-.79 6.98-1.52 10.08-.82 3.1-1.75 5.94-2.77 8.54-1.01 2.6-2.09 4.95-3.46 7.03-2.63 4.17-5.37 7.43-8.3 9.87-3.02 2.42-6.04 4.08-8.92 5.2-2.89 1.11-5.6 1.7-8.16 1.92-2.57.22-4.88.12-6.81-.1-3.11-.36-5.24-.99-5.97-1.23-3.39 8.36-7.37 16.48-12.08 24.18-2.92 4.7-6.06 9.26-9.39 13.68.76-.7 1.54-1.4 2.37-2.08 2.67-2.1 5.37-4.3 8.56-6.14 3.23-1.81 6.53-3.53 10.35-4.74 1.9-.61 3.91-1.11 6.02-1.47 2.09-.38 4.22-.65 6.5-.74 4.55-.18 9.56.29 15.02 1.75-2.87 7.8-6.59 14.07-10.32 19.2-3.94 4.98-7.8 8.91-11.83 11.62-1.98 1.39-3.89 2.56-5.79 3.5-1.94.9-3.81 1.59-5.62 2.12-3.62 1.06-6.95 1.44-10.08 1.28-6.19-.26-11.08-2.23-14.47-4.07-2.78-1.53-4.54-2.95-5.09-3.42-5.87 6.09-12.12 11.8-18.73 17.07-8.36 6.65-17.18 12.72-26.63 17.78-.85.45-1.83.23-2.16-.47-.33-.7.03-1.59.85-2.02C373.84 385.91 379.82 382.06 385.6 377.92z"/><path class="st2" d="M398.26 319.65c-17.86 17.05-17.71 31.28-17.71 31.28 24.16 32.49 28.99 1.18 28.99 1.18C379.6 356.96 398.26 319.65 398.26 319.65z"/><path class="st2" d="M485.89 173.39c-14.89 11.91-22.43 51.1-24.43 64.49l-1.82-21.05C460.28 182.62 485.89 173.39 485.89 173.39z"/><path class="st2" d="M450.12 302.22l6.77-21.15c12.33-29.39 39.33-31.71 39.33-31.71-25.05 11.38-46.1 52.86-46.1 52.86z"/><path class="st2" d="M428.43 363.45s-5.36.0-14.14-6.57c19.88-28.92 41.2-31.16 41.2-31.16-28.09 27.96-27.06 37.73-27.06 37.73s0 0 0 0z"/><path class="st2" d="M409.33 170.04s22.2 29.55 46.18 38.58c0 0-15.32.12-23.98-5.54C422.87 197.43 409.33 170.04 409.33 170.04z"/><path class="st2" d="M455.78 272.96s-22.05-7.62-28.4-25.73c-2.46-7.02-5.16-17.64 7.1-23C434.47 224.23 427.72 236.23 455.78 272.96z"/><path class="st2" d="M430.92 332.12c-11.32-10.31-22.89-28.87-10.09-57.78C422.33 270.95 419.94 315.68 430.92 332.12z"/></g><g><path class="st3" d="M417.04 180.24h.26v-13.72c0-.5-.06-.98-.15-1.45-.03-.14-.06-.28-.1-.42-.08-.34-.18-.67-.31-.99-.05-.13-.1-.26-.16-.39-.18-.4-.38-.78-.62-1.14-.02-.02-.03-.05-.04-.07-.26-.38-.56-.73-.87-1.06-.09-.1-.19-.18-.29-.28-.25-.23-.51-.45-.78-.64-.12-.08-.23-.17-.35-.24-.35-.22-.71-.42-1.09-.59-.05-.02-.09-.05-.13-.07-.01.0-.02-.01-.03-.01h0V132.2l22.87-12.94-22.96-13.16c-.07-.69-.21-1.42-.45-2.38-.27-1.3-.53-1.94-.53-1.94-.02-.07-.05-.14-.07-.21-.05-.16-.11-.31-.16-.46-.22-.67-.47-1.31-.75-1.94-.03-.06-.05-.12-.08-.17-.3-.66-.62-1.28-.96-1.88-.08-.14-.16-.28-.24-.42-.34-.56-.69-1.1-1.05-1.6-.09-.12-.17-.25-.26-.37-.46-.62-.92-1.18-1.38-1.7-.1-.11-.2-.22-.3-.33-.86-.93-1.67-1.7-2.33-2.22l-.01.02c-4.26-3.52-9.59-5.46-15.13-5.46h-13.05l-127.4-73-177 107.77 67.73 38.17c-5.43 9.66-10.38 20.47-14.61 32.6-13.06 21.88-20.58 47.44-20.58 74.77.0 80.69 65.41 146.09 146.09 146.09s146.09-65.41 146.09-146.09c0-6.28-.44-12.45-1.21-18.52 4.32.9 9.41 1.35 14.52 1.35s0 0 0 0c1.96.0 3.91-.07 5.83-.21.9-.06 1.8-.14 2.68-.23 1.6-.17 3.14-.38 4.61-.65.53-.1 1.06-.2 1.57-.31.89-.19 1.74-.4 2.56-.62 2.32-.65 4.31-1.45 5.81-2.41.47-.3.88-.61 1.24-.94.31-.27.57-.56.8-.85.38-.48.68-.99.84-1.53.1-.34.15-.7.15-1.07C435.25 211.64 427.6 188.18 417.04 180.24zM388.58 91.13c4.35.0 8.54 1.59 11.78 4.49 1.94 1.73 3.44 3.86 4.46 6.19l-18.65-10.69H388.58zM385.76 211.97c-2.93-7.45-6.43-14.61-10.48-21.4-3.67-11.09-8.02-21.09-12.86-30.12l43.97-24.87v23.55c-2.94 1.17-5.02 4.03-5.02 7.38v13.66C394.52 185.26 388.89 196.89 385.76 211.97z"/><g><g><path class="st4" d="M409.33 111.88c1.68.0 3.05-1.37 3.05-3.05.0-6.78-2.9-13.25-7.96-17.76-4.37-3.9-9.99-6.04-15.85-6.04h-39.89c-1.68.0-3.05 1.37-3.05 3.05.0 1.68 1.37 3.05 3.05 3.05h39.89c4.35.0 8.54 1.59 11.78 4.49 3.76 3.36 5.92 8.17 5.92 13.21C406.28 110.52 407.65 111.88 409.33 111.88z"/></g><polygon class="st5" points="248.13,12.04 435.25,119.25 253.04,222.33 71.13,119.8"/><polygon class="st6" points="248.13,12.04 435.25,119.25 253.04,222.33 71.13,119.8"/><polygon class="st7" points="248.13,12.04 435.25,119.25 253.04,222.33 71.13,119.8"/><polyline class="st5" points="253.04,222.33 71.13,119.8 248.13,12.04"/><path class="st8" d="M435.25 119.25"/><path class="st5" d="M248.13 12.47l65.86 37.75c-115.9-3.29-59.12 135.83-59.66 134.61l-100.87-81.56 94.67-90.8z"/><g><circle class="st9" cx="249.76" cy="265.34" r="146.09"/><path id="symbol_00000011742559761217356130000017566101654983623862_" class="st10" d="M295.33 216.28c-7.34-16.65-24.21-20.21-44.87-16.76l-6.64-25.73-15.65 4.04 6.53 25.66c-4.12 1.04-8.34 1.93-12.53 3.11l-6.53-25.51L2e2 185.14l6.64 25.73c-3.37.96-31.59 8.19-31.59 8.19l4.3 16.76s11.49-3.23 11.38-2.97c6.38-1.67 9.38 1.52 10.79 4.52l18.24 70.53c.22 2.04-.15 5.52-4.52 6.71.26.15-11.38 2.93-11.38 2.93l1.71 19.54s27.96-7.16 31.63-8.08l6.71 26.03 15.65-4.04-6.71-26.22c4.3-1 8.49-2.04 12.57-3.11l6.67 26.07 15.65-4.04-6.71-25.99c24.1-5.86 41.12-21.06 37.64-44.31-2.22-14.02-17.54-25.51-30.26-26.81C296.22 239.64 300.19 229.52 295.33 216.28zM287.81 277.65c3.11 23.03-28.89 25.84-39.45 28.63l-9.2-34.45C249.76 269.05 282.54 257.37 287.81 277.65zm-19.28-46.91c3.3 20.47-24.06 22.84-32.89 25.1l-8.38-31.26C236.12 222.4 261.81 211.8 268.53 230.74z"/><path id="symbol_00000093170818560266661120000012193105817062177215_" class="st11" d="M295.33 216.28c-7.34-16.65-24.21-20.21-44.87-16.76l-6.64-25.73-15.65 4.04 6.53 25.66c-4.12 1.04-8.34 1.93-12.53 3.11l-6.53-25.51L2e2 185.14l6.64 25.73c-3.37.96-31.59 8.19-31.59 8.19l4.3 16.76s11.49-3.23 11.38-2.97c6.38-1.67 9.38 1.52 10.79 4.52l18.24 70.53c.22 2.04-.15 5.52-4.52 6.71.26.15-11.38 2.93-11.38 2.93l1.71 19.54s27.96-7.16 31.63-8.08l6.71 26.03 15.65-4.04-6.71-26.22c4.3-1 8.49-2.04 12.57-3.11l6.67 26.07 15.65-4.04-6.71-25.99c24.1-5.86 41.12-21.06 37.64-44.31-2.22-14.02-17.54-25.51-30.26-26.81C296.22 239.64 300.19 229.52 295.33 216.28zM287.81 277.65c3.11 23.03-28.89 25.84-39.45 28.63l-9.2-34.45C249.76 269.05 282.54 257.37 287.81 277.65zm-19.28-46.91c3.3 20.47-24.06 22.84-32.89 25.1l-8.38-31.26C236.12 222.4 261.81 211.8 268.53 230.74z"/><path class="st12" d="M249.76 119.25l-1.32 71.33s-2.33 101.17 23.66 131.57c65.36 76.45 112.5 7.5 93.56 32.14-26.71 34.75-68.69 57.15-115.91 57.15-80.69.0-146.09-65.41-146.09-146.09s65.42-146.1 146.1-146.1z"/></g><g><path class="st6" d="M375.28 190.57H124.25C160.58 86.32 249.76 78.31 249.76 78.31s91.66 9.91 125.52 112.26z"/><path class="st6" d="M249.76 78.31s-89.18 8-125.51 112.26h125.51"/></g><g><path class="st7" d="M375.28 190.57H124.25C160.58 86.32 249.76 78.31 249.76 78.31s91.66 9.91 125.52 112.26z"/><path class="st5" d="M249.76 78.31s-89.18 8-125.51 112.26h125.51"/></g><g><g><path class="st6" d="M400.53 95.77s5.68 3.53 5.86 13.21v53.99c0 1.68 1.34 3.04 3 3.04 1.65.0 3-1.36 3-3.04v-53.99c-.11-4.91-1.07-7.21-1.07-7.21"/></g><g><path class="st4" d="M400.53 95.77c.92.72 1.93 1.7 2.86 2.98 2.91 4 3.05 8.36 3 10.24v53.99c0 1.68 1.34 3.04 3 3.04s3-1.36 3-3.04v-53.99c0-2.83.0-3.48-1.07-7.21-1.63-5.54-5.43-9.6-7.58-11.31"/></g></g><g><path class="st13" d="M401.37 180.24h15.92v-13.72c0-4.4-3.56-7.96-7.96-7.96-4.4.0-7.96 3.56-7.96 7.96v13.72z"/><path class="st4" d="M401.37 180.24h15.92v-13.72c0-4.4-3.56-7.96-7.96-7.96-4.4.0-7.96 3.56-7.96 7.96v13.72z"/><path class="st14" d="M409.33 180.24h7.96v-13.72c0-4.4-3.36-6.88-4.91-7.36s-3.05-1.31-3 6.85L409.33 180.24z"/></g><path class="st6" d="M435.25 239.36c0-34.24-11.68-62-26.09-62s-26.09 27.76-26.09 62C383.08 251.11 435.26 251.11 435.25 239.36z"/><path class="st4" d="M435.25 239.36c0-34.24-11.68-62-26.09-62s-26.09 27.76-26.09 62C383.08 251.11 435.26 251.11 435.25 239.36z"/><path class="st14" d="M435.1 240.43c.79-29.6-9.84-63.81-25.77-63.07-2.01.09-23.45 59.78 8.34 70.37C434.23 246.19 435.1 240.43 435.1 240.43z"/></g></g><g><path class="st15" d="M241.51 438.14s35.54 36.8 58.31 45.06l-5.04-21.1 18.9-2.32s-43.22-26.38-53.96-37.12l-18.21 15.48z"/><path class="st15" d="M233.95 422.23s-30.89 23.66-45.58 48.56l18.44.31 4.71 18.46 37.4-50.44-14.97-16.89z"/><path class="st16" d="M396.97 351.36s.05-.01.15-.01c1.05-.02 7.47.42 13.62 13.64 6.72 14.44 6.39 30.1 5.86 39.09s2.99 34.15 6.64 41.85l-34.92-2.76s-13.05-23.79-14.52-33.42c-1.47-9.62.47-45.6.85-47.74s4.01-7.35 7.05-8.65C384.74 352.06 395.14 350.93 396.97 351.36z"/><path class="st17" d="M394.83 451.53s22.72.17 23.89-21.76c1.11-20.72 1.05-49.3-17.98-51.31l-29.19 3.24s-8.96 27.59-5.85 38.62c3.11 11.03 5.02 15.78 7.61 19.75C375.91 444.05 380.13 450.41 394.83 451.53z"/><path class="st16" d="M400.13 430.9s5.88.72 7.02-5.27c1.13-5.99.53-19.07-2.33-26.04l-20.34.41s-.23 16.73-.29 19.37 3.71 8.31 3.71 8.31S395.85 431.1 400.13 430.9z"/><path class="st18" d="M400.74 378.46s-5.24.27-7.93 6.77c-2.65 6.4-8.93 45.08 7.31 45.68.0.0-13.3-.01-25.33-1.17l1.08-50.48C375.88 379.25 399.02 377.05 400.74 378.46z"/><path class="st19" d="M396.97 351.36s-6.35-.54-11.44 2.87-4.86 23.77-4.73 33.56-2.73 33.61-2.57 41.83c.16 8.22.57 20.37 16.6 21.92.0.0-94.98-3.76-131.32-10.47.0.0-8.4-18.8-8.63-38.47-.17-14.22 6.46-32.15 9.92-37.45C264.8 365.14 391.34 348.49 396.97 351.36z"/><path class="st2" d="M261.89 429.38S266.15 424.97 261.89 429.38c-4.98 5.16 125.88 21.05 125.88 21.05s-87.92-2.66-124.26-9.37l-1.62-11.68s-5.63-2.87.0.0z"/><path class="st19" d="M102.09 351.79c41.99 4.59 83.98 9.18 125.97 13.77l2.69 26.78-3.26 46.9-129.81 1.11c-12.6-.21-13.11-.5-15.15-5.16-11.17-25.48-5.77-64.65 7.68-81.02C94.01 349.56 98.14 352.1 102.09 351.79z"/><path class="st20" d="M94.06 351.37c3.74 65.76 104.91 77.53 130.42 79.57l3 8.32-129.81 1.11c-12.6-.21-13.11-.5-15.15-5.16-11.17-25.48-5.77-64.65 7.68-81.02C94.01 349.56 90.12 351.67 94.06 351.37z"/><path class="st15" d="M264.8 365.14s-6.07-1.8-15.35-2.02-21.39 2.44-21.39 2.44-2.9 18.14-3.44 31.63.54 33.48 2.87 42.05c0 0 16.3 4.68 36.03 1.81C263.52 441.06 253.46 398.74 264.8 365.14z"/><path class="st21" d="M228.18 366.81c8.62-6.84 36.62-1.67 36.62-1.67-8.33 23.25-4.95 42.19-1.29 75.92C264.8 452.93 224.41 369.81 228.18 366.81z"/></g></svg>