<svg xmlns="http://www.w3.org/2000/svg" xmlns:xlink="http://www.w3.org/1999/xlink" viewBox="0 0 2225.88 1021.18" style="enable-background:new 0 0 2225.88 1021.18"><style>.st0{fill:url(#SVGID_1_)}.st1{clip-path:url(#SVGID_00000015327962562267074460000001471452563427476920_);fill:url(#SVGID_00000050650755612519742000000017421425785873430158_)}.st2{fill:#16cc6e}.st3{fill:#28f789}.st4{fill:#2e8551}.st5{fill:#232933}</style><g id="Capa_2"><g><linearGradient id="SVGID_1_" gradientUnits="userSpaceOnUse" x1="1254.8616" y1="300.5779" x2="1254.8616" y2="839.3729"><stop offset="0" style="stop-color:#575756"/><stop offset=".1714" style="stop-color:#4F625C;stop-opacity:.9486"/><stop offset=".4738" style="stop-color:#39806C;stop-opacity:.8579"/><stop offset=".8691" style="stop-color:#17B085;stop-opacity:.7393"/><stop offset="1" style="stop-color:#0AC18E;stop-opacity:.7"/></linearGradient><rect x="404.47" y="286.79" class="st0" width="1700.79" height="566.93"/><g><defs><rect id="SVGID_00000022555900807244084060000002245298000991455668_" x="404.47" y="286.79" width="1700.79" height="566.93"/></defs><clipPath id="SVGID_00000137129181920524920430000000558654798029425822_"><use xlink:href="#SVGID_00000022555900807244084060000002245298000991455668_" style="overflow:visible"/></clipPath><linearGradient id="SVGID_00000134953184919748579530000011808241742567679900_" gradientUnits="userSpaceOnUse" x1="403.4679" y1="542.8489" x2="2110.167" y2="542.8489"><stop offset="0" style="stop-color:#FFFFFF"/><stop offset=".005028069" style="stop-color:#1D1D1B;stop-opacity:.3"/><stop offset="1" style="stop-color:#F6F6F6;stop-opacity:.3"/></linearGradient><path style="clip-path:url(#SVGID_00000137129181920524920430000000558654798029425822_);fill:url(#SVGID_00000134953184919748579530000011808241742567679900_)" d="M1013.39 781.1v-46.28l-44.94-25.2v49.54l-41.86 23.47v-48.68l-44.17 24.77-42.63-23.91V689.4c1.3-.33 2.26-1.47 2.26-2.83.0-.27-.05-.52-.12-.77l40.88-22.92.39-.22v-50.41l-44.17 24.77-43.4-24.34-43.4 24.34-42.63-23.91V565.3l44.17-24.77-44.17-24.77v-49.55l-44.56 24.99-.39.22v47.82l-39.72-22.27c.07-.25.12-.5.12-.77.0-1.36-.96-2.5-2.26-2.83v-94.09l43.01-24.12.39-.22v-50.41l-44.56 24.99-.39.22v48.68l-42.63 23.91-41.86-23.48L579 395.16l.39-.22v-50.41l-44.56 24.99-.39.22v96.5l-39.72-22.27c.07-.25.12-.5.12-.77.0-1.36-.96-2.5-2.26-2.83v-46.28l-42.63-23.91 41.86-23.47.77.43v-.87l.77-.43-.77-.43v-48.68l-41.26-23.14c.07-.25.12-.5.12-.77.0-1.62-1.36-2.94-3.03-2.94-1.67.0-3.03 1.32-3.03 2.94.0 1.36.96 2.5 2.26 2.83v45.41l-44.17 24.77 43.4 24.34-42.24 23.69-.39.22v48.68l-.77.43.77.43v48.68l42.61 23.9-42.26 23.7-.39.21v50.41l44.56-24.99.39-.22v-47.83l.03.02v-49.54l40.48-22.7c.37.37.85.63 1.38.76v46.28l42.63 23.9-42.24 23.69-.39.22v48.7l-40.44 22.68c-.55-.54-1.31-.87-2.15-.87-1.67.0-3.03 1.32-3.03 2.94.0 1.36.96 2.5 2.26 2.83v94.04l-43.08 24.16-.39.22v50.41l.07-.04v47.85l43.4 24.34v.87l.77-.43.77.43v-.86l43.01-24.12.39-.22v-50.41L450.6 806.2c-.55-.54-1.31-.87-2.15-.87s-1.6.33-2.15.87l-39.74-22.29 41.12-23.06v.05l44.17-24.77 44.17 24.77v-49.56l42.98-24.1.39-.22v-46.28c1.3-.33 2.26-1.47 2.26-2.83.0-1.62-1.36-2.94-3.03-2.94s-3.03 1.32-3.03 2.94c0 .27.05.52.12.77l-40.88 22.92-.39.22v47.79l-41.82-23.45v-96.51l42.59-23.89 44.17 24.77v-49.54l40.48-22.7c.37.37.85.63 1.38.76v46.28l41.26 23.14c-.07.25-.12.5-.12.77s.05.52.12.77l-40.88 22.92-.39.22v97.3L581.01 733c-.55-.75-1.44-1.24-2.46-1.24-1.67.0-3.03 1.32-3.03 2.94.0 1.36.96 2.5 2.26 2.83v47.69l43.4-24.34v47.81l44.94 25.2v-50.41l-42.59-23.88 41.88-23.49 40.49 22.71c-.07.25-.12.5-.12.77.0 1.62 1.36 2.94 3.03 2.94s3.03-1.32 3.03-2.94c0-1.36-.96-2.5-2.26-2.83v-94.09l42.63-23.91 41.86 23.48-42.24 23.69-.39.22v48.68l-.77.43.77.43v47.82l-43.01 24.12-.39.22v50.41l44.56-24.99.39-.22v-47.81l41.86 23.47v.87l.77-.43 44.17 24.77v-47.14c.53-.14 1.01-.4 1.38-.76l40.48 22.7v49.53l43.4-24.34v.01l44.56-24.99.39-.22V760.9l39.72 22.27c-.07.25-.12.5-.12.77.0 1.62 1.36 2.94 3.03 2.94s3.03-1.32 3.03-2.94C1015.64 782.57 1014.68 781.44 1013.39 781.1zM535.98 370.6l41.86-23.47v46.95l-41.86 23.47V370.6zM447.61 564.45l-41.86 23.47v-46.94l41.86-23.47V564.45zm43.46 220.77v46.95l-41.86 23.47v-44.55c1.3-.33 2.26-1.47 2.26-2.83.0-.27-.05-.52-.12-.77L491.07 785.22zm-43.4 25.87v44.55l-41.86-23.47v-46.95l39.72 22.27c-.07.25-.12.5-.12.77C445.42 809.63 446.38 810.76 447.67 811.09zm477.37-27.6-41.86 23.47v-46.94l41.86-23.47V783.49zM838.24 781.1c-.53.14-1 .4-1.38.76l-39.71-22.27 41.09-23.04V781.1zm-41.85-70.61v-46.95l39.72 22.27c-.07.25-.12.5-.12.77.0 1.36.96 2.5 2.26 2.83v44.55L796.39 710.49zm41.85-26.75c-.53.14-1 .4-1.38.76l-39.71-22.27 41.09-23.04v44.55zm-42.63 28.04 41.86 23.47-19.01 10.66-22.84 12.81-41.86-23.47 19.01-10.66L795.61 711.78zM796.39 760.89l39.72 22.28c-.07.25-.12.5-.12.77s.05.52.12.77l-39.72 22.28V760.89zm85.25-99.08-40.48 22.7c-.37-.37-.85-.63-1.38-.76v-45.41l41.86-23.47V661.81zM666.18 586.39v-44.55l41.86 23.47v46.95l-39.72-22.27c.07-.25.12-.5.12-.77C668.44 587.86 667.48 586.72 666.18 586.39zM666.18 592.06c.53-.14 1.01-.4 1.38-.76l39.71 22.27-41.08 23.04V592.06zm42.63-28.04-41.86-23.47 20.53-11.51 21.33-11.96 41.86 23.47-41.86 23.47zM666.18 492.3l41.86-23.48v46.95l-41.86 23.47V492.3zm-43.4-121.7 41.86-23.47v46.95l-41.86 23.47V370.6zM621.24 467.1l-13.69 7.68-28.16 15.79v-46.95l41.86-23.47V467.1zm-43.4 72.15-20.93-11.74-20.93-11.74v-46.94l20.93 11.74 20.93 11.74v46.94zm-41.86-119.1 41.86 23.47v46.95l-20.93-11.74-20.93-11.74V420.15zm-44.94 20.21c-.53.14-1 .4-1.38.76l-40.48-22.7v-46.95l41.86 23.47v45.42zm0-142.77v46.95l-41.86-23.48v-45.41c.53-.14 1-.4 1.38-.76l40.48 22.7zm-42.63 24.77 41.86 23.48-41.09 23.04v0l-.77.43-.77-.43v0l-41.09-23.04 41.86-23.48zM405.78 394.95l41.86-23.47v46.95l-41.86 23.47V394.95zm0 49.54 41.86 23.48v46.95l-41.86-23.47V444.49zM448.41 466.67l-41.86-23.48 19.01-10.66 22.84-12.81 40.49 22.71c-.07.25-.12.5-.12.77s.05.52.12.77L448.41 466.67zm44.17-20.65c.53-.14 1-.4 1.38-.76l40.48 22.7v46.94l-41.86-23.47V446.02zm0 94.96 41.86-23.47v46.94l-41.86 23.47V540.98zM449.22 616.4c1.3-.33 2.26-1.47 2.26-2.83.0-.27-.05-.52-.12-.77l39.72-22.27v46.95l-41.86 23.47V616.4zm41.85 69.74-41.86 23.47v-46.94l41.86-23.47V686.14zm-43.46 73.01-41.86 23.47v-46.95l41.86-23.48v46.96zM449.22 711.35l41.86-23.47v46.94l-41.86 23.47V711.35zM535.98 662.67l40.48-22.7c.37.37.85.63 1.38.76v45.41l-41.86 23.47V662.67zM534.47 712.19v46.1l-41.86-23.47v-46.94l41.82 23.45v.88L534.47 712.19zm43.37-124.27-41.86-23.47V517.5l20.93 11.74 20.93 11.74V587.92zM579.38 539.25V492.3l23.92-13.41 17.94-10.06v44.54c-1.3.33-2.26 1.47-2.26 2.83.0.27.05.52.12.77l-39.72 22.28zm43.4 25.2v-45.41c.53-.14 1-.4 1.38-.76l40.48 22.7v45.41c-.53.14-1 .4-1.38.76l-40.48-22.7zm0 49.55 40.48-22.7c.37.37.85.63 1.38.76v45.41l-.77.43-41.09 23.04V614zm0 97.35 41.86-23.47v46.94l-41.86 23.47V711.35zm41.86-25.21-41.86 23.47v-46.94l41.86-23.47V686.14zM579.32 782.62v-45.09c1.3-.33 2.26-1.47 2.26-2.83.0-.09-.02-.18-.03-.27l39.63-22.23v46.95l-41.86 23.47zm85.25 48.68-41.86-23.47v-46.95l41.86 23.47V831.3zM708.04 756.76c-.53.14-1 .4-1.38.76l-40.48-22.7v-46.94l41.86 23.47V756.76zm-41.86-70.62V639.2l41.86 23.48v46.94L666.18 686.14zm42.63-24.77-41.86-23.48 41.86-23.47.77.43v0l41.09 23.04L708.81 661.37zM795.61 614.42l41.86 23.47-41.09 23.04v0l-.77.43-.77-.43v0l-41.09-23.04 41.86-23.47zm-42.62 72.59 41.86-23.47v46.95l-41.86 23.47V687.01zM751.44 832.18l-41.86 23.47v-46.94l41.86-23.47V832.18zM752.99 783.5v-46.95l41.86 23.47v46.95L752.99 783.5zm44.17 24.78 39.71-22.27c.37.37.85.63 1.38.76v44.55l-41.09-23.04zm42.63-27.18v-44.55l41.86 23.47v46.95l-39.72-22.27c.07-.25.12-.5.12-.76C842.04 782.57 841.08 781.44 839.79 781.1zM883.19 855.64v-46.93l41.86-23.48v46.94L883.19 855.64zm85.25-47.8-41.86 23.47v-46.95l41.86-23.47v46.95zM969.99 759.16v-46.95l41.86 23.47v45.41c-.53.14-1 .4-1.38.76L969.99 759.16zm1140.18-22.42-43.4-24.34 42.24-23.69.39-.22v-48.68l.77-.43-.77-.43v-48.68l-42.61-23.9 42.26-23.7.39-.22v-50.41l-44.56 24.99-.39.22v47.83l-.03-.02v49.55l-40.48 22.7c-.37-.37-.85-.63-1.38-.76V541.6l-43.4-24.34v-48.68l-41.26-23.14c.07-.25.12-.5.12-.77s-.05-.52-.12-.77l40.87-22.92.39-.22v-47.79l41.82 23.45v98.22l42.02-23.57c.55.54 1.31.87 2.15.87 1.67.0 3.03-1.32 3.03-2.94.0-1.36-.96-2.5-2.26-2.83v-94.03l43.08-24.16.39-.22v-50.41l-43.47 24.38v-.05l-44.17 24.77-44.17-24.77v49.56l-42.98 24.1-.39.22v46.28c-1.3.33-2.26 1.47-2.26 2.83.0 1.36.96 2.5 2.26 2.83v46.28l43.4 24.34v47.81l-41.86 23.47v-47.82l-43.4-24.34v-.87l-.77.43-.77-.43v.86l-43.01 24.12-.39.22V592l42.02-23.57c.55.54 1.31.87 2.15.87s1.6-.33 2.15-.87l40.48 22.7v98.23l44.17-24.77 42.63 23.91 42.63 23.91-41.86 23.48-.77-.43v.87l-.77.43.77.43v48.68l43.4 24.34v45.41c-1.3.33-2.26 1.47-2.26 2.83.0 1.62 1.36 2.94 3.03 2.94s3.03-1.32 3.03-2.94c0-.27-.05-.52-.12-.77l40.88-22.92.39-.22v-50.41l-43.4 24.34v-46.95L2110.17 736.74zM2066.03 518.12l41.86-23.47v46.94l-41.86 23.47V518.12zM2107.85 687.62 2066 711.1v-46.95l41.86-23.47V687.62zm0-49.54L2066 614.61v-46.95l41.86 23.48V638.08zM2065.22 615.9l41.86 23.47-19.01 10.66-22.84 12.81-40.49-22.71c.07-.25.12-.5.12-.77s-.05-.52-.12-.77L2065.22 615.9zM2021.05 591.14v45.41c-.53.14-1.01.4-1.38.76l-19.55-10.96-20.93-11.74v-46.94l20.93 11.74L2021.05 591.14zM2022.56 396.43l41.86-23.47v46.95l-41.86 23.47V396.43zm0 95.62V445.1l41.86-23.47v44.54c-1.3.33-2.26 1.47-2.26 2.83.0.27.05.52.12.77L2022.56 492.05zM2066.03 323.42l41.86-23.47v46.95l-41.86 23.47V323.42zM2064.42 371.22l-41.86 23.47v-46.94l41.86-23.47V371.22zM1979.16 324.28l41.86 23.47v46.94l-41.82-23.45v-.88l-.03.02v-46.1zM1977.65 372.95v46.95l-40.48 22.7c-.37-.37-.85-.63-1.38-.76v-45.41L1977.65 372.95zM1935.79 492.92V447.5c.53-.14 1-.39 1.37-.76l40.48 22.7v46.94L1935.79 492.92zm85.26 49.54v46.94l-20.93-11.74-20.93-11.74v-46.95L2021.05 542.46zM1848.99 589.4v-46.95l41.86-23.47v44.55c-1.3.33-2.26 1.47-2.26 2.83.0.27.05.52.12.76L1848.99 589.4zM1892.39 563.53v-44.55l41.86 23.47v46.94l-39.72-22.27c.07-.24.12-.5.12-.76C1894.65 565 1893.69 563.86 1892.39 563.53zM1935.79 591.14l41.86-23.47v46.94l-41.86 23.47V591.14zm0 48.67 41.86-23.47v46.95l-41.86 23.47V639.81zM1979.19 663.29v-46.94l20.93 11.74 18.79 10.54c-.07.25-.12.5-.12.76.0 1.36.96 2.5 2.26 2.83v44.55L1979.19 663.29zM2022.6 642.21c.53-.14 1-.4 1.38-.76l40.48 22.7v46.95l-41.86-23.47V642.21zM2064.45 713.69l.77-.43.77.43v0l41.09 23.04-41.86 23.47-41.86-23.47L2064.45 713.69zM2022.6 738.04l41.86 23.47v46.95l-41.86-23.47V738.04zM2107.85 786.71v46.95l-40.48 22.7c-.37-.37-.85-.63-1.38-.76v-45.41L2107.85 786.71zm-256.6-293.36c0-.27-.05-.52-.12-.77l40.88-22.92.39-.21v-97.3l40.24-22.57c.55.75 1.44 1.24 2.46 1.24 1.67.0 3.03-1.32 3.03-2.94.0-1.36-.96-2.5-2.26-2.83v-47.69l-43.4 24.34v-47.81l-44.94-25.2v50.41l42.59 23.88-41.88 23.49-40.49-22.71c.07-.25.12-.5.12-.77.0-1.62-1.36-2.94-3.03-2.94s-3.03 1.32-3.03 2.94c0 1.36.96 2.5 2.26 2.83v44.54 49.55l-42.63 23.91-41.86-23.47 42.24-23.69.39-.22v-48.68l.77-.43-.77-.43v-47.81l43.01-24.12.39-.22v-50.41l-44.56 24.99-.39.22v47.81l-41.86-23.47V273l-.77.43-44.17-24.77v47.14c-.53.14-1.01.4-1.38.76l-40.48-22.7v-49.53l-43.4 24.34v-.01l-44.56 24.99-.39.22v47.81l-41.86-23.47v-.87l-.77.43-.77-.43v.87l-42.63 23.91-44.17-24.77v49.54l-41.86 23.47v-47.81l-44.94-25.2v0l-43.4-24.34v49.55l-40.48 22.7c-.55-.54-1.31-.87-2.15-.87-1.67.0-3.03 1.32-3.03 2.94s1.36 2.94 3.03 2.94c.84.0 1.6-.33 2.15-.87l40.48 22.7v49.55l44.56-24.99.39-.22v-47.81l41.86 23.47v49.54l42.02-23.57c.37.37.85.63 1.38.76v46.28l44.94 25.2v-48.68l43.4 24.34v-50.41l-42.63-23.9 41.85-23.47 44.18 24.77v-49.54l41.86-23.47v95.63l-43.01 24.12-.39.21v50.41l42.02-23.57c.55.54 1.31.87 2.15.87 1.67.0 3.03-1.32 3.03-2.94.0-1.36-.96-2.5-2.26-2.83v-45.42l43.01-24.13.39-.22v-47.81l41.86 23.47v45.41c-1.3.33-2.26 1.47-2.26 2.83.0.27.05.52.12.77l-40.88 22.92-.39.22v50.41l44.17-24.77 43.4 24.34 43.4-24.34 43.4 24.34 42.63-23.91v44.54c-1.3.33-2.26 1.47-2.26 2.83.0 1.62 1.36 2.94 3.03 2.94C1849.89 496.29 1851.25 494.97 1851.25 493.35zM1890.85 468.57l-40.48 22.7c-.37-.37-.85-.63-1.38-.76V445.1l.77-.43 41.09-23.04v46.94zm-85.26-95.62 41.86 23.47v46.95l-41.86-23.47V372.95zM1848.99 396.43l41.86-23.47v46.95l-41.86 23.47V396.43zM1890.85 371.22l-41.86 23.47v-46.94l41.86-23.47V371.22zm43.47-71.27v45.09c-1.3.33-2.26 1.47-2.26 2.83.0.09.02.18.03.28l-39.63 22.23v-46.95L1934.32 299.95zm-85.26-48.68 41.86 23.47v46.95l-41.86-23.47V251.27zm-43.47 74.54c.53-.14 1-.4 1.38-.76l40.48 22.7v46.94l-41.86-23.47V325.81zM1718.02 370.79l-41.86-23.47 19.01-10.66 22.84-12.81 41.86 23.47-19.01 10.66L1718.02 370.79zM1675.39 301.47c.53-.14 1-.4 1.38-.76l39.71 22.27-41.09 23.04V301.47zM1717.25 321.68l-39.72-22.27c.07-.25.12-.5.12-.77s-.05-.52-.12-.77l39.72-22.27V321.68zm0 50.41v46.95l-39.72-22.28c.07-.25.12-.5.12-.76.0-1.36-.96-2.5-2.26-2.83v-44.55L1717.25 372.09zM1675.39 398.83c.53-.14 1-.4 1.38-.76l39.71 22.27-41.09 23.04V398.83zM1760.65 395.56l-41.86 23.48v-46.95l41.86-23.47v46.94zM1762.19 250.39l41.86-23.47v46.95l-41.86 23.47V250.39zM1760.65 299.07v46.95l-41.86-23.47V275.6L1760.65 299.07zM1716.48 274.29l-39.71 22.27c-.37-.37-.85-.63-1.38-.76v-44.55L1716.48 274.29zm-86.03-47.36v46.94l-41.86 23.47V250.4L1630.45 226.93zm-130.2 73v46.94l-41.86 23.47V323.4L1500.25 299.93zm-85.26.0 41.86 23.47v46.94l-20.93-11.74-20.93-11.74V299.93zM1456.85 419.03l-20.93-11.74-18.79-10.54c.07-.25.12-.5.12-.77.0-1.36-.96-2.5-2.26-2.83V348.6l20.93 11.74 20.93 11.74v46.95zm-86.8-48.68-41.86-23.47v-46.95l41.86 23.47v46.95zM1284.79 275.59l41.86 23.48v46.95l-41.86-23.47V275.59zM1243.53 346.54l40.49-22.71 41.86 23.47-19.01 10.66-22.84 12.81-40.49-22.71c.07-.25.12-.5.12-.77S1243.6 346.79 1243.53 346.54zM1326.65 395.56l-41.86 23.48v-46.95l41.86-23.47v46.94zM1371.59 419.03v-46.94l41.86-23.47v44.55c-1.3.33-2.26 1.47-2.26 2.83.0.27.05.52.12.77L1371.59 419.03zm85.26 48.67-41.86-23.47v-45.41c.53-.14 1-.4 1.38-.76l19.55 10.96 20.93 11.74V467.7zM1500.25 443.37l-41.86-23.47v-46.94l41.86 23.47V443.37zM1543.65 370.36l-41.86-23.47v-46.95l41.86 23.47v46.95zM1545.19 321.68v-46.94l41.86-23.47v46.94L1545.19 321.68zm85.26-46.07v46.94l-41.86 23.47v-46.93L1630.45 275.61zm-85.26 192.11v-46.95l41.86-23.47v44.55c-1.3.33-2.26 1.47-2.26 2.83.0.27.05.52.12.77L1545.19 467.72zm85.26-96.5-41.86 23.48v-46.95l41.86-23.47V371.22zM1631.99 275.6l39.72 22.27c-.07.25-.12.5-.12.76.0 1.36.96 2.5 2.26 2.83v44.55l-41.86-23.47V275.6zm0 145.17 40.48-22.7c.37.37.85.63 1.38.76v45.41l-41.86 23.47V420.77zm86.03 47.38-41.86-23.47 41.09-23.04v0l.77-.43.77.43v0l41.09 23.04L1718.02 468.15zM1762.96 444.67l41.86-23.47 41.86 23.47-41.86 23.47L1762.96 444.67z"/></g></g></g><g id="Capa_1"><g><path class="st2" d="M742.48 595.14l61.98-73.09 125.04 73.09H742.48z"/><path class="st3" d="M742.48 595.14H929.5l-150.31 45.72-36.71-45.72z"/><path class="st4" d="M742.48 447.34l61.98 74.7-35.85 42.27-26.13-32.29V447.34z"/><path class="st3" d="M702.43 539.42H515.41l150.31-45.72L702.43 539.42z"/><path class="st2" d="M702.43 539.44l-61.98 73.09-125.04-73.09H702.43z"/><path class="st4" d="M702.43 687.22l-61.98-74.7 35.85-42.27 26.13 32.29V687.22z"/><path class="st5" d="M1076.19 628.04h22.54l-57.97-108.89-57.99 108.89h22.55l12.46-23.39h45.94l12.47 23.39zM1028.4 584.72l12.36-23.23 12.37 23.23H1028.4z"/><path class="st5" d="M1145.12 628.04h-21.09v-98.87l66.28 54.07v-54.49h21.09v98.88l-66.28-54.08v54.49z"/><path class="st5" d="M1344.38 528.71l-39.05 52.55.02 46.32h-21.09v-46.32l-38.62-52.54h21.09l28.08 35.17 28.5-35.17L1344.38 528.71z"/><path class="st5" d="M1850.32 528.77h-47.83c-27.41-.02-49.65 22.18-49.68 49.6-.02 27.41 22.18 49.65 49.6 49.68h49.78V568h-51.58v20.8h30.76v18.44h-28.87c-15.92.13-28.93-12.68-29.06-28.6-.13-15.92 12.68-28.93 28.6-29.06.15.0.31.0.46.0h49.7v-20.8H1850.32z"/><path class="st5" d="M1535.43 548.44h55.01v-19.92h-55.01c-15.82.03-28.64 12.85-28.67 28.67v42.14c.02 15.82 12.84 28.65 28.67 28.67h55.01V608.1h-55.01c-4.85-.01-8.77-3.93-8.78-8.78V588.2h53.77v-19.9h-53.76v-11.12c0-4.85 3.93-8.78 8.78-8.78"/><path class="st5" d="M1916.28 548.44h55.01v-19.92h-55.01c-15.82.02-28.64 12.84-28.67 28.67v42.14c.02 15.82 12.84 28.65 28.67 28.67h55.01V608.1h-55.01c-4.85.0-8.77-3.93-8.78-8.78V588.2h53.77v-19.9h-53.76v-11.12c0-4.85 3.93-8.78 8.78-8.78"/><path class="st5" d="M1471.28 528.76v99.28h-21.1v-39.15h-57.13v39.15h-21.08v-99.28h21.08v39.11h57.15v-39.11H1471.28z"/><path class="st5" d="M1630.3 530.68h44.23c9.69-.2 19.28 1.87 28.02 6.05 7.8 3.76 14.36 9.67 18.91 17.04 8.99 15.88 8.99 35.31.0 51.18-4.54 7.37-11.11 13.28-18.91 17.04-8.74 4.17-18.34 6.25-28.02 6.05h-44.23V530.68zM1673.41 609.54c8.53.43 16.89-2.48 23.3-8.13 11.59-12.41 11.59-31.68.0-44.09-6.41-5.65-14.77-8.57-23.3-8.14h-20.58v60.36H1673.41z"/></g></g></svg>