<?xml version="1.0" encoding="utf-8"?>
<!-- Generator: Adobe Illustrator 27.3.1, SVG Export Plug-In . SVG Version: 6.00 Build 0)  -->
<svg version="1.1" xmlns="http://www.w3.org/2000/svg" xmlns:xlink="http://www.w3.org/1999/xlink" x="0px" y="0px"
	 viewBox="0 0 2225.88 1021.18" style="enable-background:new 0 0 2225.88 1021.18;" xml:space="preserve">
<style type="text/css">
	.st0{fill:url(#SVGID_1_);}
	
		.st1{clip-path:url(#SVGID_00000015327962562267074460000001471452563427476920_);fill:url(#SVGID_00000050650755612519742000000017421425785873430158_);}
	.st2{fill:#16CC6E;}
	.st3{fill:#28F789;}
	.st4{fill:#2E8551;}
	.st5{fill:#232933;}
</style>
<g id="Capa_2">
	<g>
		<linearGradient id="SVGID_1_" gradientUnits="userSpaceOnUse" x1="1254.8616" y1="300.5779" x2="1254.8616" y2="839.3729">
			<stop  offset="0" style="stop-color:#575756"/>
			<stop  offset="0.1714" style="stop-color:#4F625C;stop-opacity:0.9486"/>
			<stop  offset="0.4738" style="stop-color:#39806C;stop-opacity:0.8579"/>
			<stop  offset="0.8691" style="stop-color:#17B085;stop-opacity:0.7393"/>
			<stop  offset="1" style="stop-color:#0AC18E;stop-opacity:0.7"/>
		</linearGradient>
		<rect x="404.47" y="286.79" class="st0" width="1700.79" height="566.93"/>
		<g>
			<defs>
				<rect id="SVGID_00000022555900807244084060000002245298000991455668_" x="404.47" y="286.79" width="1700.79" height="566.93"/>
			</defs>
			<clipPath id="SVGID_00000137129181920524920430000000558654798029425822_">
				<use xlink:href="#SVGID_00000022555900807244084060000002245298000991455668_"  style="overflow:visible;"/>
			</clipPath>
			
				<linearGradient id="SVGID_00000134953184919748579530000011808241742567679900_" gradientUnits="userSpaceOnUse" x1="403.4679" y1="542.8489" x2="2110.167" y2="542.8489">
				<stop  offset="0" style="stop-color:#FFFFFF"/>
				<stop  offset="5.028069e-03" style="stop-color:#1D1D1B;stop-opacity:0.3"/>
				<stop  offset="1" style="stop-color:#F6F6F6;stop-opacity:0.3"/>
			</linearGradient>
			
				<path style="clip-path:url(#SVGID_00000137129181920524920430000000558654798029425822_);fill:url(#SVGID_00000134953184919748579530000011808241742567679900_);" d="
				M1013.39,781.1v-46.28l-44.94-25.2v49.54l-41.86,23.47v-48.68l-44.17,24.77l-42.63-23.91v-45.41c1.3-0.33,2.26-1.47,2.26-2.83
				c0-0.27-0.05-0.52-0.12-0.77l40.88-22.92l0.39-0.22v-50.41l-44.17,24.77l-43.4-24.34l-43.4,24.34l-42.63-23.91v-47.81
				l44.17-24.77l-44.17-24.77v-49.55l-44.56,24.99l-0.39,0.22v47.82l-39.72-22.27c0.07-0.25,0.12-0.5,0.12-0.77
				c0-1.36-0.96-2.5-2.26-2.83v-94.09l43.01-24.12l0.39-0.22v-50.41l-44.56,24.99l-0.39,0.22v48.68l-42.63,23.91l-41.86-23.48
				L579,395.16l0.39-0.22v-50.41l-44.56,24.99l-0.39,0.22v96.5l-39.72-22.27c0.07-0.25,0.12-0.5,0.12-0.77
				c0-1.36-0.96-2.5-2.26-2.83v-46.28l-42.63-23.91l41.86-23.47l0.77,0.43v-0.87l0.77-0.43l-0.77-0.43v-48.68l-41.26-23.14
				c0.07-0.25,0.12-0.5,0.12-0.77c0-1.62-1.36-2.94-3.03-2.94c-1.67,0-3.03,1.32-3.03,2.94c0,1.36,0.96,2.5,2.26,2.83v45.41
				l-44.17,24.77l43.4,24.34l-42.24,23.69l-0.39,0.22v48.68l-0.77,0.43l0.77,0.43v48.68l42.61,23.9l-42.26,23.7l-0.39,0.21v50.41
				l44.56-24.99l0.39-0.22v-47.83l0.03,0.02v-49.54l40.48-22.7c0.37,0.37,0.85,0.63,1.38,0.76v46.28l42.63,23.9l-42.24,23.69
				l-0.39,0.22v48.7l-40.44,22.68c-0.55-0.54-1.31-0.87-2.15-0.87c-1.67,0-3.03,1.32-3.03,2.94c0,1.36,0.96,2.5,2.26,2.83v94.04
				l-43.08,24.16l-0.39,0.22v50.41l0.07-0.04v47.85l43.4,24.34v0.87l0.77-0.43l0.77,0.43v-0.86l43.01-24.12l0.39-0.22v-50.41
				l-42.02,23.57c-0.55-0.54-1.31-0.87-2.15-0.87c-0.84,0-1.6,0.33-2.15,0.87l-39.74-22.29l41.12-23.06v0.05l44.17-24.77
				l44.17,24.77v-49.56l42.98-24.1l0.39-0.22v-46.28c1.3-0.33,2.26-1.47,2.26-2.83c0-1.62-1.36-2.94-3.03-2.94
				c-1.67,0-3.03,1.32-3.03,2.94c0,0.27,0.05,0.52,0.12,0.77l-40.88,22.92l-0.39,0.22v47.79l-41.82-23.45v-96.51l42.59-23.89
				l44.17,24.77v-49.54l40.48-22.7c0.37,0.37,0.85,0.63,1.38,0.76v46.28l41.26,23.14c-0.07,0.25-0.12,0.5-0.12,0.77
				c0,0.27,0.05,0.52,0.12,0.77l-40.88,22.92l-0.39,0.22v97.3L581.01,733c-0.55-0.75-1.44-1.24-2.46-1.24
				c-1.67,0-3.03,1.32-3.03,2.94c0,1.36,0.96,2.5,2.26,2.83v47.69l43.4-24.34v47.81l44.94,25.2v-50.41l-42.59-23.88l41.88-23.49
				l40.49,22.71c-0.07,0.25-0.12,0.5-0.12,0.77c0,1.62,1.36,2.94,3.03,2.94c1.67,0,3.03-1.32,3.03-2.94c0-1.36-0.96-2.5-2.26-2.83
				v-94.09l42.63-23.91l41.86,23.48l-42.24,23.69l-0.39,0.22v48.68l-0.77,0.43l0.77,0.43v47.82l-43.01,24.12l-0.39,0.22v50.41
				l44.56-24.99l0.39-0.22v-47.81l41.86,23.47v0.87l0.77-0.43l44.17,24.77v-47.14c0.53-0.14,1.01-0.4,1.38-0.76l40.48,22.7v49.53
				l43.4-24.34v0.01l44.56-24.99l0.39-0.22v-47.81l39.72,22.27c-0.07,0.25-0.12,0.5-0.12,0.77c0,1.62,1.36,2.94,3.03,2.94
				c1.67,0,3.03-1.32,3.03-2.94C1015.64,782.57,1014.68,781.44,1013.39,781.1z M535.98,370.6l41.86-23.47v46.95l-41.86,23.47V370.6z
				 M447.61,564.45l-41.86,23.47v-46.94l41.86-23.47V564.45z M491.07,785.22v46.95l-41.86,23.47v-44.55
				c1.3-0.33,2.26-1.47,2.26-2.83c0-0.27-0.05-0.52-0.12-0.77L491.07,785.22z M447.67,811.09v44.55l-41.86-23.47v-46.95l39.72,22.27
				c-0.07,0.25-0.12,0.5-0.12,0.77C445.42,809.63,446.38,810.76,447.67,811.09z M925.04,783.49l-41.86,23.47v-46.94l41.86-23.47
				V783.49z M838.24,781.1c-0.53,0.14-1,0.4-1.38,0.76l-39.71-22.27l41.09-23.04V781.1z M796.39,710.49v-46.95l39.72,22.27
				c-0.07,0.25-0.12,0.5-0.12,0.77c0,1.36,0.96,2.5,2.26,2.83v44.55L796.39,710.49z M838.24,683.74c-0.53,0.14-1,0.4-1.38,0.76
				l-39.71-22.27l41.09-23.04V683.74z M795.61,711.78l41.86,23.47l-19.01,10.66l-22.84,12.81l-41.86-23.47l19.01-10.66
				L795.61,711.78z M796.39,760.89l39.72,22.28c-0.07,0.25-0.12,0.5-0.12,0.77c0,0.27,0.05,0.52,0.12,0.77l-39.72,22.28V760.89z
				 M881.64,661.81l-40.48,22.7c-0.37-0.37-0.85-0.63-1.38-0.76v-45.41l41.86-23.47V661.81z M666.18,586.39v-44.55l41.86,23.47
				v46.95l-39.72-22.27c0.07-0.25,0.12-0.5,0.12-0.77C668.44,587.86,667.48,586.72,666.18,586.39z M666.18,592.06
				c0.53-0.14,1.01-0.4,1.38-0.76l39.71,22.27l-41.08,23.04V592.06z M708.81,564.02l-41.86-23.47l20.53-11.51l21.33-11.96
				l41.86,23.47L708.81,564.02z M666.18,492.3l41.86-23.48v46.95l-41.86,23.47V492.3z M622.78,370.6l41.86-23.47v46.95l-41.86,23.47
				V370.6z M621.24,467.1l-13.69,7.68l-28.16,15.79v-46.95l41.86-23.47V467.1z M577.84,539.25l-20.93-11.74l-20.93-11.74v-46.94
				l20.93,11.74l20.93,11.74V539.25z M535.98,420.15l41.86,23.47v46.95l-20.93-11.74l-20.93-11.74V420.15z M491.04,440.36
				c-0.53,0.14-1,0.4-1.38,0.76l-40.48-22.7v-46.95l41.86,23.47V440.36z M491.04,297.59v46.95l-41.86-23.48v-45.41
				c0.53-0.14,1-0.4,1.38-0.76L491.04,297.59z M448.41,322.36l41.86,23.48l-41.09,23.04v0l-0.77,0.43l-0.77-0.43v0l-41.09-23.04
				L448.41,322.36z M405.78,394.95l41.86-23.47v46.95l-41.86,23.47V394.95z M405.78,444.49l41.86,23.48v46.95l-41.86-23.47V444.49z
				 M448.41,466.67l-41.86-23.48l19.01-10.66l22.84-12.81l40.49,22.71c-0.07,0.25-0.12,0.5-0.12,0.77c0,0.27,0.05,0.52,0.12,0.77
				L448.41,466.67z M492.58,446.02c0.53-0.14,1-0.4,1.38-0.76l40.48,22.7v46.94l-41.86-23.47V446.02z M492.58,540.98l41.86-23.47
				v46.94l-41.86,23.47V540.98z M449.22,616.4c1.3-0.33,2.26-1.47,2.26-2.83c0-0.27-0.05-0.52-0.12-0.77l39.72-22.27v46.95
				l-41.86,23.47V616.4z M491.07,686.14l-41.86,23.47v-46.94l41.86-23.47V686.14z M447.61,759.15l-41.86,23.47v-46.95l41.86-23.48
				V759.15z M449.22,711.35l41.86-23.47v46.94l-41.86,23.47V711.35z M535.98,662.67l40.48-22.7c0.37,0.37,0.85,0.63,1.38,0.76v45.41
				l-41.86,23.47V662.67z M534.47,712.19v46.1l-41.86-23.47v-46.94l41.82,23.45v0.88L534.47,712.19z M577.84,587.92l-41.86-23.47
				V517.5l20.93,11.74l20.93,11.74V587.92z M579.38,539.25V492.3l23.92-13.41l17.94-10.06v44.54c-1.3,0.33-2.26,1.47-2.26,2.83
				c0,0.27,0.05,0.52,0.12,0.77L579.38,539.25z M622.78,564.45v-45.41c0.53-0.14,1-0.4,1.38-0.76l40.48,22.7v45.41
				c-0.53,0.14-1,0.4-1.38,0.76L622.78,564.45z M622.78,614l40.48-22.7c0.37,0.37,0.85,0.63,1.38,0.76v45.41l-0.77,0.43l0,0
				l-41.09,23.04V614z M622.78,711.35l41.86-23.47v46.94l-41.86,23.47V711.35z M664.64,686.14l-41.86,23.47v-46.94l41.86-23.47
				V686.14z M579.32,782.62v-45.09c1.3-0.33,2.26-1.47,2.26-2.83c0-0.09-0.02-0.18-0.03-0.27l39.63-22.23v46.95L579.32,782.62z
				 M664.57,831.3l-41.86-23.47v-46.95l41.86,23.47V831.3z M708.04,756.76c-0.53,0.14-1,0.4-1.38,0.76l-40.48-22.7v-46.94
				l41.86,23.47V756.76z M666.18,686.14V639.2l41.86,23.48v46.94L666.18,686.14z M708.81,661.37l-41.86-23.48l41.86-23.47l0.77,0.43
				v0l41.09,23.04L708.81,661.37z M795.61,614.42l41.86,23.47l-41.09,23.04v0l-0.77,0.43l-0.77-0.43v0l-41.09-23.04L795.61,614.42z
				 M752.99,687.01l41.86-23.47v46.95l-41.86,23.47V687.01z M751.44,832.18l-41.86,23.47v-46.94l41.86-23.47V832.18z M752.99,783.5
				v-46.95l41.86,23.47v46.95L752.99,783.5z M797.16,808.28l39.71-22.27c0.37,0.37,0.85,0.63,1.38,0.76v44.55L797.16,808.28z
				 M839.79,781.1v-44.55l41.86,23.47v46.95l-39.72-22.27c0.07-0.25,0.12-0.5,0.12-0.76C842.04,782.57,841.08,781.44,839.79,781.1z
				 M883.19,855.64v-46.93l41.86-23.48v46.94L883.19,855.64z M968.44,807.84l-41.86,23.47v-46.95l41.86-23.47V807.84z
				 M969.99,759.16v-46.95l41.86,23.47v45.41c-0.53,0.14-1,0.4-1.38,0.76L969.99,759.16z M2110.17,736.74l-43.4-24.34l42.24-23.69
				l0.39-0.22v-48.68l0.77-0.43l-0.77-0.43v-48.68l-42.61-23.9l42.26-23.7l0.39-0.22v-50.41l-44.56,24.99l-0.39,0.22v47.83
				l-0.03-0.02v49.55l-40.48,22.7c-0.37-0.37-0.85-0.63-1.38-0.76V541.6l-43.4-24.34v-48.68l-41.26-23.14
				c0.07-0.25,0.12-0.5,0.12-0.77c0-0.27-0.05-0.52-0.12-0.77l40.87-22.92l0.39-0.22v-47.79l41.82,23.45v98.22l42.02-23.57
				c0.55,0.54,1.31,0.87,2.15,0.87c1.67,0,3.03-1.32,3.03-2.94c0-1.36-0.96-2.5-2.26-2.83v-94.03l43.08-24.16l0.39-0.22v-50.41
				l-43.47,24.38v-0.05l-44.17,24.77l-44.17-24.77v49.56l-42.98,24.1l-0.39,0.22v46.28c-1.3,0.33-2.26,1.47-2.26,2.83
				c0,1.36,0.96,2.5,2.26,2.83v46.28l43.4,24.34v47.81l-41.86,23.47v-47.82l-43.4-24.34v-0.87l-0.77,0.43l-0.77-0.43v0.86
				l-43.01,24.12l-0.39,0.22V592l42.02-23.57c0.55,0.54,1.31,0.87,2.15,0.87s1.6-0.33,2.15-0.87l40.48,22.7v98.23l44.17-24.77
				l42.63,23.91l0,0l42.63,23.91l-41.86,23.48l-0.77-0.43v0.87l-0.77,0.43l0.77,0.43v48.68l43.4,24.34v45.41
				c-1.3,0.33-2.26,1.47-2.26,2.83c0,1.62,1.36,2.94,3.03,2.94s3.03-1.32,3.03-2.94c0-0.27-0.05-0.52-0.12-0.77l40.88-22.92
				l0.39-0.22v-50.41l-43.4,24.34v-46.95L2110.17,736.74z M2066.03,518.12l41.86-23.47v46.94l-41.86,23.47V518.12z M2107.85,687.62
				L2066,711.1v-46.95l41.86-23.47V687.62z M2107.85,638.08L2066,614.61v-46.95l41.86,23.48V638.08z M2065.22,615.9l41.86,23.47
				l-19.01,10.66l-22.84,12.81l-40.49-22.71c0.07-0.25,0.12-0.5,0.12-0.77c0-0.27-0.05-0.52-0.12-0.77L2065.22,615.9z
				 M2021.05,591.14v45.41c-0.53,0.14-1.01,0.4-1.38,0.76l-19.55-10.96l-20.93-11.74v-46.94l20.93,11.74L2021.05,591.14z
				 M2022.56,396.43l41.86-23.47v46.95l-41.86,23.47V396.43z M2022.56,492.05V445.1l41.86-23.47v44.54
				c-1.3,0.33-2.26,1.47-2.26,2.83c0,0.27,0.05,0.52,0.12,0.77L2022.56,492.05z M2066.03,323.42l41.86-23.47v46.95l-41.86,23.47
				V323.42z M2064.42,371.22l-41.86,23.47v-46.94l41.86-23.47V371.22z M1979.16,324.28l41.86,23.47v46.94l-41.82-23.45v-0.88
				l-0.03,0.02V324.28z M1977.65,372.95v46.95l-40.48,22.7c-0.37-0.37-0.85-0.63-1.38-0.76v-45.41L1977.65,372.95z M1935.79,492.92
				V447.5c0.53-0.14,1-0.39,1.37-0.76l40.48,22.7v46.94L1935.79,492.92z M2021.05,542.46v46.94l-20.93-11.74l-20.93-11.74v-46.95
				L2021.05,542.46z M1848.99,589.4v-46.95l41.86-23.47v44.55c-1.3,0.33-2.26,1.47-2.26,2.83c0,0.27,0.05,0.52,0.12,0.76
				L1848.99,589.4z M1892.39,563.53v-44.55l41.86,23.47v46.94l-39.72-22.27c0.07-0.24,0.12-0.5,0.12-0.76
				C1894.65,565,1893.69,563.86,1892.39,563.53z M1935.79,591.14l41.86-23.47v46.94l-41.86,23.47V591.14z M1935.79,639.81
				l41.86-23.47v46.95l-41.86,23.47V639.81z M1979.19,663.29v-46.94l20.93,11.74l18.79,10.54c-0.07,0.25-0.12,0.5-0.12,0.76
				c0,1.36,0.96,2.5,2.26,2.83v44.55L1979.19,663.29z M2022.6,642.21c0.53-0.14,1-0.4,1.38-0.76l40.48,22.7v46.95l-41.86-23.47
				V642.21z M2064.45,713.69L2064.45,713.69l0.77-0.43l0.77,0.43v0l41.09,23.04l-41.86,23.47l-41.86-23.47L2064.45,713.69z
				 M2022.6,738.04l41.86,23.47v46.95l-41.86-23.47V738.04z M2107.85,786.71v46.95l-40.48,22.7c-0.37-0.37-0.85-0.63-1.38-0.76
				v-45.41L2107.85,786.71z M1851.25,493.35c0-0.27-0.05-0.52-0.12-0.77l40.88-22.92l0.39-0.21v-97.3l40.24-22.57
				c0.55,0.75,1.44,1.24,2.46,1.24c1.67,0,3.03-1.32,3.03-2.94c0-1.36-0.96-2.5-2.26-2.83v-47.69l-43.4,24.34v-47.81l-44.94-25.2
				v50.41l42.59,23.88l-41.88,23.49l-40.49-22.71c0.07-0.25,0.12-0.5,0.12-0.77c0-1.62-1.36-2.94-3.03-2.94s-3.03,1.32-3.03,2.94
				c0,1.36,0.96,2.5,2.26,2.83v44.54l0,0v49.55l-42.63,23.91l-41.86-23.47l42.24-23.69l0.39-0.22v-48.68l0.77-0.43l-0.77-0.43
				v-47.81l43.01-24.12l0.39-0.22v-50.41l-44.56,24.99l-0.39,0.22v47.81l-41.86-23.47V273l-0.77,0.43l-44.17-24.77v47.14
				c-0.53,0.14-1.01,0.4-1.38,0.76l-40.48-22.7v-49.53l-43.4,24.34v-0.01l-44.56,24.99l-0.39,0.22v47.81l-41.86-23.47v-0.87
				l-0.77,0.43l-0.77-0.43v0.87l-42.63,23.91l-44.17-24.77v49.54l-41.86,23.47v-47.81l-44.94-25.2v0l-43.4-24.34v49.55l-40.48,22.7
				c-0.55-0.54-1.31-0.87-2.15-0.87c-1.67,0-3.03,1.32-3.03,2.94s1.36,2.94,3.03,2.94c0.84,0,1.6-0.33,2.15-0.87l40.48,22.7v49.55
				l44.56-24.99l0.39-0.22v-47.81l41.86,23.47v49.54l42.02-23.57c0.37,0.37,0.85,0.63,1.38,0.76v46.28l44.94,25.2v-48.68l43.4,24.34
				v-50.41l-42.63-23.9l41.85-23.47l44.18,24.77v-49.54l41.86-23.47v95.63l-43.01,24.12l-0.39,0.21v50.41l42.02-23.57
				c0.55,0.54,1.31,0.87,2.15,0.87c1.67,0,3.03-1.32,3.03-2.94c0-1.36-0.96-2.5-2.26-2.83v-45.42l43.01-24.13l0.39-0.22v-47.81
				l41.86,23.47v45.41c-1.3,0.33-2.26,1.47-2.26,2.83c0,0.27,0.05,0.52,0.12,0.77l-40.88,22.92l-0.39,0.22v50.41l44.17-24.77
				l43.4,24.34l43.4-24.34l43.4,24.34l42.63-23.91v44.54c-1.3,0.33-2.26,1.47-2.26,2.83c0,1.62,1.36,2.94,3.03,2.94
				C1849.89,496.29,1851.25,494.97,1851.25,493.35z M1890.85,468.57l-40.48,22.7c-0.37-0.37-0.85-0.63-1.38-0.76V445.1l0.77-0.43
				l0,0l41.09-23.04V468.57z M1805.59,372.95l41.86,23.47v46.95l-41.86-23.47V372.95z M1848.99,396.43l41.86-23.47v46.95
				l-41.86,23.47V396.43z M1890.85,371.22l-41.86,23.47v-46.94l41.86-23.47V371.22z M1934.32,299.95v45.09
				c-1.3,0.33-2.26,1.47-2.26,2.83c0,0.09,0.02,0.18,0.03,0.28l-39.63,22.23v-46.95L1934.32,299.95z M1849.06,251.27l41.86,23.47
				v46.95l-41.86-23.47V251.27z M1805.59,325.81c0.53-0.14,1-0.4,1.38-0.76l40.48,22.7v46.94l-41.86-23.47V325.81z M1718.02,370.79
				l-41.86-23.47l19.01-10.66l22.84-12.81l41.86,23.47l-19.01,10.66L1718.02,370.79z M1675.39,301.47c0.53-0.14,1-0.4,1.38-0.76
				l39.71,22.27l-41.09,23.04V301.47z M1717.25,321.68l-39.72-22.27c0.07-0.25,0.12-0.5,0.12-0.77c0-0.27-0.05-0.52-0.12-0.77
				l39.72-22.27V321.68z M1717.25,372.09v46.95l-39.72-22.28c0.07-0.25,0.12-0.5,0.12-0.76c0-1.36-0.96-2.5-2.26-2.83v-44.55
				L1717.25,372.09z M1675.39,398.83c0.53-0.14,1-0.4,1.38-0.76l39.71,22.27l-41.09,23.04V398.83z M1760.65,395.56l-41.86,23.48
				v-46.95l41.86-23.47V395.56z M1762.19,250.39l41.86-23.47v46.95l-41.86,23.47V250.39z M1760.65,299.07v46.95l-41.86-23.47v-46.95
				L1760.65,299.07z M1716.48,274.29l-39.71,22.27c-0.37-0.37-0.85-0.63-1.38-0.76v-44.55L1716.48,274.29z M1630.45,226.93v46.94
				l-41.86,23.47V250.4L1630.45,226.93z M1500.25,299.93v46.94l-41.86,23.47v-46.94L1500.25,299.93z M1414.99,299.93l41.86,23.47
				v46.94l-20.93-11.74l-20.93-11.74V299.93z M1456.85,419.03l-20.93-11.74l-18.79-10.54c0.07-0.25,0.12-0.5,0.12-0.77
				c0-1.36-0.96-2.5-2.26-2.83v-44.55l20.93,11.74l20.93,11.74V419.03z M1370.05,370.35l-41.86-23.47v-46.95l41.86,23.47V370.35z
				 M1284.79,275.59l41.86,23.48v46.95l-41.86-23.47V275.59z M1243.53,346.54l40.49-22.71l41.86,23.47l-19.01,10.66l-22.84,12.81
				l-40.49-22.71c0.07-0.25,0.12-0.5,0.12-0.77S1243.6,346.79,1243.53,346.54z M1326.65,395.56l-41.86,23.48v-46.95l41.86-23.47
				V395.56z M1371.59,419.03v-46.94l41.86-23.47v44.55c-1.3,0.33-2.26,1.47-2.26,2.83c0,0.27,0.05,0.52,0.12,0.77L1371.59,419.03z
				 M1456.85,467.7l-41.86-23.47v-45.41c0.53-0.14,1-0.4,1.38-0.76l19.55,10.96l20.93,11.74V467.7z M1500.25,443.37l-41.86-23.47
				v-46.94l41.86,23.47V443.37z M1543.65,370.36l-41.86-23.47v-46.95l41.86,23.47V370.36z M1545.19,321.68v-46.94l41.86-23.47v46.94
				L1545.19,321.68z M1630.45,275.61v46.94l-41.86,23.47v-46.93L1630.45,275.61z M1545.19,467.72v-46.95l41.86-23.47v44.55
				c-1.3,0.33-2.26,1.47-2.26,2.83c0,0.27,0.05,0.52,0.12,0.77L1545.19,467.72z M1630.45,371.22l-41.86,23.48v-46.95l41.86-23.47
				V371.22z M1631.99,275.6l39.72,22.27c-0.07,0.25-0.12,0.5-0.12,0.76c0,1.36,0.96,2.5,2.26,2.83v44.55l-41.86-23.47V275.6z
				 M1631.99,420.77l40.48-22.7c0.37,0.37,0.85,0.63,1.38,0.76v45.41l-41.86,23.47V420.77z M1718.02,468.15l-41.86-23.47
				l41.09-23.04v0l0.77-0.43l0.77,0.43v0l41.09,23.04L1718.02,468.15z M1762.96,444.67l41.86-23.47l41.86,23.47l-41.86,23.47
				L1762.96,444.67z"/>
		</g>
	</g>
</g>
<g id="Capa_1">
	<g>
		<path class="st2" d="M742.48,595.14l61.98-73.09l125.04,73.09H742.48z"/>
		<path class="st3" d="M742.48,595.14H929.5l-150.31,45.72L742.48,595.14z"/>
		<path class="st4" d="M742.48,447.34l61.98,74.7l-35.85,42.27l-26.13-32.29V447.34z"/>
		<path class="st3" d="M702.43,539.42H515.41l150.31-45.72L702.43,539.42z"/>
		<path class="st2" d="M702.43,539.44l-61.98,73.09l-125.04-73.09H702.43z"/>
		<path class="st4" d="M702.43,687.22l-61.98-74.7l35.85-42.27l26.13,32.29V687.22z"/>
		<path class="st5" d="M1076.19,628.04h22.54l-57.97-108.89l-57.99,108.89h22.55l12.46-23.39h45.94L1076.19,628.04z M1028.4,584.72
			l12.36-23.23l12.37,23.23H1028.4z"/>
		<path class="st5" d="M1145.12,628.04h-21.09v-98.87l66.28,54.07v-54.49h21.09v98.88l-66.28-54.08V628.04z"/>
		<path class="st5" d="M1344.38,528.71l-39.05,52.55l0.02,46.32h-21.09v-46.32l-38.62-52.54h21.09l28.08,35.17l28.5-35.17
			L1344.38,528.71z"/>
		<path class="st5" d="M1850.32,528.77h-47.83c-27.41-0.02-49.65,22.18-49.68,49.6c-0.02,27.41,22.18,49.65,49.6,49.68l0,0h49.78
			V568h-51.58v20.8h30.76v18.44h-28.87c-15.92,0.13-28.93-12.68-29.06-28.6c-0.13-15.92,12.68-28.93,28.6-29.06
			c0.15,0,0.31,0,0.46,0h49.7v-20.8H1850.32z"/>
		<path class="st5" d="M1535.43,548.44h55.01v-19.92h-55.01c-15.82,0.03-28.64,12.85-28.67,28.67v42.14
			c0.02,15.82,12.84,28.65,28.67,28.67h55.01V608.1h-55.01c-4.85-0.01-8.77-3.93-8.78-8.78v-11.12h53.77v-19.9h-53.76v-11.12
			c0-4.85,3.93-8.78,8.78-8.78"/>
		<path class="st5" d="M1916.28,548.44h55.01v-19.92h-55.01c-15.82,0.02-28.64,12.84-28.67,28.67v42.14
			c0.02,15.82,12.84,28.65,28.67,28.67h55.01V608.1h-55.01c-4.85,0-8.77-3.93-8.78-8.78v-11.12h53.77v-19.9h-53.76v-11.12
			c0-4.85,3.93-8.78,8.78-8.78"/>
		<path class="st5" d="M1471.28,528.76v99.28h-21.1v-39.15h-57.13v39.15h-21.08v-99.28h21.08v39.11h57.15v-39.11H1471.28z"/>
		<path class="st5" d="M1630.3,530.68h44.23c9.69-0.2,19.28,1.87,28.02,6.05c7.8,3.76,14.36,9.67,18.91,17.04
			c8.99,15.88,8.99,35.31,0,51.18c-4.54,7.37-11.11,13.28-18.91,17.04c-8.74,4.17-18.34,6.25-28.02,6.05h-44.23V530.68z
			 M1673.41,609.54c8.53,0.43,16.89-2.48,23.3-8.13c11.59-12.41,11.59-31.68,0-44.09c-6.41-5.65-14.77-8.57-23.3-8.14h-20.58v60.36
			L1673.41,609.54z"/>
	</g>
</g>
</svg>
